<svg width="256" height="256" viewBox="0 0 256 256" fill="none" xmlns="http://www.w3.org/2000/svg">
<rect width="256" height="256" fill="#D6A94D"/>
<path d="M181.883 172.098C182.133 170.558 182.384 169.019 182.491 167.48C182.67 164.974 182.563 162.469 182.42 159.963C182.241 157.386 182.026 154.809 181.883 152.231C181.883 151.659 181.668 151.623 181.202 151.73C179.484 152.16 178.017 153.055 176.692 154.164C173.721 156.563 171.037 159.319 168.459 162.147C161.157 170.2 155.287 179.221 150.777 189.1C149.81 191.248 148.772 193.324 147.197 195.078C146.947 195.364 146.732 195.508 146.302 195.508C123.787 195.508 101.272 195.508 78.7573 195.508H78.113C79.6163 194.505 79.7595 192.894 80.4038 191.534C81.6209 188.921 82.7663 186.308 84.3055 183.874C85.4867 182.013 85.3435 180.33 83.9117 178.648C83.6254 178.326 83.2674 178.111 82.8737 178.004C81.764 177.717 80.6544 177.359 79.5805 176.966C79.1152 176.787 78.9362 176.966 78.8289 177.359C78.7215 177.753 78.6499 178.147 78.5783 178.576C78.3993 179.543 77.934 179.937 76.9675 179.686C72.9585 178.684 68.9852 177.467 65.3341 175.391C61.6831 173.315 59.4996 170.022 58.3183 166.084C57.6024 163.65 56.9223 161.18 56.4928 158.675C56.3496 157.744 56.4212 156.777 56.3496 155.847C56.278 154.952 55.9917 154.129 55.4905 153.377C54.2019 151.408 52.9491 149.439 52.09 147.256C51.1951 145.001 51.1235 142.71 51.7679 140.383C52.3406 138.271 53.6292 137.913 55.3116 139.345C55.7053 139.667 55.9917 140.061 56.278 140.455C56.457 140.741 56.6718 141.028 56.8865 141.314C57.0655 141.529 57.3519 141.708 57.6382 141.6C57.9604 141.493 57.8888 141.207 57.8888 140.956C57.8888 137.842 57.7456 134.692 57.4593 131.578C57.2803 129.752 57.1013 127.891 56.6718 126.101C56.2422 124.311 55.4189 122.736 54.2019 121.34C52.0184 118.871 49.7991 116.472 47.902 113.752C47.723 113.501 47.5083 113.322 47.3293 113.108C47.0429 112.821 46.7566 112.606 46.327 112.821C45.8975 113.036 45.7901 113.43 45.8975 113.859C46.0407 114.432 46.1838 114.969 46.3628 115.506C46.7924 116.759 47.2219 118.011 47.7946 119.228C48.5821 120.911 48.081 121.698 46.2554 121.734C43.9646 121.734 41.9242 120.947 39.9913 119.801C38.309 118.799 37.0561 117.367 36.1255 115.685C34.2641 112.284 32.7965 108.705 31.9732 104.875C31.6153 103.228 31.5437 101.546 31.6153 99.8276C31.6153 99.1117 31.5079 98.6105 30.8636 98.2168C30.0045 97.7157 29.6824 96.8208 29.4676 95.8901C28.5369 91.8095 28.4295 87.6931 28.9665 83.5767C29.0023 83.2545 29.0738 82.9681 29.1454 82.6818C29.3602 81.7869 29.1454 80.9994 28.6443 80.2835C28.2148 79.7108 28 79.1023 28 78.3864C28 76.5608 28 74.7353 28 72.9098C28 71.7643 28.6801 70.9768 29.6466 70.4041C30.8636 69.6882 32.2596 69.4734 33.6198 69.1513C35.0516 68.8291 36.4834 68.5428 37.9152 68.2922C38.7027 68.149 39.4186 67.8627 40.0629 67.4689C42.0316 66.2877 44.1793 65.4286 46.4344 65.2138C49.1548 64.9633 51.7321 65.6076 54.0229 67.0394C55.2758 67.8269 56.3854 67.9701 57.6024 67.0394C58.3899 66.4667 59.3206 66.3951 60.2513 66.3235C63.7234 66.0371 67.2313 65.8939 70.7034 66.3235C72.1352 66.5025 73.4596 66.2161 74.8198 65.8939C77.2897 65.2496 79.7595 64.6411 82.3368 64.6769C83.0527 64.6769 83.6254 64.3548 84.0907 63.8178C85.2362 62.6008 86.5248 61.5628 88.2071 61.2764C89.6747 61.0258 91.1781 60.99 92.6099 61.4196C95.3303 62.2071 98.0508 62.0639 100.771 61.4912C103.814 60.8111 106.892 60.8827 109.97 61.3122C112.154 61.6343 114.337 61.9923 116.485 62.565C117.165 62.744 117.881 62.7082 118.561 62.565C121.21 61.8491 123.931 61.527 126.615 61.169C129.908 60.7395 133.237 60.3457 136.53 60.0952C138.463 59.952 140.432 59.9162 142.365 60.3815C143.081 60.5605 143.725 60.8469 144.298 61.2764C147.627 63.782 150.848 66.3951 153.784 69.3303C155.323 70.8337 157.041 71.9433 159.117 72.6592C168.066 75.7734 176.943 79.0307 185.605 82.8608C189.865 84.7579 193.588 87.4425 196.881 90.6641C205.615 99.1117 214.313 107.523 222.904 116.114C224.479 117.689 226.018 119.3 227.557 120.911C228.165 121.519 228.13 121.663 227.557 122.271C227.235 122.593 226.877 122.915 226.555 123.273C226.054 123.882 225.517 124.455 224.622 124.311C224.335 124.276 224.049 124.419 223.763 124.562C214.528 129.609 206.51 136.267 199.1 143.676C196.415 146.361 194.411 149.547 192.442 152.733C189.757 157.1 187.144 161.538 184.603 165.977C183.493 167.91 182.742 169.986 181.883 172.026V172.098Z" fill="#0C0909"/>
<path d="M96.9411 72.0869C95.1155 71.8005 93.469 72.5522 91.8224 73.1607C90.5338 73.6618 89.1736 74.0198 88.0281 74.9147C87.0975 75.6306 86.3458 76.4896 85.6299 77.3845C85.3435 77.7425 85.1645 77.7783 84.8066 77.4561C83.9475 76.6328 83.16 75.7379 82.4441 74.7715C82.0862 74.3061 81.6924 73.8408 81.1913 73.5187C80.9049 73.3397 80.7975 73.0891 81.0123 72.7312C81.7282 71.5141 82.8021 70.834 84.1623 70.5835C84.7708 70.4761 84.8782 70.5835 84.6634 71.1562C84.556 71.4068 84.6634 71.5857 84.8424 71.7647C85.0571 71.9437 85.2719 71.9079 85.4867 71.7647C85.6657 71.6573 85.773 71.4783 85.8446 71.2994C86.9185 68.9011 88.6366 67.2187 91.1423 66.4313C91.3928 66.3597 91.6434 66.2523 91.8582 66.0733C93.1468 65.1784 94.5428 65.1068 95.9388 65.7512C97.3348 66.3597 98.695 67.0398 100.019 67.7199C101.093 68.2926 102.203 68.3642 103.348 68.0062C105.89 67.1829 108.503 66.7176 111.152 66.646C113.192 66.6102 115.197 66.8608 117.165 67.4335C118.346 67.7915 119.492 68.221 120.637 68.6863C121.461 69.0443 122.248 68.9727 122.892 68.2568C123.215 67.9346 123.573 67.7199 124.002 67.6125C126.794 66.7534 129.514 65.608 132.378 64.9279C134.275 64.4625 136.208 64.033 138.141 63.6035C138.571 63.4961 138.964 63.4245 139.394 63.2813C140.969 62.816 142.222 63.1739 143.081 64.6057C143.832 65.5364 144.727 66.2881 145.551 67.1472C145.765 67.3977 145.98 67.6483 146.195 67.8988C146.302 68.042 146.446 68.1494 146.267 68.3284C146.123 68.4716 145.944 68.4 145.801 68.3284C145.407 68.042 145.085 67.7199 144.799 67.3261C144.477 66.9324 144.119 66.5744 143.797 66.1449C143.224 65.4648 142.436 65.3932 141.649 65.5364C140.969 65.6796 140.289 65.8585 139.68 66.2165C138.248 66.8608 136.817 67.3977 135.421 68.1136C133.703 69.0085 132.056 70.0108 130.481 71.0846C130.123 71.3352 129.837 71.6573 129.514 71.9437C129.3 72.409 129.55 72.588 129.98 72.6596C130.23 72.6954 130.517 72.6596 130.767 72.5522C131.591 72.2658 132.485 72.1584 133.345 72.0511C133.416 72.0511 133.524 72.0511 133.595 72.0511C136.029 72.5522 138.463 72.3374 140.897 72.2658C142.687 72.1942 143.832 73.0175 144.906 74.1988C146.517 75.9527 147.913 77.8499 149.166 79.8902C149.381 80.2481 149.595 80.6061 149.846 80.9998C150.383 82.0379 150.956 83.0401 151.457 84.0782C151.457 84.0782 151.6 84.4003 151.707 84.5793C152.065 84.8657 151.922 85.4384 152.387 85.6889C152.316 84.8299 152.137 84.0782 151.994 83.2907C151.922 82.7538 151.636 82.2884 151.636 81.7515C151.242 80.8208 151.027 79.8544 150.669 78.9237C150.598 78.7447 150.669 78.53 150.669 78.3152C150.669 78.0288 150.812 77.8856 151.099 77.9572C152.674 78.2436 154.285 78.0646 155.86 77.9572C157.077 77.8856 158.115 78.4584 159.224 78.7447C159.511 78.8163 159.833 78.8879 160.083 78.9953C162.41 79.8544 164.737 80.6777 167.063 81.5367C170.965 83.0043 174.867 84.5435 178.697 86.1901C181.489 87.4071 184.281 88.6599 187.037 90.0201C189.507 91.2372 192.012 92.4184 194.339 93.886C194.59 94.0292 194.804 94.2081 195.019 94.3871C195.27 94.6019 195.162 94.7451 194.912 94.7451C194.16 94.7451 193.408 94.8883 192.657 94.8883C192.227 94.8883 191.869 94.5661 191.511 94.2797C190.294 93.3491 189.042 92.4542 187.681 91.7025C185.104 90.2707 182.348 89.2326 179.52 88.4452C176.227 87.5503 172.862 86.9776 169.462 86.6912C167.171 86.4764 164.88 86.3333 162.589 86.2975C161.766 86.2975 160.942 86.5122 160.119 86.4048C160.012 86.4048 159.833 86.4048 159.797 86.548C159.761 86.727 159.904 86.7986 160.048 86.8702C160.871 87.3355 161.694 87.8008 162.517 88.2662C163.663 88.8747 164.773 89.519 165.918 90.1275C166.884 90.6287 167.636 91.4161 168.424 92.0962C171.753 94.9598 174.473 98.3246 176.477 102.19C177.193 103.551 177.623 105.018 178.196 106.414C179.019 108.49 179.985 110.459 180.594 112.643C181.095 114.432 181.489 116.222 181.775 118.048C182.026 119.766 182.24 121.52 182.312 123.238C182.312 123.524 182.384 123.846 182.061 123.99C181.704 124.169 181.489 123.846 181.31 123.596C180.308 122.236 179.377 120.84 178.375 119.479C176.442 116.938 174.437 114.432 172.254 112.07C169.533 109.099 166.526 106.486 163.198 104.231C162.696 103.909 162.553 103.336 162.052 103.05C159.296 100.615 156.432 98.3246 153.604 95.9263C152.352 94.8525 151.027 93.886 149.703 92.9195C147.376 91.2014 144.906 89.6622 142.401 88.2304C140.396 87.085 138.32 86.1185 136.137 85.3668C135.743 85.2236 135.6 85.2236 135.027 85.3668C135.421 85.8321 135.993 86.0111 136.423 86.3333C138.678 87.8724 140.539 89.7696 142.222 91.9173C142.866 92.7764 143.475 93.6354 144.047 94.5303C144.513 95.2104 144.441 95.3894 143.653 95.6757C143.439 95.7473 143.224 95.7831 143.009 95.8905C142.58 96.1053 142.544 96.2843 142.866 96.6422C143.51 97.3581 144.262 97.9666 144.835 98.7541C145.515 99.649 146.231 100.544 146.839 101.475C147.448 102.369 147.448 102.369 146.589 103.085C147.376 103.443 148.164 103.765 148.915 104.088C151.528 105.197 154.106 106.343 156.54 107.81C156.719 107.918 156.898 108.025 157.041 108.168C157.041 108.168 157.112 108.24 157.148 108.24C160.012 110.173 162.374 112.714 165.059 114.862C165.739 115.399 166.383 115.936 166.992 116.544C167.135 116.687 167.242 116.795 167.35 116.938C167.493 117.153 167.565 117.403 167.457 117.618C167.314 117.904 167.028 117.833 166.813 117.761C166.312 117.618 165.775 117.475 165.274 117.26C162.983 116.329 160.62 115.685 158.222 115.22C157.041 115.005 155.895 114.611 154.678 114.504C152.28 113.931 149.989 113.108 147.842 111.927C147.591 111.783 147.269 111.426 147.018 111.676C146.803 111.891 147.161 112.177 147.269 112.428C148.128 113.895 149.059 115.291 149.846 116.795C150.634 118.334 151.027 119.981 151.457 121.627C151.958 123.632 152.495 125.6 152.817 127.641C152.853 127.927 153.068 128.285 152.71 128.464C152.387 128.643 152.137 128.357 151.886 128.178C149.667 126.531 147.555 124.705 145.372 123.023C144.763 122.558 144.19 122.128 143.475 121.913C142.938 121.734 142.83 121.842 142.866 122.415C142.866 122.737 143.009 123.023 143.152 123.274C144.727 126.459 145.622 129.788 145.443 133.368C145.372 134.692 145.05 135.981 144.477 137.162C142.365 141.493 140.146 145.753 137.998 150.048C137.926 150.227 137.819 150.37 137.712 150.514C137.318 151.373 137.031 152.232 137.067 153.162C137.103 155.632 136.852 158.138 136.781 160.608C136.709 162.791 136.817 164.975 136.888 167.122C136.96 169.02 137.246 170.917 137.783 172.742C137.855 172.993 137.926 173.243 138.105 173.422C138.714 174.031 138.964 174.818 139.143 175.606C140.11 179.329 141.756 182.729 143.546 186.094C143.761 186.488 144.011 186.846 144.298 187.168C144.656 187.561 144.727 187.955 144.477 188.385C144.334 188.599 144.369 188.922 144.19 189.136C144.083 189.53 143.94 189.924 143.725 190.246C143.51 190.771 143.093 191.034 142.472 191.034C135.456 191.034 128.405 191.034 121.389 191.034C120.959 191.034 120.53 190.962 120.172 190.711C118.454 189.566 116.593 188.671 114.803 187.669C114.158 187.311 113.514 187.024 113.514 186.13C113.514 186.022 113.407 185.915 113.335 185.807C112.226 184.769 111.438 183.552 110.937 182.049C110.293 180.116 109.434 178.255 108.682 176.322C108.503 175.856 108.36 175.355 108.181 174.854C108.145 174.747 108.109 174.604 107.966 174.604C107.823 174.604 107.823 174.747 107.787 174.89C107.322 176.358 107.429 177.789 107.68 179.257C107.787 179.937 107.93 180.581 108.038 181.262C108.038 181.405 108.109 181.548 107.966 181.655C107.823 181.763 107.715 181.655 107.572 181.548C105.926 180.438 104.243 179.4 102.847 177.933C101.845 176.895 101.129 175.642 100.27 174.496C99.8405 173.924 99.4467 173.315 98.9814 172.778C97.2632 170.738 97.8717 168.984 100.163 167.767C100.986 167.337 101.917 167.087 102.668 166.514C103.85 165.655 104.673 164.474 105.496 163.292C106.892 161.288 108.038 159.14 108.825 156.814C109.111 155.99 109.219 155.06 109.255 154.165C109.255 153.843 109.04 153.628 109.004 153.341C109.434 153.27 109.505 153.592 109.505 153.878C109.577 154.666 109.505 155.418 109.219 156.169C109.362 156.169 109.398 156.026 109.434 155.954C110.472 153.878 111.796 151.945 112.512 149.726C112.906 148.473 113.729 147.435 114.373 146.326C114.874 145.467 115.197 144.572 115.125 143.569C115.018 142.352 115.447 141.171 115.375 139.954C115.268 138.057 115.089 136.16 114.946 134.263C114.839 133.153 114.946 132.008 114.767 130.898C114.66 130.218 114.588 129.502 114.624 128.822C114.624 128.571 114.481 128.249 114.803 128.106C115.089 127.963 115.268 128.178 115.447 128.321C118.239 130.146 120.315 132.58 121.675 135.623C122.534 137.52 123.429 139.453 124.002 141.457C124.074 141.708 124.145 142.066 124.432 142.066C124.754 142.066 124.718 141.672 124.754 141.422C125.004 139.739 125.148 138.057 125.04 136.339C124.933 134.871 124.79 133.404 124.718 131.9C124.611 130.254 124.396 128.571 124.503 126.925C124.754 122.808 122.928 119.623 120.279 116.723C119.42 115.793 118.346 115.041 117.38 114.218C116.199 113.215 115.232 112.07 114.266 110.889C111.581 107.774 108.61 104.982 105.21 102.656C104.351 102.083 103.635 101.367 103.026 100.58C101.773 98.9689 100.234 97.6803 98.7666 96.3201C98.1223 95.7115 97.5854 94.9956 96.9411 94.4229C96.6189 94.1366 96.2968 93.8502 95.903 93.6354C94.9723 93.1701 94.4712 92.2394 93.7553 91.5593C93.6837 91.4877 93.6479 91.3803 93.7553 91.273C94.507 91.6667 94.9723 92.3826 95.5451 92.9195C95.6882 93.0269 95.8314 93.3133 95.9746 93.2059C96.2252 93.0269 95.9746 92.8479 95.8672 92.7048C94.1849 90.0201 92.7173 87.1923 90.7843 84.6867C90.3906 84.1498 90.498 83.756 91.1423 83.2549C92.1087 83.0043 93.0752 83.0759 94.0775 83.2191C94.865 83.3265 95.6167 83.6128 96.3326 83.935C97.6928 84.5435 99.0888 85.0088 100.485 85.4742C101.809 85.9037 103.062 86.4764 103.993 87.5503C104.243 87.8366 104.53 88.123 104.709 88.481C105.246 89.5548 106.14 90.1275 107.25 90.4497C109.612 91.1298 111.868 91.9889 113.872 93.4207C115.483 94.5303 116.879 95.8547 117.881 97.6087C118.776 99.1479 119.707 100.687 121.031 101.904C121.926 102.692 122.892 103.407 123.859 104.052C124.002 104.123 124.145 104.302 124.288 104.123C124.432 103.98 124.288 103.801 124.145 103.694C122.785 102.047 122.248 100.043 121.747 98.0024C121.461 96.8212 120.888 95.7831 119.886 94.9598C117.738 93.2059 115.447 91.7383 112.941 90.5571C112.047 90.1275 111.223 89.5548 110.4 89.0895C109.541 88.5883 108.861 87.944 108.431 87.0492C108.073 86.3333 107.644 85.6889 107.178 85.0804C107.035 84.8657 106.785 84.6509 106.999 84.3645C107.25 84.0424 107.572 84.1498 107.823 84.2929C108.968 84.8299 110.114 85.4026 111.223 86.0111C112.333 86.6196 113.443 87.1923 114.66 87.5503C114.767 87.5503 114.874 87.6219 115.018 87.6577C115.161 87.6577 115.304 87.6935 115.411 87.5503C115.483 87.4071 115.411 87.2639 115.34 87.1565C115.053 86.7986 114.731 86.4406 114.337 86.1901C113.371 85.5458 112.655 84.6151 112.047 83.6486C111.008 82.0379 109.899 80.4629 108.861 78.8879C108.574 78.4226 108.181 78.0646 107.644 77.9214C107.322 77.8141 106.999 77.6351 106.713 77.4203C106.069 76.955 105.424 76.4538 104.78 76.0243C104.172 75.6306 104.172 75.2368 104.78 74.7715C105.067 74.5209 105.424 74.4493 105.818 74.3777C106.069 74.3777 106.427 74.3777 106.498 74.0914C106.606 73.7334 106.248 73.626 106.033 73.4471C104.852 72.5522 103.599 72.1584 102.096 72.5164C101.165 72.7312 100.234 72.7312 99.2677 72.6238C98.9814 72.588 98.7308 72.4448 98.4445 72.3374C97.9791 72.0511 97.478 71.9437 96.9411 71.8363V72.0869Z" fill="#B07F2C"/>
<path d="M154.714 114.647C155.251 114.575 155.752 114.79 156.289 114.897C157.864 115.184 159.439 115.577 161.014 115.935C162.732 116.293 164.343 117.009 165.954 117.618C166.24 117.725 166.527 117.797 166.849 117.904C167.028 117.976 167.278 118.119 167.386 117.904C167.493 117.689 167.422 117.474 167.243 117.295C166.67 116.759 166.097 116.186 165.489 115.685C164.164 114.539 162.804 113.394 161.48 112.248C160.048 111.031 158.795 109.635 157.148 108.669C157.077 108.633 157.041 108.562 156.969 108.49C157.327 108.275 157.578 108.562 157.793 108.705C159.01 109.635 160.406 110.172 161.766 110.781C161.981 110.888 162.195 110.96 162.553 110.96C161.659 109.779 160.799 108.669 159.869 107.559C158.151 105.483 156.325 103.514 154.535 101.51C154.464 101.438 154.428 101.403 154.356 101.331C154.249 101.188 154.106 101.045 154.213 100.83C154.356 100.651 154.535 100.722 154.714 100.758C155.287 100.901 155.86 101.116 156.397 101.331C157.685 101.832 158.759 102.727 160.048 103.228C160.585 103.407 161.086 103.658 161.623 103.801C161.802 103.872 162.052 103.944 162.231 103.801C162.41 103.622 162.124 103.479 162.088 103.335C162.088 103.228 162.016 103.156 162.088 103.049C163.949 105.018 166.419 106.306 168.352 108.204C169.354 109.206 170.5 110.101 171.502 111.139C173.578 113.358 175.547 115.649 177.408 118.047C178.804 119.837 180.129 121.698 181.417 123.56C181.489 123.631 181.525 123.739 181.632 123.81C181.775 123.918 181.847 124.168 182.062 124.061C182.205 123.953 182.241 123.774 182.241 123.56C182.062 121.161 181.811 118.763 181.346 116.401C181.059 114.969 180.737 113.537 180.272 112.141C179.198 109.027 177.874 106.056 176.657 103.013C175.798 100.866 174.437 99.0043 173.006 97.2145C172.075 96.0333 171.144 94.852 169.999 93.8856C168.674 92.7401 167.529 91.3441 165.99 90.4851C164.522 89.6618 163.019 88.8385 161.515 88.051C160.907 87.7288 160.334 87.3709 159.761 87.0487C159.618 86.9772 159.439 86.9056 159.511 86.6908C159.582 86.5118 159.761 86.3686 159.94 86.4044C161.444 86.5834 162.911 86.1539 164.415 86.4044C165.238 86.5476 166.133 86.476 166.992 86.5476C170.715 86.7624 174.402 87.2635 178.017 88.0868C181.131 88.8027 184.102 89.805 186.93 91.2726C188.612 92.1316 190.187 93.1697 191.655 94.3509C192.371 94.9236 193.087 95.0668 193.946 94.8878C194.232 94.8163 194.554 94.8163 194.876 94.8163C195.091 94.8163 195.127 94.7447 195.055 94.5657C195.234 94.5657 195.413 94.6373 195.377 94.852C195.377 95.0668 195.127 95.0668 194.984 95.0668C193.409 94.9952 191.905 95.4606 190.33 95.3532C190.116 95.3532 189.793 95.2458 189.686 95.5679C189.579 95.8901 189.901 96.0333 190.116 96.1407C191.726 97.0713 193.337 97.9304 194.912 98.8969C197.489 100.436 199.959 102.118 202.357 103.908C205.901 106.521 209.087 109.528 212.237 112.606C213.669 114.038 215.1 115.47 216.568 116.83C216.962 117.188 216.926 117.439 216.568 117.761C215.995 118.298 215.351 118.763 214.563 119.049C213.418 119.443 212.487 120.159 211.557 120.911C208.371 123.416 205.328 126.101 202.25 128.786C199.565 131.077 197.561 133.869 195.735 136.804C193.838 139.882 191.726 142.853 190.259 146.146C189.256 148.366 188.004 150.477 187.001 152.697C186.787 153.198 186.608 153.735 186.429 154.236C186.357 154.451 186.321 154.63 186.142 154.773C185.928 154.952 185.713 154.988 185.713 154.63C185.713 153.52 185.677 152.41 185.749 151.301C185.892 149.404 186.035 147.542 185.892 145.645C185.749 143.855 185.677 142.066 185.605 140.312C185.605 139.811 185.498 139.703 184.997 139.918C183.672 140.526 182.527 141.457 181.346 142.28C179.699 143.462 177.981 144.535 176.299 145.717C172.218 148.509 168.245 151.444 164.737 154.988C163.341 156.419 162.124 157.994 160.835 159.498C159.475 161.073 158.115 162.684 156.79 164.294C155.681 165.619 155.036 167.194 154.249 168.661C152.638 171.74 151.027 174.782 149.452 177.861C148.235 180.259 147.233 182.8 146.231 185.306C145.873 186.237 145.515 187.167 144.906 187.991C144.584 188.42 144.656 189.064 144.226 189.458C144.226 189.422 144.226 189.351 144.226 189.351C144.799 188.42 144.226 187.776 143.761 186.988C142.258 184.483 140.969 181.87 140.003 179.113C139.537 177.753 139.108 176.357 138.714 174.961C138.642 174.711 138.535 174.46 138.356 174.317C137.425 173.494 137.425 172.312 137.211 171.239C136.996 170.129 136.924 169.019 136.781 167.91C136.781 167.695 136.709 167.48 136.709 167.229C136.709 165.798 136.602 164.366 136.602 162.934C136.638 159.569 136.781 156.169 136.96 152.804C136.996 152.088 137.175 151.337 137.676 150.728C137.819 150.979 137.712 151.193 137.676 151.444C137.354 152.41 137.246 153.413 137.246 154.415C137.175 157.887 136.853 161.359 137.032 164.831C137.103 166.693 137.032 168.59 137.497 170.415C137.64 170.916 137.819 171.382 137.747 171.919C137.819 171.095 137.747 170.236 137.604 169.449C137.497 168.912 137.533 168.375 137.533 167.838C137.676 163.507 138.535 159.319 140.217 155.31C141.327 152.697 142.58 150.191 144.012 147.757C145.085 145.967 146.267 144.213 147.233 142.352C148.128 140.598 149.202 138.88 149.918 137.019C150.276 136.052 150.526 135.05 150.669 134.048C150.669 133.869 150.705 133.69 150.777 133.511C150.956 132.938 151.278 132.831 151.672 133.224C152.746 134.298 153.855 135.336 154.714 136.589C155.824 138.2 156.719 139.954 157.363 141.779C157.363 141.851 157.399 141.887 157.435 141.958C157.506 142.101 157.506 142.316 157.721 142.316C157.936 142.316 157.936 142.101 158.007 141.958C158.294 141.099 158.437 140.204 158.473 139.309C158.58 136.947 158.222 134.62 157.828 132.329C157.506 130.54 157.184 128.714 156.755 126.96C156.289 125.099 155.717 123.273 154.857 121.555C154.356 120.589 154.5 120.231 155.609 120.016C157.506 119.622 159.368 119.085 161.086 118.155C161.515 117.904 161.945 117.653 162.303 117.331C162.661 116.938 162.661 116.83 162.16 116.687C161.229 116.401 160.298 116.222 159.332 116.007C157.936 115.685 156.54 115.434 155.18 115.04C155.001 115.005 154.75 115.04 154.714 114.718V114.647Z" fill="#7D5C26"/>
<path d="M93.7552 91.5589C94.6143 92.3822 95.2228 93.4202 96.3682 93.9929C97.0126 94.3151 97.5137 94.9594 98.0148 95.5679C98.6591 96.3554 99.4824 96.9997 100.234 97.7156C101.129 98.5747 102.06 99.3622 102.811 100.329C103.849 101.653 105.138 102.655 106.498 103.622C109.111 105.483 111.402 107.667 113.514 110.029C114.695 111.354 115.769 112.75 117.058 113.931C118.311 115.04 119.707 116.007 120.852 117.26C122.427 118.942 123.465 120.911 124.181 123.058C124.253 123.273 124.36 123.524 124.432 123.739C124.718 124.669 124.789 125.636 124.718 126.638C124.575 129 124.825 131.327 125.04 133.69C125.291 136.374 125.47 139.023 124.933 141.708C124.861 142.03 124.933 142.531 124.539 142.567C124.074 142.567 124.002 142.066 123.895 141.708C123.071 138.808 121.783 136.088 120.279 133.475C119.134 131.506 117.416 130.074 115.59 128.75C115.375 128.607 115.161 128.213 114.874 128.356C114.552 128.499 114.803 128.893 114.838 129.144C115.053 131.399 115.089 133.69 115.268 135.945C115.411 137.627 115.769 139.309 115.519 140.956C115.304 142.459 115.519 143.999 115.053 145.466C114.731 146.468 114.123 147.327 113.55 148.187C112.727 149.475 112.404 150.943 111.724 152.267C111.008 153.627 110.257 154.952 109.541 156.312C109.469 156.455 109.362 156.598 109.219 156.527C109.075 156.455 109.111 156.24 109.147 156.133C109.362 155.524 109.398 154.88 109.362 154.236C109.362 153.914 109.326 153.663 108.968 153.556C108.574 153.627 108.467 153.985 108.288 154.307C107.93 154.988 107.644 155.668 107.286 156.348C106.999 156.956 106.57 157.422 105.961 157.672C105.603 157.815 105.46 158.066 105.353 158.388C104.887 159.927 103.957 161.144 102.847 162.29C102.525 162.612 102.203 162.934 101.881 163.256C101.344 163.829 100.699 164.223 99.912 164.33C98.6949 164.545 97.4421 164.688 96.1893 164.795C94.7933 164.903 93.5762 164.402 92.395 163.757C92.0371 163.578 91.9655 163.292 92.0013 162.934C92.1086 162.182 92.216 161.431 92.3234 160.679C92.395 160.249 92.3234 159.856 92.3234 159.462C92.3234 159.355 92.3234 159.176 92.1444 159.176C91.9655 159.176 91.8939 159.283 91.8223 159.426C90.7484 162.862 88.5649 165.654 86.5604 168.518C86.3457 168.84 86.0235 169.091 85.8445 169.413C85.0928 170.594 84.0548 170.594 82.8735 170.272C81.7997 169.986 80.7258 169.556 79.5804 169.556C79.3298 169.556 79.0435 169.449 78.9003 169.735C78.7929 170.021 79.0077 170.236 79.1867 170.451C79.3656 170.666 79.5446 170.845 79.7594 171.024C80.1889 171.382 80.0457 171.561 79.6162 171.775C79.2583 171.954 78.9003 171.919 78.5424 171.883C76.9674 171.704 75.3566 171.489 73.7816 171.31C73.4237 171.274 73.1731 170.916 72.7436 171.024C72.7436 171.203 72.851 171.238 72.9225 171.346C73.3879 171.74 73.5311 172.527 73.2089 173.028C72.9225 173.422 72.5646 173.243 72.2424 173.136C70.2737 172.527 68.4124 171.704 66.73 170.451C63.6159 168.124 61.5397 165.153 60.7165 161.287C60.3227 159.426 60.5375 157.636 61.325 155.954C61.5397 155.525 61.5039 155.238 61.1818 154.916C61.1818 154.916 61.1818 154.88 61.2176 154.88C62.1483 155.274 63.2221 155.381 64.0096 156.097C64.0454 156.133 64.0812 156.205 64.0812 156.24C64.0096 156.598 63.7948 156.956 63.8306 157.35C63.8306 157.887 63.938 157.959 64.4033 157.672C65.2982 157.099 66.2289 156.563 67.2311 156.169C68.5198 155.632 69.7726 155.703 71.0254 156.312C72.3856 156.992 73.6742 157.851 75.1776 158.102C76.3947 158.317 77.6117 158.495 78.7929 157.923C78.9003 157.887 79.0435 157.851 79.1509 157.851C79.3298 157.851 79.5446 157.744 79.652 157.959C79.7594 158.173 79.5088 158.209 79.4014 158.317C77.5401 160.428 75.4282 162.326 73.3521 164.223C73.1731 164.366 72.8868 164.545 73.0657 164.831C73.2447 165.153 73.4953 165.082 73.8174 165.046C75.5356 164.831 77.1106 164.187 78.6139 163.364C79.3656 162.97 80.1889 162.755 81.0122 162.719C83.0167 162.612 84.5917 161.466 85.0928 159.713C85.3434 158.818 85.2718 157.851 85.3434 156.885C85.594 153.806 86.3099 150.8 87.0974 147.829C87.2405 147.292 87.4195 146.755 87.5269 146.218C87.8848 144.285 89.245 142.925 90.2831 141.385C92.6814 137.842 95.1154 134.334 97.7643 130.933C98.1938 130.361 98.5159 129.752 98.5159 129C98.6233 124.812 98.0148 120.732 96.6546 116.759C96.1177 115.255 95.2228 113.967 93.97 112.893C93.0035 112.069 92.4666 110.888 91.6791 109.922C88.8871 106.485 86.7394 102.584 84.2338 98.9327C82.1934 95.9259 79.5804 93.5992 76.502 91.7737C75.0702 90.9146 73.7816 89.8049 72.314 88.9459C68.7345 86.834 64.9761 85.1874 60.8238 84.6147C59.1415 84.3999 57.4949 84.6863 55.8483 84.9368C54.5597 85.1158 53.3069 85.3306 52.0183 85.5095C51.8035 85.5453 51.4098 85.5095 51.4098 85.7959C51.4098 86.1896 51.8035 86.0107 51.9825 86.0107C53.4501 86.1896 54.9535 86.0823 56.4569 86.1181C56.4211 86.4402 56.1705 86.476 55.9557 86.5834C54.7387 87.0487 53.4501 87.0487 52.1973 87.2993C48.3314 88.051 45.0383 89.7333 42.3894 92.6685C41.5662 93.5634 40.7071 94.1003 39.4185 93.5992C38.8815 93.3844 38.2014 93.635 37.5929 93.4202C36.7696 93.1339 36.0895 92.5969 35.5526 91.881C35.481 91.7737 35.3736 91.6663 35.302 91.5589C34.7293 90.8788 34.6219 90.9146 34.2282 91.7379C34.1566 91.9168 34.085 92.0958 34.0134 92.239C33.906 92.418 33.9776 92.7043 33.6913 92.7043C33.4765 92.7043 33.4407 92.418 33.3333 92.239C32.51 90.5566 32.2953 88.7669 32.5458 86.9055C32.6174 86.2612 32.689 85.6527 32.7964 85.0084C32.9038 84.3999 33.0827 84.3283 33.6197 84.7221C34.4787 85.3664 35.3736 85.9391 36.3043 86.476C37.1992 87.0129 38.1656 87.4425 39.1679 87.7288C40.4207 88.0868 41.3514 87.693 41.8883 86.476C42.8548 84.3999 44.0002 82.3954 45.4678 80.6056C46.5059 79.3528 47.7587 78.3863 49.2979 77.8136C49.7632 77.6346 50.1927 77.3483 50.6581 77.1335C50.9086 76.9903 51.2308 76.9903 51.4814 76.883C51.9467 76.8114 52.3762 76.8114 52.8416 76.883C53.0921 76.9903 53.3427 77.0261 53.5575 77.1335C53.808 77.2767 54.0944 77.3841 54.3092 77.1335C54.4523 76.9903 54.4165 76.8114 54.2376 76.6682C54.0944 76.4176 53.9154 76.1671 53.7722 75.9165C53.4501 75.3796 53.5933 74.9142 53.9512 74.4489C54.4881 73.8046 55.0251 73.1961 55.741 72.7665C56.0273 72.5876 56.3137 72.516 56.6 72.6949C56.779 72.8381 56.958 72.9455 57.137 73.0887C57.5665 73.2319 57.9245 73.1603 58.2108 72.8381C59.1057 72.0864 59.929 71.2273 60.8596 70.5472C62.4704 69.4018 64.2244 69.6882 65.9425 70.2967C68.6629 71.2631 71.0254 72.8739 73.3521 74.4847C78.9003 78.3505 84.0906 82.6817 89.0303 87.2635C90.4979 88.6237 92.0013 89.9839 93.5046 91.3083L93.7552 91.5589Z" fill="#D6A94D"/>
<path d="M49.5481 109.493C48.9754 108.956 48.6532 108.276 48.2595 107.631C48.1163 107.416 48.2595 107.202 48.4027 107.023C48.9038 106.414 49.2976 105.77 49.6197 105.054C50.2998 103.515 51.6242 102.906 53.1992 102.727C54.5952 102.548 55.9554 102.441 57.3156 102.119C58.0315 101.94 58.3537 102.19 58.7832 102.942C60.6088 106.02 62.1479 109.242 64.1883 112.177C65.0473 113.394 65.978 114.54 66.9445 115.649C67.9825 116.831 69.3785 117.439 70.7745 118.119C72.7433 119.05 73.0654 118.441 74.2824 116.974C74.7836 116.365 74.8552 115.685 74.712 114.898C74.1035 111.891 74.2824 108.848 74.891 105.841C75.0699 105.018 75.2131 104.195 75.3563 103.372C75.4995 102.691 75.75 102.548 76.3943 102.727C78.2557 103.264 80.0454 103.873 81.8352 104.66C83.6965 105.448 84.842 106.915 85.0925 108.884C85.2715 110.459 85.4863 111.998 85.8442 113.537C86.238 115.256 85.9874 117.045 86.1306 118.799C86.2738 120.911 85.8442 122.665 84.2334 124.24C82.8016 125.636 82.3721 127.605 82.1573 129.574C82.0857 130.397 82.05 131.256 82.0142 132.079C82.0142 132.688 82.3363 133.01 82.6943 133.296C83.0522 133.583 83.1596 133.26 83.2312 133.01C83.446 132.258 83.6965 131.506 84.1261 130.862C85.0209 129.502 86.0232 128.249 87.5982 127.676C88.2425 127.426 88.8152 127.139 89.2805 126.638C89.5311 126.388 89.889 126.173 90.2828 126.316C90.7123 126.459 90.6407 126.853 90.6407 127.211C90.6407 128.822 90.7123 130.397 90.3902 132.008C90.1038 133.368 89.6027 134.621 88.8868 135.838C87.455 138.343 86.0948 140.885 84.9851 143.569C84.9493 143.713 84.9493 143.892 84.7704 143.892C84.6272 143.892 84.5198 143.748 84.484 143.605C83.7681 142.281 83.1596 140.885 82.6585 139.453C81.9784 137.627 81.1193 135.945 79.938 134.406C79.5085 133.833 79.2579 133.153 78.8284 132.58C78.1841 131.757 77.3966 131.22 76.287 131.363C75.6427 131.471 75.3921 131.005 75.1057 130.576C74.0319 128.929 72.958 127.283 71.92 125.6C70.8103 123.775 69.2711 122.379 67.6604 121.054C66.2286 119.873 64.7252 118.799 63.1502 117.869C62.6849 117.582 62.2195 117.511 61.6826 117.546C61.5394 117.546 61.3605 117.546 61.3247 117.725C61.2531 117.904 61.3963 117.976 61.5036 118.083C62.0406 118.656 62.6849 119.157 63.0428 119.909C62.6491 119.98 62.5417 119.623 62.3269 119.444C61.2173 118.37 60.5014 117.009 59.3201 116.007C57.3156 114.325 55.3827 112.571 53.3066 111.032C52.4833 110.387 51.6242 109.779 50.8009 109.135C50.3356 108.741 49.7629 108.49 49.1186 108.311C49.0828 108.848 49.7629 109.063 49.5481 109.6V109.493Z" fill="#765523"/>
<path d="M76.6813 98.002C75.9654 98.002 75.4643 97.8231 74.9632 97.6799C73.7104 97.3935 72.4217 97.5009 71.1689 97.5009C70.811 97.5009 70.7036 97.7515 70.6678 98.0736C70.4888 99.2191 70.4888 100.4 70.4172 101.582C70.274 104.266 70.4172 106.915 70.5246 109.6C70.5604 110.423 70.7752 111.21 70.7036 112.069C70.7036 112.213 70.7752 112.427 70.5604 112.499C70.3814 112.571 70.274 112.427 70.1309 112.32C66.444 109.6 64.0457 105.984 62.7929 101.617C62.5065 100.615 62.1844 99.6128 61.8264 98.6464C61.5043 97.7157 60.86 97.2861 59.9651 97.0356C57.2805 96.3197 54.56 96.3913 51.8396 96.964C49.7277 97.3935 47.7948 98.181 46.1124 99.5054C44.609 100.722 43.213 102.083 42.5687 103.908C41.9602 105.662 41.7454 107.524 41.817 109.385C41.9244 111.89 42.4256 114.325 43.6426 116.544C43.7858 116.83 43.8931 117.152 43.571 117.367C43.2846 117.618 42.9625 117.51 42.6761 117.296C41.4591 116.329 40.3494 115.255 39.4904 113.967C38.0944 111.926 36.7342 109.85 35.9109 107.488C35.0518 104.982 34.9086 102.369 35.0518 99.756C35.0518 99.2907 35.3381 98.8969 35.6245 98.539C36.0183 98.002 36.3046 97.3935 36.1972 96.7134C36.1614 96.2839 36.3762 96.2123 36.6984 96.2481C37.1995 96.2839 37.7006 96.3555 38.1302 96.5702C39.025 96.964 39.9915 97.0714 40.958 97.143C41.4949 97.1788 42.1034 97.2503 42.5687 97.5367C43.0699 97.8589 43.3562 97.6799 43.75 97.3219C45.2534 95.8901 46.7925 94.4941 48.5823 93.4203C51.5891 91.559 54.7748 90.3061 58.2827 89.8408C60.9673 89.5186 63.5446 89.9124 65.9786 91.1652C68.3769 92.3822 70.8468 93.4561 73.066 94.9595C74.3189 95.8185 75.5001 96.7134 76.6813 97.9662V98.002Z" fill="#FFFFFC"/>
<path d="M49.5483 109.492C49.5125 109.098 49.1904 108.884 49.0114 108.526C48.9398 108.383 48.6892 108.239 48.904 108.06C49.0472 107.917 49.262 108.06 49.4051 108.096C50.1926 108.383 50.8369 108.848 51.4812 109.349C53.1636 110.673 54.8818 111.926 56.4925 113.322C57.9959 114.611 59.7141 115.756 60.8953 117.403C61.5396 118.298 62.2913 119.049 63.043 119.801C64.1885 121.126 65.0475 122.629 65.8708 124.168C67.231 126.71 68.5912 129.251 69.5219 131.971C69.9157 133.153 70.202 134.37 70.1662 135.658C70.1662 136.553 70.381 137.412 70.6316 138.236C71.1685 140.133 70.8821 141.958 70.3094 143.784C70.1304 144.357 69.8799 144.893 69.7367 145.466C69.3429 147.149 68.0185 147.757 66.5509 148.151C66.0498 148.294 65.5487 148.33 65.0117 148.222C64.7612 148.151 64.3674 148.043 64.2601 148.401C64.1527 148.688 64.5106 148.831 64.6896 149.01C64.7612 149.081 64.9402 149.117 64.9402 149.26C64.3316 149.618 63.6873 149.368 63.0788 149.26C62.5777 149.189 62.1481 148.938 61.6828 148.759C61.6112 148.759 61.5038 148.652 61.5396 148.545C61.826 148.545 61.8976 148.366 61.8618 148.079C61.5038 145.538 61.5754 143.032 62.0766 140.491C62.4703 138.594 62.2197 136.625 61.826 134.728C61.0743 131.077 60.3942 127.39 59.8931 123.703C59.6783 122.164 58.855 120.875 57.9601 119.622C55.7051 116.472 53.0562 113.609 50.5148 110.673C50.1568 110.244 49.8347 109.814 49.5125 109.349L49.5483 109.492Z" fill="#B17D2B"/>
<path d="M113.335 186.13C113.55 186.201 113.622 186.38 113.622 186.559C113.693 187.168 114.123 187.418 114.624 187.705C116.628 188.814 118.669 189.781 120.53 191.105C120.745 191.248 120.995 191.356 121.282 191.356C128.477 191.356 135.671 191.356 142.83 191.356C143.475 191.356 143.403 190.819 143.725 190.604C143.618 191.427 143.546 191.463 142.759 191.463C127.582 191.463 112.369 191.463 97.1917 191.463C96.619 191.463 96.2252 191.32 95.8673 190.854C94.7218 189.387 93.6122 187.955 92.8247 186.273C91.9656 184.34 91.3929 182.335 90.8918 180.295C90.7486 179.651 90.677 179.006 90.6054 178.362C90.498 177.252 90.0685 176.214 89.5674 175.248C88.9231 173.959 89.8537 172.169 91.2855 171.919C91.7509 171.847 91.9656 172.241 92.1446 172.563C92.8963 173.888 93.6122 175.248 94.2565 176.608C95.1872 178.541 96.6906 179.973 98.5161 181.082C98.7667 181.226 99.053 181.655 99.3394 181.44C99.59 181.261 99.2678 180.868 99.1962 180.581C98.8741 179.364 98.9457 178.111 98.9457 176.859C98.9457 176.68 98.9814 176.536 99.1604 176.465C99.3394 176.393 99.4826 176.536 99.59 176.644C99.9479 177.038 100.27 177.431 100.628 177.789C102.346 179.651 104.351 181.19 106.391 182.693C108.217 183.982 109.935 185.414 111.939 186.416C112.297 186.595 112.655 186.774 112.977 186.917C113.12 186.989 113.264 187.132 113.443 187.024C113.586 186.881 113.514 186.666 113.443 186.523C113.443 186.416 113.371 186.344 113.335 186.237V186.13Z" fill="#7C5825"/>
<path d="M98.4439 72.5878C99.9473 72.8742 101.415 72.6952 102.918 72.5162C104.35 72.3373 105.567 73.089 106.605 74.0554C106.892 74.3418 106.713 74.5565 106.462 74.6639C106.247 74.7713 105.997 74.8429 105.746 74.8071C105.46 74.8071 105.209 74.8787 104.994 75.0219C104.279 75.4514 104.279 75.881 104.994 76.3105C105.603 76.6327 106.068 77.1338 106.641 77.4917C107.071 77.7781 107.5 78.0287 108.001 78.1718C108.431 78.315 108.717 78.7088 108.968 79.0667C110.185 80.8565 111.366 82.682 112.583 84.4718C113.12 85.2234 113.728 85.9036 114.516 86.4405C114.945 86.7268 115.303 87.0848 115.59 87.5501C115.697 87.6933 115.769 87.8723 115.59 88.0512C115.447 88.2302 115.303 88.2302 115.089 88.1586C113.693 87.8007 112.404 87.1564 111.151 86.4763C110.041 85.8678 108.932 85.3308 107.822 84.7581C107.679 84.6865 107.536 84.6507 107.428 84.6149C107.249 84.5433 107.142 84.6149 107.071 84.7581C106.963 84.9013 107.071 84.9729 107.142 85.0803C107.822 85.9036 108.359 86.87 108.896 87.8007C109.505 88.8387 110.543 89.3041 111.509 89.841C114.516 91.5592 117.666 93.0625 120.315 95.3892C121.21 96.2125 121.675 97.2148 121.961 98.3244C122.462 100.401 123.071 102.405 124.431 104.052C124.574 104.231 124.789 104.374 124.538 104.624C124.324 104.839 124.145 104.732 123.93 104.589C121.424 103.085 119.491 101.009 118.024 98.4676C117.451 97.4295 116.843 96.4273 115.948 95.604C113.8 93.5995 111.294 92.2035 108.467 91.3086C107.858 91.1296 107.249 90.9506 106.677 90.7359C105.71 90.3779 105.066 89.6978 104.529 88.8029C103.706 87.3711 102.346 86.5837 100.842 86.0825C98.9451 85.4382 97.0837 84.7939 95.294 83.9348C94.2917 83.4695 93.2179 83.3979 92.1082 83.5411C91.7861 83.5769 91.4639 83.5411 91.106 83.5411C91.2849 83.2905 91.5713 83.3263 91.8219 83.3263C93.4326 83.1831 94.9718 83.6485 96.511 83.7559C97.4775 83.8274 98.4081 84.1138 99.3746 84.078C100.055 84.078 100.269 83.7916 99.9473 83.2189C98.9093 81.107 97.5133 79.2099 96.0457 77.4201C95.294 76.5253 94.3275 75.9168 93.1821 75.5588C93.0031 75.4872 92.7883 75.4514 92.7525 75.2724C92.7525 75.0577 93.0031 75.0219 93.1463 74.9503C94.8644 74.127 96.5826 74.2344 98.3723 74.6997C98.9093 74.8429 99.4104 75.0577 99.9473 75.2367C100.126 75.3082 100.341 75.4872 100.484 75.2724C100.663 75.0577 100.484 74.8429 100.413 74.6639C100.055 73.9122 99.4104 73.4469 98.8019 72.91C98.6587 72.8026 98.5155 72.6952 98.3723 72.5878H98.4439Z" fill="#806027"/>
<path d="M61.5756 148.616C62.542 148.974 63.4727 149.404 64.5465 149.225C64.6897 149.225 64.8329 149.261 64.9403 149.296C66.0857 149.869 67.3028 149.976 68.5198 149.976C69.3431 149.976 70.1663 150.084 71.0254 149.941C71.9919 149.762 72.9942 149.941 73.9248 150.334C74.4975 150.621 74.6407 150.478 74.5691 149.833C74.3544 147.149 74.4975 144.5 74.9987 141.851C75.3566 139.846 76.0009 137.878 76.8958 136.016C76.9316 135.909 76.9316 135.766 77.1106 135.766C77.2895 135.766 77.3253 135.945 77.3969 136.052C77.9697 137.162 78.2918 138.343 78.7571 139.489C79.7236 141.958 80.8332 144.392 82.0503 146.755C82.8736 148.366 82.6946 149.726 81.7281 151.122C80.4037 153.019 78.5424 154.236 76.3589 154.952C75.1776 155.346 73.9606 154.988 72.8152 154.487C71.5266 153.878 70.2021 153.592 68.8061 153.413C67.088 153.234 65.7994 153.878 64.9761 155.382C64.7613 155.739 64.5823 156.133 64.2244 156.42C63.3653 155.704 62.2199 155.704 61.325 155.059C57.9603 153.162 56.1347 150.048 54.8819 146.54C54.5597 145.645 54.5955 144.679 54.8103 143.748C54.9177 143.319 55.0609 143.14 55.4546 143.569C57.2444 145.574 59.3205 147.256 61.6114 148.652L61.5756 148.616Z" fill="#FFFFFD"/>
<path d="M56.8152 72.9457C55.7414 72.9815 55.1687 73.8048 54.5243 74.4849C54.0948 74.9502 53.7011 75.4513 53.9874 76.1314C53.6653 75.5945 53.3431 75.0576 52.9852 74.5207C51.9471 73.0173 50.9806 72.7309 49.2267 73.1962C47.079 73.769 45.0387 74.5564 43.1415 75.7735C40.9581 77.1695 39.2399 79.0308 37.8797 81.2143C37.2712 82.1808 36.949 82.2524 35.9826 81.6796C34.9803 81.0711 34.1212 80.2836 33.1905 79.5677C32.9042 79.353 32.6536 79.1024 32.4031 78.8876C31.3292 78.1001 31.0071 77.0621 31.5082 75.8093C31.5798 75.6661 31.5798 75.4871 31.6514 75.3439C31.7945 75.0934 31.7587 74.6638 32.1167 74.5922C32.4746 74.5207 32.582 74.9144 32.7968 75.1292C33.7275 76.1672 34.6581 77.2053 35.5888 78.2433C35.9468 78.6729 36.4479 78.8518 36.9848 78.6729C37.5217 78.4939 37.7723 78.0644 37.8797 77.5274C38.2376 75.0934 39.4547 73.1604 41.3518 71.6571C42.533 70.7264 43.929 70.0821 45.1819 69.223C46.0767 68.6145 47.1506 68.7219 48.117 68.9366C50.7301 69.5094 53.2715 70.2968 55.4908 71.836C55.9561 72.1582 56.4215 72.5877 56.851 72.9457H56.8152Z" fill="#B07C2B"/>
<path d="M144.978 74.3059C144.333 73.8406 143.796 73.1963 143.045 72.8026C142.758 72.6594 142.544 72.5878 142.257 72.5878C139.93 72.5878 137.568 72.5878 135.241 72.5878C135.027 72.5878 134.776 72.5878 134.561 72.552C133.273 72.0867 132.091 72.552 130.874 72.8741C130.552 72.9815 130.23 72.9815 129.908 72.9815C129.622 72.9815 129.407 72.731 129.335 72.4804C129.264 72.2298 129.264 71.9793 129.55 71.8719C129.836 72.731 129.979 72.7668 130.839 72.552C132.915 72.0151 135.027 71.4781 137.138 71.1918C138.892 70.9412 140.646 70.4401 142.4 70.1537C143.331 69.9748 144.262 69.7958 145.192 69.76C145.443 69.76 145.765 69.76 145.908 69.4736C146.051 69.1873 145.908 68.9009 145.729 68.6861C144.978 67.8986 144.262 67.0396 143.474 66.2163C143.116 65.8225 142.579 65.7867 142.042 65.8225C141.47 65.8941 140.933 66.0373 140.36 66.2163C140.145 66.2879 139.895 66.3953 139.68 66.2163C140.611 65.7152 141.577 65.393 142.651 65.4646C143.259 65.5004 143.725 65.8225 144.083 66.2879C144.62 66.968 145.157 67.6123 145.801 68.2208C145.908 68.3282 146.051 68.5072 146.195 68.364C146.374 68.185 146.123 68.0776 146.051 67.9702C145.3 66.968 144.333 66.2163 143.51 65.2856C143.367 65.1066 143.116 64.9993 143.116 64.7129C144.19 65.7151 145.264 66.6816 146.195 67.7913C146.624 68.2924 147.197 68.6145 147.555 69.1873C148.163 70.1895 147.77 71.2992 146.66 71.6929C145.801 71.9793 144.87 71.9077 144.011 72.0867C143.868 72.0867 143.725 72.1224 143.582 72.194C143.08 72.4088 143.08 72.5162 143.51 72.8741C144.047 73.3037 144.655 73.6616 144.978 74.3059Z" fill="#826025"/>
<path d="M92.4308 78.5656C93.8626 78.494 95.1512 79.3173 96.2967 80.4627C96.583 80.7491 96.7978 81.0355 97.0842 81.3218C97.4063 81.644 97.5853 82.0019 97.2989 82.4315C97.0126 82.861 96.583 83.1474 96.0461 83.0042C94.5785 82.6104 93.0751 82.1451 91.6075 81.7514C90.5695 81.465 89.5672 81.1429 88.5292 80.8565C87.9922 80.7133 87.9564 80.5701 88.3144 80.1764C89.3525 79.1025 90.6411 78.5298 92.4308 78.5656Z" fill="#F6F1EF"/>
<path d="M160.12 79.1382C159.332 79.1382 158.616 78.7802 157.901 78.5297C156.97 78.2075 156.039 78.2075 155.109 78.2791C153.784 78.3865 152.495 78.4939 151.207 78.2075C150.777 78.1359 150.742 78.2791 150.777 78.6013C150.885 79.353 151.171 80.0331 151.386 80.749C151.493 81.1427 151.744 81.5364 151.744 81.966C151.708 82.0018 151.672 82.0018 151.636 81.966C150.92 80.391 150.598 78.7086 150.419 76.9905C150.276 75.5229 150.348 75.4871 151.78 75.9882C153.927 76.7399 156.003 77.6348 158.151 78.4223C158.831 78.6728 159.547 78.7444 160.156 79.1382H160.12Z" fill="#825F26"/>
<path d="M87.6699 191.391C88.1711 190.604 88.35 189.816 88.6364 189.1C88.8512 188.528 88.9943 188.528 89.4239 188.957C90.0682 189.601 90.4261 190.389 90.9989 191.069C91.2136 191.355 91.1062 191.427 90.8199 191.427C89.8176 191.427 88.8154 191.427 87.6699 191.427V191.391Z" fill="#785624"/>
<path d="M151.6 81.9658C151.6 81.9658 151.672 81.9658 151.707 81.9658C151.994 83.1828 152.316 84.3999 152.602 85.6169C152.602 85.7601 152.781 85.9391 152.567 86.0464C152.388 86.118 152.28 85.9749 152.173 85.8317C151.851 85.5095 151.851 85.0442 151.743 84.6504C152.209 84.6504 152.137 84.3641 152.065 84.0777C151.922 83.3618 151.779 82.6459 151.636 81.9658H151.6Z" fill="#4B371A"/>
<path d="M151.493 84.1853C150.884 83.183 150.311 82.1808 149.882 81.1069C150.526 82.0734 151.135 83.0757 151.493 84.1853Z" fill="#4B371A"/>
<path d="M54.4879 76.9187C54.7742 77.0261 54.8458 77.2051 54.6311 77.4198C54.3447 77.742 54.0583 77.6704 53.772 77.4198C54.0583 77.3482 54.5953 77.6704 54.4879 76.9545V76.9187Z" fill="#B07C2B"/>
<path d="M96.9409 72.0867C97.5136 72.0151 98.0148 72.1583 98.4443 72.5878C97.9432 72.4088 97.442 72.2656 96.9409 72.0867Z" fill="#806027"/>
<path d="M53.0209 77.1336C52.5555 77.1336 52.126 77.1336 51.6606 77.1336C52.126 76.9188 52.5555 76.9546 53.0209 77.1336Z" fill="#B07C2B"/>
<path d="M58.4254 73.0889C58.1391 73.5542 57.7811 73.59 57.3516 73.3394C57.7453 73.4468 58.1033 73.232 58.4254 73.0889Z" fill="#B07C2B"/>
<path d="M51.6602 77.1336C51.4096 77.3484 51.1233 77.3841 50.8369 77.3841C51.0517 77.1336 51.338 77.0978 51.6602 77.1336Z" fill="#B07C2B"/>
<path d="M53.7725 77.3844C53.4862 77.3844 53.2356 77.3486 53.0566 77.1338C53.343 77.098 53.5936 77.1696 53.7725 77.3844Z" fill="#B07C2B"/>
<path d="M151.743 84.6864C151.743 84.6864 151.493 84.4001 151.493 84.1853C151.743 84.2569 151.743 84.4717 151.743 84.6864Z" fill="#4B371A"/>
<path d="M154.714 114.647C156.576 115.255 158.545 115.542 160.442 116.007C161.122 116.186 161.838 116.329 162.518 116.508C162.947 116.615 162.912 116.866 162.661 117.152C162.017 117.94 161.086 118.298 160.191 118.727C158.652 119.479 156.97 119.873 155.287 120.195C154.679 120.302 154.536 120.625 154.822 121.161C156.146 123.631 156.826 126.28 157.363 129.001C157.721 130.79 158.043 132.616 158.294 134.441C158.652 136.947 158.902 139.488 158.115 141.994C158.079 142.137 158.043 142.28 157.972 142.388C157.9 142.495 157.864 142.674 157.685 142.674C157.471 142.674 157.435 142.495 157.363 142.352C157.005 141.35 156.612 140.383 156.146 139.417C155.108 137.377 153.855 135.479 152.101 133.976C151.887 133.797 151.708 133.546 151.529 133.332C151.421 133.224 151.314 133.045 151.135 133.081C150.92 133.117 150.92 133.368 150.884 133.546C150.741 134.298 150.598 135.086 150.419 135.837C150.097 137.162 149.524 138.415 148.808 139.56C148.45 140.097 148.236 140.67 147.985 141.242C147.341 142.746 146.374 144.034 145.551 145.43C143.654 148.616 141.793 151.838 140.361 155.274C139.072 158.352 138.177 161.538 137.855 164.867C137.712 166.693 137.461 168.482 137.855 170.308C137.998 170.988 137.927 171.74 137.855 172.456C137.604 172.42 137.569 172.241 137.533 172.026C136.71 167.91 136.71 163.722 136.817 159.534C136.889 157.529 136.996 155.56 137.068 153.556C137.068 152.554 137.354 151.623 137.676 150.692C139.895 146.289 142.079 141.887 144.298 137.484C145.336 135.408 145.479 133.224 145.265 131.005C144.978 128.356 144.191 125.886 142.974 123.524C142.759 123.13 142.687 122.665 142.687 122.199C142.687 121.877 142.795 121.806 143.153 121.877C144.227 122.164 145.086 122.844 145.945 123.488C147.949 125.063 149.99 126.674 151.994 128.249C152.137 128.356 152.28 128.464 152.424 128.571C152.495 128.643 152.603 128.678 152.71 128.643C152.853 128.571 152.782 128.428 152.782 128.32C152.173 125.063 151.421 121.842 150.383 118.727C149.739 116.687 148.486 114.969 147.377 113.179C147.162 112.857 146.983 112.499 146.768 112.177C146.696 112.07 146.625 111.926 146.696 111.783C146.804 111.604 146.983 111.676 147.162 111.676C147.448 111.676 147.627 111.926 147.878 112.034C150.025 113.215 152.352 114.002 154.714 114.647Z" fill="#0B0909"/>
<path d="M162.088 103.085C162.088 103.264 162.231 103.371 162.338 103.514C162.446 103.657 162.66 103.765 162.553 103.98C162.446 104.159 162.231 104.123 162.052 104.087C160.906 103.908 159.868 103.443 158.866 102.87C157.506 102.118 156.181 101.295 154.642 100.937C154.499 100.937 154.356 100.758 154.284 100.937C154.213 101.08 154.356 101.152 154.428 101.259C156.11 103.085 157.756 104.874 159.331 106.772C160.441 108.096 161.479 109.456 162.553 110.781C162.625 110.888 162.696 111.031 162.768 111.139C162.517 111.246 162.338 111.174 162.159 111.103C160.62 110.459 159.045 109.85 157.685 108.848C157.47 108.669 157.255 108.454 156.933 108.49C155.716 107.631 154.356 106.986 153.032 106.342C150.955 105.34 148.844 104.445 146.732 103.586C146.553 103.514 146.338 103.443 146.338 103.228C146.338 103.013 146.553 103.013 146.696 102.977C147.269 102.798 147.197 102.476 146.911 102.082C145.622 100.293 144.369 98.503 142.758 96.9996C142.186 96.4627 142.257 96.2121 142.973 95.9258C142.973 95.9258 143.009 95.9258 143.045 95.9258C144.262 95.4246 144.262 95.4246 143.546 94.3508C141.72 91.5588 139.573 89.0531 136.888 87.0844C136.244 86.6191 135.599 86.2253 134.919 85.8316C134.812 85.76 134.633 85.6884 134.669 85.5094C134.669 85.3304 134.883 85.3662 135.027 85.3304C135.385 85.2947 135.778 85.3304 136.136 85.402C139.25 86.4759 142.114 88.0151 144.87 89.7332C149.488 92.561 153.676 95.9258 157.792 99.4337C159.224 100.651 160.727 101.796 162.123 103.085H162.088Z" fill="#0B0909"/>
<path d="M139.644 66.1805C140.432 66.0731 141.147 65.6794 141.971 65.6078C142.758 65.5362 143.403 65.7152 143.904 66.3595C144.441 67.0754 145.013 67.7197 145.693 68.3282C145.908 68.543 146.016 68.7577 146.123 69.0441C146.302 69.6168 145.98 69.7958 145.55 69.8316C142.758 69.9748 140.109 70.8338 137.389 71.2634C135.563 71.5497 133.81 71.9793 132.02 72.3372C131.519 72.4446 131.053 72.6236 130.552 72.7668C130.23 72.8384 129.908 72.8742 129.622 72.6236C129.335 72.373 129.478 72.0867 129.55 71.8361C132.127 69.7242 134.991 68.1134 138.033 66.8606C138.57 66.6458 139.107 66.3953 139.68 66.1805H139.644Z" fill="#0C0909"/>
</svg>
