<svg width="256" height="256" viewBox="0 0 256 256" fill="none" xmlns="http://www.w3.org/2000/svg">
<rect width="256" height="256" fill="white"/>
<g clip-path="url(#clip0_680_14686)">
<path d="M82.8871 168.153L105.686 184.689L114.398 157.933H114.379L108.379 153.56L91.6033 141.378H46L82.8871 168.153Z" fill="#F5323C"/>
<path d="M165.397 141.378L156.077 148.144L142.602 157.933H142.588L151.299 184.689L174.099 168.153L211 141.378H165.397Z" fill="#F5323C"/>
<path d="M142.588 71.3158L128.49 28L114.398 71.3158L100.3 114.608L91.6033 141.378H119.774L128.49 114.627L137.207 141.378H165.397L156.68 114.608L142.588 71.3158Z" fill="#F5323C"/>
<path d="M91.6033 228L128.49 201.23L151.285 184.689L128.49 168.153L105.696 184.689H105.686V184.708L91.6033 228Z" fill="#F5323C"/>
</g>
<defs>
<clipPath id="clip0_680_14686">
<rect width="165" height="200" fill="white" transform="translate(46 28)"/>
</clipPath>
</defs>
</svg>
