<svg width="256" height="256" viewBox="0 0 256 256" fill="none" xmlns="http://www.w3.org/2000/svg">
<rect width="256" height="256" fill="#EC1A39"/>
<g clip-path="url(#clip0_703_1044)">
<path d="M143.237 59.454L140.088 47.8313L156.443 34.6636L135.471 33.6222L128.001 14L120.53 33.6222L99.5583 34.6636L115.912 47.8313L112.764 59.454H66L66.008 163.889C66.008 169.026 67.006 174.038 68.9723 178.784C70.9386 183.529 73.777 187.777 77.4108 191.41L128.005 242L178.598 191.411C182.232 187.777 185.071 183.529 187.037 178.782C189.003 174.035 190 169.024 190 163.885V59.454H143.237Z" fill="black"/>
<path d="M181.114 70.0764H74.8872V91.3214H181.114V70.0764Z" fill="white"/>
<path d="M131.907 38.5283L128.001 28.2709L124.096 38.5283L113.131 39.073L121.681 45.9567L118.811 56.5517L128.001 50.5481L137.191 56.5517L134.321 45.9567L142.87 39.073L131.907 38.5283Z" fill="#EC1A39"/>
<path d="M159.867 101.945V155.075C159.867 163.042 156.702 170.683 151.067 176.317L149.251 178.133V101.953H74.8872L74.8941 163.889C74.8941 171.855 78.0598 179.495 83.6942 185.128L96.1271 197.56V155.065H117.381V133.821H96.134V123.198H128.004V229.435L172.314 185.129C177.948 179.495 181.114 171.854 181.114 163.887V101.945H159.867Z" fill="white"/>
</g>
<defs>
<clipPath id="clip0_703_1044">
<rect width="124" height="228" fill="white" transform="translate(66 14)"/>
</clipPath>
</defs>
</svg>
