<svg width="256" height="256" viewBox="0 0 256 256" fill="none" xmlns="http://www.w3.org/2000/svg">
<rect width="256" height="256" fill="#171717"/>
<path d="M226.695 113.365C223.696 115.345 217.275 118.774 211.63 120.223C211.524 118.844 211.348 117.36 211.172 115.981C222.849 107.144 228 96.1853 228 96.1853C220.556 101.382 208.49 103.892 208.667 103.644C208.138 101.7 207.714 100.463 207.079 98.5538C222.637 81.9041 224.366 68.0471 224.366 68.0471C219.78 73.8444 211.913 80.3487 201.293 85.4037C199.6 82.2576 198.471 80.4548 196.636 77.6975C197.801 72.2537 198.224 67.022 198.224 67.022C196.742 68.648 194.414 71.1225 192.862 72.5011C189.263 67.835 185.559 64.0172 181.184 60.1641C183.548 51.0086 184.112 43.0903 184.112 43.0903C180.972 46.1657 178.221 49.029 172.047 53.0235C158.358 43.7266 141.142 38.1767 122.055 38C111.436 37.8939 100.676 39.9088 91.1152 43.3731H91.2563C93.0908 43.7619 94.9607 43.7973 96.8305 43.6205C119.198 41.3582 139.378 47.7211 155.536 60.4469C138.143 65.4312 123.572 61.2953 123.572 61.2953L129.217 54.8264C126.924 55.498 109.496 57.8311 96.0191 58.8562C96.0191 58.8562 95.4546 58.8562 95.0312 59.3864C94.7137 59.7753 93.5848 61.1893 91.8561 63.2396C91.221 63.9819 89.9157 64.3707 88.9279 63.7344C87.4108 62.78 85.1529 60.9065 82.7539 57.7957C82.3659 57.2655 81.6955 56.9473 79.8963 57.1241C74.6749 57.6543 75.5922 57.9725 71.2528 57.6543C66.9134 57.3362 68.4657 62.7447 67.7601 63.593C67.4073 64.0526 64.0557 66.2443 64.0557 66.2443C64.0557 66.2443 61.8331 67.2341 62.3976 69.9913C63.2796 74.1626 65.1494 79.6418 67.8659 85.1563C62.6798 91.8374 62.327 100.816 66.9839 107.886C64.8319 108.593 62.7504 109.441 60.8453 110.467C57.5996 112.234 53.8247 114.532 49.8028 119.693C46.9804 123.334 43.4172 129.273 42.641 136.908C42.5352 137.969 42.4999 138.994 42.4999 140.054H35.3734L28 167.556H41.9707L33.2567 200.078H68.1129C83.0362 211.213 101.487 217.859 121.703 218C141.777 218.141 160.581 211.46 175.751 200.078H211.771L225.142 150.129L213.818 140.054H211.101C211.101 140.054 211.101 139.842 211.172 139.595C211.419 137.756 211.913 132.631 211.877 130.333C211.877 130.333 220.803 123.263 226.695 113.365Z" fill="#D02B27"/>
<path d="M180.267 63.6991C178.891 68.1885 177.091 72.7839 174.692 76.7077C176.28 79.0055 176.739 79.5357 178.573 82.8586C180.972 81.4799 185.523 78.7227 190.392 74.6928C187.076 70.3095 184.677 67.2694 180.337 63.5223C180.337 63.593 180.267 63.6637 180.267 63.6991Z" fill="#171717"/>
<path d="M135.85 46.3779C142.518 48.6756 149.186 52.2813 155.959 57.0535C156.629 57.513 158.217 58.8917 158.852 59.3865C161.674 58.2554 165.626 56.5232 169.471 54.579C155.112 45.0346 138.319 40.3331 121.738 40.3331C117.646 40.3331 113.765 40.722 109.813 41.2876C110.307 41.4997 110.872 41.6057 111.401 41.6411C118.21 41.8885 125.866 42.9136 135.85 46.3779Z" fill="#171717"/>
<path d="M192.509 88.6912C192.509 88.6912 196.778 87.454 197.907 86.8531C197.907 86.8531 196.037 83.3888 195.402 82.293C195.402 82.293 194.202 85.934 192.509 88.6912Z" fill="#171717"/>
<path d="M220.415 151.578L212.23 144.296H205.633C206.55 139.701 207.115 135.105 207.326 130.722V128.177C212.336 125.561 215.511 122.874 217.487 120.965C195.79 129.237 171.447 129.237 171.447 129.237C202.987 124.465 220.098 103.149 220.098 103.149C204.081 108.84 186.97 108.381 186.97 108.381C195.261 104.033 207.856 95.6904 218.933 77.5915C201.929 91.5192 184.677 95.8319 184.677 95.8319C193.003 83.7069 195.931 73.6323 195.931 73.6323C177.939 91.1657 158.253 91.802 158.253 91.802C176.104 75.8947 181.114 49.3472 181.114 49.3472C180.937 49.63 180.796 49.9481 180.62 50.2309C180.761 49.9835 180.902 49.7007 181.114 49.3472C166.72 60.6237 149.574 68.9662 119.868 62.8154C119.868 62.8154 121.421 61.2246 126.148 56.4171C126.148 56.4171 118.387 58.1492 96.1252 60.2702C96.1252 60.2702 95.1726 61.5074 93.6203 63.0274C92.4561 64.1586 93.9731 65.1131 93.5145 66.421C93.4792 66.5271 93.3381 66.6331 93.1617 66.7745C92.5619 67.3401 89.9865 67.0573 87.6934 65.6433C85.8235 64.5121 83.4245 62.6386 80.8491 59.7046C80.4258 59.245 79.7555 58.3613 77.427 58.8562C75.6983 59.245 73.0876 59.6692 70.2652 59.1743C69.8772 59.1036 69.0657 59.6692 69.0305 60.5883C68.9599 61.7902 68.8541 63.3102 68.7482 64.0526C68.7482 64.0526 67.2312 65.1838 65.3967 66.4564C64.6911 66.9513 63.5974 68.648 64.3735 71.9709C65.2555 75.824 67.3018 81.4799 69.4538 84.4493C69.4538 84.4493 71.7117 79.571 73.4051 77.4501C73.7226 78.7227 74.393 81.5153 75.2749 84.3432C75.2749 84.3432 76.8978 82.6818 77.9562 83.3888C78.1679 83.5655 78.3795 83.7423 78.5912 83.8483C78.5912 83.8483 81.59 85.7572 85.6119 86.9945C85.6119 86.9945 86.5291 87.5247 86.5644 88.974C86.5644 88.974 88.1167 87.6661 89.2809 87.8428C89.7043 87.9135 90.1277 87.9489 90.551 87.9842C91.2919 88.0549 90.8685 89.2215 91.0449 90.6001C91.0449 90.6001 92.4208 89.0094 94.3259 88.161C95.596 87.56 97.6775 86.9945 98.7711 89.3275C99.8648 91.6606 98.242 96.2207 93.5145 93.6048L95.2432 89.0801L91.1155 92.4383C91.1155 92.4383 89.4926 91.7313 88.6459 91.0597C87.7639 90.4234 88.5754 89.1861 88.5754 89.1861C88.5754 89.1861 87.1994 90.282 84.871 89.3982C83.4951 88.868 80.955 87.7721 77.9915 87.2419C76.7567 86.5349 77.2859 84.3079 77.2859 84.3079C76.0511 84.6614 74.2871 86.04 73.5462 86.6763C73.5462 86.04 73.4757 84.2018 73.2993 80.0659C73.2993 80.0659 69.4891 83.6362 66.9137 89.6103C64.3383 95.5844 65.6436 100.993 67.584 103.892C69.5244 106.826 71.2178 108.664 71.2178 108.664C71.2178 108.664 68.8188 98.8012 78.1326 99.897C81.8369 100.321 87.27 107.568 87.27 107.568C87.27 107.568 71.7823 107.674 62.1509 112.941C58.9405 114.673 55.5537 116.829 51.9904 121.425C47.4746 127.187 44.1583 135.247 45.6401 144.261H38.5842L33.5039 163.314H47.4746L38.7606 195.836H70.1947C79.3674 203.012 96.5485 212.874 122.162 213.298C133.627 213.475 144.776 211.036 155.254 206.617C161.886 203.825 168.06 200.219 173.74 195.871H208.561L220.415 151.578ZM141.601 69.5671C142.059 69.4964 142.518 69.5671 142.871 69.8499C143.4 70.3095 144.352 71.3699 145.658 73.6323C145.658 73.6323 145.093 71.1225 144.705 69.7792C144.705 69.7792 144.529 69.2843 145.129 69.1076C145.764 68.9308 149.115 68.3652 149.115 68.3652C149.115 68.3652 149.75 68.2945 150.032 68.7894C150.35 69.2843 151.197 70.4509 151.691 71.7234C151.691 71.7234 151.338 69.5671 150.879 68.4359C150.879 68.4359 150.703 68.0117 151.126 67.835C151.549 67.6936 154.725 66.8806 154.725 66.8806C154.725 66.8806 155.43 66.6685 155.783 67.128C156.136 67.5522 156.841 68.5066 157.371 69.3904C157.371 69.3904 157.088 68.1531 156.665 66.9159C156.665 66.9159 156.453 66.3857 156.982 66.1736C157.406 65.9968 159.805 65.2545 160.687 64.9717C160.899 64.901 161.11 64.9717 161.287 65.0777L162.239 65.8201L161.992 64.901C161.922 64.6889 162.063 64.4768 162.239 64.4061C165.167 63.0628 172.012 59.6339 177.903 54.4729C177.974 54.4022 178.08 54.3315 178.15 54.2608C170.318 66.8452 160.616 76.6017 156.7 80.3134C159.029 77.1319 161.357 71.7234 163.051 65.8554C159.911 69.1076 151.302 74.9403 140.119 73.8444C138.461 71.476 136.908 70.062 136.908 70.062C136.908 70.062 139.801 69.8146 141.565 69.6025L141.601 69.5671ZM51.3907 135.989C52.449 122.698 63.5268 110.502 86.0352 110.502C106.674 110.502 111.26 103.467 111.26 103.467C111.26 103.467 99.1239 110.749 87.3406 101.382C84.4829 99.1194 82.1897 97.2458 79.9318 96.5035C73.1229 94.2411 68.5718 98.8366 69.6302 103.821C69.6302 103.821 62.4332 96.0439 72.2409 82.6818C72.2409 82.6818 71.7117 88.4791 72.1351 91.2364C72.1351 91.2364 73.3346 87.9489 73.7579 87.9489C76.545 87.9489 82.3661 89.1861 88.4342 93.3574C96.1252 98.6598 99.9354 99.084 103.146 96.2207C106.956 92.8271 107.909 81.7627 100.394 83.3888C93.1264 84.9442 80.5316 85.4037 75.5572 79.9952C73.1934 77.4147 73.7579 73.9151 73.7579 73.9151C71.2178 77.0259 69.2774 82.6465 69.2774 82.6465C69.2774 82.6465 68.7835 81.7981 67.3723 77.7329C65.8906 73.3849 66.455 69.3904 66.455 69.3904C66.702 66.6331 69.1363 65.3252 70.618 65.5726C70.618 65.5726 72.9465 67.234 73.8285 67.7643C76.5097 69.249 81.0255 66.1382 81.0255 66.1382L71.3942 64.9717C71.3942 64.9717 70.3358 62.674 73.7579 61.7902C77.18 60.9065 78.3795 61.6488 82.1897 65.5373L81.343 68.9308L83.3892 67.1987L84.9063 68.3299L85.2943 74.8696L87.6934 69.4964L89.3515 69.7792C89.3515 69.7792 96.3721 78.5459 98.5242 81.1618L96.9013 75.93C96.9013 75.93 104.733 75.6119 114.259 78.2278C114.259 78.2278 100.606 71.2639 95.349 69.2843C95.349 69.2843 94.467 68.1178 95.7371 68.0471C96.9719 67.9764 101.382 67.8703 108.755 65.9261C108.755 65.9261 102.193 66.6685 98.4536 66.6685C94.714 66.6685 94.2906 65.7494 95.9841 64.0526C97.6775 62.3558 98.2067 62.4972 101.064 61.8609C103.922 61.2246 118.104 59.4925 120.151 58.8562L115.6 62.2498C115.6 62.2498 111.013 62.5679 108.544 63.4163C117.681 63.4516 128.547 67.1633 135.921 72.6072C132.357 71.7588 131.863 71.5113 129.253 71.1932C128.441 71.0872 121.421 70.0267 117.046 76.2835C112.777 82.3283 116.164 87.5954 117.469 89.3982C117.469 89.3982 119.057 91.7313 122.126 92.9332C123.29 93.4634 124.596 93.7462 125.901 93.7816C127.242 93.7816 128.547 93.5341 129.782 93.0039C131.017 92.4736 132.146 91.6959 133.028 90.7062C133.239 90.4587 133.451 90.2113 133.663 89.9285C133.769 89.7871 133.839 89.6457 133.945 89.5396L134.086 89.3275L134.157 89.2215V89.1508V89.0801L134.298 88.9033V88.8326L134.404 88.6912L134.545 88.4438C134.545 88.4438 134.615 88.267 134.65 88.1963C134.792 87.8782 134.897 87.56 134.968 87.2066C135.321 85.8986 135.321 84.4846 134.968 83.2121C134.792 82.5758 134.58 81.9748 134.262 81.4092C133.945 80.8436 133.592 80.3487 133.169 79.8892C132.745 79.4297 132.287 79.0408 131.828 78.6873C131.581 78.5106 131.334 78.3692 131.087 78.2278L130.876 78.1217L130.734 78.051L130.523 77.9803L130.276 77.8743C129.147 77.4501 127.983 77.344 126.889 77.5561C125.831 77.7329 124.878 78.1924 124.102 78.758C123.361 79.3589 122.761 80.0659 122.408 80.8083C122.373 80.9143 122.303 81.0204 122.267 81.0911C122.267 81.1618 122.197 81.2678 122.162 81.3385C122.091 81.5506 122.02 81.7274 121.985 81.9395C121.879 82.3283 121.844 82.6818 121.844 83.0353C121.844 83.7423 121.985 84.3786 122.197 84.9088C122.408 85.4391 122.691 85.8633 122.973 86.1814C123.255 86.4996 123.537 86.7117 123.784 86.8531C124.031 86.9945 124.208 87.1005 124.349 87.1359C124.49 87.1712 124.561 87.2066 124.561 87.2066C124.631 87.2066 124.702 87.2066 124.772 87.1712C124.843 87.1005 124.843 86.9591 124.772 86.8884C124.772 86.8884 124.737 86.8177 124.631 86.747C124.561 86.641 124.419 86.5349 124.278 86.3228C124.137 86.1461 123.996 85.8986 123.855 85.5805C123.714 85.2977 123.643 84.9088 123.608 84.52C123.537 83.7423 123.749 82.7525 124.419 82.0102C125.09 81.2325 126.113 80.6669 127.242 80.7022C127.806 80.7022 128.371 80.8436 128.865 81.1264H128.935L129.041 81.2325L129.182 81.3032H129.217C129.217 81.3032 129.464 81.5153 129.606 81.6213C129.852 81.8334 130.064 82.0809 130.241 82.3283C130.981 83.3535 131.299 84.8028 130.946 86.1107C130.911 86.2875 130.84 86.4289 130.805 86.6056C130.805 86.641 130.805 86.6763 130.77 86.7117C130.77 86.7117 130.77 86.7824 130.734 86.8177L130.699 86.9591L130.629 87.1359L130.523 87.348L130.382 87.5954C130.382 87.5954 130.17 87.9135 130.064 88.0549C129.57 88.6559 128.97 89.1861 128.265 89.6103C127.559 89.9992 126.748 90.2466 125.901 90.3173C125.054 90.388 124.208 90.2466 123.396 89.9638C123.29 89.9285 123.22 89.8931 123.114 89.8578C123.114 89.8578 123.079 89.8578 123.044 89.8224H122.938L122.761 89.681H122.726L122.655 89.6103L122.514 89.5396C122.514 89.5396 122.303 89.4336 122.232 89.3629C121.844 89.1154 121.491 88.8326 121.138 88.5498C120.468 87.9489 119.868 87.2066 119.445 86.3935C118.563 84.7674 118.21 82.8939 118.457 81.1264C118.528 80.6669 118.598 80.2427 118.739 79.8185C118.81 79.6064 118.881 79.3943 118.951 79.1822L119.057 78.8994C119.057 78.8994 119.163 78.6873 119.198 78.5813C119.516 77.9096 119.939 77.2733 120.362 76.7077C127.242 69.7792 137.402 78.8641 149.009 75.93C153.278 75.223 156.277 73.9505 156.277 73.9505C155.465 75.2938 150.244 91.7666 134.368 96.0086C118.492 100.251 114.153 89.681 114.153 89.681C120.292 105.306 139.484 97.4226 139.484 97.4226C162.945 99.5082 181.325 91.802 181.325 91.802C163.192 111.633 131.158 109.053 131.158 109.053C171.906 118.703 204.328 111.244 204.328 111.244C162.804 133.02 123.749 117.678 123.749 117.678C136.944 126.692 160.228 129.308 160.228 129.308C126.36 128.566 101.452 116.936 101.452 116.936C133.098 136.413 165.979 136.413 165.979 136.413C179.385 136.413 189.546 134.716 197.236 132.348C196.813 136.873 196.743 138.11 194.943 144.367H169.895C182.913 140.973 193.215 136.448 193.215 136.448C132.675 152.356 115.247 121.036 86.1763 123.97C69.4185 125.667 60.1047 133.833 54.9892 144.367H52.1668C51.5671 142.175 51.2495 139.453 51.4965 136.06L51.3907 135.989ZM71.8175 144.296C73.2287 142.635 74.8869 141.256 76.6508 140.196C91.8211 131.075 106.921 137.438 126.43 144.296H71.8175ZM95.349 196.684C94.714 196.401 94.0437 196.154 93.4439 195.871H151.832C137.896 201.35 117.081 205.769 95.349 196.684Z" fill="#171717"/>
<path d="M56.8584 191.912H43.9461L52.6602 159.39H38.6895L41.6529 148.255H87.4811L89.3509 165.259L100.323 148.255H112.353L91.5736 180.459L88.5042 191.912H75.5566L79.3315 177.843L77.2853 159.39H65.6078L56.8937 191.912H56.8584ZM141.918 191.912L129.429 180.777H118.28L126.994 148.255H114.047L103.604 187.246L108.825 191.912H141.882H141.918ZM215.934 152.922L205.491 191.912H177.021L171.799 187.246L182.242 148.255H210.713L215.934 152.922ZM186.476 180.777H195.543L201.258 159.39H192.332L186.476 180.777ZM166.437 191.912H146.68L134.403 180.989L143.152 148.255H171.623L176.844 152.922L166.402 191.912H166.437ZM147.386 180.777H156.453L162.168 159.39H153.101L147.386 180.777Z" fill="white"/>
<path d="M95.0314 71.158C95.0314 71.158 94.9961 73.1729 96.3014 73.491C98.7005 74.0566 105.651 75.3646 105.651 75.3646C105.651 75.3646 97.7479 72.077 94.9961 71.158H95.0314Z" fill="white"/>
</svg>
