<svg width="256" height="258" viewBox="0 0 256 258" fill="none" xmlns="http://www.w3.org/2000/svg">
<rect width="256" height="256" fill="#FA460A"/>
<path d="M94.0599 102.035L89.6289 154.538H68.2938L36.1647 123.231L33.364 154.538H18L22.3615 102H39.0807L75.3865 138.295L78.2678 102.035H94.0599Z" fill="white"/>
<path d="M150.706 136.964L165.769 154.538H148.276L133.282 138.225H119.548L128.26 125.002H143.613C145.73 125.002 147.789 124.1 149.05 122.422C150.323 120.733 150.254 119.16 149.733 117.863C148.9 115.862 146.817 114.67 144.654 114.67H115.995L112.605 154.54H96.57L101.453 102H149.236C166.81 102.254 166.81 117.77 166.81 117.77C166.81 134.083 150.706 136.964 150.706 136.964Z" fill="white"/>
<path d="M215.033 122.421H237.999L235.117 154.538H186.883C177.511 154.538 170.107 146.59 170.779 137.241L172.017 120.037C172.747 109.867 181.204 102 191.385 102H238L230.098 114.519H192.254C190.09 114.519 188.297 116.162 188.101 118.302L186.319 137.484C186.111 139.66 187.823 141.546 190.022 141.546H220.577L221.086 133.203H207.724L215.036 122.421H215.033Z" fill="white"/>
</svg>
