<svg width="256" height="256" viewBox="0 0 256 256" fill="none" xmlns="http://www.w3.org/2000/svg">
<rect width="256" height="256" fill="#EF4749"/>
<g clip-path="url(#clip0_726_10909)">
<path d="M204.685 49.921C204.229 45.4683 201.202 41.6057 196.983 40.0719C194.77 39.2768 192.454 38.4781 190.096 37.7289L190.081 37.6265L186.305 36.5345L177.395 33.7639V34.1031C173.381 33.0995 169.34 32.2301 165.27 31.4774L154.341 29.7528C148.057 28.9436 141.714 28.4276 135.342 28.205V28L127.998 28.0601L120.654 28V28.205C115.166 28.3958 109.679 28.8093 104.223 29.4418L104.237 29.1627L95.4751 30.6505L89.5596 31.5481L89.5737 31.6965C79.1145 33.6861 68.864 36.5027 59.013 40.0684C54.7947 41.6021 51.7715 45.4789 51.3118 49.9458C50.9441 53.6317 50.6471 57.36 50.4278 61.0918L50.1768 66.3115C50.0601 69.5592 50 72.7998 50 76.044C50 88.1618 50.6223 99.9405 51.8316 111.175L51.3755 110.984L53.3379 122.954L53.5889 124.766L53.649 124.781L53.8541 126.035C56.8349 144.21 61.5376 160.502 67.8209 174.493C74.7972 189.971 83.7642 202.708 94.4744 212.348L104.311 220.059L112.232 224.675C115.729 226.339 119.431 227.357 123.472 227.77C123.812 227.816 124.165 227.756 124.505 227.83C125.848 228.095 130.657 228.035 132.574 227.77C136.601 227.226 141.145 225.823 143.828 224.646C153.754 219.752 161.427 212.44 161.427 212.44C176.84 198.626 188.494 178.638 196.061 153.059C202.655 130.739 206.004 104.824 206.004 76.0475C206.004 67.3187 205.562 58.5333 204.692 49.9246L204.685 49.921Z" fill="#231F20"/>
<path d="M204.681 49.9281C204.228 45.4754 201.205 41.6092 196.983 40.079C194.77 39.2768 192.457 38.4852 190.088 37.7254V37.6229L186.309 36.538L177.398 33.7603L177.391 34.1031C173.385 33.103 169.343 32.2266 165.273 31.4703L154.34 29.7528C148.054 28.94 141.714 28.4241 135.342 28.1979V28.0071L128.002 28.0636L120.658 28.0071V28.2085C115.177 28.4064 109.682 28.8128 104.23 29.4489L104.244 29.1627L95.4715 30.6505L89.57 31.5516V31.6965C79.125 33.6897 68.8674 36.5027 59.0164 40.0755C54.7946 41.6092 51.7714 45.486 51.3188 49.9564C50.944 53.6423 50.6505 57.36 50.4348 61.0919L50.1873 66.3186C50.0671 69.5627 50.0034 72.8104 50.0034 76.0475C50.0034 88.1689 50.6187 99.9476 51.835 111.171L51.3789 110.991L53.3448 122.961L53.5959 124.766L53.6419 124.784L53.8469 126.039C56.8312 144.203 61.5375 160.505 67.8278 174.486C74.7971 189.975 83.7641 202.715 94.4779 212.352L104.311 220.056L112.228 224.664C115.732 226.336 119.427 227.357 123.469 227.767C123.815 227.802 124.169 227.753 124.508 227.82C125.841 228.085 130.654 228.025 132.57 227.763C136.601 227.215 141.145 225.816 143.828 224.639C153.75 219.745 161.426 212.437 161.426 212.437C176.839 198.615 188.49 178.634 196.053 153.056C202.655 130.735 206 104.824 206 76.0404C206 67.3187 205.554 58.5298 204.681 49.9211M192.673 152.063C185.297 177.009 173.989 196.442 159.072 209.821L151.908 215.829L148.503 217.896C146.996 218.865 145.462 219.784 143.913 220.639C140.296 222.639 136.467 223.826 132.206 224.265C131.976 224.289 131.743 224.3 131.513 224.3C130.275 224.3 125.746 224.3 124.508 224.3C124.282 224.3 124.052 224.289 123.826 224.265C119.551 223.826 115.714 222.639 112.087 220.635C110.541 219.78 109.007 218.854 107.501 217.882L103.636 215.458L96.8363 209.733C86.4868 200.425 77.8061 188.077 71.042 173.04C64.8754 159.339 60.261 143.33 57.3262 125.466L55.8589 116.547L56.025 116.614C54.3632 103.792 53.5252 90.1621 53.5252 76.044C53.5252 67.4494 53.9636 58.7913 54.8228 50.3098C55.1411 47.1787 57.2591 44.4576 60.2186 43.3833C70.8015 39.5454 81.8653 36.6016 93.1272 34.6226V34.5661L96.0301 34.1243L100.524 33.361V33.467C108.37 32.3892 116.333 31.7778 124.261 31.6294V31.5516L127.98 31.5799L131.732 31.5516V31.6258C140.381 31.7849 148.977 32.4881 157.463 33.7391L162.077 34.4742C168.396 35.5591 174.651 36.948 180.814 38.6336V38.51L185.294 39.9059L186.651 40.2946V40.3299L187.32 40.5384C190.233 41.4467 193.08 42.4044 195.778 43.3833C198.737 44.4541 200.855 47.1646 201.17 50.278C202.033 58.7701 202.471 67.4353 202.471 76.0404C202.471 104.485 199.172 130.06 192.67 152.056" fill="#EF4849"/>
<path d="M94.2305 125.226C94.1492 121.197 94.089 117.165 94.0395 113.136C94.0077 110.56 92.9752 108.097 91.1507 106.277L83.5945 98.7248C83.195 98.329 82.7954 97.9368 82.4065 97.5374C82.4065 97.5374 80.2849 95.2616 79.5919 94.364C78.715 93.2119 77.93 92.0952 77.0708 90.9219C76.2151 89.7416 75.37 88.5506 74.5532 87.3243C75.7837 88.1336 76.9789 88.9818 78.1492 89.8582C79.3196 90.7381 80.4582 91.6499 81.5826 92.5722C81.8937 92.8338 82.2049 93.0988 82.5125 93.3638L91.1755 84.7057C92.9788 82.9034 94.0112 80.4756 94.0643 77.9311C94.2305 69.5309 94.6512 49.9175 95.1215 39.4818C83.6511 41.429 72.559 44.3622 61.9655 48.2036C60.8375 48.6135 60.0419 49.6384 59.9182 50.8328C59.0766 59.1058 58.6453 67.5201 58.6453 76.0511C58.6453 90.5296 59.5398 104.856 61.4563 118.586L81.8124 126.636L83.4283 127.276L83.4778 128.915C83.5698 142.906 85.3165 157.056 86.5823 171.181C85.0796 164.248 83.4495 157.346 81.9645 150.391C80.6031 143.991 79.3444 137.545 78.4286 130.99L62.3756 124.639C67.881 158.13 79.797 187.526 100.259 205.931C98.2861 194.339 97.1829 182.66 96.3202 170.994C95.2099 155.749 94.5452 140.489 94.2234 125.233" fill="#C7C8CA"/>
<path d="M194.034 48.2C191.322 47.2176 188.575 46.2952 185.799 45.433C185.725 48.7973 185.584 52.1651 185.442 55.5294C185.276 59.1659 185.092 62.8023 184.873 66.4387C184.647 70.0751 184.389 73.708 184.07 77.3409C183.681 73.708 183.352 70.0787 183.055 66.4493C182.762 62.82 182.507 59.1906 182.271 55.5648C182.037 51.7729 181.8 47.988 181.666 44.1961C165.174 39.4677 147.668 36.8525 129.511 36.7147C129.656 42.885 129.752 49.0553 129.89 55.2291L130.215 79.7475C130.427 96.092 130.484 112.44 130.537 128.785C130.544 145.129 130.544 161.477 130.388 177.822L130.148 202.34C130.052 207.401 129.982 212.461 129.89 217.522C129.872 218.494 130.714 219.261 131.683 219.162C135.151 218.805 138.302 217.882 141.435 216.147C143.903 214.783 146.275 213.288 148.556 211.673C150.992 209.945 152.576 207.266 152.947 204.301C153.266 201.764 153.541 199.216 153.764 196.661L154.227 191.805L154.599 186.939L154.966 182.073L155.256 177.196C155.992 164.191 156.512 151.165 156.801 138.132C156.946 131.615 157.049 125.095 157.134 118.575C157.155 117.094 157.173 115.614 157.194 114.133C157.233 111.465 156.193 108.896 154.305 107.008L145.066 97.7742C143.142 99.3256 137.131 102.347 136.396 102.347C136.297 102.347 136.293 102.291 136.414 102.167C138.722 99.785 141.831 96.7564 142.976 95.4277C143.454 94.9152 143.934 94.4099 144.412 93.9081C144.458 93.8551 144.493 93.795 144.543 93.7455L145.161 93.1271C147.219 90.9996 149.309 88.9323 151.519 86.773L155.72 82.5747C157.417 80.8784 158.439 78.6238 158.587 76.2313C158.927 70.7749 159.354 65.3149 159.92 59.855C160.564 65.3079 161.037 70.7678 161.388 76.2277C161.54 78.6202 162.558 80.8713 164.255 82.5676L175.439 93.7455C176.408 94.7138 176.408 96.2864 175.439 97.2582L165.075 107.616C163.269 109.422 162.236 111.853 162.187 114.405L162.109 118.674L161.812 128.481L161.434 138.284C160.864 151.356 160.199 164.428 159.04 177.479C158.195 187.003 157.201 196.537 155.649 206.005C185.672 179.08 197.351 128.523 197.351 76.044C197.351 67.506 196.92 59.081 196.075 50.801C195.954 49.6136 195.155 48.61 194.031 48.2" fill="#C7C8CA"/>
<path d="M98.7422 77.0688C98.7704 79.6203 99.7888 82.0588 101.578 83.8752C106.857 89.2291 117.931 100.464 119.689 102.276C119.798 102.39 119.798 102.443 119.706 102.443C118.999 102.443 112.918 99.3645 110.959 97.7954L102.211 106.538C100.316 108.433 99.2725 111.016 99.322 113.695C99.4034 117.497 99.4599 121.3 99.5872 125.102L99.8701 136.506L100.266 147.903C100.362 151.706 100.553 155.498 100.715 159.293C100.896 163.089 101.023 166.888 101.263 170.672C101.49 174.461 101.677 178.256 101.932 182.041L102.787 193.385C103.13 197.156 103.54 200.916 103.915 204.687C103.94 205.012 104.028 205.683 104.131 206.429C104.414 208.464 105.517 210.298 107.189 211.493C109.548 213.182 112.005 214.741 114.565 216.154C117.705 217.893 120.863 218.815 124.342 219.169C125.297 219.268 126.124 218.511 126.106 217.55C126.014 212.482 125.944 207.411 125.848 202.344L125.608 177.825C125.452 161.481 125.452 145.133 125.459 128.788C125.512 112.444 125.569 96.0956 125.781 79.7511L126.106 55.2326C126.244 49.0623 126.34 42.8921 126.485 36.7183C116.888 36.7925 107.476 37.5629 98.2966 38.9623L98.7351 77.0688H98.7422Z" fill="#C7C8CA"/>
<path d="M121.938 40.6056C120.226 41.5597 120.781 61.629 121.383 87.4763C121.913 110.185 125.965 54.4586 124.604 41.0085C124.409 39.086 122.214 40.4536 121.938 40.6056Z" fill="white"/>
<path d="M99.2195 40.0154C99.1806 41.5633 99.1064 53.1405 99.6332 79.3942C100.312 81.1293 101.483 82.7126 102.388 83.6561C103.491 76.4963 101.985 51.8117 101.985 39.6267C101.571 39.7009 100.287 39.8387 99.216 40.0154" fill="white"/>
<path d="M66.4631 47.2953C66.2156 47.3412 64.2567 48.048 62.4853 48.6453C60.8234 49.2107 59.6742 50.7267 59.5788 52.4796C59.0696 61.9293 57.7754 91.7276 61.619 119.027C62.9874 119.628 64.034 119.967 64.9887 120.37C63.0121 78.9312 65.8302 52.3771 66.4596 47.2953" fill="white"/>
<path d="M92.201 50.7656C90.1572 37.4321 89.0116 69.1351 90.235 79.1114C90.4578 80.9208 90.7548 82.0163 91.1437 81.9951C92.9506 81.9067 94.616 66.5164 92.201 50.7656Z" fill="white"/>
<path d="M92.9046 125.198C92.3883 115.963 91.3558 133.015 91.6953 149.942C91.9393 162.187 93.2546 174.938 94.3119 174.888C95.2984 174.839 94.5806 164.855 94.0113 153.162C93.5375 143.447 93.3147 132.548 92.9046 125.201" fill="white"/>
<path d="M194.045 58.4096C192.051 50.0341 193.939 82.4863 190.623 113.126C187.797 139.213 178.466 163.799 179 164.824C184.251 174.931 200.99 87.5681 194.045 58.406" fill="white"/>
<path d="M180.51 75.3584C182.126 75.2806 182.069 63.3713 179.905 49.2567C177.741 35.1421 178.254 75.4679 180.51 75.3584Z" fill="white"/>
<path d="M153.941 81.3944C155.246 81.3308 158.771 74.7541 157.565 61.3287C156.533 49.861 152.124 81.4827 153.941 81.3944Z" fill="white"/>
<path d="M154.906 113.882C153.602 113.946 149.429 180.203 151.176 191.583C152.919 202.962 156.724 113.794 154.906 113.882Z" fill="white"/>
<path d="M122.189 109.708C120.884 109.772 121.248 200.721 122.995 212.101C124.738 223.48 124.006 109.62 122.189 109.708Z" fill="white"/>
<path d="M77.2052 131.032C77.2052 131.032 69.656 128.014 62.6125 125.198C66.8379 152.356 76.5015 175.79 84.2487 186.353C74.2845 165.029 67.241 134.05 65.5297 127.813L77.2052 131.032Z" fill="white"/>
<path d="M185.792 46.0125L184.282 76.8673L187.755 46.8429C187.302 46.2386 185.792 46.0125 185.792 46.0125Z" fill="white"/>
<path d="M156.208 205.263C162.247 181.423 164.51 108.705 164.51 108.705C163.152 110.214 162.523 111.118 162.247 114.589C162.148 131.739 159.832 173.079 156.208 205.263Z" fill="white"/>
<path d="M129.561 37.5629C131.113 40.1568 130.795 218.398 129.862 218.01C129.218 217.741 130.314 218.988 130.845 218.939C134.469 161.004 130.24 37.4886 130.24 37.4886C130.24 37.4886 130.014 36.9621 129.561 37.5629Z" fill="white"/>
</g>
<defs>
<clipPath id="clip0_726_10909">
<rect width="156" height="200" fill="white" transform="translate(50 28)"/>
</clipPath>
</defs>
</svg>
