<svg width="256" height="256" viewBox="0 0 256 256" fill="none" xmlns="http://www.w3.org/2000/svg">
<rect width="256" height="256" fill="#FCEE34"/>
<path d="M28 215.987L28.0468 110.897L228 40L227.953 145.091L28 215.987Z" fill="#010101"/>
<path d="M42.3459 121.509V195.278L69.3345 185.686V111.926L42.3459 121.509Z" fill="#FCEE34"/>
<path d="M213.701 60.7749L187.059 70.2358V144.005L213.701 134.544V60.7749Z" fill="#FCEE34"/>
<path d="M120.083 93.9117L93.4034 103.382V129.631L120.083 163.461V93.9117Z" fill="#FCEE34"/>
<path d="M182.361 71.8548L155.681 81.3252V107.574L182.361 141.404V71.8548Z" fill="#FCEE34"/>
<path d="M74.0322 156.414L91.0732 177.975L117.903 168.448L74.0322 113.114V156.414Z" fill="#FCEE34"/>
<path d="M124.715 92.2459V119.852L135.253 133L124.715 136.762V156.199L147.24 148.207L153.276 155.843L180.302 146.298L134.7 88.7086L124.715 92.2459Z" fill="#FCEE34"/>
</svg>
