<svg width="257" height="256" viewBox="0 0 257 256" fill="none" xmlns="http://www.w3.org/2000/svg">
<rect width="256" height="256" fill="#8F00FF"/>
<path d="M140.177 117.517H161.255L128.283 164.912L96.2897 116.797L114.103 116.718L139.202 82.5528L30.9417 83.3418L128.283 226.038L227.02 83.2766L193.946 83.3521L201.905 33.8816L140.177 117.517Z" fill="white"/>
<path d="M92.7063 115.914L137.804 83.8831L114.355 116.236L92.7063 115.914Z" fill="#C3C3C3"/>
<path d="M128 184.243L128.024 223.098L226.039 81.9211L128 184.243Z" fill="#C3C3C3"/>
<path d="M195.759 81.5022L229.961 81.4208L128.26 228L28 81.4955L142.227 81.5028L115.023 118.425L98.1742 118.449L128.273 161.981L158.653 118.453H137.422L204.395 28L195.759 81.5022ZM142.97 115.659H164.013L128.262 166.882L92.8481 115.663L113.608 115.632L136.695 84.2969L33.3003 84.2902L128.276 223.072L224.61 84.228L192.475 84.3046L199.802 38.9005L142.97 115.659Z" fill="white"/>
</svg>
