<svg width="256" height="256" viewBox="0 0 256 256" fill="none" xmlns="http://www.w3.org/2000/svg">
<rect width="256" height="256" fill="white"/>
<path d="M128 95.7701L222.98 46.7916L208.913 125.742C207.848 131.719 204.53 136.958 199.569 140.494L174.132 158.624L172.224 180.093L128 211.559L83.7758 180.093L81.8676 158.624L56.4301 140.494C51.4696 136.959 48.153 131.721 47.0862 125.742L33.019 46.7916L127.999 95.7701" fill="black"/>
<path d="M128 216.146L175.81 182.129L177.718 160.658L201.755 143.527C207.515 139.422 211.371 133.337 212.608 126.394L228 40L128 91.5664L28 40L43.3926 126.394C44.6291 133.337 48.4833 139.422 54.2455 143.527L78.2824 160.658L80.1907 182.129L128 216.146H128ZM128 95.7701L222.981 46.7915L208.913 125.742C207.849 131.719 204.53 136.958 199.57 140.494L174.132 158.624L172.224 180.093L128 211.559L83.776 180.093L81.8677 158.624L56.4302 140.494C51.4698 136.959 48.1531 131.721 47.0864 125.742L33.0192 46.7915L127.999 95.7701" fill="#B21832"/>
<path d="M178.372 110.922L181.305 77.9261L211.997 62.0849L206.085 94.5015L178.372 110.922Z" fill="white"/>
<path d="M175.095 147.488L177.436 121.14L204.096 105.552L200.809 124.113C200.129 127.948 197.958 131.36 194.764 133.612L175.093 147.487H175.095L175.095 147.488Z" fill="white"/>
<path d="M77.6291 110.922L74.6957 77.9262L44.0034 62.0849L49.9179 94.5016L77.6291 110.922Z" fill="white"/>
<path d="M80.9061 147.488L78.5651 121.14L51.9048 105.552L55.1918 124.113C55.8714 127.948 58.0424 131.36 61.2366 133.612L80.9078 147.487H80.9058L80.9061 147.488Z" fill="white"/>
<path d="M127.795 150.742L100.242 134.382L101.614 148.984L114.698 158.201C120.208 162.083 123.485 168.375 123.491 175.088L123.513 198.054L91.6688 175.275L83.4419 82.7961L114.502 98.761L116.265 120.761L127.795 112.524L139.324 120.761L141.087 98.761L172.147 82.7961L163.92 175.275L132.077 198.054L132.098 175.088C132.104 168.375 135.381 162.082 140.891 158.201L153.976 148.984L155.347 134.382L127.794 150.742H127.795H127.795Z" fill="white"/>
</svg>
