<svg width="256" height="256" viewBox="0 0 256 256" fill="none" xmlns="http://www.w3.org/2000/svg">
<rect width="256" height="256" fill="#F1C76C"/>
<path d="M132.528 237.818C132.528 237.88 132.528 237.942 132.524 238H124.489C124.439 237.976 124.415 237.934 124.423 237.876C127.126 237.856 129.825 237.838 132.528 237.818Z" fill="#EDBB58"/>
<path d="M212.898 138.385C212.166 133.839 211.064 129.381 209.615 125.012C209.405 124.379 209.078 123.788 208.849 123.161C208.638 122.582 208.534 121.963 208.303 121.392C207.645 119.751 207.011 118.09 206.25 116.495C205.289 114.478 204.209 112.517 203.184 110.529C203.086 110.303 203.013 110.067 202.895 109.852C200.76 106.026 198.255 102.452 195.572 98.9977C192.426 94.9408 188.838 91.2946 185.021 87.8688C182.198 85.3285 179.206 83.0005 176.027 80.927C173.689 79.3984 171.295 77.9359 168.841 76.6037C166.399 75.2774 163.883 74.0613 161.332 72.9555C156.332 70.7938 151.134 69.179 145.794 68.0631C145.218 67.9389 144.917 67.7606 144.855 67.1576C144.761 66.2661 144.333 65.5288 143.713 64.8797C143.44 64.5952 143.222 64.2567 142.961 63.9201C143.121 63.7959 143.21 63.7177 143.308 63.6516C145.61 62.097 146.256 60.2058 145.333 57.6314C145.196 57.2467 145.2 56.9322 145.365 56.5616C146.035 55.053 145.849 53.6026 145.022 52.2022C144.628 51.537 144.261 50.8599 143.888 50.1908C143.992 50.0345 144.049 49.9223 144.129 49.8321C145.73 48.1172 145.523 45.3205 144.269 43.7378C143.093 42.2553 142.12 40.6185 141.075 39.0358C140.396 38.002 139.75 36.9442 139.092 35.8944C138.211 34.1835 137.254 32.5067 136.463 30.7537C135.04 27.5803 133.698 24.3729 132.37 21.1594C131.856 19.9233 131.073 18.9777 129.853 18.4187C127.965 17.5433 125.78 18.1002 124.568 19.4966C123.594 20.6245 122.639 21.7724 121.74 22.9625C118.69 26.9913 115.999 31.2305 114.129 35.9505C112.571 39.8892 111.905 43.9461 112.497 48.1733C113.101 52.4967 114.951 56.227 117.978 59.3543C118.612 60.0114 119.418 60.5484 120.233 60.9711C120.805 61.2676 121.04 61.5821 120.974 62.1851C120.949 62.3995 120.953 62.6199 120.974 62.8342C121.016 63.3712 120.837 63.6897 120.279 63.864C119.025 64.2647 118.16 65.1281 117.596 66.2981C117.502 66.4885 117.394 66.6708 117.311 66.823C106.024 68.2975 95.4524 71.7194 85.6276 77.377C85.3466 77.5092 85.0557 77.6214 84.7908 77.7777C77.0008 82.3394 70.0757 87.959 64.0335 94.6704C60.5077 98.587 57.3733 102.79 54.6181 107.278C50.1151 114.612 46.7779 122.444 44.6588 130.786C43.9585 133.554 43.3344 136.339 42.9913 139.174C42.6762 141.786 42.2468 144.401 42.1424 147.021C41.9899 150.774 41.8816 154.538 42.2508 158.291C42.4816 160.604 42.7103 162.914 43.0134 165.22C43.5973 169.626 44.6729 173.927 46.0134 178.162C47.8134 183.836 50.1973 189.261 53.1412 194.44C56.3358 200.056 60.0984 205.262 64.4649 210.018C69.1305 215.097 74.3038 219.609 80.0489 223.447C80.8717 223.996 81.7426 224.477 82.5934 224.992C82.7419 225.1 82.8864 225.224 83.0409 225.322C90.562 229.95 98.6129 233.342 107.188 235.472C112.846 236.88 118.586 237.736 124.423 237.876C127.126 237.856 129.825 237.838 132.528 237.818C134.495 237.657 136.465 237.537 138.426 237.331C139.712 237.191 140.98 236.93 142.255 236.724C143.874 236.431 145.503 236.195 147.109 235.832C150.444 235.081 153.719 234.113 156.94 232.947C159.749 231.932 162.502 230.786 165.193 229.494C170.842 226.779 176.124 223.473 181.07 219.635C183.773 217.535 186.326 215.251 188.756 212.849C190.267 211.357 191.69 209.766 193.106 208.175C195.709 205.254 197.987 202.085 200.148 198.831C201.043 197.485 201.89 196.105 202.676 194.694C203.521 193.182 204.273 191.611 205.068 190.067C205.162 189.906 205.271 189.756 205.357 189.592C207.336 185.621 208.905 181.488 210.221 177.257C210.775 175.48 211.249 173.675 211.69 171.868C213.081 166.112 213.813 160.264 213.97 154.352C214.114 148.997 213.751 143.674 212.898 138.385ZM121.67 68.8685C121.77 68.4298 121.927 68.1753 122.37 68.009C124.473 67.2117 125.44 65.5709 125.603 63.4212C125.681 62.3675 125.637 61.3056 125.615 60.2519C125.607 59.9994 125.511 59.6889 125.342 59.5086C123.652 57.7075 122.693 55.5539 122.202 53.1658C122.194 53.1197 122.139 53.0837 122.057 52.9835C121.437 54.1355 121.846 55.2974 121.921 56.6497C121.543 56.3071 121.291 56.1048 121.064 55.8724C119.38 54.1535 118.252 52.108 117.59 49.8141C116.448 45.8794 116.82 42.0169 118.228 38.2144C119.755 34.1034 122.033 30.4131 124.59 26.8791C125.426 25.7212 126.335 24.6113 127.214 23.4834C127.421 23.2189 127.662 22.9785 127.963 22.6399C128.133 23.0646 128.274 23.3912 128.402 23.7258C129.98 27.8828 131.741 31.9578 133.891 35.8504C135.386 38.557 137.061 41.1734 138.663 43.8259C138.771 44.0082 138.927 44.1605 139.064 44.3268C139.57 45.0921 140.081 45.8554 140.625 46.6788C139.736 47.1075 138.891 46.9472 138.109 46.6207C137.434 46.3402 136.83 45.8894 136.196 45.5168C136.11 45.4507 136.026 45.3846 135.943 45.3225C135.978 45.4307 136.014 45.5449 136.052 45.657C136.2 45.9596 136.329 46.2761 136.495 46.5666C137.854 48.9627 139.222 51.3527 140.589 53.7488C140.733 54.0052 140.866 54.2697 140.892 54.6744C140.553 54.5662 140.202 54.48 139.879 54.3398C138.123 53.5965 136.728 52.3885 135.536 50.93C135.239 50.5674 134.964 50.1948 134.679 49.8261C134.515 49.5697 134.356 49.3213 134.192 49.0648C134.158 49.0849 134.121 49.1029 134.087 49.1229C134.252 49.5156 134.414 49.9043 134.583 50.2969C135.097 51.3507 135.542 52.4426 136.14 53.4503C137.3 55.4056 138.813 57.1025 140.378 58.7473C140.569 58.9496 140.756 59.156 140.936 59.3704C140.968 59.4084 140.948 59.4866 140.956 59.5887C139.277 59.5687 137.79 59.0939 136.539 57.9439C135.36 56.8541 134.651 55.4517 133.915 54.0473C133.943 55.8283 134.284 57.5352 134.866 59.2001C135.462 60.907 136.273 62.5097 137.304 63.9942C138.301 65.4327 139.365 66.821 140.545 68.4278C139.792 68.3616 139.257 68.3156 138.723 68.2675C135.532 67.2017 132.923 65.2143 130.403 63.0065C130.172 65.052 131.362 67.0975 133.293 67.8908C133.921 68.1473 134.186 68.4899 134.318 69.131C134.661 70.7377 135.085 72.3284 135.472 73.9251C135.51 74.0914 135.51 74.2717 135.538 74.5041C130.401 74.0213 125.324 74.0293 120.297 74.5201C120.769 72.5988 121.244 70.7397 121.672 68.8705L121.67 68.8685ZM119.083 78.6952C119.976 78.3767 121.074 78.3366 122.145 78.3226C126.065 78.2765 129.986 78.2885 133.905 78.3266C134.894 78.3346 135.879 78.5209 136.877 78.6291C137.348 79.8031 137.792 80.919 138.235 82.0309C139.439 85.2704 140.938 88.3737 142.626 91.3828C149.571 103.792 159.008 113.833 171.177 121.272C171.653 121.564 172.136 121.847 172.614 122.139C172.634 122.155 172.646 122.189 172.73 122.333C172.379 122.371 172.076 122.428 171.769 122.438C168.496 122.532 165.253 122.868 162.023 123.405C153.624 124.806 145.756 127.66 138.398 131.926C137.541 132.423 136.722 132.975 135.885 133.504C135.644 133.637 135.384 133.741 135.161 133.905C132.976 135.496 130.794 137.094 128.617 138.691C128.394 138.855 128.178 139.018 127.947 139.188C127.736 139.022 127.57 138.886 127.397 138.757C125.029 137.038 122.727 135.229 120.285 133.625C114.821 130.03 108.903 127.364 102.644 125.451C98.7112 124.253 94.6978 123.425 90.6202 122.926C89.2055 122.752 87.7767 122.69 86.352 122.576C85.3005 122.51 84.2449 122.448 83.1934 122.381C83.1894 122.331 83.1854 122.281 83.1814 122.229C84.0041 121.7 84.8249 121.171 85.6476 120.647C85.9446 120.48 86.2516 120.332 86.5366 120.15C90.6022 117.541 94.3888 114.57 97.8945 111.245C105.412 104.116 111.412 95.8844 115.78 86.4965C116.952 83.9802 117.949 81.3818 119.083 78.6912V78.6952ZM157.511 161.025C157.752 161.402 157.511 161.694 157.297 161.931C156.821 162.464 156.332 162.984 155.802 163.459C153.831 165.228 151.423 166.19 148.931 166.881C146.691 167.504 144.386 167.893 142.114 168.414C140.148 168.864 138.195 169.385 136.447 170.447C135.905 170.744 135.368 171.034 134.717 171.389C135.524 168.943 136.861 167.017 139.158 165.661C136.517 164.627 133.997 163.69 132.283 161.434C132.05 162.752 132.97 165.05 134.382 166.641C131.593 169.051 129.622 172.074 127.967 175.542C126.295 172.12 124.357 169.059 121.531 166.661C122.942 164.974 123.658 163.281 123.729 161.342C121.929 163.664 119.424 164.647 116.886 165.623C119.585 167.895 120.883 169.682 121.15 171.557C120.959 171.429 120.815 171.347 120.691 171.251C118.63 169.652 116.204 168.957 113.721 168.4C111.478 167.895 109.206 167.494 106.995 166.891C104.404 166.184 101.942 165.13 99.8932 163.317C99.3473 162.834 98.8958 162.239 98.4363 161.668C98.3239 161.528 98.342 161.28 98.2838 161.023C100.337 161.135 102.303 161.242 104.27 161.35C104.286 161.292 104.302 161.234 104.32 161.175C103.997 161.031 103.682 160.877 103.355 160.745C98.2216 158.633 93.3333 156.059 88.752 152.921C88.0075 152.413 87.2871 151.872 86.5547 151.347C84.4978 149.504 82.3988 147.707 80.4001 145.801C79.0516 144.517 77.8496 143.087 76.5954 141.71C76.2442 141.334 75.9653 140.889 75.5981 140.528C75.0342 139.979 74.974 139.314 74.9519 138.581C74.8476 135.073 74.5085 131.589 73.9044 128.131C73.8623 127.891 73.8503 127.648 73.8141 127.296C74.8737 127.192 75.879 127.031 76.8904 127.007C79.9326 126.937 82.9747 126.921 86.0169 126.883C86.8777 126.969 87.7426 127.061 88.6075 127.14C94.2042 127.644 99.6343 128.893 104.908 130.814C113.127 133.813 120.426 138.319 126.907 144.169C127.246 144.475 127.59 144.784 127.951 145.106C128.717 144.421 129.412 143.752 130.164 143.155C132.127 141.584 134.117 140.043 136.096 138.497C138.853 136.552 141.799 134.931 144.821 133.448C150.55 130.642 156.576 128.742 162.875 127.713C167.093 127.023 171.34 126.713 175.608 126.837C177.566 126.895 179.519 127.081 181.473 127.222C181.652 127.234 181.833 127.304 182.081 127.362C181.925 128.486 181.73 129.578 181.63 130.684C181.369 133.464 181.134 136.249 180.934 139.036C180.895 139.523 180.793 139.919 180.482 140.3C175.164 146.833 168.96 152.316 161.555 156.407C158.533 158.076 155.424 159.557 152.234 160.875C152.015 160.969 151.802 161.073 151.618 161.35C153.572 161.246 155.533 161.139 157.507 161.031L157.511 161.025ZM209.657 156.331C209.21 165.17 207.378 173.725 204.107 181.967C204.029 182.165 203.987 182.379 203.928 182.586C203.477 183.59 203.039 184.599 202.576 185.603C194.657 202.722 182.324 215.652 165.598 224.409C160.943 226.843 156.083 228.76 151.034 230.187C148.409 230.926 145.716 231.439 143.057 232.058C142.784 232.12 142.511 232.182 142.238 232.244C140.699 232.443 139.164 232.675 137.623 232.831C135.707 233.026 133.782 233.274 131.862 233.286C128.192 233.31 124.511 233.352 120.857 233.088C112.624 232.497 104.669 230.583 97.0075 227.48C92.4182 225.621 88.0336 223.365 83.8577 220.707C83.3981 220.414 82.9265 220.146 82.459 219.871C80.8075 218.657 79.1138 217.495 77.5085 216.223C62.4382 204.293 52.6214 189.009 48.2167 170.293C46.5532 163.235 45.9191 156.065 46.2301 148.83C46.8341 134.909 50.701 121.939 57.9653 110.024C64.786 98.8354 73.8061 89.8181 84.9593 82.9244C85.1961 82.7802 85.4189 82.6179 85.6536 82.4576C87.566 81.4339 89.4624 80.3661 91.4028 79.3924C98.5106 75.8384 105.994 73.4263 113.836 72.104C114.805 71.9397 115.78 71.7855 116.824 71.6092C116.824 71.8075 116.852 71.9317 116.82 72.0379C116.527 73.0496 116.228 74.0553 115.921 75.0951C114.604 75.3475 113.326 75.5959 112.05 75.8424C107.115 76.784 102.377 78.3586 97.7982 80.4001C95.649 81.3557 93.5059 82.3514 91.449 83.4954C89.3179 84.6814 87.2971 86.0657 85.2282 87.364C85.1199 87.422 85.0015 87.4681 84.9011 87.5382C81.3453 90.0125 78.0182 92.7611 74.9519 95.8183C72.4155 98.3466 70.0596 101.025 67.9104 103.888C63.5439 109.706 59.996 115.971 57.4756 122.802C54.9873 129.554 53.5927 136.53 53.1331 143.696C52.8301 148.386 52.8442 153.072 53.4442 157.746C53.998 162.039 54.8629 166.254 56.1472 170.387C56.4442 171.347 56.9137 172.214 57.58 172.977C58.9204 174.506 60.6382 175.279 62.6388 175.428C63.1024 175.46 63.3713 175.602 63.6001 175.991C63.9934 176.656 64.4368 177.297 64.8583 177.95C68.3318 183.325 71.9319 188.61 76.1198 193.47C78.9714 196.78 82.0516 199.843 85.5894 202.43C85.8704 202.632 86.1613 202.822 86.5828 203.111C86.4744 202.582 86.4122 202.251 86.3379 201.921C85.8042 199.583 84.9052 197.425 83.2095 195.668C82.5633 194.995 81.9312 194.304 81.261 193.657C76.0837 188.672 71.7212 183.067 68.3439 176.718C67.8964 175.878 67.4629 175.031 67.0114 174.163C68.5345 173.138 69.3372 171.705 69.9091 170.143C70.4549 168.66 70.8944 167.138 71.3901 165.635C71.4603 165.421 71.5606 165.214 71.683 164.928C71.8777 165.154 72.0021 165.29 72.1145 165.429C73.782 167.52 75.5339 169.532 77.4703 171.383C80.4182 174.206 83.5085 176.858 86.8998 179.14C88.8624 180.392 90.7788 181.726 92.8055 182.87C94.5895 183.878 95.7574 185.296 96.4677 187.168C97.2283 189.167 97.5393 191.247 97.5554 193.374C97.5875 196.606 97.5594 199.837 97.5794 203.073C97.5875 204.721 97.7199 206.362 98.1634 207.961C98.3942 208.786 98.7012 209.594 99.4457 210.303C99.4075 209.89 99.3754 209.614 99.3514 209.339C99.3233 209.029 99.2771 208.716 99.2811 208.41C99.3152 202.604 101.703 198.022 106.557 194.807C109.634 192.765 113.097 191.641 116.707 191C118.636 190.658 120.598 190.491 122.543 190.241C122.372 190.183 122.178 190.101 121.979 190.047C120.986 189.79 119.988 189.546 118.995 189.285C117.853 188.987 116.705 188.714 115.576 188.364C114.624 188.065 114.426 187.604 114.719 186.649C114.996 185.757 115.295 184.876 115.576 183.984C115.634 183.794 115.662 183.592 115.72 183.315C114.185 184.158 112.744 184.952 111.303 185.749C108.687 187.204 106.212 188.86 104.085 190.996C103.804 191.281 103.469 191.525 103.124 191.723C102.014 192.356 101.196 191.98 100.931 190.724C100.786 190.055 100.698 189.377 100.565 188.706C99.6664 184.058 97.2042 180.492 93.1406 178.024C92.0269 177.347 90.9353 176.628 89.8456 175.908C88.9928 175.346 88.156 174.75 87.3132 174.17C87.1266 174.005 86.95 173.835 86.7553 173.683C82.8764 170.704 79.4249 167.278 76.2422 163.579C75.3573 162.55 74.5947 161.414 73.7339 160.36C73.2282 159.741 72.9633 159.138 73.2543 158.327C73.4369 157.81 73.481 157.237 73.5774 156.686C74.1232 153.57 74.683 150.451 74.8275 147.28C74.8396 147.057 74.8616 146.837 74.8817 146.615C74.972 146.557 75.0563 146.502 75.1426 146.444C75.3131 146.705 75.4496 146.997 75.6643 147.214C76.782 148.338 77.8917 149.474 79.0536 150.553C81.2389 152.583 83.4985 154.528 85.9627 156.223C86.1032 156.343 86.2316 156.475 86.3841 156.586C88.9125 158.405 91.5413 160.066 94.3065 161.504C94.8784 161.802 95.4624 162.091 96.0825 162.402C96.0825 162.694 96.0985 162.972 96.0784 163.245C95.8677 165.815 95.649 168.382 95.4443 170.952C95.4122 171.353 95.354 171.765 95.4102 172.162C95.9821 176.241 97.8684 179.547 101.304 181.893C102.963 183.029 104.826 183.575 106.85 183.533C109.024 183.487 110.994 182.774 112.856 181.714C115.208 180.376 117.195 178.599 119.041 176.644C119.206 176.473 119.384 176.317 119.571 176.139C120.867 177.173 122.153 178.134 122.438 180.007C121.379 179.821 120.448 179.657 119.479 179.487C119.047 180.895 118.626 182.225 118.232 183.565C118.054 184.181 118.295 184.677 118.804 185.012C119.085 185.194 119.42 185.314 119.747 185.401C122.155 186.02 124.557 186.657 126.986 187.21C127.628 187.354 128.36 187.342 129.006 187.194C131.366 186.657 133.712 186.032 136.064 185.441C136.275 185.387 136.489 185.34 136.688 185.258C137.611 184.886 137.914 184.287 137.643 183.341C137.332 182.267 136.993 181.201 136.658 180.138C136.584 179.911 136.475 179.699 136.385 179.489C135.412 179.663 134.503 179.827 133.558 179.993C133.558 179.278 133.764 178.709 134.162 178.287C134.878 177.521 135.673 176.828 136.433 176.105C137.493 177.155 138.506 178.254 139.62 179.242C141.372 180.801 143.32 182.085 145.556 182.866C149.38 184.205 152.86 183.59 155.916 180.919C158.055 179.048 159.492 176.704 160.184 173.951C160.421 173.002 160.548 171.984 160.491 171.012C160.355 168.656 160.07 166.31 159.867 163.958C159.821 163.441 159.859 162.916 159.859 162.391C167.93 158.483 174.781 153.02 181.038 146.458C181.088 147.352 181.076 148.033 181.174 148.698C181.666 151.98 182.168 155.265 182.718 158.541C182.816 159.14 182.764 159.591 182.394 160.09C176.922 167.482 170.292 173.599 162.358 178.289C162.01 178.495 161.663 178.709 161.348 178.958C158.061 181.548 155.984 184.866 155.31 189.023C155.206 189.668 155.111 190.313 154.947 190.944C154.682 191.944 153.938 192.294 153.018 191.838C152.579 191.615 152.158 191.317 151.81 190.97C149.597 188.75 147 187.069 144.277 185.561C143.109 184.916 141.939 184.267 140.772 183.616C140.605 183.521 140.428 183.445 140.25 183.351C140.222 183.471 140.204 183.503 140.212 183.525C140.497 184.413 140.78 185.298 141.069 186.182C141.582 187.753 141.384 188.129 139.752 188.562C137.828 189.067 135.899 189.554 133.975 190.055C133.76 190.113 133.562 190.219 133.483 190.249C135.349 190.489 137.304 190.666 139.228 191.004C142.527 191.583 145.672 192.645 148.588 194.318C152.491 196.558 154.961 199.887 156.157 204.187C156.707 206.154 156.753 208.165 156.472 210.303C157.216 209.65 157.499 208.864 157.734 208.071C158.17 206.605 158.318 205.084 158.326 203.559C158.346 200.262 158.318 196.968 158.358 193.675C158.386 191.303 158.681 188.965 159.633 186.753C160.337 185.104 161.437 183.844 163.038 182.942C171.043 178.439 178.008 172.687 183.765 165.509C183.906 165.334 184.08 165.182 184.299 164.96C184.397 165.236 184.459 165.407 184.514 165.579C184.939 166.909 185.332 168.251 185.788 169.57C186.408 171.347 187.211 173.016 188.868 174.147C188.744 174.432 188.645 174.688 188.521 174.933C186.199 179.521 183.48 183.866 180.115 187.767C178.046 190.163 175.843 192.457 173.603 194.692C171.558 196.734 170.164 199.082 169.58 201.907C169.505 202.271 169.443 202.642 169.353 203.139C169.738 202.874 169.995 202.708 170.246 202.528C173.304 200.318 175.999 197.714 178.532 194.941C181.172 192.044 183.584 188.965 185.808 185.743C187.997 182.574 190.108 179.35 192.235 176.135C192.532 175.684 192.827 175.482 193.399 175.42C196.483 175.081 198.727 173.518 199.712 170.527C201.406 165.371 202.365 160.056 202.793 154.65C203.057 151.299 203.007 147.947 202.827 144.585C202.594 140.202 202.032 135.862 201.047 131.585C197.888 117.916 191.158 106.214 181.373 96.221C176.465 91.2085 170.898 87.0434 164.768 83.6376C163.592 82.9845 162.392 82.3815 161.192 81.7744C158.2 80.2739 155.087 79.0638 151.921 77.994C149.268 77.1005 146.585 76.3112 143.82 75.8323C142.554 75.614 141.291 75.3655 140.029 75.1332C139.682 74.0213 139.359 72.9875 139.04 71.9517C139.048 71.8536 139.056 71.7574 139.064 71.6593C143.053 72.1421 146.966 72.9815 150.823 74.0854C159.131 76.4614 166.879 80.0595 174.019 84.9238C186.179 93.2079 195.472 103.966 201.873 117.213C201.978 117.435 202.11 117.643 202.233 117.858C202.427 118.345 202.614 118.833 202.825 119.312C205.734 125.877 207.721 132.705 208.819 139.799C209.672 145.286 209.944 150.804 209.659 156.337L209.657 156.331Z" fill="url(#paint0_linear_1041_11186)"/>
<path d="M109.548 217.623C111.318 220.492 113.768 222.496 117.079 223.345C118.807 223.788 120.53 223.818 122.204 223.091C124.158 222.241 124.999 220.538 124.546 218.461C124.317 217.409 123.849 216.471 123.265 215.582C122.302 214.115 121.106 212.853 119.806 211.683C119.645 211.539 119.505 211.373 119.326 211.186C119.443 211.164 119.477 211.146 119.501 211.154C119.708 211.22 119.914 211.285 120.117 211.361C125.104 213.228 130.108 213.446 135.145 211.545C135.627 211.363 136.142 211.279 136.644 211.148C136.403 211.381 136.168 211.619 135.922 211.846C134.681 212.985 133.536 214.21 132.617 215.628C132.039 216.519 131.577 217.459 131.36 218.513C130.933 220.6 131.78 222.275 133.754 223.109C135.233 223.734 136.762 223.828 138.32 223.423C138.288 222.992 138.243 222.562 138.207 222.133C138.243 222.564 138.288 222.994 138.32 223.423C139.174 223.157 140.061 222.962 140.878 222.61C142.437 221.937 143.68 220.855 144.817 219.579C146.379 217.83 147.456 215.87 148.096 213.635C148.604 211.86 148.813 210.046 148.887 208.211C149.051 204.219 147.382 201.253 143.852 199.362C141.546 198.126 139.06 197.489 136.459 197.273C135.566 197.181 134.673 197.078 133.78 197C132.857 196.92 131.99 197.13 131.16 197.529C130.742 197.727 130.325 197.964 129.879 198.06C128.206 198.421 126.538 198.463 124.967 197.641C124 197.136 122.986 196.902 121.905 197.016C120.452 197.169 118.989 197.281 117.55 197.525C115.202 197.924 112.965 198.667 110.972 200.023C108.92 201.422 107.559 203.313 107.196 205.777C107.011 207.025 107.041 208.322 107.122 209.586C107.302 212.445 108.031 215.163 109.548 217.623ZM110.984 205.887C111.713 205.429 112.453 204.906 113.264 204.673C116.178 203.842 118.973 202.752 121.58 201.209C122.27 200.801 122.89 200.857 123.502 201.243C125.439 202.466 127.562 202.528 129.713 202.205C130.546 202.081 131.386 201.766 132.135 201.372C133.054 200.887 133.843 200.795 134.726 201.428C135.247 201.802 135.875 202.025 136.457 202.317C138.356 203.321 140.391 203.968 142.429 204.615C143.216 204.866 143.966 205.26 144.683 205.677C145.056 205.895 145.317 206.308 145.642 206.647C144.924 207.115 144.448 206.593 143.912 206.488C142.634 206.238 141.358 205.965 140.077 205.727C139.5 205.619 138.91 205.573 138.326 205.497C138.241 205.461 138.159 205.403 138.073 205.393C133.014 204.767 127.943 204.577 122.85 204.912C118.778 205.18 114.763 205.779 110.812 206.799C110.699 206.829 110.571 206.803 110.272 206.803C110.557 206.424 110.711 206.06 110.986 205.885L110.984 205.887Z" fill="#EDBB58"/>
<path d="M127.989 99.3423C122.318 99.2001 116.609 103.82 116.541 110.676C116.478 116.982 121.654 122.163 127.973 122.135C134.075 122.109 139.411 117.299 139.389 110.716C139.367 103.726 133.549 99.2161 127.987 99.3403L127.989 99.3423ZM134.962 110.726C134.962 114.618 131.884 117.71 127.991 117.724C124.064 117.738 120.903 114.614 120.949 110.696C120.995 106.753 123.955 103.684 127.989 103.72C132.628 103.76 135.078 107.62 134.96 110.724L134.962 110.726Z" fill="#EDBB58"/>
<path d="M118.997 146.02C115.158 142.145 110.519 140.1 105.016 140.232C101.828 140.31 99.4298 141.768 97.9669 144.641C97.6579 145.246 97.4051 145.889 97.1984 146.537C96.4679 148.84 96.2833 151.22 96.2793 153.623C96.2793 153.819 96.3094 154.015 96.3295 154.248C97.2907 153.821 98.1515 153.396 99.0445 153.052C100.327 152.555 101.577 152.599 102.811 153.304C105.564 154.877 108.338 156.417 111.113 157.952C112.694 158.827 114.33 159.579 116.075 160.078C118.69 160.825 121.285 160.785 123.92 159.941C124.11 158.321 124.054 156.798 123.817 155.293C123.251 151.671 121.556 148.604 118.995 146.02H118.997Z" fill="#EDBB58"/>
<path d="M157.742 144.219C156.526 142.069 154.656 140.851 152.266 140.386C150.372 140.017 148.484 140.204 146.621 140.612C143.663 141.262 140.981 142.496 138.671 144.485C137.439 145.302 136.477 146.4 135.572 147.544C132.701 151.174 131.509 155.293 132.025 159.955C134.208 160.646 136.429 160.849 138.697 160.334C140.401 160.047 141.994 159.428 143.499 158.619C146.617 156.942 149.734 155.257 152.78 153.456C154.058 152.701 155.302 152.551 156.641 152.975C157.433 153.228 158.174 153.647 158.938 153.987C159.145 154.079 159.358 154.161 159.721 154.31C159.609 152.639 159.567 151.118 159.392 149.612C159.173 147.723 158.69 145.897 157.74 144.221L157.742 144.219Z" fill="#EDBB58"/>
<path d="M142.238 232.244C140.699 232.443 139.164 232.675 137.621 232.831C135.704 233.026 133.782 233.274 131.862 233.286C128.193 233.31 124.513 233.35 120.861 233.088C112.623 232.495 104.669 230.581 97.0113 227.48C92.42 225.621 88.0354 223.365 83.8574 220.705C83.3999 220.414 82.9283 220.146 82.4628 219.869C80.8093 218.657 79.1156 217.497 77.5083 216.225C62.438 204.293 52.6212 189.009 48.2165 170.293C46.555 163.231 45.9188 156.063 46.2319 148.828C46.8339 134.907 50.7008 121.941 57.967 110.022C64.7858 98.8354 73.8059 89.8181 84.9591 82.9244C85.1959 82.7781 85.4207 82.6138 85.6514 82.4576C87.5678 81.4318 89.4601 80.362 91.4046 79.3904C98.5124 75.8363 105.995 73.4242 113.833 72.104C114.805 71.9397 115.778 71.7834 116.823 71.6111C116.823 71.8095 116.85 71.9317 116.819 72.0379C116.528 73.0476 116.227 74.0573 115.92 75.0951C114.604 75.3475 113.326 75.5939 112.048 75.8403C107.111 76.7839 102.375 78.3586 97.794 80.3981C95.6448 81.3557 93.5016 82.3514 91.4468 83.4953C89.3157 84.6814 87.2929 86.0657 85.224 87.3639C85.1136 87.422 84.9972 87.4681 84.8969 87.5382C81.341 90.0124 78.018 92.7611 74.9497 95.8183C72.4153 98.3446 70.0554 101.025 67.9062 103.888C63.5396 109.704 59.9938 115.969 57.4734 122.8C54.9831 129.55 53.5884 136.529 53.1289 143.696C52.8279 148.386 52.8399 153.07 53.4419 157.746C53.9938 162.037 54.8587 166.254 56.145 170.385C56.444 171.347 56.9115 172.216 57.5777 172.975C58.9182 174.504 60.638 175.279 62.6386 175.426C63.1022 175.46 63.3711 175.604 63.5998 175.989C63.9952 176.656 64.4366 177.297 64.86 177.948C68.3356 183.323 71.9337 188.61 76.1216 193.47C78.9731 196.778 82.0554 199.843 85.5932 202.43C85.8722 202.634 86.1651 202.822 86.5845 203.111C86.4762 202.584 86.414 202.251 86.3377 201.921C85.8059 199.583 84.9069 197.425 83.2133 195.666C82.5651 194.995 81.935 194.304 81.2648 193.657C76.0895 188.67 71.727 183.067 68.3477 176.718C67.9002 175.876 67.4667 175.027 67.0152 174.161C68.5383 173.136 69.341 171.703 69.9149 170.143C70.4587 168.658 70.9022 167.136 71.3939 165.633C71.4641 165.419 71.5664 165.214 71.6868 164.928C71.8795 165.152 72.0039 165.288 72.1183 165.431C73.7858 167.52 75.5417 169.53 77.4761 171.383C80.424 174.206 83.5123 176.856 86.9036 179.14C88.8682 180.392 90.7846 181.728 92.8093 182.872C94.5933 183.878 95.7612 185.298 96.4715 187.166C97.2321 189.165 97.5411 191.249 97.5592 193.372C97.5873 196.606 97.5632 199.839 97.5812 203.071C97.5893 204.721 97.7237 206.364 98.1672 207.961C98.396 208.786 98.703 209.592 99.4495 210.301C99.4093 209.888 99.3792 209.612 99.3552 209.335C99.3291 209.027 99.2829 208.716 99.2849 208.408C99.3211 202.6 101.707 198.022 106.561 194.805C109.639 192.765 113.101 191.637 116.711 190.998C118.642 190.658 120.602 190.487 122.547 190.241C122.376 190.181 122.183 190.099 121.981 190.044C120.987 189.786 119.992 189.542 119.001 189.283C117.859 188.985 116.707 188.712 115.581 188.36C114.63 188.063 114.429 187.6 114.724 186.645C114.999 185.755 115.298 184.872 115.577 183.984C115.638 183.794 115.664 183.591 115.722 183.315C114.189 184.16 112.746 184.952 111.307 185.749C108.688 187.204 106.216 188.86 104.089 190.994C103.808 191.277 103.473 191.525 103.126 191.723C102.014 192.356 101.197 191.98 100.93 190.722C100.788 190.055 100.698 189.375 100.567 188.706C99.6662 184.056 97.204 180.49 93.1424 178.024C92.0267 177.347 90.9371 176.626 89.8454 175.904C88.9906 175.339 88.1558 174.748 87.313 174.167C87.1284 174.005 86.9518 173.831 86.7571 173.683C82.8782 170.704 79.4267 167.278 76.244 163.579C75.3571 162.55 74.5965 161.412 73.7357 160.36C73.23 159.741 72.9631 159.14 73.2541 158.327C73.4387 157.808 73.4808 157.235 73.5791 156.686C74.127 153.568 74.6868 150.451 74.8313 147.28C74.8414 147.057 74.8674 146.833 74.8875 146.611C74.9738 146.555 75.0601 146.498 75.1464 146.442C75.3189 146.701 75.4554 146.993 75.6701 147.21C76.7858 148.336 77.8955 149.469 79.0554 150.549C81.2407 152.581 83.5023 154.524 85.9665 156.221C86.107 156.343 86.2374 156.475 86.3879 156.584C88.9163 158.401 91.5451 160.064 94.3103 161.504C94.8862 161.804 95.4682 162.091 96.0863 162.403C96.0863 162.696 96.1063 162.972 96.0842 163.247C95.8755 165.817 95.6588 168.386 95.4501 170.956C95.418 171.357 95.3618 171.769 95.416 172.162C95.9879 176.241 97.8742 179.549 101.308 181.895C102.969 183.029 104.829 183.577 106.856 183.535C109.031 183.489 111 182.778 112.864 181.718C115.214 180.38 117.203 178.599 119.049 176.646C119.211 176.473 119.39 176.319 119.579 176.141C120.875 177.173 122.159 178.136 122.446 180.011C121.385 179.825 120.454 179.659 119.482 179.489C119.051 180.897 118.631 182.227 118.238 183.565C118.058 184.18 118.3 184.679 118.812 185.016C119.091 185.198 119.426 185.318 119.751 185.403C122.159 186.022 124.565 186.659 126.989 187.21C127.632 187.356 128.366 187.344 129.01 187.198C131.374 186.659 133.718 186.034 136.07 185.441C136.28 185.387 136.495 185.34 136.694 185.258C137.615 184.886 137.922 184.287 137.647 183.341C137.336 182.267 136.997 181.203 136.662 180.138C136.589 179.911 136.479 179.697 136.389 179.487C135.413 179.663 134.508 179.825 133.563 179.995C133.563 179.28 133.768 178.711 134.165 178.286C134.882 177.521 135.676 176.828 136.437 176.105C137.494 177.155 138.508 178.254 139.622 179.242C141.375 180.801 143.322 182.085 145.559 182.868C149.384 184.207 152.862 183.594 155.918 180.921C158.059 179.05 159.494 176.704 160.188 173.953C160.427 173.004 160.551 171.984 160.495 171.01C160.359 168.654 160.076 166.308 159.873 163.956C159.829 163.439 159.867 162.914 159.867 162.387C167.94 158.481 174.789 153.018 181.046 146.456C181.098 147.354 181.084 148.033 181.182 148.696C181.674 151.982 182.176 155.265 182.723 158.541C182.824 159.14 182.77 159.589 182.4 160.088C176.928 167.482 170.298 173.599 162.363 178.288C162.016 178.493 161.669 178.707 161.354 178.956C158.067 181.548 155.992 184.866 155.316 189.021C155.212 189.664 155.119 190.313 154.953 190.942C154.69 191.942 153.945 192.292 153.024 191.834C152.587 191.615 152.165 191.313 151.82 190.966C149.605 188.748 147.01 187.067 144.285 185.559C143.115 184.912 141.947 184.261 140.777 183.614C140.611 183.521 140.436 183.441 140.256 183.349C140.23 183.467 140.212 183.499 140.22 183.525C140.504 184.411 140.787 185.296 141.076 186.18C141.59 187.749 141.389 188.127 139.758 188.558C137.836 189.065 135.905 189.552 133.981 190.052C133.768 190.109 133.571 190.213 133.491 190.245C135.359 190.485 137.314 190.662 139.238 191C142.535 191.579 145.678 192.641 148.597 194.316C152.499 196.556 154.973 199.883 156.167 204.183C156.715 206.152 156.765 208.163 156.48 210.301C157.224 209.65 157.509 208.862 157.744 208.071C158.179 206.603 158.328 205.084 158.336 203.557C158.356 200.262 158.326 196.966 158.364 193.673C158.392 191.301 158.689 188.963 159.636 186.753C160.343 185.102 161.442 183.844 163.044 182.942C171.05 178.439 178.014 172.685 183.769 165.507C183.909 165.33 184.084 165.182 184.305 164.96C184.401 165.236 184.463 165.407 184.519 165.579C184.943 166.909 185.338 168.249 185.796 169.57C186.412 171.345 187.216 173.014 188.874 174.145C188.749 174.43 188.651 174.686 188.527 174.931C186.205 179.523 183.486 183.864 180.121 187.763C178.052 190.161 175.85 192.453 173.607 194.692C171.562 196.734 170.169 199.08 169.584 201.905C169.507 202.271 169.447 202.642 169.357 203.139C169.74 202.876 169.999 202.706 170.25 202.526C173.306 200.32 176.001 197.716 178.533 194.939C181.174 192.044 183.584 188.965 185.808 185.745C187.997 182.574 190.11 179.348 192.235 176.133C192.532 175.682 192.829 175.482 193.401 175.418C196.487 175.079 198.731 173.518 199.714 170.525C201.408 165.369 202.367 160.056 202.794 154.65C203.059 151.299 203.009 147.945 202.83 144.587C202.598 140.202 202.036 135.862 201.049 131.587C197.894 117.916 191.16 106.216 181.375 96.221C176.469 91.2085 170.902 87.0454 164.769 83.6376C163.596 82.9845 162.394 82.3794 161.194 81.7764C158.204 80.2739 155.091 79.0638 151.925 77.996C149.274 77.1005 146.589 76.3111 143.824 75.8343C142.555 75.616 141.293 75.3675 140.031 75.1351C139.686 74.0232 139.363 72.9875 139.042 71.9517C139.05 71.8556 139.058 71.7594 139.066 71.6612C143.053 72.14 146.97 72.9815 150.827 74.0854C159.135 76.4634 166.883 80.0575 174.022 84.9238C186.181 93.2099 195.478 103.968 201.875 117.215C201.982 117.435 202.114 117.645 202.232 117.86C202.429 118.345 202.614 118.835 202.824 119.312C205.734 125.875 207.721 132.705 208.82 139.799C209.671 145.286 209.942 150.804 209.661 156.337C209.212 165.178 207.38 173.735 204.111 181.973C204.032 182.171 203.988 182.383 203.93 182.59C203.481 183.596 203.043 184.607 202.58 185.607C194.661 202.726 182.326 215.656 165.602 224.413C160.951 226.849 156.086 228.766 151.038 230.191C148.413 230.932 145.722 231.447 143.061 232.062C142.788 232.126 142.515 232.186 142.242 232.248L142.238 232.244ZM136.463 197.275C135.57 197.183 134.677 197.08 133.784 197.002C132.861 196.922 131.994 197.133 131.163 197.531C130.746 197.73 130.329 197.966 129.883 198.062C128.209 198.423 126.542 198.465 124.971 197.643C124.003 197.139 122.99 196.904 121.908 197.018C120.456 197.171 118.993 197.283 117.554 197.527C115.206 197.926 112.969 198.669 110.976 200.025C108.923 201.424 107.563 203.315 107.199 205.779C107.015 207.027 107.045 208.324 107.125 209.588C107.306 212.447 108.034 215.165 109.551 217.625C111.321 220.494 113.771 222.498 117.082 223.347C118.81 223.79 120.536 223.82 122.207 223.093C124.162 222.243 125.003 220.54 124.549 218.463C124.32 217.411 123.853 216.473 123.269 215.584C122.306 214.117 121.11 212.855 119.809 211.685C119.649 211.541 119.508 211.375 119.33 211.188C119.446 211.166 119.48 211.148 119.504 211.156C119.711 211.222 119.918 211.287 120.12 211.363C125.107 213.23 130.112 213.448 135.149 211.547C135.63 211.365 136.146 211.281 136.648 211.15L136.66 211.138C136.415 211.375 136.176 211.617 135.925 211.848C134.685 212.987 133.539 214.212 132.62 215.63C132.042 216.521 131.581 217.461 131.364 218.515C130.937 220.602 131.783 222.277 133.758 223.111C135.237 223.736 136.766 223.83 138.323 223.425C139.178 223.159 140.065 222.964 140.882 222.612C142.441 221.939 143.683 220.857 144.821 219.581C146.382 217.832 147.46 215.872 148.1 213.637C148.608 211.862 148.816 210.048 148.89 208.213C149.055 204.221 147.385 201.256 143.856 199.364C141.55 198.128 139.064 197.491 136.463 197.275Z" fill="#050402"/>
<path d="M138.237 82.0348C139.439 85.2744 140.94 88.3776 142.626 91.3867C149.571 103.794 159.008 113.835 171.175 121.276C171.652 121.568 172.134 121.853 172.612 122.143C172.634 122.157 172.644 122.193 172.728 122.337C172.379 122.375 172.074 122.432 171.767 122.442C168.496 122.536 165.251 122.874 162.022 123.411C153.624 124.812 145.754 127.664 138.396 131.932C137.541 132.427 136.72 132.981 135.885 133.508C135.642 133.641 135.381 133.749 135.159 133.909C132.973 135.5 130.794 137.1 128.613 138.697C128.392 138.857 128.175 139.022 127.945 139.194C127.734 139.03 127.567 138.891 127.395 138.765C125.031 137.046 122.725 135.235 120.285 133.631C114.817 130.036 108.901 127.37 102.64 125.459C98.7071 124.257 94.6957 123.433 90.6181 122.932C89.2014 122.758 87.7726 122.696 86.3498 122.582C85.2963 122.518 84.2428 122.454 83.1873 122.389C83.1833 122.339 83.1793 122.287 83.1772 122.237C84 121.708 84.8207 121.181 85.6435 120.652C85.9385 120.488 86.2455 120.338 86.5304 120.156C90.6 117.547 94.3867 114.574 97.8924 111.251C105.409 104.124 111.405 95.8904 115.778 86.5024C116.95 83.9862 117.947 81.3897 119.079 78.6952C119.97 78.3786 121.072 78.3386 122.143 78.3245C126.062 78.2765 129.983 78.2905 133.903 78.3265C134.89 78.3366 135.877 78.5209 136.874 78.6271C137.344 79.803 137.789 80.9189 138.235 82.0328L138.237 82.0348ZM127.989 99.3423C122.318 99.2 116.609 103.82 116.541 110.676C116.478 116.982 121.654 122.163 127.973 122.135C134.075 122.109 139.411 117.299 139.389 110.716C139.367 103.726 133.549 99.2161 127.987 99.3403L127.989 99.3423Z" fill="#050402"/>
<path d="M134.585 50.2969C135.099 51.3507 135.546 52.4446 136.142 53.4483C137.304 55.4056 138.815 57.1025 140.38 58.7473C140.573 58.9496 140.76 59.156 140.938 59.3683C140.97 59.4064 140.95 59.4845 140.958 59.5847C139.283 59.5667 137.79 59.0919 136.543 57.9419C135.362 56.8521 134.653 55.4477 133.919 54.0433C133.943 55.8243 134.288 57.5312 134.868 59.194C135.464 60.9029 136.277 62.5077 137.306 63.9902C138.303 65.4286 139.369 66.819 140.547 68.4257C139.796 68.3596 139.261 68.3115 138.723 68.2635C135.536 67.1996 132.925 65.2143 130.407 63.0025C130.174 65.05 131.364 67.0915 133.295 67.8868C133.921 68.1452 134.186 68.4878 134.322 69.1269C134.663 70.7336 135.087 72.3244 135.472 73.9211C135.512 74.0894 135.514 74.2697 135.538 74.5001C130.401 74.0192 125.326 74.0252 120.297 74.5161C120.769 72.5948 121.244 70.7357 121.674 68.8665C121.774 68.4277 121.929 68.1713 122.374 68.003C124.479 67.2097 125.444 65.5669 125.605 63.4152C125.683 62.3634 125.643 61.3016 125.617 60.2458C125.611 59.9934 125.515 59.6809 125.348 59.5026C123.654 57.7035 122.695 55.5498 122.208 53.1598C122.198 53.1137 122.143 53.0776 122.063 52.9775C121.443 54.1274 121.854 55.2914 121.927 56.6457C121.547 56.3051 121.295 56.0988 121.07 55.8684C119.388 54.1495 118.26 52.104 117.596 49.8101C116.456 45.8734 116.826 42.0108 118.236 38.2084C119.763 34.0974 122.043 30.4071 124.598 26.8731C125.434 25.7151 126.339 24.6052 127.22 23.4793C127.429 23.2149 127.668 22.9725 127.969 22.6339C128.139 23.0566 128.28 23.3852 128.406 23.7197C129.984 27.8748 131.743 31.9517 133.895 35.8423C135.394 38.5529 137.065 41.1674 138.667 43.8219C138.777 44.0042 138.933 44.1565 139.068 44.3228C139.576 45.0881 140.085 45.8534 140.631 46.6748C139.744 47.1035 138.897 46.9432 138.115 46.6187C137.44 46.3402 136.836 45.8874 136.202 45.5128C136.118 45.4487 136.034 45.3826 135.947 45.3184C135.984 45.4306 136.022 45.5408 136.058 45.653C136.204 45.9575 136.335 46.2701 136.501 46.5646C137.862 48.9606 139.23 51.3547 140.595 53.7488C140.741 54.0052 140.872 54.2677 140.898 54.6743C140.559 54.5642 140.212 54.48 139.885 54.3418C138.129 53.5965 136.734 52.3905 135.542 50.928C135.249 50.5674 134.972 50.1947 134.687 49.8281C134.525 49.5737 134.362 49.3192 134.202 49.0648C134.166 49.0848 134.131 49.1029 134.095 49.1229C134.26 49.5156 134.424 49.9062 134.589 50.2989L134.585 50.2969Z" fill="#050402"/>
<path d="M136.447 170.449C135.909 170.744 135.37 171.036 134.719 171.391C135.524 168.943 136.861 167.017 139.158 165.663C136.517 164.627 133.997 163.69 132.285 161.434C132.049 162.754 132.972 165.052 134.384 166.645C131.593 169.055 129.626 172.078 127.969 175.544C126.297 172.124 124.359 169.059 121.535 166.663C122.944 164.976 123.661 163.283 123.733 161.344C121.935 163.666 119.428 164.647 116.888 165.625C119.587 167.897 120.885 169.686 121.154 171.557C120.962 171.431 120.819 171.349 120.693 171.251C118.636 169.652 116.206 168.959 113.725 168.4C111.484 167.895 109.214 167.496 107.001 166.891C104.408 166.184 101.948 165.128 99.9012 163.319C99.3554 162.836 98.9039 162.241 98.4444 161.67C98.33 161.528 98.3481 161.282 98.2919 161.025C100.343 161.137 102.311 161.243 104.28 161.352C104.296 161.294 104.312 161.235 104.328 161.179C104.007 161.035 103.69 160.879 103.365 160.745C98.2277 158.635 93.3414 156.061 88.7601 152.919C88.0176 152.41 87.2972 151.872 86.5647 151.347C84.5079 149.504 82.4049 147.706 80.4082 145.801C79.0637 144.517 77.8597 143.085 76.6035 141.71C76.2563 141.33 75.9734 140.887 75.6062 140.528C75.0423 139.977 74.9821 139.314 74.96 138.579C74.8537 135.073 74.5165 131.587 73.9125 128.127C73.8704 127.889 73.8603 127.644 73.8242 127.292C74.8838 127.19 75.8911 127.029 76.9005 127.005C79.9426 126.935 82.9848 126.917 86.0249 126.879C86.8878 126.965 87.7507 127.059 88.6156 127.136C94.2143 127.638 99.6444 128.888 104.918 130.812C113.135 133.809 120.436 138.317 126.915 144.166C127.255 144.473 127.598 144.778 127.961 145.102C128.729 144.419 129.424 143.748 130.172 143.149C132.137 141.58 134.125 140.041 136.106 138.491C138.863 136.548 141.809 134.927 144.831 133.446C150.562 130.637 156.586 128.738 162.887 127.71C167.106 127.023 171.35 126.713 175.618 126.835C177.576 126.891 179.531 127.081 181.486 127.218C181.666 127.23 181.841 127.3 182.092 127.362C181.935 128.484 181.74 129.578 181.638 130.68C181.379 133.462 181.146 136.247 180.94 139.034C180.904 139.521 180.801 139.917 180.488 140.3C175.17 146.831 168.968 152.316 161.563 156.405C158.539 158.076 155.431 159.557 152.24 160.877C152.021 160.967 151.81 161.073 151.624 161.352C153.582 161.245 155.539 161.139 157.514 161.033C157.758 161.408 157.516 161.698 157.301 161.939C156.825 162.47 156.334 162.992 155.804 163.467C153.833 165.236 151.427 166.196 148.933 166.889C146.691 167.512 144.388 167.901 142.116 168.422C140.148 168.872 138.199 169.395 136.447 170.457V170.449ZM138.699 160.334C140.402 160.047 141.996 159.428 143.501 158.619C146.619 156.942 149.736 155.257 152.782 153.456C154.06 152.701 155.304 152.551 156.643 152.975C157.435 153.228 158.176 153.647 158.94 153.987C159.147 154.079 159.36 154.161 159.723 154.31C159.611 152.639 159.568 151.118 159.394 149.612C159.175 147.723 158.691 145.897 157.742 144.221C156.526 142.071 154.656 140.853 152.266 140.388C150.372 140.019 148.483 140.208 146.621 140.614C143.663 141.264 140.98 142.498 138.671 144.487C137.439 145.304 136.477 146.402 135.572 147.546C132.701 151.176 131.509 155.295 132.024 159.957C134.208 160.648 136.429 160.851 138.697 160.336L138.699 160.334ZM123.919 159.941C124.11 158.321 124.054 156.798 123.817 155.293C123.251 151.671 121.556 148.604 118.995 146.02C115.156 142.145 110.517 140.1 105.014 140.232C101.826 140.31 99.4277 141.768 97.9648 144.641C97.6558 145.246 97.4029 145.889 97.1962 146.537C96.4658 148.84 96.2812 151.22 96.2772 153.623C96.2772 153.819 96.3073 154.015 96.3273 154.248C97.2885 153.821 98.1494 153.396 99.0424 153.052C100.325 152.555 101.575 152.599 102.809 153.304C105.562 154.877 108.335 156.417 111.111 157.952C112.692 158.827 114.327 159.579 116.073 160.078C118.688 160.825 121.283 160.785 123.917 159.941H123.919Z" fill="#050402"/>
<path d="M136.457 202.317C138.356 203.321 140.39 203.968 142.429 204.615C143.216 204.866 143.966 205.26 144.683 205.677C145.056 205.895 145.317 206.308 145.642 206.647C144.924 207.116 144.448 206.593 143.912 206.488C142.634 206.238 141.358 205.966 140.077 205.727C139.5 205.619 138.91 205.573 138.326 205.497C138.241 205.461 138.159 205.403 138.073 205.393C133.014 204.768 127.943 204.577 122.85 204.912C118.778 205.18 114.763 205.779 110.812 206.799C110.699 206.829 110.571 206.803 110.272 206.803C110.557 206.424 110.711 206.06 110.986 205.885C111.715 205.427 112.455 204.904 113.266 204.671C116.18 203.84 118.975 202.75 121.582 201.207C122.272 200.799 122.892 200.855 123.504 201.242C125.441 202.464 127.564 202.526 129.715 202.203C130.548 202.079 131.388 201.764 132.137 201.37C133.056 200.885 133.845 200.793 134.728 201.426C135.249 201.8 135.877 202.023 136.459 202.315L136.457 202.317Z" fill="#050402"/>
<path d="M134.962 110.726C134.962 114.618 131.884 117.71 127.991 117.724C124.064 117.738 120.903 114.614 120.949 110.696C120.995 106.753 123.955 103.684 127.989 103.72C132.628 103.76 135.078 107.62 134.96 110.724L134.962 110.726Z" fill="#050402"/>
<defs>
<linearGradient id="paint0_linear_1041_11186" x1="42" y1="127.937" x2="214" y2="127.937" gradientUnits="userSpaceOnUse">
<stop stop-color="#FADE94"/>
<stop offset="0.32" stop-color="#ECBA55"/>
<stop offset="0.41" stop-color="#E8B137"/>
<stop offset="0.74" stop-color="#FADE94"/>
<stop offset="1" stop-color="#ECBA55"/>
</linearGradient>
</defs>
</svg>
