<svg width="256" height="256" viewBox="0 0 256 256" fill="none" xmlns="http://www.w3.org/2000/svg">
<g clip-path="url(#clip0_127_4863)">
<rect width="256" height="256" fill="#0FC6BB"/>
<path fill-rule="evenodd" clip-rule="evenodd" d="M107.835 36.3452L80.2365 114.553L111.57 121.935L127.629 76.4828L149.089 137.648L65.5905 120.473L28 165.724L40.7065 227.576L84.214 199.975L88.3368 188.003L56.6325 180.712L44.0515 216.287L43.2623 178.087L55.3871 172.803L160.479 195.128L215.564 150.551L228 115.57L182.508 136.183L154.204 55.5309L175.748 36.2403L127.629 28L107.835 36.3452ZM174.633 208.043L214.738 228L196.776 176.326L170.946 198.065L174.633 208.043Z" fill="black"/>
</g>
<defs>
<clipPath id="clip0_127_4863">
<rect width="256" height="256" fill="white"/>
</clipPath>
</defs>
</svg>
