<svg width="256" height="256" viewBox="0 0 256 256" fill="none" xmlns="http://www.w3.org/2000/svg">
<g clip-path="url(#clip0_207_6949)">
<rect width="256" height="256" fill="#ED2025"/>
<path d="M155.99 146.224C160.311 144.866 164.939 143.014 164.939 143.014C164.939 143.014 165.926 139.681 166.915 134.371C167.901 129.063 168.397 123.014 168.766 114.495C169.136 105.976 169.014 98.075 169.014 98.075C169.014 98.075 160.62 101.347 156.424 103.261C152.227 105.175 150.499 106.224 145.931 109.311C141.364 112.397 138.381 115.217 135.376 117.851C132.373 120.484 129.265 124.21 129.265 124.21L129.327 133.818C129.327 133.818 132.677 133.499 135.869 132.955C138.4 132.523 141.918 131.165 141.918 131.165V127.275C141.918 127.275 143.769 125.916 145.188 124.868C146.608 123.819 149.015 122.151 149.015 122.151C149.015 122.151 150.557 120.113 150.99 119.434C151.422 118.754 153.583 114.867 154.446 113.26C155.311 111.656 157.598 106.872 157.598 106.872C157.598 106.872 155.743 112.459 155.187 114.433C154.632 116.409 153.521 119.372 153.521 119.372C153.521 119.372 154.694 118.63 155.804 118.075C156.915 117.52 158.335 116.84 158.335 116.84C158.335 116.84 158.335 120.235 157.656 122.52C156.977 124.804 155.743 127.211 155.125 128.014C154.508 128.817 153.274 129.99 151.855 130.977C150.435 131.964 147.535 133.322 147.535 133.322C147.535 133.322 143.707 140.299 142.473 142.151C141.239 144.003 138.77 147.151 138.77 147.151C138.77 147.151 140.374 143.385 141.362 140.978C142.349 138.571 144.017 134.619 144.017 134.619C144.017 134.619 139.758 135.73 135.747 136.347C131.736 136.964 129.267 137.026 129.267 137.026V187.984C129.267 187.984 136.736 183.509 140.995 179.62C145.253 175.73 148.092 172.829 153.461 165.359C158.831 157.89 163.089 147.457 163.089 147.457C163.089 147.457 159.301 149.189 156.238 149.988C153.399 150.729 149.141 151.923 149.141 151.923C149.141 151.923 146.709 156.51 145.313 158.364C143.878 160.272 140.664 163.714 140.664 163.714L141.055 149.559C141.055 149.559 150.959 147.805 155.99 146.224Z" fill="white"/>
<path d="M109.762 104.558C114.576 107.521 119.699 111.656 122.29 114.064C124.883 116.471 128.031 120.792 128.031 120.792C128.031 120.792 131.179 116.471 133.772 114.064C136.365 111.656 141.486 107.521 146.3 104.558C151.114 101.595 154.818 99.5574 160.68 97.212C166.543 94.8666 179.319 90.1137 183.888 87.7683C188.456 85.4229 191.974 82.522 191.974 82.522C191.974 82.522 181.543 81.7189 175.742 80.0527C169.939 78.3865 165.249 75.238 165.249 75.238C165.249 75.238 160.228 83.1064 154.88 88.3856C149.942 93.2623 144.265 96.7805 144.265 96.7805C144.265 96.7805 153.461 86.4098 156.052 82.3362C158.757 78.0846 160.125 75.1141 161.545 71.534C162.966 67.9539 163.952 64.0642 164.2 61.2872C164.448 58.5102 164.324 55.7313 163.583 52.2131C162.842 48.695 161.362 44.6814 159.2 41.349C157.039 38.0147 155.065 36.9658 155.065 36.9658C155.065 36.9658 153.399 39.9905 151.548 42.2121C149.255 44.9659 146.302 47.4584 146.302 47.4584C146.302 47.4584 148.585 50.3592 149.388 52.4589C150.191 54.5586 151.116 57.891 150.623 61.8426C150.129 65.7923 148.895 69.1267 148.895 69.1267C148.895 69.1267 145.809 68.0159 143.278 66.3497C140.747 64.6835 139.822 64.19 135.747 60.9176C131.674 57.6452 128.033 54.4367 128.033 54.4367C128.033 54.4367 124.391 57.6471 120.318 60.9176C116.245 64.19 115.319 64.6835 112.788 66.3497C110.257 68.0159 107.171 69.1267 107.171 69.1267C107.171 69.1267 105.936 65.7943 105.443 61.8426C104.95 57.891 105.874 54.5586 106.677 52.4589C107.48 50.3592 109.764 47.4584 109.764 47.4584C109.764 47.4584 106.811 44.9639 104.518 42.2121C102.666 39.9905 101 36.9658 101 36.9658C101 36.9658 99.0249 38.0147 96.8655 41.349C94.7062 44.6833 93.224 48.695 92.483 52.2131C91.7419 55.7313 91.6181 58.5102 91.8657 61.2872C92.1134 64.0642 93.1002 67.9539 94.5204 71.534C95.9406 75.1141 97.3086 78.0846 100.014 82.3362C102.606 86.4098 111.803 96.7805 111.803 96.7805C111.803 96.7805 106.124 93.2623 101.186 88.3856C95.84 83.1045 90.817 75.238 90.817 75.238C90.817 75.238 86.1268 78.3865 80.324 80.0527C74.5232 81.7189 64.0922 82.522 64.0922 82.522C64.0922 82.522 67.6098 85.4229 72.1781 87.7683C76.7445 90.1137 89.5206 94.8666 95.3853 97.212C101.248 99.5574 104.951 101.595 109.765 104.558H109.762Z" fill="white"/>
<path d="M114.268 127.089L114.638 131.101C114.638 131.101 117.538 132.274 120.316 132.891C123.093 133.508 126.858 133.816 126.858 133.816L126.673 124.248C126.673 124.248 124.266 120.297 118.403 115.482C112.54 110.667 108.281 107.643 101.058 104.124C93.8373 100.606 87.7888 98.4446 87.7888 98.4446C87.7888 98.4446 87.7269 108.198 88.1584 117.52C88.5899 126.841 88.7137 131.902 89.8244 137.272C90.935 142.642 93.0963 149.926 98.5895 158.878C104.083 167.829 108.959 173.263 113.525 177.768C118.091 182.275 126.671 187.922 126.671 187.922C126.671 187.922 126.733 168.756 126.733 161.1V137.026C126.733 137.026 123.215 136.657 116.981 135.236C110.746 133.816 102.908 129.804 102.908 129.804C102.908 129.804 103.564 134.35 104.205 137.644C105.069 142.089 106.859 146.286 106.859 146.286C106.859 146.286 108.643 147.147 111.428 148.076C113.279 148.694 114.945 149.373 114.945 149.373L115.253 163.633C115.253 163.633 113.215 161.288 109.574 155.978C105.932 150.669 104.512 146.78 103.032 142.275C101.55 137.769 100.687 130.052 100.315 125.299C99.9458 120.546 99.5743 116.039 99.5743 116.039C99.5743 116.039 103.402 118.323 106.981 120.978C110.561 123.633 114.264 127.089 114.264 127.089H114.268Z" fill="white"/>
<path d="M192.343 126.842C187.653 121.286 185.554 116.719 183.085 109.187C180.616 101.655 180.656 94.0015 180.656 94.0015C180.656 94.0015 178.476 94.7426 175.883 95.6483C173.29 96.554 171.975 97.0881 171.975 97.0881C171.975 97.0881 172.222 101.903 172.036 107.583C171.853 113.262 171.729 124.25 170.864 132.397C170.001 140.547 168.271 145.423 165.433 151.904C162.594 158.385 155.187 170.362 145.681 179.868C136.177 189.373 127.952 192.638 127.952 192.638C127.952 192.638 119.881 189.373 110.377 179.868C100.873 170.362 93.4659 158.385 90.6274 151.904C87.7889 145.423 86.0591 140.547 85.1962 132.397C84.3313 124.248 84.2094 113.262 84.0236 107.583C83.8379 101.903 84.0855 97.0881 84.0855 97.0881C84.0855 97.0881 82.7679 96.554 80.177 95.6483C77.5843 94.7426 75.4037 94.0015 75.4037 94.0015C75.4037 94.0015 75.4443 101.655 72.9753 109.187C70.5064 116.719 68.409 121.286 63.7168 126.842C59.0266 132.397 48.0403 140.051 48.0403 140.051C48.0403 140.051 55.6928 151.656 60.8783 158.571C66.0619 165.485 70.6767 171.194 75.5062 176.595C80.1964 181.841 86.6164 188.324 86.6164 188.324C86.6164 188.324 89.6406 183.839 91.5736 181.245C93.5066 178.652 97.8272 173.838 97.8272 173.838C97.8272 173.838 96.9623 176.059 96.1806 178.857C95.3989 181.656 94.5766 184.537 94.5766 184.537C94.5766 184.537 101.921 191.719 105.749 195.113C109.576 198.507 114.945 203.2 114.945 203.2C114.945 203.2 113.525 204.311 111.304 205.915C109.083 207.519 108.032 208.261 108.032 208.261C108.032 208.261 111.18 211.1 113.773 213.199C116.365 215.299 122.476 219.434 122.476 219.434L128.031 215.668L133.586 219.434C133.586 219.434 139.697 215.299 142.289 213.199C144.882 211.101 148.03 208.261 148.03 208.261C148.03 208.261 146.981 207.519 144.758 205.915C142.537 204.311 141.117 203.2 141.117 203.2C141.117 203.2 146.486 198.509 150.313 195.113C154.141 191.717 161.485 184.537 161.485 184.537C161.485 184.537 160.663 181.658 159.881 178.857C159.1 176.059 158.235 173.838 158.235 173.838C158.235 173.838 162.555 178.652 164.488 181.245C166.421 183.839 169.448 188.324 169.448 188.324C169.448 188.324 175.866 181.843 180.558 176.595C185.387 171.194 190 165.483 195.186 158.571C200.369 151.656 208.024 140.051 208.024 140.051C208.024 140.051 197.037 132.397 192.347 126.842H192.343Z" fill="white"/>
<path d="M204.688 127.089C199.566 122.954 195.905 117.303 192.839 112.028C190.65 108.266 188.251 95.7722 188.251 95.7722C188.251 95.7722 192.721 92.8926 197.571 88.4881C201.84 84.612 206.542 77.7672 206.542 77.7672C206.542 77.7672 195.493 76.4087 187.531 75.1741C178.286 73.7401 172.348 69.9278 172.348 69.9278C172.348 69.9278 173.397 66.4715 173.211 61.8406C173.025 57.2117 173.087 54.4947 170.618 46.7791C168.149 39.0635 163.088 32.3349 158.705 28.6928C154.322 25.0508 150.311 24.002 150.311 24.002C150.311 24.002 147.662 29.8056 145.662 33.3431C143.893 36.4704 141.322 40.2188 137.495 43.0751C133.569 46.0031 128.42 47.1564 128 47.2474C127.58 47.1564 122.429 46.005 118.505 43.0751C114.678 40.2188 112.107 36.4704 110.338 33.3431C108.336 29.8036 105.689 24.002 105.689 24.002C105.689 24.002 101.678 25.0508 97.2951 28.6928C92.9125 32.3349 87.8528 39.0635 85.3839 46.7791C82.9149 54.4947 82.9768 57.2117 82.7911 61.8406C82.6053 66.4696 83.656 69.9278 83.656 69.9278C83.656 69.9278 77.7178 73.742 68.4728 75.1741C60.5107 76.4087 49.4624 77.7672 49.4624 77.7672C49.4624 77.7672 54.1642 84.612 58.4326 88.4881C63.2815 92.8926 67.753 95.7722 67.753 95.7722C67.753 95.7722 65.3518 108.266 63.1654 112.028C60.0986 117.303 56.4377 122.954 51.3141 127.089C47.0264 130.551 37.735 137.274 37.735 137.274C37.735 137.274 47.0883 152.955 51.9933 159.786C55.5612 164.756 68.9043 181.412 75.7558 188.696C82.6073 195.98 94.89 207.03 101.556 212.832C108.007 218.447 126.768 232.096 127.973 232.973L128.004 232.996L128.035 232.973C129.24 232.098 148.001 218.447 154.452 212.832C161.118 207.028 173.401 195.98 180.252 188.696C187.104 181.412 200.447 164.756 204.015 159.786C208.92 152.955 218.273 137.274 218.273 137.274C218.273 137.274 208.981 130.551 204.694 127.089H204.688ZM169.446 188.324C169.446 188.324 166.421 183.839 164.486 181.245C162.553 178.652 158.233 173.838 158.233 173.838C158.233 173.838 159.098 176.059 159.879 178.857C160.661 181.656 161.483 184.537 161.483 184.537C161.483 184.537 154.139 191.719 150.311 195.113C146.484 198.507 141.115 203.2 141.115 203.2C141.115 203.2 142.535 204.311 144.756 205.915C146.978 207.519 148.028 208.261 148.028 208.261C148.028 208.261 144.88 211.1 142.287 213.199C139.695 215.299 133.584 219.434 133.584 219.434L128.029 215.669L122.474 219.434C122.474 219.434 116.364 215.299 113.771 213.199C111.178 211.101 108.03 208.261 108.03 208.261C108.03 208.261 109.079 207.519 111.302 205.915C113.523 204.311 114.943 203.2 114.943 203.2C114.943 203.2 109.574 198.509 105.747 195.113C101.92 191.717 94.5746 184.537 94.5746 184.537C94.5746 184.537 95.397 181.658 96.1787 178.857C96.9604 176.059 97.8253 173.838 97.8253 173.838C97.8253 173.838 93.5046 178.652 91.5717 181.245C89.6387 183.839 86.6144 188.324 86.6144 188.324C86.6144 188.324 80.1964 181.843 75.5042 176.595C70.6747 171.194 66.06 165.483 60.8764 158.571C55.6928 151.656 48.0383 140.051 48.0383 140.051C48.0383 140.051 59.0247 132.397 63.7149 126.842C68.4051 121.286 70.5045 116.719 72.9734 109.187C75.4423 101.655 75.4017 94.0015 75.4017 94.0015C75.4017 94.0015 77.5823 94.7427 80.1751 95.6483C82.7679 96.554 84.0836 97.0881 84.0836 97.0881C84.0836 97.0881 83.8359 101.903 84.0217 107.583C84.2074 113.262 84.3293 124.25 85.1942 132.397C86.0591 140.547 87.787 145.423 90.6255 151.904C93.464 158.385 100.871 170.362 110.375 179.868C119.879 189.373 127.95 192.638 127.95 192.638C127.95 192.638 136.173 189.373 145.679 179.868C155.183 170.362 162.59 158.385 165.431 151.904C168.269 145.423 169.999 140.547 170.862 132.397C171.727 124.248 171.851 113.262 172.035 107.583C172.22 101.903 171.973 97.0881 171.973 97.0881C171.973 97.0881 173.288 96.554 175.881 95.6483C178.474 94.7427 180.654 94.0015 180.654 94.0015C180.654 94.0015 180.614 101.655 183.083 109.187C185.552 116.719 187.651 121.286 192.341 126.842C197.031 132.397 208.018 140.051 208.018 140.051C208.018 140.051 200.363 151.656 195.18 158.571C189.994 165.485 185.381 171.194 180.552 176.595C175.862 181.841 169.442 188.324 169.442 188.324H169.446ZM90.8132 75.236C90.8132 75.236 95.8342 83.1045 101.182 88.3836C106.12 93.2603 111.799 96.7785 111.799 96.7785C111.799 96.7785 102.603 86.4078 100.01 82.3342C97.3048 78.0826 95.9368 75.1121 94.5166 71.532C93.0964 67.9519 92.1096 64.0622 91.8619 61.2852C91.6142 58.5082 91.7381 55.7293 92.4791 52.2112C93.2202 48.693 94.7004 44.6794 96.8617 41.347C99.021 38.0127 100.997 36.9638 100.997 36.9638C100.997 36.9638 102.663 39.9885 104.514 42.2101C106.809 44.9639 109.76 47.4564 109.76 47.4564C109.76 47.4564 107.477 50.3572 106.674 52.4569C105.871 54.5566 104.946 57.889 105.439 61.8406C105.932 65.7903 107.167 69.1247 107.167 69.1247C107.167 69.1247 110.253 68.0139 112.784 66.3477C115.315 64.6815 116.24 64.188 120.315 60.9156C124.388 57.6432 128.029 54.4347 128.029 54.4347C128.029 54.4347 131.671 57.6451 135.744 60.9156C139.816 64.188 140.743 64.6815 143.274 66.3477C145.805 68.0139 148.891 69.1247 148.891 69.1247C148.891 69.1247 150.126 65.7923 150.619 61.8406C151.112 57.889 150.188 54.5566 149.385 52.4569C148.582 50.3572 146.298 47.4564 146.298 47.4564C146.298 47.4564 149.251 44.9619 151.544 42.2101C153.396 39.9885 155.062 36.9638 155.062 36.9638C155.062 36.9638 157.037 38.0127 159.196 41.347C161.358 44.6813 162.838 48.693 163.579 52.2112C164.32 55.7293 164.444 58.5082 164.196 61.2852C163.949 64.0622 162.962 67.9519 161.542 71.532C160.121 75.1121 158.753 78.0826 156.048 82.3342C153.456 86.4078 144.261 96.7785 144.261 96.7785C144.261 96.7785 149.94 93.2603 154.876 88.3836C160.224 83.1025 165.245 75.236 165.245 75.236C165.245 75.236 169.935 78.3845 175.738 80.0507C181.539 81.7169 191.97 82.52 191.97 82.52C191.97 82.52 188.452 85.4209 183.884 87.7663C179.316 90.1118 166.541 94.8646 160.677 97.21C154.814 99.5555 151.11 101.593 146.296 104.556C141.482 107.519 136.361 111.654 133.768 114.062C131.175 116.469 128.027 120.79 128.027 120.79C128.027 120.79 124.879 116.469 122.286 114.062C119.693 111.654 114.572 107.519 109.758 104.556C104.944 101.593 101.24 99.5555 95.3776 97.21C89.5149 94.8646 76.7387 90.1118 72.1704 87.7663C67.6021 85.4209 64.0845 82.52 64.0845 82.52C64.0845 82.52 74.5155 81.7169 80.3163 80.0507C86.1191 78.3845 90.8093 75.236 90.8093 75.236H90.8132ZM145.312 158.364C146.707 156.51 149.139 151.924 149.139 151.924C149.139 151.924 153.398 150.729 156.236 149.988C159.297 149.189 163.088 147.457 163.088 147.457C163.088 147.457 158.829 157.89 153.459 165.359C148.09 172.829 145.252 175.73 140.993 179.62C136.734 183.51 129.265 187.984 129.265 187.984V137.026C129.265 137.026 131.734 136.965 135.745 136.347C139.756 135.73 144.015 134.619 144.015 134.619C144.015 134.619 142.349 138.569 141.361 140.978C140.374 143.385 138.768 147.151 138.768 147.151C138.768 147.151 141.237 144.003 142.471 142.151C143.706 140.299 147.533 133.323 147.533 133.323C147.533 133.323 150.433 131.964 151.853 130.977C153.274 129.99 154.508 128.817 155.123 128.014C155.741 127.211 156.975 124.804 157.654 122.52C158.333 120.237 158.333 116.841 158.333 116.841C158.333 116.841 156.913 117.52 155.803 118.075C154.692 118.631 153.519 119.372 153.519 119.372C153.519 119.372 154.63 116.409 155.185 114.433C155.741 112.457 157.596 106.872 157.596 106.872C157.596 106.872 155.309 111.656 154.444 113.26C153.579 114.865 151.42 118.754 150.989 119.434C150.557 120.113 149.013 122.151 149.013 122.151C149.013 122.151 146.606 123.817 145.186 124.868C143.766 125.917 141.916 127.275 141.916 127.275V131.165C141.916 131.165 138.398 132.523 135.867 132.955C132.675 133.501 129.325 133.818 129.325 133.818L129.264 124.21C129.264 124.21 132.371 120.484 135.374 117.851C138.379 115.217 141.361 112.397 145.929 109.311C150.497 106.224 152.225 105.175 156.422 103.261C160.619 101.347 169.012 98.075 169.012 98.075C169.012 98.075 169.136 105.976 168.765 114.495C168.395 123.014 167.9 129.063 166.913 134.371C165.926 139.68 164.937 143.014 164.937 143.014C164.937 143.014 160.309 144.866 155.988 146.224C150.958 147.805 141.053 149.559 141.053 149.559L140.662 163.715C140.662 163.715 143.876 160.272 145.312 158.364ZM100.317 125.299C100.687 130.052 101.552 137.77 103.034 142.275C104.516 146.782 105.934 150.67 109.576 155.978C113.217 161.288 115.255 163.633 115.255 163.633L114.947 149.373C114.947 149.373 113.281 148.694 111.43 148.076C108.645 147.147 106.861 146.286 106.861 146.286C106.861 146.286 105.071 142.089 104.207 137.644C103.566 134.35 102.91 129.804 102.91 129.804C102.91 129.804 110.748 133.816 116.983 135.236C123.217 136.657 126.735 137.026 126.735 137.026V161.1C126.735 168.756 126.673 187.922 126.673 187.922C126.673 187.922 118.093 182.273 113.527 177.768C108.961 173.263 104.085 167.829 98.5915 158.879C93.0983 149.928 90.9389 142.644 89.8264 137.272C88.7157 131.902 88.5919 126.84 88.1604 117.52C87.729 108.198 87.7909 98.4447 87.7909 98.4447C87.7909 98.4447 93.8394 100.604 101.06 104.124C108.281 107.643 112.54 110.667 118.405 115.482C124.268 120.297 126.675 124.248 126.675 124.248L126.86 133.816C126.86 133.816 123.095 133.506 120.318 132.891C117.542 132.274 114.64 131.101 114.64 131.101L114.27 127.089C114.27 127.089 110.567 123.633 106.987 120.978C103.407 118.323 99.5802 116.039 99.5802 116.039C99.5802 116.039 99.9498 120.546 100.321 125.299H100.317Z" fill="black"/>
<path fill-rule="evenodd" clip-rule="evenodd" d="M151.385 122.511C151.59 122.638 151.912 124.993 150.756 125.802C149.27 126.843 147.746 126.145 147.301 125.32C145.714 126.454 144.553 127.325 144.553 127.325V131.896C144.553 131.896 148.084 131.153 151.343 128.769C154.601 126.385 155.4 120.252 155.4 120.252C154.529 120.546 153.012 121.448 151.383 122.512L151.385 122.511Z" fill="#ED2025"/>
</g>
<defs>
<clipPath id="clip0_207_6949">
<rect width="256" height="256" fill="white"/>
</clipPath>
</defs>
</svg>
