<svg width="256" height="256" viewBox="0 0 256 256" fill="none" xmlns="http://www.w3.org/2000/svg">
<rect width="256" height="256" fill="#01814C"/>
<path d="M228 226H194.156C191.409 226 188.77 224.897 186.845 222.975L175.753 211.909C161.06 220.734 143.835 225.786 125.432 225.751C71.9016 225.68 28.0714 181.947 28.0001 128.536C27.9288 74.6615 71.6877 30.9644 125.646 31C179.427 31.0356 223.364 75.0885 223.15 128.785C223.043 151.701 215.019 172.766 201.645 189.349L171.01 158.96L167.693 155.686C158.492 147.004 151.324 139.851 143.086 132.201C132.494 122.308 121.224 113.128 109.455 104.659L107.03 102.915L101.645 99.0365C103.785 99.9617 105.924 100.887 108.029 101.883C111.952 103.698 115.768 105.655 119.548 107.755C119.655 107.79 119.726 107.861 119.797 107.897C125.504 111.064 131.067 114.551 136.417 118.323C149.862 127.788 164.412 139.887 177.608 151.736C179.855 145.972 181.174 137.574 181.174 131.026C181.174 102.808 158.492 84.7318 127.964 80.1414L64.5193 71.4234C64.5193 71.4234 71.1884 127.824 81.3524 148.391C89.4123 167.251 107.244 182.339 127.964 182.339C139.091 182.339 149.541 179.029 156.566 174.581C158.385 173.443 160.061 172.197 161.952 171.165C166.481 168.674 167.729 165.899 176.609 174.724L228 226Z" fill="#F5EAD6"/>
</svg>
