<svg width="256" height="256" viewBox="0 0 256 256" fill="none" xmlns="http://www.w3.org/2000/svg">
<rect width="256" height="256" fill="#57C3E9"/>
<path d="M190.866 71.6451C190.866 71.6451 192.847 68.3898 194.309 68.7229C195.771 69.0559 197.69 70.5986 197.69 69.3906C197.69 68.1825 194.642 67.5573 195.895 65.5558C197.147 63.5544 198.609 63.2638 198.609 63.2638C198.609 63.2638 196.564 64.9306 198.692 67.0153C200.821 69.1 200.237 71.6842 197.773 71.601C195.31 71.5177 193.307 71.934 194.35 74.977C195.393 78.02 197.94 79.7701 194.726 82.5633C191.512 85.3565 190.866 71.6467 190.866 71.6467V71.6451Z" fill="#43C0F0"/>
<path d="M199.068 83.1853C199.068 83.1853 196.522 84.728 197.775 86.3948C199.027 88.0615 199.946 90.3128 197.441 90.9805C194.936 91.6482 194.896 88.5219 194.896 88.5219C194.896 88.5219 196.648 87.6469 195.898 86.7294C195.146 85.812 194.479 83.0612 199.07 83.1869L199.068 83.1853Z" fill="#43C0F0"/>
<path d="M195.437 74.724C195.437 74.724 195.52 72.765 196.356 72.4727C196.356 72.4727 193.81 72.347 195.437 74.724Z" fill="#43C0F0"/>
<path d="M172.686 50.0911C172.686 50.0911 173.855 50.6331 173.062 51.5914C172.27 52.5496 167.886 53.5928 169.681 56.8007C171.477 60.0086 175.817 61.3439 175.817 61.3439L177.737 59.0095C177.737 59.0095 176.359 56.7582 173.896 56.2995C171.434 55.8408 171.392 54.507 172.518 53.8409C173.645 53.1749 177.194 50.5482 172.685 50.0894L172.686 50.0911Z" fill="#43C0F0"/>
<path d="M179.449 58.0528C179.449 58.0528 180.284 55.9273 181.87 55.3853C183.456 54.8433 183.665 52.0925 183.665 52.0925C183.665 52.0925 184.625 56.2603 183.791 56.9688C182.957 57.6773 179.45 58.0528 179.45 58.0528H179.449Z" fill="#43C0F0"/>
<path d="M161.708 72.5152C161.708 72.5152 159.703 71.8475 160.163 69.9309C160.622 68.0144 161.874 67.763 160.831 65.9705C160.831 65.9705 162.041 67.1785 161.583 69.3465C161.126 71.5145 162.502 70.7635 162.502 70.7635L161.709 72.5136L161.708 72.5152Z" fill="#43C0F0"/>
<path d="M66.1345 71.6451C66.1345 71.6451 64.1529 68.3898 62.6913 68.7229C61.2296 69.0559 59.3102 70.5986 59.3102 69.3906C59.3102 68.1825 62.3577 67.5573 61.1054 65.5558C59.853 63.5544 58.3913 63.2638 58.3913 63.2638C58.3913 63.2638 60.4367 64.9306 58.308 67.0153C56.1792 69.1 56.7629 71.6842 59.2268 71.601C61.689 71.5177 63.6935 71.934 62.6504 74.977C61.6073 78.02 59.06 79.7701 62.2744 82.5633C65.4887 85.3565 66.1345 71.6467 66.1345 71.6467V71.6451Z" fill="#43C0F0"/>
<path d="M57.9318 83.1853C57.9318 83.1853 60.4774 84.728 59.2251 86.3948C57.9727 88.0615 57.0538 90.3128 59.5586 90.9805C62.0634 91.6482 62.1042 88.5219 62.1042 88.5219C62.1042 88.5219 60.3515 87.6469 61.102 86.7294C61.8541 85.812 62.5211 83.0612 57.9302 83.1869L57.9318 83.1853Z" fill="#43C0F0"/>
<path d="M61.5648 74.724C61.5648 74.724 61.4815 72.765 60.646 72.4727C60.646 72.4727 63.1916 72.347 61.5648 74.724Z" fill="#43C0F0"/>
<path d="M84.315 50.0911C84.315 50.0911 83.146 50.6331 83.939 51.5914C84.732 52.5496 89.1153 53.5928 87.3201 56.8007C85.5249 60.0102 81.1841 61.3439 81.1841 61.3439L79.2646 59.0095C79.2646 59.0095 80.6429 56.7582 83.1052 56.2995C85.5674 55.8408 85.6099 54.507 84.4834 53.8409C83.357 53.1733 79.8075 50.5482 84.3167 50.0894L84.315 50.0911Z" fill="#43C0F0"/>
<path d="M77.5517 58.0528C77.5517 58.0528 76.7162 55.9273 75.1303 55.3853C73.5444 54.8433 73.3351 52.0925 73.3351 52.0925C73.3351 52.0925 72.3754 56.2603 73.2092 56.9688C74.0447 57.6773 77.55 58.0528 77.55 58.0528H77.5517Z" fill="#43C0F0"/>
<path d="M95.2941 72.5152C95.2941 72.5152 97.2986 71.8475 96.8391 69.9309C96.3797 68.0144 95.1273 67.763 96.1704 65.9705C96.1704 65.9705 94.9606 67.1785 95.4184 69.3465C95.8761 71.5145 94.4995 70.7635 94.4995 70.7635L95.2925 72.5136L95.2941 72.5152Z" fill="#43C0F0"/>
<path d="M194.662 99.9348C194.977 99.778 195.262 99.5626 195.569 99.3879C198.733 97.5889 199.14 94.0218 197.994 91.5339C197.938 91.4131 197.911 91.2808 197.87 91.1535L197.858 91.1356C197.041 89.4361 195.859 88.0403 194.332 86.9335C194.049 86.7278 193.96 86.4911 194.096 86.1613C195.674 82.3314 194.722 78.8118 192.752 75.4292C192.041 74.2065 191.376 72.9723 190.866 71.6434C189.631 68.4307 190.7 65.8105 192.857 63.4417C193.516 62.7185 194.314 62.1553 195.273 61.5823C191.192 59.7114 187.287 60.1489 183.307 61.7619C183.24 60.6077 183.541 59.5808 183.804 58.5507C184.072 57.501 184.563 56.5411 185.155 55.5012C184.04 55.6106 183.126 55.9518 182.215 56.2913C179.952 57.1321 177.864 58.265 176.19 60.0412C175.791 60.464 175.606 60.4248 175.299 59.9563C173.788 57.6659 171.601 56.5052 168.903 56.2293C168.769 56.2162 168.632 56.2015 168.498 56.2081C168.396 56.213 168.295 56.2522 168.189 56.2783C168.2 56.275 168.313 56.5313 168.324 56.5558C168.368 56.6489 168.413 56.7419 168.455 56.835C168.537 57.0162 168.615 57.1974 168.689 57.3819C168.826 57.7247 168.951 58.074 169.055 58.4283C169.15 58.7515 169.228 59.0797 169.284 59.4127C169.335 59.718 169.367 60.0265 169.376 60.3351C169.384 60.6224 169.369 60.9113 169.331 61.1954C169.294 61.4664 169.235 61.7357 169.15 61.9953C169.067 62.2516 168.96 62.4998 168.831 62.7365C168.7 62.9765 168.548 63.205 168.377 63.4172C168.122 63.7356 167.819 64.0147 167.531 64.3053C167.526 64.3102 167.52 64.32 167.513 64.3233C167.334 64.5045 167.155 64.6824 166.953 64.8375C166.662 65.0612 166.348 65.2538 166.034 65.4448C165.963 65.4872 165.892 65.5297 165.821 65.5738C164.085 66.6316 162.568 67.8838 161.861 69.882C161.762 70.5219 161.855 71.3137 161.505 71.761C161.162 72.1985 160.328 71.8948 159.716 71.996C157.468 72.365 155.586 73.2939 154.391 75.3394C153.726 76.4789 153.633 77.6984 153.79 78.9685C153.974 80.4573 154.136 81.9478 153.503 83.3811C153.284 83.8774 153.072 84.3868 152.771 84.8324C150.634 87.9995 151.914 91.4392 153.603 93.4211C155.099 95.176 156.988 96.3775 159.142 97.1579C159.782 97.3897 159.903 97.5497 159.456 98.1798C156.152 102.847 153.208 107.725 151.111 113.07C150.546 114.511 150.001 115.963 149.714 117.494C149.656 117.796 149.532 118.059 149.32 118.284C148.075 119.618 146.897 121.006 145.801 122.463C145.513 122.847 145.314 122.883 145.002 122.501C144.608 122.019 144.196 121.552 143.774 121.095H143.803V88.1905C143.803 88.1905 144.838 51.1783 128.475 28.0049C124.104 34.197 120.974 41.3768 118.734 48.5745C117.977 50.7947 117.337 53.0639 116.849 55.3967C116.828 55.4979 116.761 55.5894 116.715 55.6857C116.676 56.1493 116.604 56.6048 116.4 57.0292C116.424 57.0749 116.418 57.1158 116.38 57.1517C116.413 57.39 116.374 57.612 116.226 57.8145C116.241 57.9614 116.236 58.1051 116.213 58.2454C116.21 58.2634 116.205 58.283 116.202 58.301C116.176 58.4299 116.136 58.5556 116.078 58.6781C116.112 58.7172 116.107 58.7515 116.063 58.7809C116.066 58.8397 116.066 58.8968 116.063 58.9556C116.025 59.1352 115.988 59.3147 115.952 59.4943C115.934 59.5368 115.914 59.5776 115.891 59.6184C115.886 59.6723 115.881 59.7261 115.876 59.7784C115.872 59.8306 115.868 59.8812 115.863 59.9335C112.786 75.2823 113.148 88.197 113.148 88.197V121.012C113.12 121.041 113.094 121.072 113.064 121.102C112.507 121.654 112.088 122.705 111.449 122.715C110.795 122.725 110.48 121.596 109.92 121.059C108.009 119.226 107 116.972 106.181 114.461C104.255 108.548 100.984 103.298 97.4146 98.2419C96.9192 97.5399 97.1006 97.4044 97.7726 97.1236C100.132 96.1343 102.341 94.874 103.783 92.6799C105.45 90.1414 105.777 87.4983 104.039 84.8112C102.957 83.1363 102.588 81.2915 103.004 79.3538C103.761 75.8373 101.415 72.7911 97.493 72.0646C97.3328 72.0352 97.1644 72.0418 97.0074 71.9993C96.4156 71.8377 95.5965 72.2164 95.2499 71.7071C94.9392 71.2484 95.0455 70.5072 94.9687 69.8917C94.2673 67.8332 92.6699 66.6039 90.9123 65.5215C90.3123 65.1526 89.7074 64.7902 89.2381 64.2482C87.3923 62.7071 86.8969 59.9547 88.0201 57.4635C88.1868 57.0945 88.3683 56.7337 88.5792 56.2946C87.8648 56.1118 87.2386 56.3175 86.6336 56.4546C84.5033 56.9378 82.7768 58.0593 81.5849 59.909C81.235 60.4526 81.0388 60.4395 80.5941 59.9922C78.2806 57.6659 75.4064 56.3615 72.2656 55.573C72.1136 55.5355 71.9501 55.4865 71.7522 55.6302C72.8673 57.4912 73.4461 59.5221 73.5801 61.7831C70.804 60.6583 68.0344 60.0657 65.129 60.4918C63.929 60.6681 62.7632 61.0125 61.5779 61.5774C63.2374 62.7903 64.7497 63.9657 65.6489 65.7893C66.5711 67.6568 66.7591 69.5032 66.0332 71.4573C65.6064 72.6082 65.1094 73.7167 64.4718 74.7697C63.0199 77.1678 61.8853 79.6737 61.9507 82.5682C61.9785 83.7534 62.2204 84.8912 62.6668 85.9752C62.8728 86.478 62.7829 86.7441 62.361 87.0559C60.7964 88.2085 59.6601 89.6908 58.8573 91.4735C57.8191 93.7786 57.9859 97.5089 61.1495 99.316C61.2444 99.3699 61.3245 99.4532 61.4226 99.494C63.4483 100.317 63.9682 101.931 63.7753 103.928C63.754 104.143 63.7655 104.362 63.754 104.579C63.5791 108.008 65.2713 109.222 68.618 109.539C69.4094 109.614 70.1941 109.47 70.9609 109.273C71.6035 109.106 71.9599 109.256 72.2476 109.931C73.5523 112.992 74.1622 116.214 74.53 119.487C75.1971 125.405 74.9159 131.325 74.4401 137.239C74.1213 141.193 73.7191 145.137 73.2335 149.075C72.3425 156.3 70.8416 163.38 68.1537 170.165C66.8539 173.445 64.8838 176.359 62.7518 179.16C62.1436 179.96 61.5795 180.796 60.9321 181.563C60.4056 182.187 60.4727 182.644 61.0907 183.134C62.8401 184.518 64.596 185.894 66.2294 187.416C67.8414 188.916 69.4355 190.436 71.0672 191.917C71.2176 192.054 71.3304 192.18 71.3958 192.304C71.2094 192.576 70.7222 193.275 70.0486 194.16C70.029 194.163 70.0094 194.166 69.9881 194.168C69.9849 194.196 69.9816 194.225 69.9783 194.253C69.9227 194.326 69.8655 194.4 69.8066 194.475C69.8034 194.475 69.8017 194.476 69.7985 194.478C68.1815 196.419 66.486 198.282 64.3802 199.715C63.947 200.011 63.6756 200.401 63.9143 200.864C64.1481 201.32 64.578 201.034 64.9214 200.902C67.5668 199.88 70.1614 198.739 72.7398 197.55L75.6026 196.455C75.6026 196.455 76.6522 197.221 81.3593 201.811C81.3756 201.829 81.3903 201.846 81.4067 201.864C81.4475 201.904 81.4884 201.947 81.5293 201.988L81.5538 202.01C81.8138 202.278 82.0754 202.544 82.3353 202.812L82.3664 202.841C82.4498 202.93 82.5332 203.016 82.6165 203.104C82.7948 203.268 82.9828 203.423 83.1495 203.596C83.7381 204.204 84.3981 204.312 85.1295 203.921C87.5639 202.043 90.2044 200.486 92.8399 198.919C95.8826 197.111 99.0234 195.503 102.352 194.289C104.182 193.621 106.036 193.019 107.909 192.477C108.501 192.305 108.848 192.462 109.263 192.859C113.681 197.069 117.072 202.032 119.928 207.38C122.84 212.832 125.354 218.465 127.449 224.278C127.869 225.445 128.41 226.612 128.368 227.887C128.469 227.85 128.39 228.129 128.5 227.938C129.221 223.264 131.389 219.101 133.238 214.839C135.62 209.344 138.439 204.067 141.984 199.216C143.72 196.84 145.67 194.643 147.811 192.617C148.141 192.305 148.409 192.371 148.762 192.462C153.763 193.776 158.5 195.714 162.962 198.336C165.519 199.838 168.084 201.323 170.509 203.037C170.751 203.209 170.973 203.405 171.203 203.589C171.387 203.69 171.599 203.761 171.746 203.899C172.304 204.423 172.848 204.43 173.407 203.917C175.83 201.168 178.598 198.77 181.234 196.238C181.293 196.182 181.353 196.129 181.415 196.089C181.912 196.393 182.547 196.731 183.219 197.064C183.225 197.072 183.234 197.079 183.24 197.088C183.281 197.103 183.322 197.121 183.363 197.136C183.753 197.328 184.151 197.518 184.54 197.697C184.649 197.763 184.759 197.828 184.867 197.898C185.235 198.068 185.598 198.249 185.97 198.406C187.996 199.265 190.022 200.12 192.052 200.966C192.345 201.088 192.706 201.245 192.924 200.868C193.128 200.513 192.929 200.189 192.703 199.906C192.639 199.825 192.528 199.782 192.438 199.72C191.951 199.385 191.485 199.026 191.039 198.649C187.962 195.761 186.149 193.09 185.55 192.144C185.661 192.016 185.818 191.866 186.028 191.667C189.072 188.79 192.106 185.904 195.445 183.357C196.506 182.549 196.486 182.381 195.694 181.34C192.845 177.59 189.996 173.827 188.333 169.365C186.767 165.16 185.572 160.839 184.741 156.426C183.951 152.234 183.433 148.002 182.978 143.761C182.239 136.89 181.697 130.004 181.991 123.092C182.181 118.63 182.802 114.224 184.535 110.04C184.846 109.291 185.197 109.09 185.975 109.291C187.535 109.694 189.082 109.637 190.614 109.034C192.27 108.383 193.011 107.155 193.061 105.449C193.089 104.499 193.047 103.546 193.076 102.594C193.114 101.432 193.55 100.488 194.652 99.9397L194.662 99.9348ZM182.084 69.7187C182.934 67.2291 184.628 65.5085 186.94 64.3412C186.981 64.3216 187.045 64.3494 187.185 64.3641C186.973 64.7608 186.775 65.133 186.575 65.5036C185.864 67.1377 185.774 68.8551 185.867 70.6019C185.961 72.3389 186.799 73.8522 187.406 75.581C186.821 75.2088 186.384 74.9117 186.054 74.4807C184.532 73.4114 183.188 72.1707 182.228 70.5529C182.069 70.2852 181.97 70.0452 182.083 69.7187H182.084ZM174.516 69.5375C175.002 67.0708 176.416 65.1265 177.966 63.2523C178.513 62.5895 179.043 61.9023 179.928 61.2803C179.764 62.1439 179.632 62.8377 179.499 63.5315C179.39 66.2039 180.022 68.6886 181.357 71.0084C182.427 72.8694 184.025 74.2212 185.696 75.4815C187.841 77.1009 189.185 79.1611 189.562 81.8384C189.803 83.5379 189.526 85.1328 188.714 86.6429C188.501 87.038 188.266 87.2502 187.838 86.9237C185.887 86.3327 183.95 85.7009 181.948 85.2928C181.666 85.2357 181.139 85.2683 181.461 84.6627C182.841 82.0588 184.44 79.615 186.58 77.558C186.677 77.4127 186.775 77.2674 186.889 77.0944C186.574 76.9295 186.297 77.1025 186.085 77.1956C185.269 77.5629 184.443 77.9106 183.641 78.3041C183.263 78.4885 183.14 78.3677 182.99 78.0233C182.29 76.4201 180.938 75.7116 179.298 75.4276C179.063 75.3868 178.816 75.4423 178.638 75.2007C177.647 73.8555 176.377 72.778 175.16 71.6565C174.501 71.0476 174.349 70.3913 174.518 69.5391L174.516 69.5375ZM167.268 70.7896C167.971 69.544 168.836 68.4437 169.894 67.4903C170.87 66.612 171.74 65.6521 172.343 64.4751C172.402 64.2465 172.541 64.0621 172.547 63.6817C172.835 64.8832 172.817 65.9786 172.724 67.0773C172.531 69.3693 173.246 71.2794 175.039 72.7862C175.87 73.4833 176.61 74.2848 177.395 75.0358C177.714 75.3411 177.837 75.5663 177.271 75.7459C176.864 75.8749 176.488 76.11 176.099 76.2961C173.635 78.6926 171.705 79.1448 167.829 77.1352C167.69 77.0633 167.517 76.9572 167.469 76.8266C166.74 74.8399 166.101 72.8547 167.267 70.7896H167.268ZM161.132 75.7982C161.268 75.7867 161.404 75.7965 161.363 75.7965C163.323 75.8357 164.83 76.6667 166.341 77.4813C167.515 78.1147 168.702 78.7008 169.999 79.0664C172.202 79.6884 174.142 79.2427 175.857 77.7653C176.522 77.1923 177.191 76.6487 178.078 76.4577C179.74 76.1018 181.298 77.1433 181.435 78.7008C181.484 79.2623 181.337 79.6558 180.797 79.9725C178.929 81.0711 177.081 82.209 175.404 83.5934C175.211 83.7517 175.024 83.8791 174.742 83.8072C170.273 82.6759 165.864 81.396 162.015 78.7203C161.407 78.2975 160.898 77.7686 160.491 77.1466C159.898 76.2406 160.063 75.8896 161.132 75.7949V75.7982ZM150.104 129.557C150.565 124.426 152.022 119.556 153.897 114.771C156.546 108.014 160.344 101.979 164.963 96.42C165.295 96.02 165.601 95.8274 166.138 95.9694C166.634 96.1 167.159 96.1522 167.674 96.1702C168.344 96.1914 168.408 96.4036 168.043 96.9309C166.456 99.2197 165.277 101.731 164.144 104.261C161.922 109.219 160.815 114.466 160.05 119.812C158.985 127.255 158.963 134.733 159.443 142.199C160.362 156.428 164.423 169.671 172.351 181.638C175.239 185.997 178.752 189.785 182.514 193.352C181.988 193.699 181.497 194.07 181.154 194.427C178.816 192.759 176.677 190.826 174.619 188.784C166.993 181.222 160.8 172.638 156.177 162.956C153.742 157.856 152.245 152.43 151.08 146.913C149.871 141.18 149.583 135.386 150.106 129.557H150.104ZM168.148 139.735C168.527 150.418 170.005 160.942 173.185 171.186C175.227 177.765 177.93 184.027 181.901 189.698C182.565 190.647 183.258 191.571 183.984 192.47C183.783 192.581 183.57 192.7 183.353 192.829C182.423 191.93 181.505 191.017 180.582 190.108C177.99 187.555 176.417 184.345 174.81 181.178C170.258 172.206 167.51 162.657 165.923 152.751C164.896 146.345 164.407 139.899 164.515 133.416C164.682 123.441 166.05 113.653 169.372 104.197C170.191 101.864 171.12 99.5756 172.24 97.3668C172.458 96.9375 173.751 96.7089 174.055 97.0534C174.21 97.2281 174.048 97.3995 173.986 97.5709C172.312 102.181 171.202 106.933 170.283 111.744C168.517 120.999 167.811 130.335 168.146 139.739L168.148 139.735ZM150.234 148.543C150.305 148.549 150.376 148.556 150.448 148.562C150.606 150.343 151.569 151.955 151.406 153.811C151.162 156.581 148.499 158.258 145.903 157.257C145.386 157.058 145.708 156.777 145.79 156.558C146.462 154.776 147.31 153.074 148.312 151.455C148.924 150.467 149.591 149.512 150.234 148.543ZM148.466 130.023C148.62 129.842 148.793 129.677 148.957 129.506C148.602 133.773 149.195 138.023 148.644 142.236C147.971 147.385 144.662 150.472 140.319 152.629C138.15 153.706 136.639 152.606 136.541 150.175C136.479 148.636 136.912 147.225 137.667 145.903C140.85 140.328 144.313 134.942 148.466 130.025V130.023ZM136.266 121.063C136.946 121.796 137.625 122.529 138.306 123.26C138.838 123.831 139.305 124.475 140.138 124.687C140.515 124.783 140.61 125.193 140.716 125.528C141.212 127.088 140.705 129.945 139.629 131.444C139.582 129.568 139.345 127.8 138.581 126.164C137.594 124.044 136.312 122.297 134.683 121.058L136.268 121.064L136.266 121.063ZM124.109 124.15C126.993 124.146 129.878 124.156 132.762 124.138C133.196 124.135 133.496 124.256 133.688 124.641C133.712 124.688 133.743 124.737 133.784 124.772C135.547 126.341 135.463 128.402 135.313 130.481C135.306 130.57 135.213 130.655 135.161 130.742C135.386 132.141 135.571 133.502 134.927 134.895C134.144 136.586 133.022 137.18 131.119 137.011C128.742 136.798 126.33 136.963 123.934 136.998C123.446 137.004 123.123 136.904 122.913 136.431C122.763 136.087 122.545 135.76 122.304 135.47C121.105 134.028 121.476 132.369 121.612 130.74C121.394 129.503 121.336 128.21 121.587 127.029C121.815 125.959 122.786 125.139 123.489 124.251C123.639 124.062 123.899 124.151 124.11 124.151L124.109 124.15ZM116.158 125.446C116.243 125.15 116.357 124.814 116.64 124.723C117.955 124.297 118.61 123.131 119.48 122.227C119.851 121.841 120.217 121.453 120.585 121.064L122.179 121.058C121.032 121.947 120.031 123.089 119.164 124.419C117.904 126.354 117.327 128.518 117.245 130.819C117.24 130.954 117.237 131.091 117.22 131.225C117.216 131.266 117.173 131.303 117.08 131.444C116.177 129.481 115.554 127.567 116.156 125.448L116.158 125.446ZM108.39 130.064C112.625 135.058 116.143 140.537 119.334 146.234C120.142 147.677 120.461 149.223 120.229 150.869C120.015 152.395 119.084 153.091 117.554 152.906C117.059 152.848 116.57 152.733 116.153 152.497C112.164 150.232 108.936 147.362 108.212 142.496C107.991 141.01 107.97 139.52 107.947 138.028C107.906 135.205 108.05 132.378 107.695 129.467C108.104 129.609 108.223 129.868 108.388 130.063L108.39 130.064ZM111.236 157.201C110.594 157.317 109.956 157.486 109.311 157.539C107.535 157.686 105.691 155.982 105.455 154.025C105.356 153.203 105.434 152.407 105.668 151.608C105.965 150.593 106.198 149.56 106.477 148.461C108.421 150.911 110.692 155.092 111.238 157.201H111.236ZM94.5289 75.87C95.07 75.7933 95.6079 75.741 96.1524 75.8651C96.6952 75.9892 96.8145 76.3059 96.5742 76.7646C96.2292 77.4209 95.7436 77.9678 95.1747 78.4461C93.0672 80.2157 90.5134 81.1136 88.0005 82.0719C86.1955 82.7608 84.3349 83.2897 82.4514 83.7321C81.9511 83.8497 81.6061 83.7485 81.199 83.4203C79.6785 82.1943 78.0354 81.1397 76.353 80.1472C75.3132 79.5333 75.081 78.6763 75.7366 77.6592C76.2942 76.794 77.1247 76.3891 78.2512 76.3826C78.9608 76.443 79.7521 76.6422 80.3227 77.2152C83.2149 80.1112 86.3475 79.6705 89.6044 77.971C91.1903 77.1433 92.701 76.1312 94.5321 75.87H94.5289ZM84.124 67.3532C84.0945 66.8406 84.1076 66.3247 84.1027 65.8105C84.0455 65.3877 84.0112 64.9665 84.1763 64.5567L84.173 64.5845L84.1763 64.5616C84.1894 64.351 84.2025 64.1404 84.2139 63.9315C84.9366 66.0194 86.7612 67.1883 88.146 68.7098C90.3548 71.1357 90.8061 73.8685 89.4 76.7483C89.3428 76.8642 89.261 77.0029 89.1547 77.0568C87.1895 78.0412 85.2096 78.9571 82.9583 77.94C82.1539 77.5776 81.5031 77.0062 80.8753 76.4038C80.5205 76.2079 80.187 75.9255 79.8077 75.8341C78.8365 75.6023 79.1913 75.2578 79.6524 74.8301C80.4486 74.0922 81.2105 73.3151 82.0198 72.5919C83.5926 71.188 84.2466 69.4314 84.1256 67.3532H84.124ZM70.4655 65.977C70.1925 65.3517 69.6595 64.862 69.5107 64.1714C71.9746 65.262 73.7616 67.0055 74.6952 69.5652C74.808 69.8754 74.8325 70.1905 74.651 70.5056C73.7502 72.0679 72.4389 73.2449 71.0361 74.3338C70.9838 74.3746 70.8775 74.3436 70.7958 74.3469C70.5506 74.8954 70.0404 75.1615 69.4911 75.4798C70.9691 72.4156 71.5495 69.273 70.4655 65.977ZM70.4001 76.1034C71.3844 75.2921 72.4079 74.5199 73.3333 73.6449C76.0898 71.0394 77.3176 67.7711 77.3602 64.0196C77.2195 63.1413 77.0806 62.263 76.9334 61.3423C77.0544 61.4011 77.1689 61.4239 77.2375 61.4925C79.2518 63.5331 81.0911 65.6962 82.0508 68.4633C82.059 68.4894 82.0623 68.5172 82.0721 68.5417C82.6558 70.0223 82.4204 71.2157 81.078 72.2507C80.0121 73.0719 79.036 74.0367 78.2528 75.1598C78.1319 75.3329 77.9749 75.39 77.7722 75.4129C75.9835 75.6153 74.566 76.3761 73.8139 78.1C73.6978 78.3645 73.572 78.5146 73.2679 78.3269C72.3866 77.7833 71.3729 77.5286 70.4508 77.0731C70.3004 77.0666 70.0503 77.0062 70.0192 77.0633C69.8966 77.2935 70.235 77.3556 70.2628 77.5531C72.416 79.6182 74.0183 82.0751 75.3884 84.7002C75.5911 85.0871 75.3819 85.1818 75.0794 85.2422C73.0602 85.6438 71.1097 86.2984 69.1314 86.8519C68.6442 87.2224 68.3646 87.1033 68.0769 86.5515C66.3029 83.1657 67.2921 78.6616 70.4034 76.1002L70.4001 76.1034ZM68.1439 102.24C67.6518 100.642 68.2338 99.3111 69.1723 98.0688C69.9603 97.0256 71.0312 96.2877 72.1381 95.4095C71.3958 95.2397 70.8874 95.6527 70.3315 95.7866C69.4355 96.0021 68.5641 96.3237 67.6665 96.5343C66.0561 96.9097 64.7219 96.4216 63.9224 95.2233C63.0886 93.9745 63.1622 92.8595 64.2118 91.3804C65.6424 89.3659 67.758 88.4076 70.0077 87.6453C73.8107 86.3572 77.7722 85.7613 81.6797 84.9271C85.9584 84.0129 90.0834 82.6661 93.9206 80.5373C95.5115 79.6558 96.9371 78.5767 97.6598 76.8103C97.8495 76.3467 98.0833 76.6324 98.2729 76.7973C99.4533 77.8159 99.7673 79.1709 99.6365 80.6336C99.4844 82.3249 98.5165 83.6048 97.3312 84.7394C95.5066 86.4862 93.2519 87.513 90.9745 88.4991C90.6867 88.6231 90.3957 88.7423 89.9477 88.9317C91.0251 89.0655 91.8933 88.8925 92.7615 88.7015C95.3316 88.135 97.8233 87.3808 99.867 85.6144C100.205 85.3222 100.318 85.5328 100.483 85.7728C101.886 87.8118 101.541 90.1887 99.5956 91.7216C97.4391 93.4211 94.8967 94.2128 92.2546 94.6895C88.0479 95.447 83.8003 95.9139 79.5477 96.3514C77.1149 96.6012 74.6706 96.8248 72.3686 97.7619C71.5544 98.0933 70.8072 98.539 70.1434 99.1071C68.6981 100.341 68.587 101.892 69.8181 103.324C69.9211 103.445 70.0306 103.559 70.2236 103.774C69.1461 103.841 68.4692 103.299 68.1439 102.241V102.24ZM74.3665 107.093C73.742 105.753 72.864 104.579 71.8127 103.539C71.646 103.374 71.4073 103.278 71.198 103.157C69.7265 102.312 69.5827 100.888 70.8906 99.7993C72.0923 98.7969 73.5376 98.3186 75.0418 98.0002C76.6424 97.6623 78.2741 97.5415 79.8911 97.3211C80.5876 97.2264 80.9096 97.4958 81.1974 98.0884C83.0138 101.824 84.0177 105.818 84.9872 109.82C86.6304 116.604 87.4462 123.5 87.6588 130.477C87.7291 132.761 87.7536 135.043 87.7748 138.155C87.4773 146.69 86.6009 155.979 84.3169 165.098C84.1616 165.721 83.8509 165.875 83.2885 165.849C81.7974 165.779 80.7478 164.938 79.8845 163.846C77.6871 161.067 76.8942 157.794 76.6816 154.348C76.4936 151.293 77.0152 148.273 77.2326 145.24C77.4795 141.795 77.6839 138.351 77.8147 134.901C77.9929 130.228 78.0452 125.554 77.6512 120.886C77.249 116.124 76.407 111.465 74.3665 107.093ZM65.2402 182.744C64.7775 182.332 64.7677 182.06 65.0898 181.547C67.2349 178.124 70.3266 175.694 73.5801 173.442C76.5983 171.35 79.6671 169.342 83.0433 167.854C83.1839 167.792 83.313 167.661 83.5992 167.777C83.2558 168.951 82.9206 170.142 82.5577 171.323C80.6186 177.614 77.9651 183.573 74.2227 189.017C73.6226 189.891 73.6145 189.886 72.8052 189.208C70.2595 187.081 67.7204 184.948 65.2418 182.744H65.2402ZM73.2548 193.045L72.6302 192.735C76.4021 188.126 79.2665 182.989 81.4525 177.43C84.2809 170.242 86.1546 162.798 87.2745 155.169C88.3275 148.006 88.9144 140.798 88.7444 133.551C88.5972 127.327 88.195 121.123 87.1045 114.97C86.2739 110.286 85.3992 105.621 84.0275 101.06C83.6678 99.8646 83.2476 98.6859 82.8193 97.5121C82.6754 97.1187 82.7539 97.0681 83.1512 96.9571C84.0602 96.7024 84.4657 97.0158 84.863 97.8549C87.9678 104.419 89.8872 111.333 91.0399 118.474C92.3135 126.373 92.5947 134.317 92.078 142.298C91.5287 150.794 90.072 159.125 87.5852 167.267C85.4499 174.263 82.5806 180.935 78.6698 187.145C77.2195 189.447 75.1284 191.14 73.2564 193.043L73.2548 193.045ZM75.8576 194.356L75.771 194.294L74.1736 193.5C76.8026 191.035 79.3156 188.459 81.562 185.618C86.5355 179.328 90.2028 172.327 92.8596 164.786C95.2924 157.882 96.7328 150.769 97.305 143.474C97.7661 137.58 97.8298 131.679 97.4113 125.787C96.9355 119.104 95.948 112.494 93.5037 106.199C92.253 102.979 90.7586 99.8695 88.8474 96.9767C88.3651 96.2469 88.37 96.2437 89.2152 96.1718C89.297 96.1653 89.3869 96.1849 89.4588 96.1571C90.9614 95.5792 91.8246 96.3024 92.7549 97.455C99.2702 105.528 103.778 114.562 105.995 124.7C107.059 129.568 107.19 134.508 106.781 139.463C106.065 148.138 103.871 156.444 100.022 164.242C94.6041 175.223 87.1993 184.727 77.9095 192.731C77.2473 193.303 76.5623 193.845 75.8576 194.357V194.356ZM178.213 194.25C176.329 195.944 174.593 197.789 172.853 199.625C172.569 199.926 172.397 200.024 171.996 199.722C165.336 194.687 157.843 191.347 149.898 188.918C142.263 186.583 134.471 185.47 126.476 185.669C119.256 185.849 112.263 187.202 105.409 189.394C99.2882 191.353 93.4661 193.957 88.0577 197.443C86.9835 198.135 85.9437 198.883 84.9316 199.661C84.5082 199.986 84.2907 199.95 83.936 199.578C82.2062 197.771 80.5303 195.907 78.6305 194.271C78.2332 193.93 78.2626 193.724 78.6518 193.394C84.0537 188.81 88.7509 183.568 92.9151 177.861C96.7066 172.663 99.9962 167.156 102.499 161.214C102.813 160.47 103.248 160.055 104.008 159.823C107.694 158.694 111.487 158.098 115.29 157.598C119.612 157.032 123.965 156.821 127.926 156.784C135.808 156.833 143.221 157.502 150.525 159.185C153.783 159.936 153.696 159.97 155.111 162.987C157.97 169.086 161.474 174.803 165.632 180.119C169.413 184.954 173.556 189.443 178.229 193.433C178.626 193.773 178.541 193.956 178.214 194.25H178.213ZM188.375 177.487C189.76 178.747 190.833 180.238 191.884 181.759C192.074 182.034 192.133 182.242 191.83 182.52C189.164 184.965 186.355 187.241 183.596 189.579C183.067 190.028 182.921 189.471 182.751 189.218C181.335 187.124 180.014 184.97 178.86 182.721C176.481 178.089 174.753 173.21 173.362 168.205C173.321 168.058 173.313 167.901 173.277 167.674C174.421 168.041 175.399 168.567 176.355 169.112C180.614 171.54 184.73 174.17 188.374 177.485L188.375 177.487ZM185.895 102.963C184.417 103.928 183.435 105.253 182.656 106.749C181.031 109.869 180.219 113.251 179.681 116.696C178.634 123.397 178.837 130.139 179.092 136.882C179.287 142.045 179.849 147.183 180.161 152.337C180.374 155.845 179.697 159.211 178.007 162.331C177.431 163.392 176.703 164.342 175.7 165.042C175.368 165.274 175.01 165.49 174.634 165.633C173.223 166.167 172.755 165.921 172.402 164.504C171.058 159.111 170.242 153.636 169.714 148.108C169.243 143.177 168.98 138.24 169.139 131.018C169.199 124.057 170.283 114.955 172.82 106.06C173.483 103.739 174.104 101.397 175.105 99.1871C175.328 98.6941 175.61 98.2272 175.832 97.7325C175.994 97.3734 176.246 97.2689 176.614 97.3081C178.914 97.5497 181.224 97.7276 183.443 98.4557C184.437 98.7822 185.348 99.2638 186.124 99.9674C187.234 100.976 187.036 102.219 185.897 102.963H185.895ZM189.52 96.6044C188.06 96.3726 186.701 95.7882 185.294 95.3735C184.985 95.2821 184.684 95.1156 184.272 95.2527C185.3 95.8682 186.243 96.5343 187.048 97.3685C188.133 98.4949 188.958 99.747 188.851 101.407C188.801 102.197 188.498 102.886 187.947 103.451C187.625 103.781 187.216 103.91 186.754 103.797C186.685 103.59 186.85 103.5 186.953 103.386C188.295 101.907 188.151 100.265 186.585 99.0075C184.958 97.7015 183.041 97.1236 181.028 96.8346C176.206 96.1457 171.342 95.7849 166.529 95.0356C163.56 94.572 160.637 93.9582 158.054 92.2914C156.803 91.4833 155.794 90.5152 155.554 88.948C155.364 87.7073 155.82 86.6609 156.443 85.6454C156.662 85.2879 156.827 85.492 157.017 85.6503C159.553 87.7399 162.594 88.5072 165.749 88.966C166.066 89.0117 166.395 88.9725 166.719 88.9725C164.839 88.0697 162.957 87.2796 161.261 86.127C159.827 85.154 158.559 84.0162 157.741 82.4522C156.76 80.5749 157.058 78.2224 158.412 76.923C158.814 76.5377 159.017 76.4299 159.304 77.0813C160.007 78.6697 161.355 79.677 162.818 80.49C166.897 82.7543 171.287 84.1582 175.848 85.0741C179.579 85.8234 183.34 86.4454 186.953 87.691C188.982 88.3897 190.91 89.2467 192.308 90.9641C193.1 91.9387 193.727 92.977 193.346 94.3173C192.883 95.9449 191.315 96.8901 189.52 96.6044Z" fill="#050B0F"/>
<path d="M139.767 54.2197C139.767 54.2197 139.767 54.2213 139.767 54.223C139.768 54.2262 139.77 54.2278 139.772 54.2311L139.767 54.2197Z" fill="#050B0F"/>
<path d="M128.008 156.784C135.89 156.833 143.303 157.502 150.606 159.185C153.865 159.936 153.778 159.97 155.192 162.987C158.052 169.086 161.555 174.803 165.713 180.119C169.495 184.954 173.638 189.443 178.311 193.433C178.708 193.773 178.623 193.956 178.296 194.25C176.412 195.944 174.676 197.789 172.936 199.625C172.652 199.926 172.48 200.024 172.08 199.722C165.419 194.687 157.926 191.347 149.982 188.918C142.346 186.583 134.554 185.47 126.559 185.669C119.339 185.849 112.347 187.202 105.493 189.394C99.3715 191.353 93.5494 193.957 88.141 197.443C87.0668 198.135 86.027 198.883 85.0149 199.661C84.5915 199.986 84.374 199.95 84.0192 199.578C82.2894 197.771 80.6136 195.907 78.7138 194.271C78.3165 193.93 78.3459 193.724 78.735 193.394C84.1369 188.81 88.8342 183.568 92.9984 177.861C96.7899 172.663 100.079 167.156 102.583 161.214C102.896 160.47 103.331 160.055 104.092 159.823C107.777 158.694 111.57 158.098 115.373 157.598C119.696 157.032 124.048 156.821 128.009 156.784H128.008Z" fill="#57C3E9"/>
<path d="M69.627 197.675C73.904 193.917 78.1042 190.095 81.6455 185.619C86.6191 179.328 90.2863 172.327 92.9431 164.786C95.3759 157.882 96.8163 150.769 97.3885 143.474C97.8496 137.58 97.9134 131.679 97.4948 125.787C97.019 119.104 96.0315 112.494 93.5873 106.199C92.3365 102.979 90.8422 99.8695 88.9309 96.9767C88.4486 96.2469 88.4535 96.2437 89.2988 96.1718C89.3805 96.1653 89.4704 96.1849 89.5424 96.1571C91.0449 95.5792 91.9082 96.3024 92.8385 97.455C99.3538 105.528 103.861 114.562 106.078 124.7C107.143 129.568 107.273 134.508 106.865 139.463C106.149 148.138 103.955 156.444 100.106 164.242C94.6876 175.223 87.2829 184.727 77.993 192.731C75.7858 194.633 73.3399 196.228 70.6586 197.42C70.3349 197.564 70.0275 197.839 69.627 197.676V197.675Z" fill="#CBCDD8"/>
<path d="M128.466 57.4129C128.466 57.8096 128.34 59.016 128.34 59.4143C128.34 70.7602 128.698 82.1323 128.7 93.4782C128.7 93.6415 128.719 93.8063 128.7 93.968C128.631 94.5491 128.812 94.8544 129.443 95.0421C130.501 95.3572 131.051 96.3024 131.023 97.4436C130.998 98.4818 130.362 99.3895 129.324 99.6932C128.879 99.8221 128.696 99.969 128.716 100.446C128.737 100.983 129.121 100.851 129.411 100.904C130.846 101.167 131.953 102.493 131.969 103.98C131.987 105.493 130.874 106.858 129.393 107.119C129.071 107.177 128.744 107.119 128.749 107.63C128.753 108.078 128.858 108.308 129.34 108.417C130.841 108.758 131.943 109.625 132.511 111.08C132.672 111.496 132.901 111.708 133.353 111.614C133.866 111.506 133.655 111.086 133.649 110.812C133.41 101.187 133.297 91.56 132.869 81.9396C132.64 76.7989 132.296 71.6777 131.479 66.599C131.011 63.6948 130.03 60.9326 128.899 58.2259C128.789 57.9842 128.5 57.5157 128.464 57.4112L128.466 57.4129Z" fill="#2C2D35"/>
<path d="M187.143 197.794C186.59 197.533 186.033 197.284 185.486 197.01C181.375 194.942 177.943 191.997 174.699 188.782C167.074 181.221 160.88 172.637 156.257 162.954C153.822 157.854 152.325 152.428 151.16 146.912C149.951 141.178 149.663 135.385 150.186 129.555C150.647 124.424 152.104 119.554 153.979 114.769C156.628 108.012 160.426 101.977 165.045 96.4183C165.376 96.0184 165.682 95.8257 166.22 95.9678C166.715 96.0984 167.24 96.1506 167.755 96.1686C168.426 96.1898 168.489 96.402 168.125 96.9293C166.537 99.2181 165.358 101.729 164.225 104.259C162.004 109.217 160.897 114.464 160.132 119.811C159.067 127.253 159.043 134.732 159.525 142.197C160.444 156.426 164.505 169.669 172.433 181.637C175.933 186.923 180.356 191.368 185.024 195.6C185.648 196.166 186.288 196.716 186.915 197.278C187.033 197.384 187.133 197.511 187.241 197.63C187.208 197.684 187.175 197.74 187.143 197.794Z" fill="#CBCDD8"/>
<path d="M123.755 155.768C120.158 155.925 116.898 156.266 114.094 156.666C111.781 150.893 107.743 145.702 107.175 144.985C108.209 138.462 108.07 132.608 107.818 129.124C109.026 130.512 118.566 141.732 123.755 155.768Z" fill="#494C58"/>
<path d="M149.755 145.101C148.931 146.177 145.133 151.289 142.943 156.893C139.644 156.338 136.43 155.998 133.351 155.824C138.472 141.931 147.708 130.992 149.071 129.423C148.832 132.955 148.728 138.713 149.755 145.101Z" fill="#494C58"/>
<path d="M87.8567 138.155C87.5591 146.69 86.6828 155.979 84.3987 165.098C84.2434 165.722 83.9328 165.875 83.3703 165.849C81.8792 165.779 80.8296 164.938 79.9663 163.846C77.769 161.067 76.976 157.794 76.7635 154.348C76.5754 151.293 77.097 148.273 77.3144 145.24C77.5613 141.795 77.7657 138.351 77.8981 134.901C78.0763 130.228 78.1287 125.554 77.7346 120.886C77.3324 116.123 76.4904 111.465 74.45 107.093C73.8254 105.753 72.9475 104.579 71.8962 103.539C71.7294 103.374 71.4907 103.278 71.2814 103.157C69.81 102.312 69.6661 100.888 70.9741 99.7993C72.1758 98.7969 73.6211 98.3186 75.1252 98.0002C76.7259 97.6623 78.3575 97.5415 79.9729 97.3211C80.6694 97.2264 80.9915 97.4958 81.2792 98.0884C83.0957 101.824 84.0995 105.818 85.069 109.82C86.7122 116.604 87.528 123.5 87.7406 130.477C87.8109 132.761 87.8354 135.043 87.8567 138.155Z" fill="#57C3E9"/>
<path d="M169.222 131.018C169.282 124.057 170.366 114.955 172.904 106.06C173.566 103.739 174.187 101.397 175.188 99.1871C175.412 98.6941 175.693 98.2272 175.915 97.7325C176.077 97.3734 176.329 97.2689 176.697 97.3081C178.997 97.5497 181.307 97.7276 183.526 98.4557C184.52 98.7822 185.431 99.2638 186.207 99.9674C187.318 100.976 187.12 102.219 185.98 102.963C184.502 103.928 183.52 105.253 182.741 106.749C181.116 109.869 180.304 113.251 179.766 116.696C178.719 123.397 178.922 130.139 179.177 136.882C179.372 142.045 179.934 147.183 180.246 152.337C180.459 155.845 179.782 159.211 178.092 162.331C177.516 163.392 176.788 164.342 175.785 165.042C175.453 165.274 175.095 165.49 174.719 165.633C173.308 166.167 172.84 165.921 172.487 164.504C171.143 159.111 170.327 153.636 169.799 148.108C169.328 143.177 169.065 138.24 169.224 131.018H169.222Z" fill="#57C3E9"/>
<path d="M139.309 76.2585C139.328 76.6373 139.348 77.016 139.367 77.3948C138.918 77.4911 139.067 77.8551 139.063 78.1228C139.044 79.8353 139.103 81.5511 139.021 83.2603C138.852 86.7474 138.591 90.2295 138.406 93.7149C138.293 95.8519 138.03 97.9709 137.643 100.069C137.288 101.985 136.761 103.869 136.135 105.715C135.777 106.77 135.55 107.91 134.69 108.732C134.685 108.574 134.68 108.417 134.675 108.259C134.816 108.145 134.808 108.034 134.664 107.929C134.428 103.531 134.423 99.1267 134.32 94.7254C134.162 87.9326 134.006 81.1365 133.451 74.3632C133.007 68.9743 132.303 63.6131 130.071 58.5915C129.773 57.9206 129.482 57.2513 129.115 56.6162C128.701 55.9012 128.3 55.8897 127.897 56.6113C126.724 58.7107 125.985 60.9848 125.308 63.2752C124.2 67.0218 123.821 70.9023 123.534 74.7664C122.8 84.6643 122.668 94.5867 122.493 104.507C122.473 105.649 122.398 106.786 122.349 107.928C121.868 108.019 121.764 107.599 121.589 107.327C121 106.409 120.628 105.389 120.276 104.365C119.37 101.721 118.899 98.9879 118.563 96.2176C118.193 93.186 118.033 90.1397 117.771 87.1016C117.596 85.0708 117.65 83.0416 117.622 81.0108C117.619 80.761 117.583 80.5259 117.448 80.312C117.431 75.9761 118.178 71.7251 118.854 67.4642C119.424 63.8694 120.251 60.3285 121.079 56.786C121.108 56.6587 121.164 56.5362 121.249 56.2979C122.787 58.2487 123.58 60.4346 124.277 62.9275C124.484 60.6877 124.211 58.7352 123.752 56.8023C124.079 56.6587 124.203 57.1353 124.561 56.9509C123.897 55.3886 123.757 53.7234 123.7 51.8444C124.146 52.8484 124.229 53.8197 125.102 54.6964C124.496 51.211 124.488 47.9411 125.093 44.6646C125.696 41.3996 127.208 38.4921 128.488 35.3218C129.867 38.3174 131.019 41.2168 132.12 44.1357C134.705 50.9939 136.367 58.1002 137.764 65.2767C138.329 68.1841 138.727 71.1161 139.158 74.0448C139.217 74.4464 139.204 74.8578 139.224 75.2643C139.194 75.6023 139.093 75.9451 139.312 76.2602L139.309 76.2585ZM128.526 51.9554C128.578 51.9636 128.632 51.9701 128.685 51.9783C128.755 51.7285 128.832 51.482 128.896 51.2306C129.136 50.2902 129.419 49.363 129.814 48.4765C129.908 48.2676 129.942 47.9378 130.218 47.9133C130.537 47.8856 130.651 48.2072 130.768 48.4422C131.565 50.0421 132.386 51.6305 133.006 53.312C133.308 54.1299 133.621 54.9445 133.928 55.7608C134.188 52.4925 130.017 40.5001 128.526 39.8079V51.9554Z" fill="#F9FCFC"/>
<path d="M166.8 88.9709C164.92 88.0681 163.038 87.2779 161.343 86.1254C159.909 85.1524 158.64 84.0146 157.823 82.4506C156.842 80.5732 157.139 78.2208 158.493 76.9213C158.895 76.5361 159.098 76.4283 159.386 77.0797C160.089 78.6681 161.436 79.6754 162.899 80.4883C166.979 82.7526 171.368 84.1566 175.93 85.0724C179.661 85.8217 183.421 86.4437 187.035 87.6893C189.064 88.388 190.991 89.2451 192.389 90.9625C193.182 91.9371 193.808 92.9754 193.427 94.3157C192.965 95.9433 191.397 96.8885 189.601 96.6028C188.141 96.371 186.783 95.7866 185.375 95.3719C185.066 95.2805 184.765 95.114 184.353 95.2511C185.382 95.8666 186.325 96.5326 187.129 97.3668C188.215 98.4933 189.039 99.7454 188.933 101.406C188.882 102.196 188.58 102.885 188.029 103.45C187.707 103.779 187.298 103.908 186.835 103.796C186.766 103.588 186.932 103.499 187.035 103.384C188.377 101.905 188.233 100.263 186.667 99.0059C185.04 97.6999 183.122 97.122 181.11 96.833C176.288 96.1441 171.424 95.7833 166.611 95.034C163.642 94.5703 160.718 93.9565 158.135 92.2897C156.884 91.4816 155.876 90.5136 155.635 88.9464C155.446 87.7057 155.902 86.6592 156.525 85.6438C156.744 85.2863 156.909 85.4903 157.099 85.6487C159.634 87.7383 162.675 88.5056 165.831 88.9643C166.148 89.01 166.477 88.9709 166.8 88.9709ZM188.186 93.6072C186.587 91.6465 184.428 90.4646 182.059 89.3676C183.008 89.2321 183.778 89.8524 184.747 89.4981C184.368 89.2484 184.133 89.0688 183.876 88.9268C181.481 87.5914 178.888 86.829 176.2 86.3915C171.823 85.6813 167.69 84.297 163.833 82.1062C163.292 81.7992 162.741 81.5119 162.133 81.1822C162.258 81.8531 162.854 82.1339 163.053 82.7722C161.94 82.4212 161.171 81.7633 160.432 81.0483C159.675 80.3169 159.116 79.4697 158.876 78.2828C158.575 78.784 158.529 79.1203 158.488 79.4762C158.302 81.1381 159.167 82.369 160.234 83.4301C162.654 85.8381 165.716 87.1784 168.867 88.3162C172.035 89.4606 175.4 89.8198 178.646 90.6556C180.452 91.1209 182.29 91.4457 184.079 92.0057C185.485 92.4448 186.773 93.1174 188.184 93.6055L188.186 93.6072ZM185.035 89.7038C185.015 89.6973 184.997 89.6892 184.978 89.6826C184.975 89.7104 184.973 89.7398 184.97 89.7675C184.989 89.7642 185.014 89.7642 185.029 89.7528C185.038 89.7463 185.033 89.7202 185.035 89.7038Z" fill="#57C3E9"/>
<path d="M70.3068 103.771C69.2294 103.838 68.5525 103.296 68.2271 102.238C67.735 100.64 68.3171 99.3095 69.2555 98.0672C70.0436 97.024 71.1145 96.2861 72.2213 95.4078C71.4791 95.2381 70.9706 95.6511 70.4147 95.7849C69.5188 96.0004 68.6473 96.322 67.7497 96.5326C66.1393 96.9081 64.8052 96.42 64.0057 95.2217C63.1718 93.9729 63.2454 92.8579 64.2951 91.3788C65.7256 89.3643 67.8413 88.406 70.091 87.6436C73.8939 86.3556 77.8554 85.7597 81.763 84.9255C86.0416 84.0113 90.1666 82.6645 94.0039 80.5357C95.5947 79.6541 97.0204 78.5751 97.743 76.8087C97.9327 76.3451 98.1665 76.6307 98.3561 76.7956C99.5366 77.8143 99.8505 79.1693 99.7197 80.632C99.5677 82.3233 98.5998 83.6032 97.4144 84.7378C95.5898 86.4845 93.3352 87.5114 91.0577 88.4974C90.7699 88.6215 90.4789 88.7407 90.0309 88.93C91.1084 89.0639 91.9765 88.8909 92.8447 88.6999C95.4149 88.1334 97.9065 87.3792 99.9502 85.6128C100.289 85.3206 100.401 85.5312 100.567 85.7711C101.969 87.8101 101.624 90.1871 99.6788 91.72C97.5223 93.4194 94.98 94.2112 92.3379 94.6879C88.1311 95.4454 83.8835 95.9123 79.631 96.3498C77.1982 96.5996 74.7523 96.8232 72.4519 97.7603C71.6377 98.0917 70.8905 98.5373 70.2267 99.1055C68.7814 100.34 68.6702 101.891 69.9013 103.322C70.0043 103.443 70.1139 103.557 70.3068 103.773V103.771ZM68.5787 93.7263C68.9907 93.7737 69.3062 93.5272 69.6397 93.3574C71.2682 92.533 72.9669 91.8571 74.7408 91.4751C77.7279 90.8319 80.7019 90.1299 83.7037 89.5422C86.9785 88.9007 90.1536 87.8118 93.0769 86.1401C94.9914 85.0447 96.8095 83.8138 98.0161 81.8841C98.6325 80.8981 98.6979 79.246 98.1289 78.4755C97.5076 80.5079 96.1441 81.8107 94.0889 82.6743C94.2393 82.018 94.7756 81.747 94.823 81.1463C94.3979 81.4058 94.0595 81.6213 93.7129 81.8221C91.6218 83.0318 89.4178 83.9982 87.1583 84.839C85.9141 85.301 84.6307 85.6324 83.326 85.9034C80.8392 86.4192 78.2968 86.7033 75.9131 87.6616C74.5315 88.2166 73.1582 88.7766 72.0137 89.8198C72.8884 89.6565 73.7647 89.4949 74.6394 89.3316C74.3353 89.65 73.9789 89.81 73.6339 89.9928C71.7652 90.9886 69.9259 92.0269 68.5787 93.7263C68.4609 93.7476 68.322 93.7443 68.3334 93.9222C68.3334 93.9402 68.3661 93.9712 68.3841 93.9729C68.5623 93.9827 68.5607 93.8455 68.5803 93.7263H68.5787Z" fill="#57C3E9"/>
<path d="M186.876 195.983C184.705 194.132 182.697 192.109 180.666 190.108C178.075 187.555 176.502 184.345 174.895 181.178C170.343 172.206 167.595 162.657 166.007 152.751C164.981 146.345 164.492 139.899 164.6 133.416C164.766 123.441 166.135 113.653 169.457 104.197C170.276 101.864 171.205 99.5756 172.325 97.3668C172.542 96.9375 173.836 96.7089 174.14 97.0534C174.295 97.2281 174.133 97.3995 174.071 97.5709C172.397 102.181 171.287 106.933 170.368 111.744C168.602 120.999 167.896 130.335 168.231 139.739C168.61 150.422 170.088 160.945 173.268 171.189C175.31 177.768 178.013 184.03 181.984 189.701C183.297 191.576 184.721 193.357 186.282 195.028C186.534 195.298 186.779 195.572 187.028 195.845C186.977 195.892 186.925 195.939 186.874 195.987L186.876 195.983Z" fill="#CBCDD8"/>
<path d="M70.2334 195.551C75.2625 190.255 78.8921 184.148 81.5342 177.43C84.3627 170.242 86.2364 162.798 87.3563 155.169C88.4092 148.006 88.9962 140.798 88.8261 133.551C88.679 127.327 88.2768 121.123 87.1863 114.97C86.3557 110.286 85.481 105.621 84.1093 101.06C83.7496 99.8646 83.3294 98.6859 82.9011 97.5121C82.7572 97.1187 82.8357 97.0681 83.233 96.9571C84.142 96.7024 84.5475 97.0158 84.9448 97.855C88.0495 104.419 89.969 111.333 91.1216 118.474C92.3953 126.373 92.6765 134.317 92.1598 142.298C91.6105 150.794 90.1537 159.125 87.667 167.268C85.5317 174.263 82.6624 180.935 78.7515 187.145C77.2784 189.484 75.1432 191.194 73.2499 193.133C72.5289 193.872 71.7376 194.543 70.9724 195.237C70.7811 195.41 70.6274 195.683 70.235 195.547L70.2334 195.551Z" fill="#CBCDD8"/>
<path d="M173.36 167.676C174.504 168.043 175.482 168.569 176.438 169.114C180.698 171.541 184.813 174.171 188.457 177.487C189.842 178.747 190.914 180.238 191.966 181.759C192.155 182.034 192.214 182.242 191.912 182.52C189.245 184.966 186.436 187.241 183.678 189.579C183.148 190.028 183.003 189.471 182.833 189.218C181.417 187.124 180.096 184.97 178.942 182.721C176.563 178.089 174.835 173.21 173.443 168.205C173.402 168.058 173.394 167.901 173.36 167.674V167.676Z" fill="#57C3E9"/>
<path d="M83.6825 167.777C83.3392 168.951 83.004 170.142 82.6411 171.323C80.702 177.614 78.0485 183.573 74.306 189.017C73.706 189.891 73.6978 189.886 72.8885 189.208C70.3429 187.081 67.8038 184.948 65.3252 182.744C64.8625 182.332 64.8527 182.06 65.1748 181.547C67.3199 178.124 70.4116 175.694 73.6651 173.442C76.6833 171.35 79.7521 169.342 83.1283 167.854C83.2689 167.792 83.398 167.661 83.6842 167.777H83.6825Z" fill="#57C3E9"/>
<path d="M128.466 57.4129C128.466 57.8096 128.453 59.238 128.451 59.6363C128.451 70.9823 128.703 82.1323 128.701 93.4782C128.701 93.6415 128.682 93.8063 128.701 93.968C128.77 94.5491 128.168 94.8544 127.537 95.0421C126.479 95.3572 125.93 96.3024 125.958 97.4436C125.982 98.4818 126.618 99.3895 127.657 99.6932C128.101 99.8221 128.284 99.969 128.265 100.446C128.243 100.983 127.859 100.851 127.57 100.904C126.134 101.167 125.028 102.493 125.011 103.98C124.993 105.493 126.107 106.858 127.588 107.119C127.91 107.177 128.237 107.119 128.232 107.63C128.227 108.078 128.123 108.308 127.64 108.417C126.139 108.758 125.037 109.625 124.47 111.08C124.308 111.496 124.079 111.708 123.628 111.614C123.115 111.506 123.326 111.086 123.332 110.812C123.571 101.187 123.684 91.56 124.112 81.9396C124.341 76.7989 124.684 71.6777 125.502 66.599C125.969 63.6948 126.95 60.9326 128.082 58.2259C128.191 57.9842 128.432 57.5157 128.466 57.4112V57.4129Z" fill="#CBCDD8"/>
<path d="M149.04 129.504C148.685 133.772 149.279 138.021 148.728 142.235C148.054 147.384 144.743 150.471 140.402 152.627C138.233 153.705 136.722 152.604 136.624 150.174C136.562 148.634 136.995 147.224 137.751 145.901C140.934 140.326 144.397 134.941 148.549 130.023C148.703 129.842 148.876 129.677 149.04 129.506V129.504Z" fill="#CBCDD8"/>
<path d="M107.78 129.468C108.189 129.61 108.308 129.87 108.473 130.064C112.708 135.058 116.226 140.537 119.418 146.234C120.225 147.677 120.544 149.223 120.312 150.869C120.098 152.395 119.167 153.091 117.637 152.906C117.142 152.848 116.653 152.733 116.236 152.497C112.247 150.232 109.019 147.362 108.295 142.496C108.074 141.01 108.053 139.52 108.03 138.028C107.989 135.205 108.133 132.378 107.778 129.467L107.78 129.468Z" fill="#CBCDD8"/>
<path d="M129.292 214.174C129.377 211.337 129.754 208.542 130.101 205.741C130.889 199.39 132.941 193.371 134.772 187.29C134.893 186.889 135.102 186.876 135.432 186.907C138.277 187.182 141.083 187.687 144.009 188.355C140.589 192.127 137.726 196.187 135.359 200.605C133.013 204.985 130.93 209.474 129.292 214.174Z" fill="#CBCDD8"/>
<path d="M113.022 188.39C114.393 187.973 115.729 187.759 117.057 187.538C118.531 187.293 120.019 187.12 121.501 186.92C121.832 186.874 122.104 186.838 122.236 187.305C123.521 191.794 125.173 196.182 126.052 200.781C126.875 205.08 127.509 209.407 127.761 213.784C127.769 213.918 127.761 214.052 127.761 214.342C124.269 204.805 119.924 195.926 113.02 188.392L113.022 188.39Z" fill="#CBCDD8"/>
<path d="M134.688 108.732C135.548 107.908 135.776 106.77 136.134 105.715C136.762 103.869 137.286 101.985 137.641 100.069C138.03 97.9709 138.292 95.8519 138.405 93.7149C138.589 90.2295 138.851 86.7474 139.019 83.2603C139.103 81.5511 139.042 79.8353 139.062 78.1228C139.065 77.8551 138.915 77.4911 139.366 77.3948C139.634 78.6224 139.598 79.8762 139.665 81.1185C139.974 86.7898 140.062 92.4677 140.113 98.1488C140.175 104.889 139.951 111.622 139.835 118.508C138.503 117.039 137.245 115.653 135.972 114.249C136.866 113.847 137.227 112.908 136.896 112.02C136.732 111.581 136.356 111.632 136.009 111.622C135.12 111.594 134.675 111.146 134.675 110.278C134.675 109.764 134.682 109.248 134.687 108.734L134.688 108.732Z" fill="#CBCDD8"/>
<path d="M117.444 80.3088C117.58 80.5226 117.616 80.7577 117.619 81.0075C117.647 83.0383 117.593 85.0675 117.768 87.0984C118.03 90.1365 118.19 93.1827 118.559 96.2143C118.898 98.9863 119.367 101.717 120.273 104.362C120.623 105.386 120.997 106.406 121.586 107.323C121.76 107.596 121.863 108.016 122.346 107.924C122.339 108.984 122.315 110.043 122.333 111.103C122.339 111.495 122.21 111.661 121.821 111.62C121.739 111.612 121.657 111.617 121.576 111.617C120.108 111.627 119.764 112.097 120.054 113.563C120.17 114.152 120.711 113.934 121.046 114.226C119.795 115.608 118.548 116.986 117.15 118.532C117.15 117.832 117.165 117.332 117.148 116.833C116.854 107.642 116.787 98.4508 117.003 89.2582C117.068 86.4323 117.227 83.6064 117.349 80.7822C117.356 80.6238 117.411 80.4655 117.444 80.3088Z" fill="#CBCDD8"/>
<path d="M78.3312 76.3826C79.0408 76.443 79.8321 76.6422 80.4027 77.2152C83.2949 80.1112 86.4275 79.6705 89.6843 77.971C91.2703 77.1433 92.781 76.1312 94.6121 75.87C95.1533 75.7933 95.6912 75.741 96.2356 75.8651C96.7784 75.9892 96.8978 76.3059 96.6574 76.7646C96.3125 77.4209 95.8269 77.9678 95.2579 78.4461C93.1505 80.2157 90.5967 81.1136 88.0837 82.0719C86.2787 82.7608 84.4181 83.2897 82.5347 83.7321C82.0344 83.8497 81.6894 83.7485 81.2823 83.4203C79.7618 82.1943 78.1187 81.1397 76.4363 80.1472C75.3964 79.5333 75.1643 78.6763 75.8199 77.6592C76.3774 76.794 77.208 76.3891 78.3345 76.3826H78.3312Z" fill="#57C3E9"/>
<path d="M161.446 75.7965C163.406 75.8357 164.914 76.6667 166.424 77.4813C167.598 78.1147 168.785 78.7008 170.082 79.0664C172.286 79.6884 174.225 79.2427 175.94 77.7653C176.605 77.1923 177.274 76.6487 178.162 76.4577C179.823 76.1018 181.381 77.1433 181.518 78.7008C181.567 79.2623 181.42 79.6558 180.881 79.9725C179.012 81.0712 177.164 82.209 175.487 83.5934C175.294 83.7517 175.107 83.8791 174.825 83.8072C170.356 82.6759 165.947 81.396 162.098 78.7203C161.49 78.2975 160.981 77.7686 160.574 77.1466C159.981 76.2406 160.146 75.8896 161.215 75.7949C161.351 75.7835 161.487 75.7933 161.446 75.7933V75.7965Z" fill="#57C3E9"/>
<path d="M143.232 123.805L132.139 112.33C131.709 111.885 131.116 111.633 130.496 111.633C129.234 111.633 128.212 112.655 128.212 113.914C128.212 112.654 127.189 111.633 125.928 111.633C125.308 111.633 124.715 111.885 124.285 112.33L113.192 123.805C112.781 124.23 112.551 124.798 112.551 125.389V129.384C112.551 129.816 112.673 130.241 112.907 130.606L122.251 145.302C122.67 145.962 123.397 146.36 124.18 146.36H132.245C133.027 146.36 133.755 145.96 134.175 145.302L143.519 130.606C143.751 130.241 143.875 129.816 143.875 129.384V125.389C143.875 124.798 143.646 124.23 143.234 123.805H143.232Z" fill="#4B4B55"/>
<path d="M140.696 124.682L131.477 115.145C131.119 114.774 130.627 114.565 130.11 114.565C129.062 114.565 128.212 115.414 128.212 116.461C128.212 115.406 127.349 114.551 126.288 114.565C125.763 114.572 125.267 114.812 124.904 115.189L115.727 124.682C115.386 125.035 115.194 125.508 115.194 125.998V129.318C115.194 129.677 115.297 130.03 115.49 130.334L122.506 141.164L128.212 142.989L134.139 140.775L140.932 130.334C141.125 130.03 141.228 129.677 141.228 129.318V125.999C141.228 125.508 141.036 125.036 140.695 124.684L140.696 124.682Z" fill="#CDCFDB"/>
<path d="M128.212 142.989C134.233 142.989 139.114 138.57 139.114 133.119C139.114 127.668 134.233 123.249 128.212 123.249C122.191 123.249 117.31 127.668 117.31 133.119C117.31 138.57 122.191 142.989 128.212 142.989Z" fill="#2F3138"/>
<path d="M128.212 138.97C134.233 138.97 139.114 134.741 139.114 129.526C139.114 124.31 134.233 120.082 128.212 120.082C122.191 120.082 117.31 124.31 117.31 129.526C117.31 134.741 122.191 138.97 128.212 138.97Z" fill="#4B4B55"/>
<path d="M120.443 127.189V131.413H135.941V126.905L133.704 124.266L123.046 124.062L120.443 127.189Z" fill="#31509F"/>
<path d="M135.941 135.556V131.333H120.443V135.84L122.681 138.482L133.338 138.684L135.941 135.556Z" fill="#FDC406"/>
<path d="M133.585 124.785L135.584 127.271V135.421L133.635 138.124H122.787L121 135.659L120.925 127.392L123.041 124.785H133.585ZM134.029 123.859H122.599L119.997 127.069L120.078 135.964L122.315 139.051H134.111L136.511 135.721V126.948L134.029 123.861V123.859Z" fill="#030204"/>
<path d="M128.294 120.764C134.108 120.764 138.837 125.614 138.837 131.576C138.837 137.538 134.108 142.388 128.294 142.388C122.48 142.388 117.75 137.538 117.75 131.576C117.75 125.614 122.48 120.764 128.294 120.764ZM128.294 119.838C121.958 119.838 116.823 125.093 116.823 131.576C116.823 138.059 121.958 143.314 128.294 143.314C134.629 143.314 139.764 138.059 139.764 131.576C139.764 125.093 134.629 119.838 128.294 119.838Z" fill="#030204"/>
<path d="M135.1 113.894L142.775 122.396L142.884 124.78L140.551 124.049L132.443 115.166L135.1 113.894Z" fill="#494A57"/>
<path d="M133.066 114.761L142.206 124.401L139.846 124.373L131.439 115.6L133.066 114.761Z" fill="#2C2D35"/>
<path d="M132.795 112.134L131.9 114.869L136.782 112.866L136.593 112.27L132.795 112.134Z" fill="#CECCD9"/>
<path d="M136.207 112.544V113.041L135.391 113.354L134.116 113.844L135.043 114.846L142.6 123.02L142.574 124.326L140.17 124.151L132.061 115.401L133.23 112.543H136.209M137.134 111.62H132.605L130.979 115.6L139.739 125.051L143.481 125.322L143.535 122.667L135.725 114.219L137.136 113.677V111.619L137.134 111.62Z" fill="#030204"/>
<path d="M136.546 113.156L131.603 115.302" stroke="#030204" stroke-width="5.67" stroke-miterlimit="10"/>
<path d="M121.602 113.894L113.928 122.396L113.82 124.78L116.151 124.049L124.261 115.166L121.602 113.894Z" fill="#494A57"/>
<path d="M123.636 114.761L114.498 124.401L116.857 124.373L125.263 115.6L123.636 114.761Z" fill="#2C2D35"/>
<path d="M123.907 112.134L124.802 114.869L119.921 112.866L120.111 112.27L123.907 112.134Z" fill="#CECCD9"/>
<path d="M123.474 112.544L124.643 115.403L116.534 124.153L114.13 124.328L114.104 123.022L121.661 114.848L122.588 113.845L121.313 113.356L120.497 113.042V112.546H123.476M124.097 111.62H119.568V113.679L120.979 114.221L113.169 122.669L113.223 125.323L116.965 125.053L125.725 115.602L124.099 111.622L124.097 111.62Z" fill="#030204"/>
<path d="M120.158 113.156L125.101 115.302" stroke="#030204" stroke-width="5.67" stroke-miterlimit="10"/>
<path d="M84.1863 65.8105C84.129 65.3877 84.0947 64.9665 84.2598 64.5567V64.5616C84.2729 64.351 84.2844 64.1404 84.2974 63.9315C85.0201 66.0194 86.8447 67.1883 88.2295 68.7098C90.4383 71.1357 90.8896 73.8685 89.4835 76.7483C89.4263 76.8642 89.3445 77.003 89.2383 77.0568C87.2731 78.0412 85.2931 78.9571 83.0418 77.94C82.2374 77.5776 81.5867 77.0062 80.9605 76.4055C80.7774 76.0806 80.8624 75.7525 81.0357 75.4798C81.6341 74.533 82.19 73.5453 82.8979 72.685C84.2435 71.0508 84.7487 69.1914 84.5656 67.1377C84.528 66.7067 84.6457 66.1533 84.1863 65.8105Z" fill="#57C3E9"/>
<path d="M77.4435 64.0213C77.3029 63.143 77.1639 62.2647 77.0168 61.3439C77.1378 61.4027 77.2522 61.4256 77.3209 61.4941C79.3352 63.5348 81.1745 65.6978 82.1342 68.4649C82.1424 68.4911 82.1457 68.5188 82.1555 68.5433C82.7391 70.024 82.5037 71.2173 81.1614 72.2524C80.0954 73.0735 79.1193 74.0383 78.3362 75.1615C78.2152 75.3345 78.0583 75.3917 77.8555 75.4145C76.0669 75.617 74.6494 76.3777 73.8973 78.1016C73.7812 78.3661 73.6553 78.5163 73.3512 78.3285C72.47 77.7849 71.4563 77.5302 70.5342 77.0748C71.2356 76.3548 71.8748 75.5614 72.6482 74.9297C75.3737 72.7046 77.3094 70.0207 77.6839 66.4374C77.7672 65.6472 78.0288 64.7722 77.4435 64.0196V64.0213Z" fill="#57C3E9"/>
<path d="M186.17 77.1939C185.354 77.5613 184.528 77.909 183.724 78.3024C183.346 78.4869 183.224 78.3661 183.073 78.0216C182.374 76.4185 181.021 75.71 179.382 75.4259C179.146 75.3851 178.899 75.4406 178.721 75.199C177.73 73.8538 176.46 72.7764 175.243 71.6549C174.585 71.0459 174.433 70.3897 174.601 69.5375C175.087 67.0708 176.501 65.1265 178.051 63.2523C178.598 62.5895 179.128 61.9023 180.013 61.2803C179.849 62.1439 179.717 62.8377 179.584 63.5315C179.375 64.0849 179.265 64.6596 179.272 65.2505C179.303 68.3556 180.351 71.0525 182.566 73.2563C183.639 74.324 184.762 75.3427 185.853 76.3924C186.072 76.603 186.422 76.7875 186.172 77.1956L186.17 77.1939Z" fill="#57C3E9"/>
<path d="M187.923 86.9237C185.972 86.3327 184.035 85.7009 182.034 85.2928C181.751 85.2357 181.224 85.2683 181.546 84.6627C182.926 82.0588 184.525 79.615 186.665 77.558C186.785 77.6135 186.94 77.6396 187.02 77.731C188.392 79.3113 188.848 81.1724 188.689 83.2195C188.591 84.488 188.153 85.6846 187.924 86.9253L187.923 86.9237Z" fill="#57C3E9"/>
<path d="M70.3462 77.558C72.4994 79.6231 74.1017 82.08 75.4718 84.7051C75.6745 85.092 75.4652 85.1867 75.1628 85.2471C73.1436 85.6487 71.1931 86.3033 69.2148 86.8568C69.1559 86.6788 69.102 86.4992 69.0382 86.3229C68.2077 84.0244 67.8921 81.7013 68.9434 79.3962C69.2589 78.7056 69.4666 77.8518 70.3462 77.558Z" fill="#57C3E9"/>
<path d="M128.48 116.199C126.481 116.199 124.712 114.513 124.697 112.592C124.681 110.66 126.459 108.853 128.428 108.799C128.457 108.799 128.485 108.799 128.515 108.799C130.452 108.799 132.293 110.623 132.303 112.551C132.308 113.468 131.93 114.355 131.24 115.047C130.509 115.78 129.504 116.201 128.48 116.201V116.199Z" fill="#57C3E9"/>
<path d="M128.514 109.26C130.205 109.26 131.832 110.858 131.838 112.551C131.847 114.263 130.293 115.736 128.48 115.736C126.729 115.736 125.174 114.26 125.16 112.588C125.146 110.91 126.726 109.309 128.441 109.261C128.465 109.261 128.49 109.261 128.514 109.261M128.514 108.334C128.482 108.334 128.449 108.334 128.415 108.334C126.209 108.394 124.215 110.425 124.233 112.593C124.251 114.76 126.234 116.66 128.479 116.66C129.625 116.66 130.749 116.19 131.567 115.368C132.344 114.59 132.769 113.586 132.764 112.544C132.754 110.34 130.727 108.332 128.513 108.332L128.514 108.334Z" fill="black"/>
<path d="M106.559 148.461C108.503 150.911 110.774 155.092 111.32 157.201C110.677 157.317 110.04 157.486 109.394 157.539C107.618 157.686 105.774 155.982 105.538 154.025C105.439 153.203 105.517 152.407 105.751 151.608C106.049 150.593 106.281 149.56 106.56 148.461H106.559Z" fill="#CBCDD8"/>
<path d="M150.531 148.562C150.69 150.343 151.653 151.955 151.489 153.811C151.245 156.581 148.582 158.258 145.986 157.257C145.469 157.058 145.791 156.777 145.873 156.558C146.545 154.776 147.394 153.074 148.396 151.455C149.007 150.467 149.674 149.512 150.317 148.543C150.389 148.549 150.459 148.556 150.531 148.562Z" fill="#CBCDD8"/>
<path d="M69.5762 64.16C72.0482 65.2522 73.8434 66.9989 74.7786 69.5636C74.8914 69.8738 74.9159 70.1889 74.7345 70.5039C73.8336 72.0662 72.5224 73.2433 71.1196 74.3322C71.0673 74.373 70.961 74.342 70.8792 74.3452C71.4809 72.6474 71.906 70.9186 71.682 69.1C71.543 67.9801 71.4122 66.8406 70.549 65.9754C70.2727 65.3403 69.7266 64.8473 69.5876 64.1404L69.5762 64.1584V64.16Z" fill="#57C3E9"/>
<path d="M128.5 101.837C129.994 101.84 131.021 102.738 131.006 104.026C130.992 105.289 129.963 106.204 128.549 106.213C127.038 106.223 125.984 105.281 126.013 103.949C126.041 102.679 127.037 101.835 128.502 101.838L128.5 101.837Z" fill="#57C3E9"/>
<path d="M187.923 86.9237C188.152 85.683 188.588 84.4864 188.688 83.2179C188.848 81.1707 188.39 79.3097 187.019 77.7294C186.94 77.638 186.783 77.6119 186.664 77.5564C186.762 77.4111 186.858 77.2658 186.973 77.0927C186.698 77.1205 186.412 77.1629 186.168 77.194C186.418 76.7858 186.069 76.6014 185.85 76.3908C184.757 75.3411 183.636 74.3224 182.563 73.2547C180.348 71.0508 179.3 68.3539 179.269 65.2489C179.262 64.6579 179.372 64.0833 179.581 63.5299C179.472 66.2023 180.104 68.687 181.438 71.0068C182.509 72.8678 184.107 74.2195 185.778 75.4798C187.923 77.0993 189.267 79.1595 189.644 81.8368C189.885 83.5362 189.608 85.1312 188.796 86.6413C188.583 87.0363 188.348 87.2486 187.919 86.9221L187.923 86.9237Z" fill="#9ED7EC"/>
<path d="M127.972 197.882C126.978 194.295 126.101 190.74 124.913 187.272C124.749 186.796 124.839 186.621 125.344 186.637C126.183 186.665 127.241 186.273 127.8 186.737C128.341 187.186 127.957 188.27 127.962 189.071C127.983 192.008 127.97 194.945 127.97 197.882H127.972Z" fill="#CBCDD8"/>
<path d="M129.015 197.859C129.015 194.279 129.018 190.697 129.01 187.117C129.01 186.738 129.123 186.58 129.522 186.6C130.254 186.636 130.989 186.654 131.723 186.636C132.243 186.622 132.226 186.848 132.097 187.233C130.918 190.72 130.026 194.285 129.017 197.859H129.015Z" fill="#CBCDD8"/>
<path d="M70.346 77.558C69.4663 77.8535 69.2571 78.7056 68.9432 79.3962C67.8919 81.7013 68.2074 84.0244 69.038 86.3229C69.1018 86.4992 69.1557 86.6788 69.2146 86.8568C68.7273 87.2273 68.4478 87.1082 68.1584 86.5564C66.3845 83.1706 67.3736 78.6665 70.4849 76.1051C71.4692 75.2937 72.4927 74.5215 73.418 73.6465C76.1746 71.041 77.4024 67.7728 77.4449 64.0213C78.0319 64.7738 77.7687 65.6489 77.6853 66.439C77.3109 70.0224 75.3751 72.7046 72.6496 74.9313C71.8763 75.5631 71.237 76.3565 70.5356 77.0764C70.3852 77.0699 70.135 77.0095 70.104 77.0666C69.9814 77.2968 70.3198 77.3588 70.3476 77.5564L70.346 77.558Z" fill="#9ED7EC"/>
<path d="M176.183 76.2961C176.017 75.1582 175.371 74.2375 174.665 73.4131C173.187 71.6891 172.279 69.7905 172.41 67.4854C172.454 66.71 172.537 65.9313 172.672 65.1673C172.729 64.844 172.675 64.6498 172.426 64.4767C172.536 64.2694 172.596 64.0686 172.631 63.6817C172.918 64.8832 172.9 65.9786 172.807 67.0773C172.614 69.3694 173.329 71.2794 175.122 72.7862C175.953 73.4833 176.694 74.2848 177.478 75.0358C177.797 75.3411 177.92 75.5663 177.354 75.7459C176.947 75.8749 176.571 76.11 176.182 76.2961H176.183Z" fill="#9ED7EC"/>
<path d="M84.1863 65.8105C84.644 66.1533 84.5263 66.7084 84.5656 67.1377C84.7487 69.1914 84.2435 71.0508 82.8979 72.685C82.19 73.5453 81.6341 74.533 81.0357 75.4798C80.8624 75.7525 80.7774 76.0806 80.9605 76.4055C80.6057 76.2096 80.2722 75.9271 79.8912 75.8357C78.9201 75.6039 79.2748 75.2594 79.7359 74.8317C80.5321 74.0938 81.294 73.3168 82.1033 72.5936C83.6762 71.1896 84.3301 69.433 84.2092 67.3548C84.1797 66.8422 84.1928 66.3264 84.1879 65.8121L84.1863 65.8105Z" fill="#9ED7EC"/>
<path d="M128.508 98.8181C127.591 98.8198 126.94 98.1978 126.934 97.3179C126.927 96.4543 127.602 95.8339 128.533 95.8453C129.409 95.8551 130.052 96.4673 130.068 97.3032C130.084 98.17 129.419 98.8181 128.51 98.8198L128.508 98.8181Z" fill="#57C3E9"/>
<path d="M70.5487 65.977C71.4119 66.8422 71.5427 67.9817 71.6817 69.1016C71.9073 70.9186 71.4822 72.6491 70.8789 74.3469C70.6337 74.8954 70.1236 75.1615 69.5742 75.4798C71.0522 72.4156 71.6326 69.273 70.5487 65.977Z" fill="#9ED7EC"/>
<path d="M139.309 76.2585C139.088 75.9434 139.189 75.6006 139.22 75.2627C139.363 75.5843 139.358 75.919 139.309 76.2585Z" fill="#CBCDD8"/>
<path d="M134.662 107.928C134.806 108.032 134.814 108.143 134.674 108.257C134.67 108.148 134.665 108.037 134.662 107.928Z" fill="#CBCDD8"/>
<path d="M84.2596 64.5616V64.5567L84.2563 64.5828L84.2596 64.5616Z" fill="#9ED7EC"/>
<path d="M69.5876 64.1421C69.5697 64.1519 69.5517 64.1616 69.5337 64.1698C69.5468 64.1665 69.5615 64.1633 69.5762 64.16L69.5876 64.1421Z" fill="#57C3E9"/>
<path d="M128.526 51.9554C128.526 47.9068 128.526 43.8565 128.526 39.8079C130.017 40.5001 134.188 52.4925 133.928 55.7608C133.621 54.9445 133.309 54.1299 133.006 53.312C132.387 51.6305 131.564 50.0421 130.768 48.4422C130.652 48.2088 130.537 47.8856 130.219 47.9133C129.942 47.9378 129.908 48.2676 129.815 48.4765C129.419 49.363 129.136 50.2902 128.896 51.2306C128.832 51.482 128.755 51.7285 128.685 51.9783C128.633 51.9701 128.579 51.9636 128.526 51.9554Z" fill="#9ED7EC"/>
<path d="M188.186 93.6072C186.775 93.1191 185.487 92.4465 184.081 92.0073C182.292 91.449 180.453 91.1241 178.648 90.6572C175.402 89.8198 172.038 89.4622 168.869 88.3179C165.72 87.18 162.656 85.8397 160.236 83.4318C159.169 82.369 158.304 81.1397 158.49 79.4778C158.529 79.1219 158.575 78.7856 158.878 78.2845C159.118 79.4697 159.677 80.3186 160.434 81.0499C161.175 81.765 161.942 82.4229 163.055 82.7739C162.856 82.1355 162.26 81.8548 162.135 81.1838C162.743 81.5136 163.294 81.8009 163.835 82.1078C167.692 84.3003 171.825 85.683 176.202 86.3931C178.89 86.829 181.483 87.593 183.878 88.9284C184.135 89.0721 184.37 89.25 184.749 89.4998C183.778 89.854 183.01 89.2337 182.061 89.3692C184.43 90.4646 186.589 91.6465 188.188 93.6088L188.186 93.6072Z" fill="#9ED7EC"/>
<path d="M185.035 89.7038C185.033 89.7202 185.038 89.7463 185.029 89.7528C185.014 89.7642 184.989 89.7626 184.97 89.7675C184.973 89.7398 184.975 89.7104 184.978 89.6826C184.998 89.6892 185.015 89.6973 185.035 89.7038Z" fill="#9ED7EC"/>
<path d="M68.5786 93.7263C69.9258 92.0269 71.7651 90.9886 73.6339 89.9928C73.9789 89.81 74.3369 89.65 74.6394 89.3316C73.7647 89.4949 72.8884 89.6565 72.0137 89.8197C73.1581 88.7782 74.5315 88.2166 75.913 87.6616C78.2968 86.7049 80.8408 86.4209 83.3259 85.9034C84.6306 85.6324 85.9124 85.301 87.1583 84.839C89.4178 83.9982 91.6234 83.0318 93.7128 81.8221C94.0594 81.6213 94.3979 81.4058 94.823 81.1462C94.7772 81.7486 94.2393 82.018 94.0889 82.6743C96.144 81.8107 97.5076 80.5079 98.1288 78.4755C98.6978 79.246 98.6324 80.8965 98.016 81.8841C96.8094 83.8138 94.9914 85.0447 93.0768 86.1401C90.1535 87.8134 86.9768 88.9023 83.7036 89.5422C80.7018 90.1299 77.7278 90.8319 74.7408 91.4751C72.9668 91.8571 71.2681 92.533 69.6397 93.3574C69.3062 93.5272 68.9906 93.7737 68.5786 93.7263Z" fill="#9ED7EC"/>
<path d="M68.5786 93.7263C68.559 93.8455 68.5606 93.9826 68.3824 93.9729C68.3644 93.9729 68.3334 93.9402 68.3317 93.9222C68.3203 93.7443 68.4592 93.7476 68.577 93.7263H68.5786Z" fill="#9ED7EC"/>
<path d="M121.394 164.058C122.017 163.906 122.202 164.2 122.269 164.913C122.619 168.662 122.933 172.412 123.204 176.166C123.245 176.733 123.315 177.298 123.371 177.864C123.41 178.261 123.27 178.484 122.828 178.463C122.558 178.45 122.284 178.463 122.014 178.491C121.579 178.533 121.389 178.385 121.353 177.913C121.229 176.238 121.053 174.568 120.907 172.895C120.685 170.332 120.459 167.769 120.263 165.202C120.176 164.079 120.207 164.076 121.394 164.056V164.058Z" fill="#57C3E9"/>
<path d="M187.664 64.0049C187.38 64.1437 186.92 64.3935 186.92 64.3935C184.662 65.5607 183.004 67.2667 182.167 69.7171C182.056 70.0452 182.156 70.2852 182.313 70.5513C183.271 72.1691 184.617 73.4098 186.139 74.4791C186.157 74.115 186.008 73.7902 185.875 73.4702C185.056 71.49 185.107 69.4689 185.661 67.456C185.853 66.7622 185.987 65.977 186.659 65.5019C186.83 65.182 187.002 64.8604 187.182 64.5241C187.378 64.2318 187.666 64.0033 187.666 64.0033L187.664 64.0049Z" fill="#57C3E9"/>
<path d="M187.664 64.0049C186.948 64.493 186.384 65.5281 186.08 66.1811C186.028 66.2823 185.982 66.3868 185.941 66.4929C185.871 66.6594 185.833 66.7622 185.833 66.7622L185.859 66.7328C185.784 66.9745 185.725 67.221 185.66 67.4577C185.106 69.4689 185.055 71.4916 185.874 73.4718C186.006 73.7918 186.155 74.1183 186.137 74.4807C186.467 74.9117 186.904 75.2105 187.489 75.581C186.883 73.8522 186.044 72.3372 185.951 70.6019C185.862 68.9645 185.936 67.3532 186.531 65.8121C187.082 64.5632 187.664 64.0049 187.664 64.0049Z" fill="#9ED7EC"/>
<path d="M174.666 73.4131C173.188 71.6891 172.281 69.7905 172.412 67.4854C172.451 66.7802 172.526 66.0733 172.641 65.3746C172.817 64.5959 172.634 63.6801 172.634 63.6801C172.631 63.7454 172.613 63.8384 172.588 63.938C172.507 64.2727 172.376 64.5926 172.201 64.8881C171.616 65.8807 170.837 66.7165 169.979 67.4887C168.921 68.4421 168.056 69.5424 167.353 70.788C166.187 72.8547 166.827 74.8382 167.556 76.825C167.603 76.9556 167.777 77.0617 167.916 77.1335C171.792 79.1432 173.72 78.6893 176.185 76.2944C176.018 75.1566 175.373 74.2359 174.666 73.4114V73.4131Z" fill="#57C3E9"/>
<path d="M176.207 84.1027C176.207 84.1027 177.049 84.2692 177.681 84.4635C177.681 84.4635 180.075 81.6017 181.855 80.2957C181.855 80.2957 177.681 82.9632 176.207 84.1027Z" fill="#CBCDD8"/>
<path d="M178.935 84.6219C178.935 84.6219 179.427 84.7182 179.844 84.821C179.913 84.8373 180.763 82.32 181.42 81.4858C181.42 81.4858 179.478 84.0684 178.935 84.6202V84.6219Z" fill="#CBCDD8"/>
<path d="M80.8363 84.1027C80.8363 84.1027 79.9943 84.2692 79.3615 84.4635C79.3615 84.4635 76.968 81.6017 75.1875 80.2957C75.1875 80.2957 79.3615 82.9632 80.8363 84.1027Z" fill="#CBCDD8"/>
<path d="M78.1072 84.6219C78.1072 84.6219 77.6151 84.7182 77.1982 84.821C77.1295 84.8373 76.2793 82.32 75.6221 81.4858C75.6221 81.4858 77.5644 84.0684 78.1072 84.6202V84.6219Z" fill="#CBCDD8"/>
<path d="M128.698 94.0333C128.698 94.0333 131.711 90.7682 131.595 78.6844C131.479 66.6006 128.464 57.4129 128.464 57.4129L128.492 73.5567L128.698 94.0333Z" fill="#494C58"/>
<path d="M107.394 183.772L103.781 167.521L103.379 167.61L103.093 165.06L107.277 164.133L110.808 173.941L109.878 163.555L113.98 162.646L118.146 181.389L115.599 181.954L112.361 167.388L113.02 179.715L111.277 180.102L106.776 168.964L109.943 183.207L107.396 183.772H107.394Z" fill="white"/>
<path d="M125.557 178.408C125.622 179.173 125.438 179.808 125.004 180.313C124.569 180.817 123.969 181.103 123.203 181.168L121.232 181.336C120.466 181.402 119.826 181.222 119.311 180.799C118.796 180.375 118.507 179.781 118.442 179.015L117.217 164.75C117.152 163.985 117.335 163.349 117.77 162.845C118.205 162.341 118.805 162.055 119.571 161.99L121.541 161.821C122.308 161.756 122.948 161.936 123.463 162.359C123.976 162.783 124.267 163.377 124.332 164.141L125.557 178.406V178.408ZM119.954 164.518C119.862 164.527 119.821 164.575 119.83 164.667L121.031 178.657C121.04 178.749 121.089 178.79 121.18 178.783L122.822 178.643C122.913 178.635 122.954 178.586 122.946 178.494L121.744 164.504C121.736 164.412 121.687 164.371 121.595 164.38L119.954 164.52V164.518Z" fill="white"/>
<path d="M132.677 161.771L135.285 161.849L134.705 181.039L132.097 180.961L129.432 169.137L129.077 180.87L126.469 180.791L126.973 164.151L126.561 164.138L126.912 161.596L129.795 161.683L132.473 173.974L132.677 161.769V161.771Z" fill="white"/>
<path d="M137.582 164.634L137.96 162.112L145.43 163.227L145.052 165.749L142.608 165.384L140.142 181.849L137.562 181.464L140.028 164.998L137.584 164.633L137.582 164.634Z" fill="white"/>
<path d="M149.856 181.469L149.001 183.882L143.179 182.371L147.371 166.259L146.972 166.156L147.879 163.756L154.046 165.356L153.139 167.756L149.895 166.915L148.445 172.49L151.422 173.262L150.515 175.662L147.804 174.958L146.347 180.559L149.856 181.47V181.469Z" fill="white"/>
<path d="M176.945 98.4067C176.945 98.4067 169.181 116.789 170.308 140.297C171.434 163.805 178.448 155.051 178.572 147.674C178.696 140.297 174.32 112.25 183.832 103.285C183.832 103.285 186.463 101.964 184.236 100.575C182.009 99.1854 176.944 98.4067 176.944 98.4067H176.945Z" fill="#7BCBE4"/>
<path d="M79.9517 98.4067C79.9517 98.4067 87.7161 116.789 86.5897 140.297C85.4632 163.805 78.4492 155.051 78.3249 147.674C78.2007 140.297 82.5775 112.25 73.0653 103.285C73.0653 103.285 70.4346 101.964 72.6615 100.575C74.8883 99.1854 79.9534 98.4067 79.9534 98.4067H79.9517Z" fill="#7BCBE4"/>
</svg>
