<svg width="256" height="256" viewBox="0 0 256 256" fill="none" xmlns="http://www.w3.org/2000/svg">
<rect width="256" height="256" fill="#FF0000"/>
<path d="M222.717 28H151.905C151.623 28 151.51 28.1123 151.34 28.2807L143.767 39.002L128.339 60.8936C128.113 61.1743 128.057 61.2866 127.774 60.8936L112.346 39.002L104.773 28.2807C104.66 28.1123 104.49 28 104.208 28H67.3605H62.6698H33.3391C33.113 28 33 28.1123 33 28.2807V134.203C33 134.539 33.0565 134.652 33.2261 134.876L40.2903 143.24L67.304 175.235L73.5205 182.589L83.1279 193.928L111.724 227.775C111.894 227.944 112.007 228 112.289 228H143.711C143.993 228 144.106 228 144.276 227.775L172.872 193.928L182.479 182.589L188.696 175.235L215.71 143.24L222.774 134.876C222.943 134.708 223 134.596 223 134.203V109.111V99.4005V28.2807C223 28.1123 222.887 28 222.661 28H222.717ZM188.753 99.4005V108.662C188.753 108.999 188.696 109.111 188.357 109.111H163.378C162.869 109.111 162.7 109.111 162.869 109.729L171.572 142.005C171.629 142.23 171.685 142.398 171.459 142.623L170.951 143.184L128.396 193.591C128.113 193.928 128.057 193.984 127.717 193.591L85.1059 143.184L84.5973 142.623C84.4277 142.398 84.4277 142.23 84.4842 142.005L93.1874 109.729C93.3569 109.168 93.1874 109.111 92.6788 109.111H67.6996C67.417 109.111 67.304 108.999 67.304 108.662V62.4653C67.304 62.1285 67.417 62.0724 67.7561 62.0724H86.2362C86.6318 62.0724 86.7448 62.1847 86.8578 62.3531L100.647 81.9433L112.572 98.8392C113.024 99.4005 113.193 99.4005 113.645 99.4005H142.242C142.75 99.4005 142.92 99.4005 143.315 98.8392L155.24 81.9433L169.029 62.3531C169.142 62.1847 169.199 62.0724 169.651 62.0724H188.131C188.47 62.0724 188.583 62.1285 188.583 62.4653V99.4005H188.753Z" fill="white"/>
</svg>
