<svg width="256" height="256" viewBox="0 0 256 256" fill="none" xmlns="http://www.w3.org/2000/svg">
<rect width="256" height="256" fill="#F6C600"/>
<g clip-path="url(#clip0_207_7009)">
<path d="M81.7634 52.5586C69.3151 52.5586 60.2145 55.9893 60.1276 56.0246L60.0386 56.0599L59.9506 56.0994L59.8906 56.1264L58.4408 56.7724L57.6005 58.1226L57.5673 58.1766L57.4514 58.3625L57.3521 58.5578C55.2068 62.7581 54.0964 69.3285 53.9598 78.6451C53.8687 84.8239 54.2558 90.2425 54.3769 91.7558V91.7682L54.381 91.8212L54.3903 91.9136L54.4369 92.3914L54.9543 97.6563C52.6424 99.048 50.3968 100.607 48.2215 102.333C43.1921 106.33 38.6563 111.124 34.7393 116.583C31.8252 120.645 30.2998 123.663 30.1352 123.994L30.0928 124.08L30.0545 124.164L30.0214 124.238L29 126.494L30.0814 128.666C32.0601 133.156 34.671 137.442 37.8419 141.409C40.3897 144.596 43.3039 147.587 46.5057 150.298C51.8208 154.8 56.2458 157.097 56.8585 157.407C62.3391 160.224 67.9118 162.255 73.5259 163.492C66.6182 163.343 61.7989 162.719 61.3467 162.657L61.2825 162.648L60.8065 162.58L46.0028 160.487L56.3493 171.316L73.9409 189.729L75.456 191.468H77.9914L78.098 191.464C81.8462 191.309 85.3679 190.989 88.666 190.541L93.5019 195.489L123.458 226.14L123.476 226.158L123.493 226.175C124.666 227.352 126.222 228 127.877 228C129.532 228 131.131 227.325 132.283 226.146L162.712 195.283L167.394 190.534C173.825 191.452 178.123 191.468 178.184 191.468H180.471L181.999 189.862L199.376 171.606L208.71 161.8L195.238 162.841L194.801 162.874C190.831 163.179 186.929 163.35 183.181 163.385C187.922 162.392 192.469 160.863 196.782 158.802C202.931 155.865 208.536 151.896 213.438 147.006C221.426 139.05 225.242 130.955 225.863 129.566L227.002 127.283L225.858 124.988C224.256 121.42 222.128 117.87 219.535 114.434C217.468 111.698 215.098 109.021 212.491 106.481C208.116 102.216 204.578 99.7813 204.117 99.4718L203.915 99.3368L199.763 96.5584C200.366 94.1986 200.842 91.7734 201.188 89.2869C202.124 82.5929 202.108 75.6029 201.142 68.5121C200.517 63.9265 199.638 60.5676 199.335 59.5663L198.728 57.3333L196.658 56.2957L196.591 56.2624L196.554 56.2448L196.518 56.2271C191.528 53.8206 184.635 52.6002 176.032 52.6002C169.398 52.6002 163.985 53.3272 162.962 53.4737H162.958L162.946 53.4758L162.711 53.509L157.793 54.2142C154.962 49.262 151.406 44.7117 147.197 40.661C143.752 37.3468 139.927 34.4043 135.828 31.9157C132.932 30.1573 130.826 29.1986 130.195 28.9244L130.055 28.8601L129.866 28.7915L129.792 28.7645L127.701 28.0021L125.711 29.0003L125.68 29.0158C122.107 30.741 118.601 32.9159 115.258 35.4814C112.588 37.5296 110.011 39.8333 107.599 42.3281C103.522 46.5439 101.214 49.9745 100.964 50.3515L100.952 50.3702L100.941 50.3858L100.828 50.5613L98.1422 54.6827C94.3287 53.6554 90.3838 52.9969 86.3303 52.7165C84.8287 52.6137 83.294 52.5607 81.7665 52.5607" fill="black"/>
<path d="M86.6842 119.926C92.8726 119.926 100.638 121.286 106.31 126.905C106.431 127.033 106.499 127.209 106.485 127.39C106.466 127.566 106.371 127.727 106.231 127.829C105.083 128.623 101.089 131.298 97.693 132.463C96.9748 132.712 96.2163 132.834 95.4515 132.834C94.3173 132.834 93.1759 132.565 92.1286 132.039C88.9267 130.429 81.0266 126.186 76.7981 121.705C76.6905 121.591 76.6574 121.436 76.6978 121.287C76.7443 121.139 76.8654 121.025 77.0134 120.991C78.3556 120.682 82.0873 119.927 86.6852 119.927L86.6842 119.926Z" fill="#F6C600"/>
<path d="M59.5398 91.4026C59.5263 91.1866 57.647 69.3606 61.9562 60.9259L61.9893 60.8718L62.0493 60.8448C62.1497 60.8043 72.5542 56.9718 85.9712 57.8941C98.3554 58.7499 115.934 63.9431 129.311 83.8434C129.392 83.9649 137.225 96.0972 137.795 110.992L137.808 111.45L137.5 111.114C137.352 110.946 122.385 94.6296 115.552 93.5048L115.465 93.4913L115.432 93.4175C115.405 93.3708 112.626 88.2233 106.377 83.3459C100.637 78.859 90.7108 73.6928 75.9848 74.4666V87.3L75.8368 87.3135C75.696 87.327 61.6136 88.8288 59.8482 91.4836L59.5864 91.8814L59.5398 91.4026Z" fill="#F6C600"/>
<path d="M158.658 191.609L159.033 191.629L128.594 222.502C128.406 222.698 128.151 222.806 127.876 222.806C127.601 222.806 127.346 222.698 127.151 222.502L97.1953 191.851L97.4903 191.784C97.6248 191.757 111.156 188.752 115.197 185.963L115.318 185.882L126.487 198.076C126.876 198.501 127.407 198.736 127.983 198.743H127.997C128.567 198.743 129.098 198.513 129.487 198.096L140.965 185.896L141.079 185.956C141.173 186.003 150.905 191.191 158.658 191.608V191.609Z" fill="#F6C600"/>
<path d="M105.35 53.4757L105.155 53.402L105.269 53.2264C105.35 53.1049 113.572 40.6091 127.957 33.6772L128.024 33.644L128.097 33.671C128.171 33.7042 135.849 36.9385 143.616 44.4095C150.785 51.3081 159.503 63.3262 160.323 81.4265C160.92 94.5632 156.92 108.009 149.067 119.28C148.335 120.323 147.563 121.375 146.785 122.399L146.483 122.796L146.489 122.292C146.489 122.062 146.603 99.0844 142.979 94.3617C142.703 94.0117 142.603 93.5869 142.69 93.1828C143.576 89.1072 147.032 68.0551 128.024 53.4165C127.333 53.8818 123.124 56.8451 119.714 62.1265L119.613 62.2886L119.466 62.167C119.398 62.1068 112.324 56.1918 105.35 53.4768V53.4757Z" fill="#F6C600"/>
<path d="M151.663 129.754C151.757 129.646 160.57 119.225 161.999 113.91L162.019 113.823L162.1 113.796C162.146 113.776 166.906 111.876 171.483 106.116C175.698 100.815 180.625 91.0661 180.188 74.7034H168.1L168.08 74.5621C168.067 74.4614 166.509 64.4645 163.556 58.8589L163.442 58.6502L163.677 58.6169C163.871 58.5899 183.478 55.7005 194.278 60.9071L194.345 60.9404L194.365 61.0141C194.405 61.1356 198.157 73.5775 196.063 88.5671C194.834 97.3789 191.861 105.328 187.223 112.205C181.431 120.808 173.007 127.74 162.187 132.806C161.623 133.075 161.005 133.21 160.388 133.21C159.959 133.21 159.535 133.142 159.119 133.021C157.092 132.408 153.441 131.202 151.696 129.996L151.542 129.896L151.663 129.754Z" fill="#F6C600"/>
<path d="M221.214 127.282L221.181 127.35C221.148 127.424 217.738 135.407 209.79 143.322C202.46 150.631 189.661 159.375 170.303 159.557C170.088 159.57 147.334 160.817 130.084 143.564C127.433 140.91 124.949 137.697 122.714 134.031C119.036 128.002 105.196 108.581 81.4416 111.632C74.7233 112.494 68.064 115.23 62.1849 119.528C59.1776 121.731 56.6877 124.042 54.7815 126.392C55.7015 127.652 65.1043 140.074 80.267 142.648C90.5163 144.386 101.135 141.328 111.821 133.567L111.969 133.459L112.063 133.614C112.137 133.728 119.043 145.282 121.708 146.622L121.923 146.73L121.748 146.898C121.681 146.958 115.036 153.069 104.055 156.821C99.3768 158.425 93.4439 159.731 86.5766 159.731C78.5626 159.731 69.2727 157.953 59.1983 152.773C59.0369 152.692 42.6933 144.554 34.7663 126.452L34.7332 126.385L34.7663 126.311C34.8201 126.203 40.1827 115.344 51.4327 106.405C58.0444 101.156 65.3599 97.5866 73.1803 95.795C82.9535 93.5515 93.5443 94.0978 104.66 97.4184C104.821 97.4589 121.742 101.669 136.838 123.98C142.127 131.795 149.315 137.527 157.619 140.546C168.23 144.419 184.467 145.248 201.603 127.281L193.052 118.834L193.126 118.72C193.193 118.619 199.892 108.244 200.986 103.892L201.046 103.656L201.247 103.791C201.382 103.879 214.839 113 221.182 127.215L221.215 127.282H221.214Z" fill="#F6C600"/>
<path d="M195.198 168.052L195.634 168.019L178.257 186.275H178.184C177.862 186.275 145.624 185.945 128.037 167.439C127.352 168.241 123.775 172.189 116.66 176.23C109.344 180.387 96.6851 185.5 77.8837 186.275H77.803L77.7564 186.221L60.0831 167.722L60.5591 167.789C60.6729 167.809 72.3255 169.42 86.3872 168.348C99.3478 167.364 117.061 163.834 127.854 152.618L127.989 152.477L128.102 152.631C128.143 152.678 131.969 157.536 142.104 161.84C151.468 165.815 168.281 170.113 195.197 168.051L195.198 168.052Z" fill="#F6C600"/>
</g>
<defs>
<clipPath id="clip0_207_7009">
<rect width="198" height="200" fill="white" transform="translate(29 28)"/>
</clipPath>
</defs>
</svg>
