<svg width="256" height="256" viewBox="0 0 256 256" fill="none" xmlns="http://www.w3.org/2000/svg">
<rect width="256" height="256" fill="#001538"/>
<g clip-path="url(#clip0_207_7094)">
<path d="M127.63 226.727C127.277 226.595 92.0159 213.379 72.416 199.886C42.3945 179.23 41.063 150.767 41.063 93.4605V59.0523L128.003 29.123L214.935 59.0523V93.4605C214.935 150.767 213.604 179.23 183.581 199.886C163.982 213.38 128.728 226.595 128.375 226.727L128.003 226.865L127.63 226.727Z" fill="#001538"/>
<path d="M128.003 30.2472L213.873 59.8101V93.461C213.873 150.158 212.705 178.56 182.979 199.012C163.261 212.588 128.003 225.732 128.003 225.732C128.003 225.732 92.7389 212.588 73.0212 199.012C43.295 178.56 42.1272 150.158 42.1272 93.461V59.8101L128.003 30.2472ZM128.003 28L127.31 28.2387L41.434 57.8015L40 58.2951V59.8101V93.461C40 151.145 41.3519 179.803 71.8147 200.761C91.522 214.33 125.81 227.182 127.26 227.723L128.003 228L128.747 227.723C130.197 227.182 164.478 214.33 184.186 200.761C214.648 179.803 216 151.145 216 93.461V59.8101V58.2951L214.566 57.8014L128.696 28.2387L128.003 28Z" fill="#EEEEEE"/>
<path d="M78.6363 123.251C71.3167 123.534 61.3255 123.419 50.9009 122.216C51.0763 128.321 51.3668 133.969 51.8468 139.211C61.0687 138.155 69.5981 136.412 75.9621 134.801C76.6055 130.73 77.5107 126.881 78.6363 123.251Z" fill="#EEEEEE"/>
<path d="M88.0643 103.372C78.0555 99.3771 63.111 92.2478 50.6406 82.8582V96.4552C50.6406 99.1011 50.6438 101.675 50.6527 104.187C62.3158 108.582 74.259 111.336 82.7228 112.793C84.3301 109.423 86.1281 106.285 88.0643 103.372Z" fill="#EEEEEE"/>
<path d="M78.4442 177.333C76.3311 179.868 73.7923 182.752 70.9236 185.789C73.1808 187.888 75.6848 189.89 78.4712 191.812C80.2047 193.01 82.0729 194.203 84.0305 195.382C81.6912 189.09 79.847 183.077 78.4442 177.333Z" fill="#EEEEEE"/>
<path d="M74.8688 147.527C69.4825 150.177 62.3483 153.311 54.4374 156.082C55.8469 162.091 57.7783 167.456 60.4201 172.321C66.3326 168.564 71.5505 164.773 75.5896 161.595C75.0201 156.678 74.7922 151.99 74.8688 147.527Z" fill="#EEEEEE"/>
<path d="M110.9 80.8689C114.429 78.5886 117.841 76.7922 120.932 75.4497C118.066 67.6802 114.622 56.4957 112.566 44.6703L95.5436 50.5482C100.117 62.4393 106.221 73.4557 110.9 80.8689Z" fill="#EEEEEE"/>
<path d="M102.15 87.4297C95.2052 80.3019 85.4979 69.0153 78.0892 56.5751L58.9702 63.1768C69.5398 76.6194 84.6167 88.2929 94.5527 94.9328C97.0062 92.1579 99.5644 89.6613 102.15 87.4297Z" fill="#EEEEEE"/>
<path d="M160.086 106.949C161.8 108.348 166.248 107.047 166.248 107.047L163.028 103.222L156.132 98.6286C156.132 98.6286 158.368 105.549 160.086 106.949Z" fill="#EEEEEE"/>
<path d="M182.593 145.247L178.453 141.911L180.838 147.674L187.55 147.164L182.593 145.247Z" fill="#EEEEEE"/>
<path d="M132.876 41.0249C130.029 50.1273 129.131 61.3142 132.33 72.312C133.626 70.9672 142.331 61.8826 150.15 53.3034C150.15 53.3034 160.576 65.2485 146 77.5439C146 77.5439 171.983 95.6819 173.66 96.4553C173.66 96.4553 172.314 102.097 173.61 106.913L194.041 146.478L183.725 158.622L168.605 150.11L175.895 161.789C175.895 161.789 167.655 162.81 165.143 161.564C163.723 154.161 157.163 142.175 157.163 142.175L141.775 135.952C141.775 135.952 135.067 127.72 135.535 115.718C135.535 115.718 128 147.336 148.565 155.017L177.53 191.812C204.309 173.336 205.36 147.674 205.36 96.4554V66.0528L132.876 41.0249Z" fill="#EEEEEE"/>
</g>
<defs>
<clipPath id="clip0_207_7094">
<rect width="176" height="200" fill="white" transform="translate(40 28)"/>
</clipPath>
</defs>
</svg>
