<svg width="256" height="256" viewBox="0 0 256 256" fill="none" xmlns="http://www.w3.org/2000/svg">
<rect width="256" height="256" fill="#7234FF"/>
<path d="M226.5 117.558L191.193 90.628C190.072 91.4698 188.954 92.3157 187.801 93.1153C185.876 94.4528 183.685 95.8283 181.361 96.5942C185.269 104.103 187.207 112.362 187.175 120.615C187.226 130.657 184.365 140.712 178.58 149.414L172.487 158.188C172.133 159.872 172.837 161.555 174.52 161.912C175.224 162.26 176.201 161.912 176.905 161.553L226.502 123.623C227.475 122.849 227.987 121.725 228 120.59C227.985 119.455 227.471 118.33 226.498 117.556L226.5 117.558Z" fill="black"/>
<path d="M224.943 124.82L145.54 185.545C143.405 187.175 140.513 184.867 141.625 182.42L159.983 142.035L190.71 130.315" fill="black"/>
<path d="M62.9047 193.641L91.706 178.131L136.715 159.045L146.441 163.838L32.854 212.198" fill="black"/>
<path d="M190.666 102.482L210.727 62.1324L146.667 88.2228L148.628 84.3073L158.85 62.8603L136.734 71.4678L76.1476 96.2291C70.2445 98.6426 65.418 103.113 62.5591 108.82L28 177.791L55.6258 166.532L32.8539 212.198L81.6968 191.403C87.3239 189.009 92.4117 185.629 96.7601 181.437L96.5325 181.893L173.762 150.416C176.928 149.125 179.517 146.728 181.053 143.669L201.912 102.086L187.346 108.092C188.587 106.307 189.697 104.432 190.666 102.484V102.482Z" fill="black"/>
<path d="M66.6382 156.319L39.0503 167.562L67.2913 111.197C69.575 106.638 73.4303 103.065 78.1473 101.138L148.342 72.451L102.038 165.452C97.3019 174.903 89.3426 182.386 79.6242 186.524L44.0159 201.684L66.6361 156.319H66.6382Z" fill="white"/>
<path d="M140.265 80.1323L131.351 97.9169L130.321 99.9718L120.01 120.543L98.4162 163.631C94.1058 172.235 86.8838 179.024 78.0376 182.789L52.5502 193.642L75.0566 148.509L47.4982 159.741L70.9084 113.018C72.7518 109.337 75.8677 106.451 79.6745 104.894L140.26 80.1323M81.3452 130.081L92.4457 125.644L97.6578 115.231L86.5531 119.71L81.3452 130.081ZM156.036 65.6663L137.206 72.6219L76.6198 97.3832C70.9947 99.6827 66.3978 103.942 63.6738 109.379L40.2636 156.102L30.6021 175.384L50.5572 167.252L58.2194 164.129L45.3093 190.017L35.4834 209.724L55.725 201.106L81.2125 190.253C91.8115 185.741 100.496 177.578 105.661 167.268L127.255 124.18L137.566 103.609L138.596 101.554L147.51 83.7694L156.042 65.6663H156.036Z" fill="black"/>
<path d="M121.27 144.355C122.359 142.182 123.708 140.142 125.279 138.29L137.416 123.976L120.246 130.976L135.324 100.887C136.266 99.0076 137.854 97.5372 139.799 96.746L199.738 72.3328L185.924 100.119C184.559 102.866 182.869 105.453 180.904 107.807L169.559 121.157L190.812 112.396L176.317 141.29C175.359 143.201 173.741 144.699 171.763 145.505L107.583 171.663L121.266 144.357L121.27 144.355Z" fill="white"/>
<path d="M191.339 80.1323L182.301 98.3114C181.074 100.778 179.564 103.092 177.799 105.206L155.642 131.282L182.328 120.28L172.702 139.467C172.184 140.501 171.31 141.311 170.239 141.746L116.037 163.836L124.89 146.172C125.836 144.286 127.003 142.52 128.366 140.91L151.209 113.969L128.699 123.147L138.944 102.704C139.445 101.704 140.292 100.921 141.326 100.499L191.339 80.1302M208.142 64.5312L188.288 72.6176L138.276 92.9866C135.421 94.149 133.089 96.3072 131.707 99.0667L121.462 119.512L111.796 138.798L123.626 133.976L122.193 135.663C120.413 137.762 118.885 140.075 117.653 142.537L108.8 160.201L99.1367 179.486L119.094 171.353L173.296 149.262C176.185 148.085 178.544 145.902 179.943 143.113L189.569 123.925L199.306 104.514L183.487 111.035L183.971 110.465L183.994 110.438L184.018 110.41C186.185 107.813 188.048 104.959 189.554 101.93L198.592 83.7504L208.144 64.5355L208.142 64.5312Z" fill="black"/>
<path d="M120.838 131.788C118.837 133.41 116.361 134.275 116.633 137.433C116.852 139.952 119.422 141.207 121.691 141.212C125.302 141.218 127.645 136.674 127.122 133.482C126.865 131.91 125.603 130.866 124.152 130.44C123.389 130.216 121.394 129.619 120.838 130.44" fill="black"/>
<path d="M184.69 82.0141L135.425 44.3394C134.102 43.3268 132.305 44.7593 132.996 46.2782L144.388 71.3349L144.067 90.63" fill="black"/>
<path d="M121.904 174.285L158.766 158.591L157.435 153.313L131.65 161.192" fill="black"/>
<path d="M196.786 104.294C196.245 103.896 195.419 104.151 194.991 104.693C194.848 104.978 194.707 105.379 194.848 105.664L197.328 109.231C202 116.252 202 125.44 197.328 132.461L194.848 136.028C194.705 136.714 194.991 137.397 195.674 137.541C195.958 137.684 196.359 137.541 196.643 137.397L216.819 121.986C217.504 121.444 217.645 120.474 217.104 119.788C216.96 119.644 216.96 119.503 216.819 119.503L196.786 104.292V104.294Z" fill="white"/>
</svg>
