<svg width="258" height="256" viewBox="0 0 258 256" fill="none" xmlns="http://www.w3.org/2000/svg">
<rect width="256" height="256" fill="#090914"/>
<g clip-path="url(#clip0_728_674)">
<path d="M204.393 90.325C204.413 90.302 204.422 90.2819 204.436 90.2618L208.72 82.8182C212.978 75.4464 205.146 69.1409 201.388 66.1204C201.135 65.9163 200.882 65.7094 200.62 65.4996C202.698 64.784 204.493 63.3642 205.66 61.3352L210.949 52.1672C212.504 49.4887 212.607 46.1664 211.216 43.2751C210.274 41.3151 208.728 39.6712 206.772 38.5331C199.057 34.087 190.792 31.8137 183.132 31.8137C177.705 31.8137 172.579 32.9518 168.169 35.274L167.997 35.366L165.258 36.8087L158.67 40.269C155.708 38.8665 152.976 37.6824 150.571 36.7483C148.103 35.7942 144.187 34.271 140.444 34.271C137.303 34.271 134.289 35.3372 132.344 38.7084L128.052 46.152C128.038 46.1721 128.017 46.2037 128.009 46.2238C125.164 45.2754 122.211 44.5598 119.496 44.5598C115.991 44.5598 112.873 45.7525 110.905 49.1668L67.9066 123.646C66.3351 126.368 66.3236 128.989 67.2487 131.443C63.3528 132.61 59.9683 135.656 57.1498 140.559C55.5954 143.252 54.6243 145.707 54.1474 148.155C50.9985 150.377 49.1511 153.587 48.2978 155.07C45.5597 159.832 42.8906 166.299 46.7262 174.185L46.798 174.317C49.4183 179.473 52.2914 182.042 65.9817 191.498L66.0736 191.569C75.9053 198.145 80.3672 200.533 85.8634 200.795C86.0962 200.809 86.3203 200.818 86.5444 200.818C87.4868 200.818 88.3918 200.737 89.2365 200.602C91.8424 207.322 96.9306 210.644 111.908 217.924L112.009 217.973C120.427 221.924 126.498 224.186 132.028 224.186C134.669 224.186 137.174 223.666 139.76 222.58L139.932 222.514C145.638 219.944 149.342 214.955 153.809 207.221C158.541 199.019 161.808 192.538 160.032 185.695C163.006 185.442 165.643 184.166 167.413 181.105L210.403 106.615C213.894 100.553 209.533 94.8774 204.396 90.3221L204.393 90.325Z" fill="#090914"/>
<path d="M209.199 89.6238L212.021 84.7208C213.816 81.6198 215.147 76.6679 211.248 70.7475C210.015 68.8794 208.455 67.2298 206.979 65.8675C207.74 65.08 208.412 64.2006 208.964 63.2378L214.247 54.0727C216.428 50.3078 216.583 45.6462 214.647 41.6198C213.365 38.9642 211.303 36.7599 208.677 35.2338C200.462 30.4975 191.63 28 183.126 28C180.035 28 177.081 28.3276 174.283 28.9772C171.487 29.6295 168.847 30.6009 166.387 31.8971L166.206 31.992L163.477 33.4318L158.561 36.0155C156.174 34.9205 153.956 33.9721 151.944 33.1904L151.901 33.176C149.272 32.1558 144.871 30.4544 140.435 30.4544C135.37 30.4544 131.425 32.6472 129.034 36.7972L126.204 41.706C123.716 41.0565 121.501 40.7432 119.487 40.7432C112.761 40.7432 109.305 44.2897 107.595 47.2585L64.6082 121.738C63.2406 124.1 62.6488 126.626 62.8585 129.173C59.3993 131.075 56.3797 134.248 53.8456 138.657C52.3832 141.192 51.3575 143.6 50.7341 145.971C47.6426 148.558 45.8211 151.722 44.9936 153.167C42.0315 158.315 38.6326 166.264 43.2985 175.852L43.333 175.924L43.3703 175.995L43.4192 176.087C46.5767 182.287 50.3462 185.339 63.7233 194.573L63.7291 194.579L63.8382 194.665L63.9532 194.742C73.6154 201.203 78.9076 204.284 85.6824 204.612H85.7312C85.9754 204.62 86.2512 204.635 86.5472 204.635C86.665 204.635 86.7799 204.629 86.9005 204.629C90.4603 211.21 96.9851 214.912 110.224 221.347L110.31 221.39L110.354 221.41L110.397 221.43C119.045 225.491 125.679 228.006 132.031 228.006C135.174 228.006 138.182 227.385 141.225 226.109L141.386 226.043L141.443 226.02L141.501 225.997C148.14 223.005 152.252 217.547 157.113 209.135C161.368 201.752 164.661 195.369 164.316 188.606C167.008 187.563 169.18 185.675 170.709 183.025L213.704 108.529C215.92 104.683 216.049 100.45 214.081 96.2799C213.055 94.1129 211.452 91.9143 209.202 89.6267L209.199 89.6238ZM210.4 106.618L167.41 181.108C165.643 184.169 163.003 185.445 160.029 185.698C161.805 192.541 158.538 199.022 153.806 207.224C149.339 214.958 145.635 219.947 139.929 222.516L139.757 222.583C137.171 223.669 134.663 224.189 132.025 224.189C126.495 224.189 120.424 221.924 112.006 217.976L111.905 217.927C96.9276 210.644 91.8394 207.325 89.2335 200.605C88.3888 200.737 87.4838 200.821 86.5414 200.821C86.3173 200.821 86.0932 200.812 85.8605 200.798C80.3614 200.536 75.9024 198.148 66.0706 191.572L65.9787 191.501C52.2855 182.045 49.4153 179.476 46.7951 174.32L46.7232 174.188C42.8877 166.301 45.5568 159.835 48.2948 155.073C49.1481 153.59 50.9955 150.38 54.1444 148.158C54.6214 145.709 55.5925 143.255 57.1468 140.562C59.9682 135.659 63.3498 132.613 67.2457 131.446C66.3206 128.992 66.3321 126.37 67.9037 123.649L110.902 49.164C112.87 45.7468 115.985 44.557 119.493 44.557C122.208 44.557 125.161 45.2726 128.006 46.221C128.014 46.2009 128.035 46.1693 128.049 46.1492L132.341 38.7056C134.286 35.3373 137.3 34.2681 140.441 34.2681C144.184 34.2681 148.1 35.7942 150.568 36.7455C152.973 37.6796 155.705 38.8665 158.667 40.2661L165.256 36.8059L167.994 35.3631L168.166 35.2712C172.576 32.949 177.705 31.8109 183.129 31.8109C190.789 31.8109 199.055 34.0842 206.769 38.5302C208.728 39.6683 210.271 41.3123 211.213 43.2723C212.604 46.1664 212.501 49.4858 210.946 52.1644L205.657 61.3324C204.49 63.3614 202.695 64.784 200.617 65.4968C200.879 65.7066 201.132 65.9106 201.385 66.1175C205.143 69.1381 212.975 75.4436 208.717 82.8153L204.433 90.2589C204.419 90.2791 204.41 90.2963 204.39 90.3222C209.527 94.8774 213.888 100.554 210.397 106.615L210.4 106.618Z" fill="#E2E2E2"/>
<path d="M203.927 48.0863L198.635 57.2543C198.196 58.013 196.94 58.1078 195.831 57.4669L195.745 57.4152L190.947 47.4166C190.562 46.6148 189.237 46.4912 189.26 47.2615L189.507 55.5443C187.281 55.4552 185.298 56.0443 183.982 57.2773C183.414 57.8089 182.293 57.7572 181.342 57.1795C179.069 55.8 176.736 54.4148 174.36 53.041C172.203 51.7937 170.059 50.5866 167.942 49.4198C166.718 48.7444 166.161 47.4828 166.752 46.7211C167.25 46.0831 167.795 45.4882 168.39 44.9393L178.098 50.5464C178.998 51.0666 179.73 50.3567 179.029 49.644L171.953 42.436C179.762 38.332 191.789 39.2344 202.712 45.5428C203.824 46.1837 204.37 47.3189 203.93 48.0805L203.927 48.0863Z" fill="white"/>
<path d="M203.37 102.54L160.377 177.027C159.61 178.355 154.961 177.283 147.902 174.446C146.77 173.992 146.104 172.88 146.526 172.15L172.53 127.095C173.32 125.727 170.577 123.844 169.358 124.922L164.138 129.541L126.297 163.025C125.84 163.431 124.984 163.431 124.216 163.014C121.105 161.333 117.887 159.533 114.612 157.639C111.282 155.717 108.072 153.8 105.016 151.917C104.269 151.458 103.838 150.722 103.958 150.118L114.028 100.603L115.316 94.2856C115.637 92.6905 112.638 91.2535 111.848 92.6244L86.0933 137.249C85.671 137.979 84.3752 137.956 83.4156 137.206C77.4281 132.509 74.1786 129.018 74.9457 127.69L117.936 53.1963C118.743 51.7996 123.866 53.0641 131.58 56.26C139.478 59.5334 150.094 64.8302 161.572 71.3627C162.509 71.8973 162.977 72.8572 162.607 73.4952L138.875 114.61C138.085 115.978 140.829 117.861 142.047 116.783L179.538 83.6059C180.049 83.1575 181.032 83.2179 181.836 83.7496C186.476 86.8104 190.559 89.693 193.895 92.2508C200.517 97.3377 204.175 101.143 203.367 102.54H203.37Z" fill="#DAFF00"/>
<path d="M201.695 78.7373L197.403 86.1751C197.032 86.816 195.972 86.8821 195.064 86.3562C194.978 86.3044 194.891 86.2498 194.805 86.1866C187.174 80.5996 177.187 74.1878 166.382 67.9455C155.573 61.7032 145.026 56.257 136.372 52.4404C136.278 52.4001 136.186 52.3542 136.097 52.3024C135.189 51.7765 134.715 50.8281 135.085 50.1872L139.378 42.7493C140.432 40.9215 151.585 45.3244 165.6 52.8887C167.919 54.1418 170.318 55.4782 172.76 56.8893C175.291 58.3493 177.73 59.8092 180.046 61.2434C193.472 69.5434 202.741 76.9238 201.695 78.7401V78.7373Z" fill="#DAFF00"/>
<path d="M96.3588 177.004C99.0739 177.007 100.947 175.306 103.237 171.34C105.159 168.009 105.673 165.859 105.145 163.393C104.395 159.66 101.01 157.108 88.8629 148.879C78.5313 141.703 75.5749 139.671 72.2708 139.085C69.1391 138.553 66.7315 140.186 64.1859 144.597C62.8097 146.983 62.1231 148.902 61.9622 150.811C61.9622 150.828 61.9622 150.848 61.9593 150.865C61.9104 152.038 62.0972 153.015 62.4994 153.926C59.6666 153.495 57.6611 155.073 55.3368 159.099C52.5844 163.87 52.231 166.899 54.0324 170.607C55.627 173.742 56.963 175.375 70.5958 184.79C80.3069 191.294 83.1857 192.515 86.1708 192.659C89.8628 192.794 92.3221 191.078 94.905 186.603C97.2121 182.606 98.1171 179.809 96.3588 177.001V177.004ZM91.1987 168.014C89.9173 167.934 87.6735 166.799 82.4674 163.275C74.6095 157.886 72.7363 156.197 71.9979 154.866C71.86 154.613 71.4434 153.846 72.6041 151.831C74.0608 149.316 74.3596 148.773 83.5506 155.234C91.9026 160.959 93.3449 162.275 93.5346 162.557C94.1695 163.298 94.6378 164.14 93.3622 166.353C92.4773 167.885 91.7446 168.046 91.1987 168.014ZM68.0818 163.433C69.2627 163.968 71.9088 165.833 77.6808 169.793C82.5708 173.124 84.9555 174.745 85.7772 175.584C86.9207 176.745 87.3114 177.556 85.8979 180.005C84.3206 182.741 83.8494 183.545 73.9315 176.886C62.4104 168.885 62.8499 168.158 64.5163 165.261C65.8983 162.867 66.6999 162.87 68.0818 163.436V163.433Z" fill="white"/>
<path d="M151.896 186.845C150.451 182.844 146.328 180.783 134.376 175.113C121.97 169.061 117.873 167.35 113.744 168.121C109.624 168.885 106.788 171.857 101.562 180.91C96.4508 189.765 95.3791 193.265 96.6174 197.139C97.9965 201.082 100.272 203.209 115.468 210.601C127.802 216.383 132.071 216.996 136.608 215.079C139.883 213.607 142.55 210.472 146.784 203.137C152.085 193.952 153.229 190.311 151.899 186.845H151.896ZM136.979 197.826C134.016 202.956 132.528 205.537 130.382 205.928C128.058 206.342 123.975 204.589 116.729 201.059C111.434 198.461 108.845 196.826 108.182 195.084C107.538 193.383 108.613 191.026 111.104 186.71C114.071 181.568 115.715 178.869 117.775 178.476C119.941 178.05 123.409 179.844 130.011 183.028C135.709 185.758 139.303 187.391 140.136 189.167C140.883 190.75 139.688 193.133 136.982 197.826H136.979Z" fill="white"/>
</g>
<defs>
<clipPath id="clip0_728_674">
<rect width="175" height="200" fill="white" transform="translate(41 28)"/>
</clipPath>
</defs>
</svg>
