<svg width="256" height="256" viewBox="0 0 256 256" fill="none" xmlns="http://www.w3.org/2000/svg">
<rect width="256" height="256" fill="#151B31"/>
<path d="M118.395 121.443L103.958 171.797H82.9084L95.8588 126.725C96.0544 126.059 95.624 125.355 94.9589 125.199C94.8415 125.199 94.7633 125.16 94.6459 125.16H84.7082L71.3274 171.797H50.9824L63.9328 126.725C64.0893 126.059 63.698 125.355 63.0329 125.199C62.9155 125.199 62.8373 125.16 62.7199 125.16H52.3909L39.0493 171.797H18L30.6374 127.624C31.2634 125.433 31.3025 123.086 30.7156 120.856L27.8204 109.979H105.484C106.579 109.979 107.596 110.331 108.457 110.996L117.182 117.726C118.317 118.587 118.786 120.073 118.395 121.443Z" fill="white"/>
<path d="M161.315 126.725L153.333 154.503C153.059 155.521 152.12 156.225 151.064 156.225H141.283L150.203 125.12H160.141C160.845 125.12 161.354 125.707 161.354 126.372C161.354 126.49 161.354 126.568 161.315 126.685V126.725ZM170.431 109.979H154.585L162.058 84H141.713L116.478 171.797H162.919C166.362 171.797 169.414 169.527 170.353 166.202L183.225 121.364C183.616 119.995 183.147 118.547 182.012 117.648L173.444 110.996C172.583 110.331 171.526 109.979 170.431 109.979Z" fill="white"/>
<path d="M237.961 109.979L225.246 125.12H216.99C215.582 125.12 214.33 126.059 213.939 127.429L201.184 171.836H180.839L195.276 121.56C195.706 119.995 196.724 118.626 198.132 117.765L209.244 110.762C210.026 110.253 210.926 110.018 211.865 110.018H238.001L237.961 109.979Z" fill="white"/>
<path d="M129.193 84L125.085 98.3198C124.615 99.963 123.129 101.098 121.407 101.098H112.76C111.743 101.098 110.765 100.746 109.983 100.159L104.662 96.0505L108.105 84.0391H129.154L129.193 84Z" fill="white"/>
</svg>
