<svg width="256" height="256" viewBox="0 0 256 256" fill="none" xmlns="http://www.w3.org/2000/svg">
<rect width="256" height="256" fill="white"/>
<path d="M201.864 141.743L193.928 131.131C193.928 131.131 198.727 117.687 199.996 114.234L145.224 40.8683L156.921 81.5451L116.962 28L130.251 74.2477C105.588 68.4236 78.8249 76.7339 61.9598 97.268L63.1133 98.8103C70.3116 95.8407 77.9251 95.081 85.7463 96.6925C48.6937 110.85 32.3131 152.862 47.8401 187.669H49.8012C50.8394 178.138 54.3231 171.554 61.1292 166.214C64.0823 199.363 91.2835 227.148 127.967 228V223.603C76.4716 206.246 76.91 148.557 107.664 132.535C97.3974 147.107 98.5509 161.425 105.68 175.836L96.0362 179.22L97.3743 182.604C97.3743 182.604 115.624 181.821 120.723 181.453C123.676 183.686 127.113 189.971 128.128 191.904L114.355 200.629L116.5 203.483C116.5 203.483 137.98 197.913 143.655 196.163C151.777 202.931 158.237 211.218 164.835 221.278C170.049 218.239 174.848 214.556 179.116 210.32C169.565 195.726 158.421 186.794 145.778 180.716L141.002 183.755C136.78 178 131.866 172.913 126.444 168.585L120.33 170.726C105.957 153.529 115.693 128.829 129.766 130.463C129.813 130.463 129.859 130.486 129.928 130.509V130.555C130.366 136.264 125.706 138.543 121.092 141.881L123.629 145.265C128.267 145.081 133.343 145.38 138.072 146.232L129.167 152.678L131.635 155.97C154.914 151.089 179.739 163.29 188.875 187.116L192.82 189.05L196.858 178.944L206.733 172.889L214 147.636L201.864 141.743ZM187.03 134.492L171.71 126.987C168.457 125.399 166.565 121.923 166.981 118.308L168.157 108.456L187.329 134.146C187.191 134.308 187.099 134.4 187.03 134.492Z" fill="black"/>
</svg>
