<svg width="256" height="256" viewBox="0 0 256 256" fill="none" xmlns="http://www.w3.org/2000/svg">
<rect width="256" height="256" fill="white"/>
<path d="M62.3292 94.7002V117.545C57.484 117.219 55.0592 117.056 50.2118 116.73V103.882C46.172 103.371 44.1531 103.114 40.1154 102.603V118.97C47.418 123.373 54.7141 127.705 62.3292 131.557V167.848C57.484 168.716 55.0592 169.15 50.2118 170.02C46.172 170.745 44.1531 171.108 40.1154 171.83C35.2681 172.697 32.8454 173.132 27.998 174.002V140.501C32.8433 140.314 35.2681 140.221 40.1154 140.031V159.945C44.1531 159.434 46.172 159.177 50.2118 158.664V139.442C51.6988 139.386 52.4434 139.357 53.9326 139.301C53.8479 139.264 53.8045 139.246 53.7198 139.212C52.3175 138.52 51.6163 138.166 50.2118 137.45C42.5967 133.575 35.3006 129.221 27.998 124.793V88.5436C32.8433 89.4135 35.2681 89.8485 40.1154 90.7161C44.1531 91.4403 46.172 91.8035 50.2118 92.5255C55.0592 93.3954 57.4818 93.8303 62.3292 94.698" fill="#2C5EFF"/>
<mask id="mask0_1041_9135" style="mask-type:luminance" maskUnits="userSpaceOnUse" x="27" y="88" width="36" height="87">
<path d="M62.3292 94.7002V117.545C57.484 117.219 55.0592 117.056 50.2118 116.73V103.882C46.172 103.371 44.1531 103.114 40.1154 102.603V118.97C47.418 123.373 54.7141 127.705 62.3292 131.557V167.848C57.484 168.716 55.0592 169.15 50.2118 170.02C46.172 170.745 44.1531 171.108 40.1154 171.83C35.2681 172.697 32.8454 173.132 27.998 174.002V140.501C32.8433 140.314 35.2681 140.221 40.1154 140.031V159.945C44.1531 159.434 46.172 159.177 50.2118 158.664V139.442C51.6988 139.386 52.4434 139.357 53.9326 139.301C53.8479 139.264 53.8045 139.246 53.7198 139.212C52.3175 138.52 51.6163 138.166 50.2118 137.45C42.5967 133.575 35.3006 129.221 27.998 124.793V88.5436C32.8433 89.4135 35.2681 89.8485 40.1154 90.7161C44.1531 91.4403 46.172 91.8035 50.2118 92.5255C55.0592 93.3954 57.4818 93.8303 62.3292 94.698" fill="white"/>
</mask>
<g mask="url(#mask0_1041_9135)">
<path d="M62.3295 88.5436H28.0005V174H62.3295V88.5436Z" fill="#2C5EFF"/>
</g>
<path d="M95.0562 108.422V155.554C91.3354 156.081 89.4751 156.346 85.7565 156.872V137.265C86.8983 137.226 87.4692 137.209 88.6111 137.17C88.546 137.146 88.5134 137.135 88.4483 137.113C87.3716 136.669 86.8332 136.445 85.7565 135.987C82.6566 134.662 81.1066 133.971 78.0067 132.527V157.97C74.2882 158.497 72.4278 158.762 68.707 159.288V104.908C72.4256 105.404 74.286 105.652 78.0067 106.15V124.202C81.1066 125.783 82.6566 126.544 85.7565 128.005V107.185C89.4751 107.681 91.3354 107.929 95.0562 108.425" fill="#2C5EFF"/>
<mask id="mask1_1041_9135" style="mask-type:luminance" maskUnits="userSpaceOnUse" x="68" y="104" width="28" height="56">
<path d="M95.0562 108.422V155.554C91.3354 156.081 89.4751 156.346 85.7565 156.872V137.265C86.8983 137.226 87.4692 137.209 88.6111 137.17C88.546 137.146 88.5134 137.135 88.4483 137.113C87.3716 136.669 86.8332 136.445 85.7565 135.987C82.6566 134.662 81.1066 133.971 78.0067 132.527V157.97C74.2882 158.497 72.4278 158.762 68.707 159.288V104.908C72.4256 105.404 74.286 105.652 78.0067 106.15V124.202C81.1066 125.783 82.6566 126.544 85.7565 128.005V107.185C89.4751 107.681 91.3354 107.929 95.0562 108.425" fill="white"/>
</mask>
<g mask="url(#mask1_1041_9135)">
<path d="M95.0562 104.908H68.707V159.29H95.0562V104.908Z" fill="#2C5EFF"/>
</g>
<path d="M116.998 111.35C120.717 111.845 122.577 112.093 126.296 112.591V151.125C122.577 151.651 120.717 151.916 116.998 152.442V136.228C118.14 136.191 118.711 136.171 119.853 136.132C119.788 136.115 119.755 136.104 119.69 136.087C118.614 135.728 118.075 135.545 116.998 135.171C113.899 134.09 112.349 133.518 109.251 132.318V153.541C105.532 154.067 103.672 154.332 99.9512 154.858V109.077C103.67 109.573 105.53 109.821 109.251 110.317C112.351 110.73 113.901 110.936 116.998 111.35ZM116.998 128.569V117.371C113.899 117.082 112.349 116.939 109.251 116.649V125.372C112.351 126.712 113.901 127.351 116.998 128.569Z" fill="#2C5EFF"/>
<mask id="mask2_1041_9135" style="mask-type:luminance" maskUnits="userSpaceOnUse" x="99" y="109" width="28" height="46">
<path d="M116.998 111.35C120.717 111.845 122.577 112.093 126.296 112.591V151.125C122.577 151.651 120.717 151.916 116.998 152.442V136.228C118.14 136.191 118.711 136.171 119.853 136.132C119.788 136.115 119.755 136.104 119.69 136.087C118.614 135.728 118.075 135.545 116.998 135.171C113.899 134.09 112.349 133.518 109.251 132.318V153.541C105.532 154.067 103.672 154.332 99.9512 154.858V109.077C103.67 109.573 105.53 109.821 109.251 110.317C112.351 110.73 113.901 110.936 116.998 111.35ZM116.998 128.569V117.371C113.899 117.082 112.349 116.939 109.251 116.649V125.372C112.351 126.712 113.901 127.351 116.998 128.569Z" fill="white"/>
</mask>
<g mask="url(#mask2_1041_9135)">
<path d="M126.296 109.077H99.9487V154.861H126.296V109.077Z" fill="#2C5EFF"/>
</g>
<path d="M148.236 110.119C151.955 109.623 153.815 109.375 157.536 108.877V128.114C155.741 128.884 154.844 129.258 153.049 129.989C154.844 130.715 155.741 131.087 157.536 131.852V155.067C153.817 154.539 151.957 154.276 148.236 153.749V136.532C149.378 136.572 149.949 136.589 151.091 136.628C151.026 136.604 150.993 136.591 150.928 136.565C149.851 136.097 149.313 135.865 148.236 135.41C145.136 134.095 143.586 133.468 140.489 132.274V152.651C136.768 152.125 134.91 151.86 131.189 151.333V112.391C134.908 111.895 136.768 111.648 140.489 111.152C143.589 110.738 145.139 110.532 148.236 110.119ZM148.236 128.401V116.512C145.136 116.802 143.586 116.945 140.489 117.232V125.607C143.589 126.664 145.139 127.223 148.236 128.399" fill="#2C5EFF"/>
<mask id="mask3_1041_9135" style="mask-type:luminance" maskUnits="userSpaceOnUse" x="131" y="108" width="27" height="48">
<path d="M148.236 110.119C151.955 109.623 153.815 109.375 157.536 108.877V128.114C155.741 128.884 154.844 129.258 153.049 129.989C154.844 130.715 155.741 131.087 157.536 131.852V155.067C153.817 154.539 151.957 154.276 148.236 153.749V136.532C149.378 136.572 149.949 136.589 151.091 136.628C151.026 136.604 150.993 136.591 150.928 136.565C149.851 136.097 149.313 135.865 148.236 135.41C145.136 134.095 143.586 133.468 140.489 132.274V152.651C136.768 152.125 134.91 151.86 131.189 151.333V112.391C134.908 111.895 136.768 111.648 140.489 111.152C143.589 110.738 145.139 110.532 148.236 110.119ZM148.236 128.401V116.512C145.136 116.802 143.586 116.945 140.489 117.232V125.607C143.589 126.664 145.139 127.223 148.236 128.399" fill="white"/>
</mask>
<g mask="url(#mask3_1041_9135)">
<path d="M157.536 108.877H131.189V155.069H157.536V108.877Z" fill="#2C5EFF"/>
</g>
<path d="M188.778 127.527C186.983 128.434 186.087 128.878 184.291 129.745C186.084 130.613 186.983 131.057 188.778 131.963V159.499C185.058 158.971 183.199 158.708 179.479 158.179V137.57C180.621 137.607 181.191 137.626 182.335 137.663C182.27 137.635 182.238 137.62 182.173 137.589C181.096 137.037 180.558 136.763 179.481 136.226C176.381 134.669 174.831 133.921 171.733 132.481V157.079C168.013 156.55 166.152 156.287 162.434 155.761V108.225C166.152 107.729 168.013 107.481 171.733 106.983V124.435C174.833 125.735 176.383 126.416 179.481 127.836V105.95C183.202 105.454 185.062 105.206 188.781 104.708V127.527H188.778Z" fill="#2C5EFF"/>
<path d="M228 88.5436V115.234C223.155 115.56 220.73 115.723 215.885 116.049V102.601C211.845 103.112 209.826 103.368 205.789 103.88V119.515C213.397 123.191 220.696 127.36 228 131.6V173.998C223.155 173.128 220.73 172.693 215.885 171.825C211.845 171.101 209.826 170.738 205.789 170.016C200.941 169.146 198.519 168.711 193.671 167.843V139.168C198.519 139.355 200.941 139.449 205.789 139.638V158.662C209.826 159.173 211.845 159.43 215.885 159.943V139.821C217.372 139.877 218.117 139.905 219.606 139.962C219.521 139.916 219.478 139.892 219.393 139.847C217.991 138.99 217.29 138.568 215.885 137.735C208.58 133.518 201.282 129.376 193.671 125.724V94.7002C198.519 93.8303 200.941 93.3954 205.789 92.5277C209.826 91.8035 211.845 91.4425 215.885 90.7183C220.733 89.8506 223.155 89.4157 228 88.5458" fill="#2C5EFF"/>
<mask id="mask4_1041_9135" style="mask-type:luminance" maskUnits="userSpaceOnUse" x="193" y="88" width="36" height="86">
<path d="M228 88.5436V115.234C223.155 115.56 220.73 115.723 215.885 116.049V102.601C211.845 103.112 209.826 103.368 205.789 103.88V119.515C213.397 123.191 220.696 127.36 228 131.6V173.998C223.155 173.128 220.73 172.693 215.885 171.825C211.845 171.101 209.826 170.738 205.789 170.016C200.941 169.146 198.519 168.711 193.671 167.843V139.168C198.519 139.355 200.941 139.449 205.789 139.638V158.662C209.826 159.173 211.845 159.43 215.885 159.943V139.821C217.372 139.877 218.117 139.905 219.606 139.962C219.521 139.916 219.478 139.892 219.393 139.847C217.991 138.99 217.29 138.568 215.885 137.735C208.58 133.518 201.282 129.376 193.671 125.724V94.7002C198.519 93.8303 200.941 93.3954 205.789 92.5277C209.826 91.8035 211.845 91.4425 215.885 90.7183C220.733 89.8506 223.155 89.4157 228 88.5458" fill="white"/>
</mask>
<g mask="url(#mask4_1041_9135)">
<path d="M228 88.5436H193.671V174H228V88.5436Z" fill="#2C5EFF"/>
</g>
<path d="M125.319 88.3153C125.319 88.3153 131.903 91.3968 137.525 107.877L128.894 109.029H128.734L116.636 107.416C117.092 105.795 117.554 103.886 118.06 101.698C120.641 90.5269 113.801 82.0283 113.801 82.0283C113.801 82.0283 132.834 80.1167 141.348 107.366L138.821 107.703C131.983 90.0942 125.319 88.3131 125.319 88.3131V88.3153Z" fill="#2C5EFF"/>
</svg>
