<svg width="256" height="256" viewBox="0 0 256 256" fill="none" xmlns="http://www.w3.org/2000/svg">
<rect width="256" height="256" fill="#363636"/>
<g clip-path="url(#clip0_703_520)">
<path d="M219.212 136.754L218.296 136.703C217.634 136.652 216.973 136.601 216.26 136.601C214.682 136.499 213.054 136.398 211.476 136.347C207.812 136.143 203.995 135.939 200.279 135.634C197.429 135.431 196.462 134.565 195.852 131.664C195.597 130.545 195.444 129.425 195.292 128.305C195.241 127.796 195.139 127.338 195.088 126.88L194.528 123.521C196.055 121.893 197.582 120.315 199.058 118.737L199.16 118.635C201.45 116.243 203.435 113.546 205.165 110.391C206.845 107.337 207.761 104.029 208.677 100.873C208.88 100.059 209.135 99.2448 209.389 98.4305C210.611 94.359 211.934 91.9669 215.14 91.1017L221.655 89.4222L215.191 87.59C213.257 87.0302 211.527 86.0632 209.898 84.5873C208.88 83.6712 208.066 82.6024 207.354 81.4828L208.066 75.4772C208.117 75.1719 208.117 74.8665 208.168 74.5611C208.27 73.8486 208.321 73.1361 208.422 72.4236C208.626 70.8459 209.084 70.3878 210.662 70.1843C211.272 70.0825 211.883 70.0316 212.443 69.9298C212.697 69.8789 212.901 69.8789 213.156 69.828L224.505 68.403L213.257 66.2145C212.952 66.1636 212.647 66.1127 212.341 66.0618C211.578 65.9091 210.814 65.7565 210.051 65.6038C209.288 65.4511 208.728 65.0948 208.575 63.8734C208.422 62.9573 208.321 61.9903 208.219 61.176C208.168 60.8197 208.117 60.4635 208.066 60.1581L207.354 54.9669C207.506 54.9669 207.659 54.916 207.812 54.916C208.219 54.8651 208.575 54.8142 208.931 54.7633L220.281 53.3383L209.033 51.1498C208.575 51.0481 208.066 50.9463 207.557 50.8445C207.303 50.7936 207.048 50.7427 206.794 50.6918L206.03 50.5391C205.318 50.3864 204.554 50.2338 203.791 50.0811C201.806 49.6739 200.788 48.5034 200.483 46.264C200.279 44.7372 200.076 43.2104 199.872 41.8362C199.821 41.2764 199.719 40.7165 199.669 40.2076L198.04 28.0948L196.004 40.1567C195.902 40.7674 195.801 41.4291 195.699 42.0907C195.444 43.6684 195.139 45.5006 194.834 47.231C194.681 48.1471 194.172 49.4703 191.933 50.0302C190.66 50.3355 189.388 50.59 188.116 50.7936C187.607 50.8954 187.047 50.9463 186.589 51.0481L181.347 52.015C181.194 51.8624 181.041 51.7097 180.889 51.557C177.886 48.6051 175.596 44.8899 174.12 40.4112C174.018 40.1567 173.967 39.9022 173.865 39.5969C173.814 39.4442 173.763 39.2915 173.763 39.1897L169.896 26.2117L170.048 39.6478C170.048 41.0219 170.099 42.6505 170.404 44.2791C171.575 51.0481 174.425 57.1045 178.904 62.2957C180.685 64.3823 182.568 66.3672 184.4 68.3012C185.571 69.5226 186.741 70.795 187.912 72.0673C188.777 73.0343 189.744 74.154 190.711 75.3755L190.762 76.9023L190.711 76.8514C188.828 75.1719 186.894 73.5433 185.062 71.9147L183.993 70.9986C182.314 69.5735 180.634 68.0976 178.955 66.6726C176.308 64.3823 173.662 62.143 171.066 59.8527C170.303 59.1911 169.539 58.5295 168.878 57.9188C168.572 57.6643 168.267 57.3589 168.012 57.1554L161.142 50.9972L165.111 59.3438C165.366 59.9036 165.671 60.5144 165.977 61.1251C166.689 62.5501 167.402 64.0261 168.063 65.502C168.623 66.7743 168.776 68.1485 168.47 69.5226C167.656 72.9834 165.01 75.2228 161.752 75.2228C160.531 75.2228 159.36 74.9174 158.19 74.3576C156.052 73.3397 154.22 71.762 152.592 69.5226L149.741 65.7056L149.283 70.4387C149.283 70.4896 149.283 70.4896 149.283 70.5405C149.232 70.7441 149.182 71.253 149.385 71.762C151.065 75.7826 153.151 78.6836 155.849 80.7702C156.968 81.6354 158.139 82.2971 159.31 82.7551L157.783 82.8569L163.992 85.9105C165.264 86.5213 165.468 87.2338 165.468 89.1169C165.468 89.4731 165.468 89.7785 165.468 90.1348L164.45 90.3383C163.636 90.491 162.77 90.5419 161.956 90.5419C155.187 90.5419 149.131 85.4016 147.299 78.022L144.499 66.7743L143.685 78.3273C143.634 78.7345 143.634 79.1925 143.583 79.5997C143.532 80.5667 143.481 81.5845 143.329 82.5515C143.023 85.0453 142.616 87.0811 141.547 88.8115C140.784 90.0839 140.173 90.6437 139.41 90.7455C139.155 90.7964 138.85 90.7964 138.545 90.7964C138.036 90.7964 137.425 90.7455 136.713 90.5928C133.659 90.0839 132.081 88.9642 131.42 86.9284C130.809 84.9436 130.453 82.806 130.096 80.4649C129.893 79.0398 129.791 77.5639 129.689 76.3933C129.638 75.9353 129.638 75.5281 129.587 75.2228L128.111 58.6822L125.923 75.121C125.821 75.8844 125.719 76.7496 125.618 77.6148C125.312 79.8541 125.007 82.3988 124.6 84.9436C124.193 87.2338 123.429 88.6588 121.953 89.4731C120.579 90.2365 118.95 90.6946 116.864 90.8473C116.813 90.8473 116.711 90.8473 116.66 90.8473C115.897 90.8473 115.235 90.5419 114.675 89.9312C112.843 87.9972 112.436 85.5034 112.08 82.6533C111.927 81.6354 111.876 80.6176 111.825 79.447C111.774 78.8871 111.774 78.2764 111.724 77.6657L110.706 62.1939L108.059 77.4621C107.398 81.3301 105.667 84.3837 102.766 86.7757C100.934 88.3026 98.7455 89.6258 96.6589 90.8982C96.2517 91.1526 95.8446 91.4071 95.4374 91.6107C94.165 92.3741 92.8927 93.0866 91.4676 93.7991C90.9587 94.0536 90.5007 94.3081 89.9917 94.5625C89.9917 91.7634 89.9408 88.9642 89.9408 86.1141C89.9408 85.8596 89.9408 85.5543 89.9408 85.3507C90.1444 85.2489 90.3989 85.1471 90.6024 85.0453C91.1623 84.7909 91.6203 84.3837 91.8239 83.773C92.1802 83.773 92.4855 83.7221 92.8418 83.6712C101.341 82.1444 104.7 75.4772 106.481 70.5914L108.263 65.7565L103.835 68.3521C103.835 68.3521 103.784 68.3521 103.784 68.403C103.631 68.4539 103.275 68.6574 103.021 69.0646C102.919 69.2173 102.868 69.3191 102.817 69.4208C102.817 69.4208 102.817 69.4717 102.766 69.4717C100.272 73.1361 97.8803 74.8156 94.8267 75.2228C94.4704 75.2737 94.1141 75.2737 93.8088 75.2737C91.4167 75.2737 89.4319 74.2049 87.8542 72.0164C86.3273 69.9298 86.2764 67.5378 87.7015 64.4332C88.2613 63.1609 88.9738 61.8885 89.4828 60.9724C89.6864 60.6162 89.8899 60.2599 89.9917 60.0054L94.5722 51.4552L87.1925 57.7152L76.1994 67.1306L64.5955 76.9532V76.9023L63.6285 77.3094C63.9848 76.8005 64.3411 76.3424 64.6973 75.8844C67.242 72.729 70.0412 69.6753 72.7386 66.6726C73.502 65.8583 74.2145 65.0439 74.9779 64.2296C79.1513 59.5983 81.7978 55.2723 83.4264 50.59C84.7496 46.7729 85.4112 43.2104 85.3603 39.7496L85.3095 27.026L81.7469 39.2406C80.3218 44.0756 77.828 48.3507 74.2654 52.015L68.5653 50.9463C68.1072 50.8445 67.5474 50.7936 67.0385 50.6918C65.7661 50.4882 64.4938 50.2846 63.2214 49.9284C60.9821 49.3685 60.4731 48.0453 60.3204 47.1292C59.9642 45.3988 59.7097 43.5666 59.4552 41.9889C59.3534 41.3273 59.2517 40.6657 59.1499 40.0549L57.1141 27.993L55.4855 40.1058C55.4346 40.6148 55.3328 41.1746 55.2819 41.7344C55.1292 43.1086 54.9257 44.6354 54.6712 46.1622C54.3658 48.4016 53.297 49.5721 51.3631 49.9793C50.5996 50.132 49.8871 50.2846 49.1237 50.4373L48.3603 50.59C48.1058 50.6409 47.8514 50.6918 47.5969 50.7427C47.088 50.8445 46.579 50.9463 46.121 51.0481L34.8734 53.2365L46.2228 54.6615C46.579 54.7124 46.9353 54.7633 47.3424 54.8142C47.4951 54.8142 47.6478 54.8651 47.8005 54.8651L47.088 60.0563C47.0371 60.3617 46.9862 60.7179 46.9353 61.0742C46.8335 61.8885 46.6808 62.8555 46.579 63.7716C46.3754 64.9931 45.8665 65.3493 45.1031 65.502C44.3397 65.6547 43.5254 65.8074 42.8128 65.96C42.5075 66.0109 42.2021 66.0618 41.8968 66.1127L30.7 68.3521L42.0494 69.7771C42.253 69.828 42.5075 69.828 42.762 69.8789C43.3218 69.9298 43.9325 70.0316 44.5432 70.1334C46.121 70.3369 46.579 70.795 46.7826 72.3727C46.8844 73.0852 46.9862 73.8486 47.0371 74.5103C47.088 74.8156 47.088 75.121 47.1388 75.4263L47.8514 81.6354C45.8665 84.8418 43.4745 86.7757 40.319 87.7936L34.9751 89.4731L40.2681 91.3053C41.8459 91.8652 42.8128 92.425 43.4745 93.2393C44.9504 94.9697 45.7138 97.1073 46.3754 99.7537C47.4951 104.131 49.0219 109.169 52.1265 113.648C54.5185 117.109 57.4195 120.01 60.6767 123.114L60.1678 126.931C60.1169 127.287 60.066 127.695 60.0151 128.102C59.9133 128.967 59.8115 129.883 59.6588 130.799C59.0481 133.7 58.6918 135.023 55.74 135.431C53.5515 135.787 51.7193 135.939 50.0398 136.041C47.8514 136.143 45.612 136.347 43.4745 136.499C40.6753 136.703 37.7743 136.906 35.026 137.008L27.1375 137.721L36.0439 140.622L36.2984 140.673L36.4511 140.724H36.6038C37.8761 140.774 37.9779 140.774 39.1994 140.774C40.9807 140.774 42.762 140.774 44.5432 140.876C45.2049 140.927 45.9174 140.927 46.579 140.978C49.4291 141.08 52.3301 141.232 55.1292 141.589C57.9793 141.996 58.8954 142.556 59.5061 145.508C59.7606 146.678 59.9133 147.9 60.1169 149.223C60.1677 149.783 60.2695 150.393 60.3713 151.004L61.8473 160.878L56.5034 162.71L62.3562 164.288C62.5598 164.338 62.8142 164.389 63.0687 164.491C63.7812 164.644 64.5955 164.898 65.4607 165.153C69.5323 166.425 73.502 168.563 77.9298 171.922C82.154 175.077 86.6836 178.64 91.773 182.813L92.0275 183.017C96.7606 186.885 101.697 190.905 106.278 195.129C112.741 201.084 117.627 206.988 121.088 213.299C123.276 217.268 124.243 220.475 124.294 223.681V224.088L127.704 229.89L131.318 224.088V223.732C131.369 220.933 132.132 218.083 133.71 214.927C136.713 208.973 140.733 203.578 145.721 198.794C149.538 195.078 153.864 191.312 159.31 186.935C165.926 181.592 172.847 176.248 180.38 170.598C185.113 167.036 189.184 165.153 193.561 164.44L193.612 164.644V164.44C193.816 164.389 194.019 164.389 194.223 164.338L207.761 162.557L194.223 160.725C194.172 160.725 194.121 160.725 194.07 160.725L195.241 150.851C195.292 150.444 195.343 149.986 195.393 149.528C195.495 148.51 195.597 147.442 195.801 146.424C196.31 143.624 196.768 142.454 199.618 141.996C202.213 141.589 205.012 141.283 207.863 141.131C212.239 140.927 215.649 140.774 219.059 140.724H219.314L219.568 140.673L219.772 140.622L228.118 137.873L219.212 136.754ZM203.944 72.2709C204.045 73.0343 204.147 73.7977 204.249 74.5611L204.402 75.4772L204.504 76.1389C203.384 74.0013 202.01 71.9655 200.483 69.9807C201.043 70.0825 201.603 70.1334 202.112 70.286C203.384 70.5405 203.74 70.8968 203.944 72.2709ZM205.216 55.1196L204.402 59.9545C204.351 60.3108 204.249 60.7179 204.198 61.176C204.045 62.143 203.842 63.2626 203.638 64.3314C203.537 64.7895 203.333 65.2475 202.366 65.502C201.603 65.7056 200.839 65.8074 200.076 65.96C199.872 66.0109 199.669 66.0109 199.465 66.0618L199.618 64.8404C199.669 64.3823 199.719 63.8734 199.77 63.3644C199.923 62.1939 200.025 61.0233 200.178 59.8527C200.585 56.7482 201.704 55.6285 204.809 55.2214C204.962 55.1705 205.114 55.1705 205.216 55.1196ZM50.6505 76.4442L50.8032 75.4772L50.9559 74.5103C51.0577 73.7977 51.1595 73.0343 51.2613 72.2709C51.4648 70.8968 51.7702 70.5405 53.0935 70.2351C53.7042 70.0825 54.3149 70.0316 54.8748 69.9298C53.2461 72.0164 51.872 74.2558 50.6505 76.4442ZM55.0274 65.96C54.264 65.8074 53.5006 65.7056 52.7372 65.502C51.7702 65.2475 51.5666 64.7895 51.4648 64.3314C51.2613 63.2626 51.0577 62.143 50.905 61.176C50.8541 60.7688 50.7523 60.3617 50.7014 59.9545L49.8871 55.1196C49.9889 55.1196 50.1416 55.1705 50.2434 55.1705C53.3479 55.6285 54.4676 56.7482 54.8748 59.8018C55.0274 60.9724 55.1801 62.1939 55.2819 63.3135C55.3328 63.8225 55.3837 64.3314 55.4346 64.7895L55.5873 66.0109C55.4855 66.0618 55.2819 66.0109 55.0274 65.96ZM65.1045 129.425L66.275 132.122L66.9876 131.257L68.3617 131.868C68.6671 131.97 68.9215 132.072 69.1251 132.173C69.2778 132.224 69.4305 132.275 69.5323 132.326C69.6341 132.377 69.7358 132.479 69.8376 132.53C69.9394 132.58 70.0412 132.682 70.1939 132.784C70.2448 133.904 70.2448 135.074 70.2448 136.296C69.8885 136.245 69.4814 136.194 69.1251 136.092C66.4786 135.634 65.1045 134.362 64.6464 131.97C64.4429 130.748 64.2393 129.578 64.0866 128.407C64.0357 127.949 63.9339 127.542 63.883 127.135C64.3411 127.847 64.7482 128.611 65.1045 129.425ZM191.271 128.051C191.169 128.967 191.017 129.934 190.864 130.952C190.406 134.107 188.065 136.296 184.96 136.499C185.011 135.685 185.062 134.82 185.011 133.955C184.96 132.835 185.164 132.58 186.233 132.428L189.337 131.868L188.93 131.359L189.846 129.832C190.1 129.425 190.304 129.018 190.508 128.662C190.813 128.153 191.067 127.593 191.424 127.084C191.373 127.389 191.322 127.695 191.271 128.051ZM184.858 152.735C184.858 150.495 184.858 148.256 184.858 146.017C184.858 144.999 184.858 143.981 184.858 142.963V140.876H184.909C188.268 141.385 190.05 142.25 190.711 145.66C190.915 146.831 191.067 148.052 191.271 149.223C191.322 149.732 191.424 150.241 191.475 150.75L192.849 160.42C192.391 160.369 191.984 160.318 191.576 160.216C188.523 159.707 184.909 158.028 184.858 152.735ZM186.589 54.6106C186.996 54.6615 187.454 54.7633 187.963 54.8142C189.032 54.9669 190.202 55.1196 191.373 55.3741C193.968 55.9339 194.834 56.9009 195.241 59.6492C195.393 60.9215 195.597 62.1939 195.75 63.3644L195.953 64.8404C194.223 63.11 192.34 61.3796 190.151 59.5983L189.439 59.0384C187.505 57.4607 185.52 55.7812 183.637 54.1017L186.589 54.6106ZM71.6698 54.1526L71.5171 54.6106C70.2448 55.7303 68.9215 56.7991 67.5983 57.8679C66.1224 59.0893 64.5446 60.3108 63.0687 61.634C61.6437 62.9064 60.3204 64.077 59.1499 65.2475L59.2008 64.8913L59.4043 63.3644C59.557 62.1939 59.7606 60.9215 59.9133 59.6492C60.3204 56.9009 61.1856 55.9339 63.7812 55.3741C64.9009 55.1196 66.1224 54.9669 67.1911 54.8142C67.6492 54.7633 68.1072 54.6615 68.5653 54.6106L71.6698 54.1526ZM62.2035 160.725L63.9339 151.055C63.9848 150.699 63.9848 150.444 63.9848 150.19C63.9848 150.088 63.9848 149.935 63.9848 149.884C64.0357 149.376 64.0866 148.917 64.1884 148.409C64.3411 147.187 64.4938 146.017 64.7482 144.897C65.2572 142.81 66.4786 141.385 70.4484 140.927C70.4484 141.691 70.4484 142.505 70.4484 143.268C70.4484 146.576 70.4993 150.037 70.3975 153.396C70.3466 155.177 69.7867 157.569 67.242 158.944C66.1224 159.554 64.7991 159.911 63.6285 160.267C63.1705 160.42 62.6616 160.572 62.2035 160.725Z" fill="black"/>
<path d="M125.974 223.579C125.974 219.457 124.498 215.792 122.564 212.281C118.594 205.156 113.352 199.099 107.398 193.653C102.715 189.378 97.7786 185.307 92.8419 181.286C88.2614 177.571 83.63 173.856 78.8969 170.344C74.9271 167.392 70.652 164.847 65.868 163.321C64.6465 162.913 63.3742 162.659 62.7125 162.455C64.2394 161.946 66.326 161.488 68.1582 160.521C70.9065 159.045 72.1788 156.45 72.2806 153.396C72.3824 148.561 72.3315 143.726 72.3315 138.891C67.4457 139.095 63.9849 140.265 62.967 144.439C62.5598 146.118 62.4072 147.9 62.2036 149.63C62.1527 149.986 62.2036 150.343 62.1527 150.699C61.8982 148.816 61.6946 146.933 61.2875 145.1C60.4732 141.283 58.8446 140.265 55.3329 139.757C51.7703 139.248 48.1568 139.197 44.5942 139.044C41.5406 138.891 39.6575 138.993 36.6038 138.891L36.3494 138.84C41.2861 138.637 45.2558 138.128 50.1926 137.873C52.1774 137.772 54.1114 137.517 56.0454 137.212C60.2696 136.55 60.8803 134.056 61.4911 131.105C61.7964 129.73 61.8473 128.305 62 127.135C62.2545 128.713 62.509 130.494 62.8143 132.224C63.425 135.583 65.5626 137.263 68.7689 137.823C69.8377 138.026 70.9574 138.179 72.0262 138.332C72.0262 136.194 72.1279 134.158 71.9753 132.122C71.9244 131.613 71.161 131.155 70.652 130.748C70.2958 130.494 69.8377 130.392 69.1252 130.087C71.161 127.644 73.044 125.303 75.0798 123.063C76.7084 121.282 78.5915 119.653 80.3219 117.974C80.5764 117.719 80.8308 117.312 80.8308 116.956C80.8817 110.594 80.8308 104.283 80.8308 97.6162C78.7951 99.8046 77.8281 102.349 76.8102 104.894C76.8102 102.248 76.8102 99.5502 76.8102 96.9037C76.8102 96.5983 77.1156 96.1912 77.3191 95.9367C78.0826 95.0206 78.846 94.0536 79.7621 93.2902C80.6273 92.5268 80.9326 91.6616 80.8817 90.5419C80.7291 88.4552 80.8817 86.3686 80.5764 84.2819C80.4237 83.1623 79.7112 82.0935 79.3549 81.1774C80.8817 81.6863 82.663 82.3988 84.4952 82.7551C86.3274 83.1114 88.2614 83.1114 90.0936 83.264C90.0936 83.264 89.9918 83.3658 89.89 83.4167C88.1087 84.1801 88.1087 84.1801 88.1087 86.165C88.1596 97.718 88.2614 109.22 88.2614 120.773C88.2614 122.758 89.1266 124.387 90.348 125.812C92.791 128.662 95.3357 131.41 97.8295 134.209C98.4911 134.972 99.1527 135.736 99.6617 136.703C95.6919 133.751 91.7731 130.748 87.8033 127.796C86.1747 126.575 84.597 125.404 83.0193 124.132C82.205 123.47 81.5434 123.521 80.5764 123.827C78.6933 124.437 77.8281 126.168 76.6066 127.44C76.0977 127.949 75.7414 128.611 75.3852 129.374C76.8611 128.611 78.3879 127.847 79.9656 127.033C79.9656 139.044 79.9656 150.953 79.9656 162.812C79.9656 163.524 80.2201 163.931 80.8308 164.338C85.9203 167.697 89.89 172.278 94.1651 176.502C97.6768 179.912 101.036 183.424 104.548 186.834C107.194 189.429 109.993 191.923 112.64 194.519C116.355 198.132 119.816 201.949 122.462 206.428C122.564 206.377 122.666 206.377 122.819 206.326C122.513 204.799 122.31 203.171 121.801 201.695C119.968 196.402 116.711 192.076 112.385 188.564C109.993 186.63 107.448 184.849 105.107 183.169C105.311 182.151 105.667 181.133 105.667 180.166C105.718 170.344 105.718 160.572 105.667 150.75C105.667 150.292 105.565 149.783 105.515 149.376C108.874 146.627 112.283 143.879 115.795 141.029C118.849 144.642 122.055 148.358 125.109 151.971C124.142 153.752 123.277 155.432 122.36 157.111C119.561 153.549 116.66 149.884 113.607 146.017C113.607 146.576 113.607 146.831 113.607 147.085C113.607 158.028 113.607 168.97 113.556 179.912C113.556 180.777 113.759 181.388 114.421 181.948C115.897 183.22 117.373 184.543 118.951 185.968C118.951 185.612 119.001 185.459 119.001 185.256C119.001 179.301 119.001 173.296 119.001 167.341C119.001 166.934 118.747 166.527 118.543 166.171C118.085 165.509 117.526 164.949 116.915 164.186C116.915 169.581 116.915 174.823 116.915 180.065C116.864 180.116 116.762 180.116 116.711 180.166C116.457 179.301 115.948 178.487 115.948 177.622C115.897 169.682 115.897 161.692 115.897 153.498C118.136 156.195 120.223 158.791 122.411 161.437C123.633 160.114 124.803 158.893 125.923 157.62C126.025 157.671 126.127 157.773 126.279 157.824C126.279 179.759 126.279 201.644 126.279 223.579C126.127 223.579 126.076 223.579 125.974 223.579Z" fill="white"/>
<path d="M218.856 138.637C215.039 138.739 211.425 138.891 207.608 139.044C204.809 139.197 201.959 139.451 199.16 139.909C195.19 140.571 194.376 142.759 193.867 145.864C193.612 147.442 193.46 149.019 193.307 150.444C193.052 148.867 192.9 147.034 192.543 145.304C191.729 140.774 188.879 139.604 185.215 139.044C184.502 138.942 183.841 138.891 183.026 138.79C183.026 140.265 183.026 141.589 183.026 142.912C183.026 146.169 183.026 149.426 183.026 152.735C183.026 158.282 186.487 161.234 191.271 162.048C192.034 162.15 192.798 162.252 193.816 162.404C188.065 163.168 183.433 165.814 179.107 169.021C171.982 174.365 164.908 179.81 157.986 185.409C153.253 189.226 148.622 193.144 144.296 197.369C139.257 202.204 135.084 207.751 131.929 214.011C130.402 217.014 129.384 220.169 129.333 223.63C129.282 223.63 129.18 223.63 129.129 223.63C129.18 201.033 129.231 178.487 129.282 155.89C129.282 154.109 128.468 153.193 126.839 152.836C130.3 149.528 133.913 146.118 137.374 142.81C136.356 145.151 136.407 147.798 136.407 150.495C136.407 162.913 136.356 175.382 136.407 187.801C136.407 188.92 136.56 190.142 136.865 191.211C137.323 192.686 138.748 194.111 140.428 193.501C136.153 197.114 133.048 201.186 132.336 206.733C135.389 201.542 139.614 197.369 143.94 193.246C146.433 190.854 149.029 188.615 151.726 186.477C157.986 181.439 164.348 176.451 170.71 171.464C172.033 170.395 173.407 169.326 174.68 168.206C174.934 168.003 175.138 167.494 175.087 167.188C173.916 161.692 172.44 156.297 169.438 151.462C168.878 150.597 168.267 149.783 167.504 148.663C167.453 149.274 167.453 149.63 167.453 149.935C167.453 154.058 167.453 158.18 167.453 162.354C167.453 163.27 167.504 164.237 167.707 165.153C168.114 166.832 169.183 168.155 171.371 167.138C171.83 166.934 172.288 166.68 172.797 166.578C169.692 169.835 165.722 171.973 161.956 174.466C161.956 165.458 161.956 156.603 161.956 147.696C161.956 146.22 161.905 144.744 161.905 143.319C161.905 140.724 160.735 138.739 158.75 137.365C161.803 134.667 164.857 131.919 168.216 128.967C166.638 132.275 167.809 135.125 168.979 137.873C170.913 142.352 172.898 146.78 174.883 151.208C175.036 151.513 175.239 151.818 175.545 152.429C175.545 150.343 175.545 148.561 175.545 146.831C175.545 142.454 175.392 138.026 175.596 133.649C175.697 131.308 174.68 129.629 173.255 128.051C172.695 127.44 172.033 126.829 171.27 126.117C173.611 124.03 175.901 121.994 178.344 119.806C178.7 123.165 180.99 124.845 182.721 126.982C183.739 128.204 184.757 129.476 185.876 130.85C183.739 131.206 183.077 132.428 183.128 134.26C183.179 135.685 183.026 137.11 182.975 138.484C187.912 139.197 191.984 136.245 192.696 131.461C192.9 130.036 193.103 128.611 193.256 127.389C193.51 128.865 193.663 130.596 194.07 132.275C194.885 135.889 196.462 137.365 200.178 137.67C205.521 138.077 210.865 138.332 216.209 138.637C217.176 138.688 218.143 138.739 219.11 138.79L218.856 138.637Z" fill="white"/>
<path d="M183.026 99.6011C186.691 104.741 189.235 110.289 190.813 116.549C192.136 114.564 193.612 112.681 194.732 110.594C196.87 106.675 198.193 102.502 198.651 98.0233C199.312 91.3562 198.345 85.0453 195.292 79.0398C193.765 75.9862 191.627 73.3397 189.337 70.795C186.334 67.5378 183.23 64.3823 180.329 61.0233C176.054 56.0866 173.356 50.3864 172.237 43.9229C171.982 42.4978 171.931 41.0728 171.931 39.546C172.084 40.004 172.186 40.4112 172.339 40.8692C173.814 45.3988 176.156 49.4703 179.566 52.7785C182.568 55.6794 185.825 58.3768 189.032 61.0233C194.783 65.8074 199.974 71.1003 203.384 77.8693C204.809 80.7193 206.234 83.6203 208.677 85.8087C210.407 87.3865 212.392 88.557 214.733 89.2187C210.255 90.3892 208.83 94.0027 207.659 97.7689C206.489 101.688 205.572 105.708 203.588 109.373C202.01 112.223 200.178 114.869 197.887 117.261C195.394 119.806 192.951 122.351 190.61 125.048C189.643 126.168 189.032 127.644 188.319 128.763C186.589 126.779 184.96 124.59 182.975 122.809C181.652 121.638 181.347 120.468 181.245 118.788C180.787 111.256 179.158 103.927 175.901 97.0564C175.647 96.5474 175.341 96.0385 174.883 95.2242C174.832 95.784 174.781 96.0894 174.781 96.3438C174.781 102.248 174.781 108.151 174.781 114.055C174.781 115.836 175.596 116.752 177.326 116.905C173 120.264 169.539 124.59 165.468 128.204C162.16 131.155 158.648 133.853 155.238 136.652C155.136 136.55 155.085 136.448 154.984 136.398C156.358 134.922 157.732 133.547 159.004 132.021C161.142 129.527 163.228 126.982 165.264 124.387C166.638 122.605 167.3 120.519 167.3 118.228C167.3 108.558 167.249 98.8377 167.3 89.1678C167.3 87.1829 167.096 85.4525 164.806 84.3328C169.59 84.0275 173.051 81.6863 176.257 78.5818C175.85 79.8032 175.24 80.9738 175.138 82.1444C174.883 84.9944 174.883 87.8954 174.781 90.7455C174.781 90.8982 174.883 91.1017 175.036 91.2035C177.428 93.0357 179.82 94.817 182.365 96.751C182.365 96.2421 182.416 95.9367 182.416 95.6313C182.416 92.9848 182.314 90.3892 182.416 87.7427C182.67 82.2971 181.449 77.3603 177.479 73.2379C176.054 74.5611 174.527 75.8844 173 77.2585C171.015 79.0907 168.929 80.7702 166.231 81.4319C162.821 82.2971 159.717 81.4827 156.969 79.3452C154.169 77.1567 152.388 74.2558 151.065 71.0494C151.014 70.9477 151.065 70.8459 151.116 70.5914C152.846 72.9325 154.882 74.7647 157.427 75.9862C163.025 78.7345 168.98 75.9862 170.354 69.9298C170.761 68.1994 170.557 66.4181 169.845 64.7895C168.878 62.6519 167.809 60.5144 166.893 58.5804C167.809 59.3947 168.827 60.3617 169.947 61.3287C174.273 65.0439 178.548 68.7592 182.874 72.4745C185.113 74.4085 187.352 76.3424 189.592 78.3273C189.897 78.6327 190.151 79.1416 190.151 79.5997C190.202 83.4676 190.253 87.3356 190.202 91.2035C190.202 91.7634 189.693 92.425 189.235 92.883C187.2 95.0715 185.113 97.3108 183.026 99.6011Z" fill="white"/>
<path d="M150.149 110.594C150.149 117.058 150.149 123.47 150.149 129.883C156.561 124.845 160.277 118.076 162.618 110.238C162.974 113.851 161.803 117.668 165.213 120.468C164.145 121.791 163.127 123.267 161.956 124.59C156.663 130.392 151.37 136.245 145.924 141.945C143.787 144.184 141.548 146.271 140.326 149.121C140.021 149.884 139.664 150.648 139.308 151.615C139.308 148.612 139.308 145.762 139.308 142.912C139.308 142.708 139.359 142.454 139.461 142.301C140.275 140.978 140.886 139.502 141.904 138.484C143.125 137.263 143.329 136.041 143.329 134.464C143.227 122.249 143.176 110.034 143.074 97.8198C143.074 95.2751 140.937 92.5268 137.476 93.4938C136.102 93.9009 134.677 94.1045 133.252 94.5117C131.979 94.8679 131.063 95.784 130.402 96.9037C128.926 99.3466 128.417 102.044 127.959 104.792C127.857 105.454 127.755 106.116 127.653 106.777C127.144 104.64 126.737 102.451 126.127 100.364C125.363 97.8198 124.345 95.326 121.546 94.4099C119.663 93.7991 117.627 93.5447 115.642 93.4429C113.708 93.3411 111.927 95.6313 111.927 97.8707C111.927 107.897 111.927 117.923 111.927 127.949C111.927 130.036 111.978 132.072 111.927 134.158C111.825 136.092 112.385 137.823 113.2 139.044C111.367 141.182 109.535 143.268 107.754 145.355C107.652 145.253 107.55 145.202 107.398 145.1C108.67 142.861 107.398 140.774 106.838 138.739C106.176 136.448 105.006 134.311 104.14 132.072C103.937 131.563 103.988 130.952 104.089 130.443C104.242 129.425 104.649 128.407 104.7 127.389C104.751 123.725 104.751 120.111 104.7 116.447C104.7 115.887 104.395 115.226 103.988 114.818C102.614 113.546 101.138 112.426 99.5599 111.052C99.5599 111.561 99.5599 111.917 99.5599 112.274C99.5599 115.887 99.6617 119.501 99.509 123.114C99.4072 126.27 100.12 129.171 101.392 131.97C102.308 134.107 103.122 136.296 103.835 138.484C99.9161 132.784 95.3866 127.644 90.5516 122.656C92.0275 122.503 92.7909 121.384 92.7909 119.45C92.7909 114.36 92.7909 109.322 92.7909 104.232C92.7909 102.807 92.7909 101.382 92.7909 99.9573C92.7909 97.8707 92.4856 97.4126 90.3989 96.4965C92.4856 95.3769 94.4705 94.4099 96.4044 93.2393C98.9491 91.6616 101.596 90.1857 103.937 88.2517C107.092 85.6561 109.077 82.2462 109.84 77.8693C109.993 79.8032 109.993 81.4319 110.197 83.0096C110.553 86.0123 111.113 88.9642 113.301 91.3053C114.319 92.3741 115.541 92.883 117.017 92.7813C119.052 92.6286 121.088 92.2214 122.869 91.2035C125.109 89.9312 126.025 87.7427 126.381 85.4016C126.992 81.839 127.348 78.2764 127.755 75.5281C127.857 76.7496 127.959 78.8363 128.264 80.9229C128.62 83.2132 128.977 85.5034 129.638 87.6409C130.656 90.8473 133.354 92.0178 136.356 92.5268C137.425 92.7304 138.596 92.8321 139.664 92.6286C141.293 92.3741 142.26 91.1526 143.074 89.8294C144.398 87.6918 144.805 85.2489 145.11 82.806C145.263 81.3301 145.314 79.8032 145.415 78.48C147.706 87.6409 155.798 93.7482 164.704 92.1705C162.516 93.7482 160.633 95.4786 159.462 97.8707C159.31 98.2269 159.157 98.5323 158.953 98.8886C158.241 100.314 158.088 101.688 159.106 103.011C160.124 104.334 161.447 105.047 163.076 105.199C163.279 105.199 163.534 105.199 163.992 105.199C160.938 106.523 158.648 108.406 157.019 111.052C155.442 113.699 155.493 116.803 154.78 119.552C154.576 117.77 154.526 115.887 154.068 114.106C153.609 112.223 152.083 111.205 150.149 110.594ZM104.853 92.5268C102.206 93.4429 99.6108 97.1073 99.6108 99.9573C99.6108 101.79 99.6108 103.622 99.6108 105.454C99.6108 105.759 99.6108 106.217 99.8143 106.37C101.392 107.693 103.021 109.016 104.853 110.543C104.853 104.334 104.853 98.4305 104.853 92.5268ZM150.149 107.795C152.032 107.083 153.66 106.116 154.831 104.589C155.543 103.673 156.256 102.553 156.358 101.484C156.714 97.8707 153.66 93.7991 150.149 92.7813C150.149 97.7689 150.149 102.706 150.149 107.795Z" fill="white"/>
<path d="M129.74 147.085C131.216 143.421 132.743 139.807 134.117 136.143C134.473 135.227 134.372 134.056 134.372 133.039C134.372 125.303 134.372 117.567 134.372 109.729C134.219 109.882 134.066 110.034 134.015 110.187C132.387 113.342 131.521 116.752 131.165 120.315C130.962 122.605 130.656 124.946 130.758 127.237C130.911 129.985 131.471 132.733 131.878 135.532C131.929 135.838 131.98 136.194 131.827 136.448C129.842 139.909 128.671 143.625 127.654 147.492C126.687 143.574 125.465 139.807 123.328 136.448C123.175 136.245 123.175 135.889 123.277 135.634C124.702 131.308 124.193 126.829 124.04 122.402C123.887 118.941 123.175 115.531 121.953 112.274C121.597 111.358 121.139 110.492 120.477 109.678C120.477 109.933 120.427 110.238 120.427 110.492C120.427 117.719 120.528 124.997 120.427 132.224C120.376 134.667 120.986 136.856 122.055 138.993C123.277 141.487 124.396 144.032 125.567 146.576C125.669 146.78 125.72 147.034 125.821 147.289C125.72 147.34 125.669 147.442 125.567 147.492C125.058 146.933 124.6 146.322 124.091 145.813C121.139 142.658 118.136 139.553 115.184 136.398C114.93 136.143 114.726 135.685 114.726 135.329C114.676 122.809 114.625 110.289 114.574 97.7689C114.574 97.718 114.625 97.6671 114.777 97.3617C121.699 102.044 125.16 108.864 127.603 116.447C130.453 109.169 133.506 102.044 140.581 97.3617C140.632 97.8707 140.682 98.176 140.682 98.4814C140.682 110.543 140.682 122.605 140.682 134.667C140.682 135.074 140.581 135.583 140.326 135.889C137.018 139.451 133.659 143.014 130.351 146.576C130.096 146.78 129.893 146.933 129.74 147.085Z" fill="white"/>
<path d="M63.0689 112.681C63.0689 112.834 62.9162 113.088 63.018 113.19C64.7484 115.327 66.4788 117.414 68.2092 119.501C69.278 120.773 70.2958 122.045 71.3137 123.318C70.0414 124.794 68.4127 126.779 66.7332 128.713C65.6136 126.219 64.1376 123.979 62.1019 122.045C59.0482 119.094 56.0455 116.142 53.6026 112.63C50.8034 108.609 49.3274 104.029 48.106 99.3466C47.4444 96.751 46.6301 94.2063 44.8488 92.1196C43.78 90.8473 42.3549 90.1856 40.8281 89.6258C45.4086 88.2008 48.3096 84.9944 50.3962 80.872C52.432 76.8005 54.6204 72.8307 57.725 69.4208C59.7607 67.1815 62.0001 65.0948 64.2394 63.11C67.344 60.3617 70.703 57.9188 73.8075 55.1705C78.4389 51.048 81.747 45.9586 83.4774 39.9531C83.4774 43.4648 82.7649 46.8747 81.6452 50.1828C79.9148 55.1196 77.0139 59.2929 73.5531 63.1609C70.0923 67.0288 66.5297 70.8459 63.2215 74.8665C59.7607 79.0907 57.9286 84.0783 57.1143 89.4731C56.0455 96.3438 57.1142 102.909 60.117 109.118C60.8804 110.442 61.5929 111.816 63.0689 112.681Z" fill="white"/>
<path d="M158.444 137.314C158.444 137.772 158.444 138.23 158.444 138.688C158.394 147.238 158.292 155.788 158.292 164.389C158.292 166.578 158.394 168.715 158.444 170.904C158.444 171.158 158.444 171.514 158.546 171.667C159.31 172.583 158.648 173.143 158.088 173.805C156.103 176.146 154.22 178.589 152.184 180.828C149.945 183.271 147.553 185.663 145.161 187.953C143.838 189.226 142.311 190.294 140.682 191.669C140.682 190.345 140.682 189.378 140.682 188.462C140.682 177.418 140.682 166.374 140.682 155.33C140.682 152.582 142.006 150.393 143.634 148.409C147.197 143.981 151.981 140.978 156.918 138.332C157.427 138.026 157.885 137.67 158.444 137.314ZM151.217 144.744C149.742 145.151 148.825 146.169 148.571 147.543C148.266 148.968 148.113 150.495 148.113 151.971C148.062 161.03 148.113 170.089 148.113 179.149C148.113 179.505 148.113 179.861 148.113 180.217C150.556 178.64 151.37 176.4 151.268 173.703C151.217 172.38 151.268 171.056 151.268 169.784C151.217 161.437 151.217 153.142 151.217 144.744Z" fill="white"/>
<path d="M63.0178 112.681C64.5446 112.477 65.5116 111.307 65.5116 109.373C65.6134 100.466 65.7152 91.5598 65.7152 82.6533C65.7152 81.4827 65.1045 80.3122 64.7991 79.1416C72.7386 72.4236 80.8817 65.502 88.3631 59.1911C87.8542 60.1581 86.7854 61.8885 85.9711 63.7207C84.546 66.8761 84.1389 70.1843 86.3273 73.187C88.4649 76.088 91.3659 77.5639 95.0302 77.1059C99.2544 76.5969 102.003 73.8995 104.293 70.5914C104.395 70.4896 104.446 70.3369 104.497 70.2351C104.547 70.1842 104.598 70.1842 104.751 70.0825C102.563 76.088 99.2036 80.8211 92.4855 81.9917C90.5007 82.3479 88.5667 81.8899 86.6836 81.0756C84.1389 79.9559 81.9504 78.2764 79.8129 76.4951C78.6423 75.4772 77.2682 74.6629 75.9449 73.9504C74.7744 73.3397 74.011 73.8995 74.011 75.2228C74.011 86.0632 74.0618 96.8528 73.9601 107.693C73.9092 109.933 74.7235 111.409 76.3521 112.681C77.2682 113.444 78.2352 114.157 79.2531 114.971C77.1155 116.854 75.0288 118.788 72.9422 120.62C71.2118 119.043 69.0742 117.109 66.8858 115.226C66.0715 114.513 65.0027 114.055 64.0357 113.495C63.7812 113.19 63.425 112.935 63.0178 112.681Z" fill="white"/>
<path d="M87.7523 166.069C87.9559 164.593 88.3122 163.015 88.3122 161.387C88.3631 154.16 88.3122 146.882 88.3631 139.655C88.3631 138.077 87.6505 137.059 86.3273 136.347C85.6657 136.041 85.0041 135.787 84.1389 135.431C84.1389 144.999 84.1389 154.414 84.1389 163.982C82.8665 163.473 82.4085 162.761 82.4593 161.488C82.5102 151.004 82.4593 140.52 82.4593 130.036C82.4593 129.272 82.4593 128.458 82.4593 127.44C90.0935 132.988 97.5749 138.332 105.158 143.777C103.224 145.813 101.036 147.391 100.374 150.037C99.8143 148.561 99.4071 146.882 98.5419 145.558C97.6767 144.235 96.3026 143.217 94.9284 142.199C94.9284 144.184 94.9284 146.22 94.9284 148.205C94.9284 149.223 94.9793 150.241 94.9284 151.259C94.8775 152.073 95.2338 152.378 95.9972 152.276C98.0838 152.073 100.12 151.869 102.206 151.666C102.512 151.615 102.817 151.615 103.326 151.564C100.781 154.719 99.6107 158.18 99.4071 161.845C98.9999 160.725 98.6437 159.453 98.1347 158.231C97.5749 156.857 96.3534 156.297 94.9793 155.737C94.9284 156.144 94.9284 156.45 94.9284 156.806C94.9284 160.42 94.9284 164.033 94.9284 167.647C94.9284 169.122 95.3356 169.581 96.8624 169.682C98.8473 169.835 100.679 168.512 101.392 166.272C102.003 164.44 102.41 162.557 102.868 160.827C102.868 167.596 102.868 174.517 102.868 181.388C97.7276 176.248 92.6891 171.107 87.7523 166.069Z" fill="white"/>
<path d="M192.187 111.561C191.576 110.238 190.915 109.016 190.406 107.744C190.202 107.286 190.202 106.574 190.406 106.116C192.085 102.298 193.154 98.3287 193.154 94.1554C193.205 89.7785 192.951 85.3507 192.798 81.3301C197.633 88.7097 198.396 100.975 192.187 111.561Z" fill="white"/>
<path d="M62.5089 79.8541C62.2544 83.264 61.8981 86.6231 61.7963 90.033C61.6945 94.2063 62.5089 98.2269 63.5776 102.248C64.0866 104.131 63.9339 106.217 63.9339 108.253C63.9339 108.66 63.3232 109.067 63.0178 109.525C62.6106 109.169 62.1017 108.915 61.8981 108.508C60.1677 104.996 59.3025 101.331 58.7936 97.4635C57.9793 91.1526 59.557 85.4525 62.458 80.0068C62.4071 79.905 62.458 79.8541 62.5089 79.8541Z" fill="white"/>
<path d="M57.3686 40.3603C57.7249 42.4469 58.1321 44.9916 58.5901 47.4855C59.0481 49.8266 60.6259 51.1498 62.8652 51.7097C64.7483 52.2186 66.7332 52.4731 68.3109 52.7784C66.9367 52.982 65.1554 53.1856 63.425 53.5419C60.0151 54.3053 58.5901 55.9339 58.1321 59.3947C57.8776 61.176 57.6231 63.0082 57.3686 64.5859C57.1651 63.0082 57.0124 61.2778 56.7579 59.5474C56.249 55.6285 54.5186 53.8472 50.5488 53.2874C49.0729 53.0838 47.6479 52.9311 46.4773 52.7784C48.055 52.4731 49.9381 52.1168 51.7703 51.7606C54.6713 51.1498 56.1472 49.2159 56.5543 46.4167C56.8597 44.2791 57.1142 42.0907 57.3686 40.3603Z" fill="white"/>
<path d="M48.9711 60.3108C49.1747 61.5831 49.4291 63.1609 49.7345 64.6877C49.989 66.1127 51.0069 66.927 52.3301 67.2833C53.5007 67.5886 54.6712 67.7413 55.6891 67.9449C54.8239 68.0976 53.7551 68.1994 52.6864 68.403C50.5997 68.861 49.7345 69.8789 49.4291 71.9655C49.2765 73.0852 49.1238 74.154 48.9711 75.1719C48.8693 74.2049 48.7166 73.1361 48.6148 72.0673C48.3095 69.6753 47.2407 68.5556 44.7978 68.2503C43.8817 68.1485 43.0165 67.9958 42.304 67.9449C43.2709 67.7413 44.4415 67.5377 45.5612 67.2833C47.3425 66.927 48.2586 65.7056 48.513 63.9752C48.6657 62.7028 48.8184 61.3796 48.9711 60.3108Z" fill="white"/>
<path d="M197.786 40.3603C197.429 42.4469 197.022 44.9916 196.564 47.4855C196.106 49.8266 194.528 51.1498 192.289 51.7097C190.406 52.2186 188.421 52.4731 186.843 52.7784C188.217 52.982 189.999 53.1856 191.729 53.5419C195.139 54.3053 196.564 55.9339 197.022 59.3947C197.277 61.176 197.531 63.0082 197.786 64.5859C197.989 63.0082 198.142 61.2778 198.396 59.5474C198.905 55.6285 200.636 53.8472 204.605 53.2874C206.081 53.0838 207.506 52.9311 208.677 52.7784C207.099 52.4731 205.216 52.1168 203.384 51.7606C200.483 51.1498 199.007 49.2159 198.6 46.4167C198.294 44.2791 198.04 42.0907 197.786 40.3603Z" fill="white"/>
<path d="M206.234 60.3108C206.03 61.5831 205.776 63.1609 205.47 64.6877C205.216 66.1127 204.198 66.927 202.875 67.2833C201.704 67.5886 200.534 67.7413 199.516 67.9449C200.381 68.0976 201.45 68.1994 202.519 68.403C204.605 68.861 205.47 69.8789 205.776 71.9655C205.929 73.0852 206.081 74.154 206.234 75.1719C206.336 74.2049 206.488 73.1361 206.59 72.0673C206.896 69.6753 207.964 68.5556 210.407 68.2503C211.323 68.1485 212.189 67.9958 212.901 67.9449C211.934 67.7413 210.763 67.5377 209.644 67.2833C207.863 66.927 206.946 65.7056 206.692 63.9752C206.539 62.7028 206.336 61.3796 206.234 60.3108Z" fill="white"/>
</g>
<defs>
<clipPath id="clip0_703_520">
<rect width="202.253" height="203.577" fill="white" transform="translate(26.425 26.2117)"/>
</clipPath>
</defs>
</svg>
