<svg width="256" height="256" viewBox="0 0 256 256" fill="none" xmlns="http://www.w3.org/2000/svg">
<rect width="256" height="256" fill="white"/>
<path fill-rule="evenodd" clip-rule="evenodd" d="M196.547 106.623C196.542 106.181 196.489 104.399 196.49 103.705C196.584 98.3222 195.182 91.0184 194.429 87.3442C192.7 80.4008 190.627 74.3739 187.323 69.1332C186.216 67.3788 182.693 63.1473 181.898 62.9927C181.866 62.9832 181.859 63.008 181.856 63.0348C181.338 67.2682 180.819 71.5028 180.3 75.7363C180.188 76.7736 180.076 77.8112 179.964 78.8486C179.473 82.4652 178.983 86.0829 178.492 89.6995C178.153 91.7507 177.898 93.8859 177.567 95.5875C177.427 96.3165 177.287 97.0457 177.147 97.7746L177.15 97.7776C177.186 99.6348 179.695 101.229 178.36 102.738C177.034 103.813 175.955 105.131 175.124 106.312C174.662 107.055 174.199 107.798 173.737 108.541C173.772 103.218 173.821 98.2729 173.229 94.0432C172.475 89.551 170.731 84.7333 172.442 81.4636C173.195 77.9278 172.198 72.8059 171.353 70.0757C168.747 61.6475 165.692 54.032 161.135 47.6168C158.839 44.5231 157.65 42.8652 155.043 41.3526C154.994 41.83 154.365 47.519 154.029 50.5609C153.595 54.542 153.16 58.5243 152.725 62.5053C151.949 68.0299 151.869 73.5486 152.097 75.6823C152.373 77.415 153.753 77.0184 151.541 80.0305C149.238 82.7354 146.891 87.2842 145.71 90.8984C144.547 82.7275 141.496 78.1072 140.364 76.4317C139.458 75.0632 140.646 72.4498 140.863 71.3928C141.584 67.2258 140.274 62.1963 139.929 60.5707C137.616 49.5815 135.585 38.6107 130.089 30.7937C129.324 29.7983 128.619 29.0437 127.627 28C126.636 29.0437 125.931 29.7983 125.165 30.7938C119.67 38.6108 117.638 49.5816 115.326 60.5708C114.98 62.1964 113.671 67.2259 114.391 71.3929C114.608 72.4499 115.797 75.0633 114.89 76.4318C113.758 78.1073 110.707 82.7276 109.544 90.8984C108.364 87.2843 106.016 82.7355 103.713 80.0306C101.501 77.0185 102.881 77.4151 103.157 75.6824C103.385 73.5487 103.305 68.03 102.529 62.5054C102.095 58.5244 101.66 54.5421 101.225 50.561C100.889 47.5191 100.26 41.8301 100.211 41.3527C97.6048 42.8653 96.4151 44.5232 94.1191 47.6169C89.5623 54.0321 86.5079 61.6475 83.901 70.0758C83.0566 72.806 82.0595 77.9279 82.8121 81.4637C84.523 84.7334 82.7798 89.5511 82.0259 94.0433C81.4338 98.273 81.4823 103.218 81.5177 108.541C81.0552 107.799 80.5926 107.055 80.1301 106.312C79.2996 105.131 78.2202 103.813 76.8942 102.738C75.5593 101.229 78.0688 99.6349 78.1047 97.7777C78.1057 97.7767 78.1067 97.7757 78.1077 97.7747C77.9676 97.0458 77.8274 96.3166 77.6872 95.5876C77.3569 93.886 77.1016 91.7508 76.7622 89.6995C76.2716 86.083 75.781 82.4653 75.2904 78.8487C75.1783 77.8113 75.0661 76.7737 74.954 75.7363C74.4355 71.5029 73.9167 67.2683 73.3982 63.0349C73.3956 63.0081 73.388 62.9833 73.3561 62.9928C72.5613 63.1474 69.0381 67.3789 67.9318 69.1333C64.627 74.374 62.5545 80.4009 60.8254 87.3443C60.0728 91.0185 58.6709 98.3223 58.765 103.705C58.765 104.399 58.7121 106.181 58.7071 106.623C58.6406 110.107 57.5884 115.609 58.1795 122.19C58.402 124.235 58.3763 124.568 59.068 127.379C60.0033 131.14 60.975 133.983 62.9779 136.594C63.1121 136.769 63.1688 136.895 63.288 137.116C64.5187 139.259 63.9903 143.644 63.2368 144.9C63.1792 145.027 63.0476 145.242 62.9642 145.367C62.3518 146.191 62.1907 147.595 62.1941 149.156C62.1959 149.979 63.8951 165.767 64.9922 170.156C65.5996 173.205 68.761 187.954 79.9089 203.824C82.3716 207.33 86.0319 211.466 89.5693 213.845C92.7615 215.992 97.2057 217.262 102.5 217.261C105.489 217.261 108.227 217.273 110.195 216.378C110.781 216.963 110.316 220.186 110.49 221.341C110.838 223.657 111.136 224.608 112.634 225.757C114.67 227.316 116.869 227.207 120.035 227.691C121.79 227.96 127.549 227.994 127.549 227.994C127.575 227.994 127.679 227.994 127.706 227.994C130.527 228.022 133.465 227.96 135.219 227.691C138.385 227.207 140.585 227.316 142.62 225.757C144.119 224.608 144.416 223.656 144.765 221.341C144.938 220.185 144.474 216.963 145.059 216.378C147.027 217.273 149.766 217.261 152.754 217.261C158.049 217.261 162.493 215.992 165.685 213.845C169.223 211.466 172.883 207.33 175.346 203.824C186.493 187.954 189.655 173.205 190.262 170.156C191.359 165.767 193.059 149.979 193.06 149.156C193.064 147.595 192.903 146.191 192.29 145.367C192.207 145.242 192.075 145.027 192.018 144.9C191.264 143.644 190.736 139.259 191.966 137.116C192.086 136.895 192.142 136.769 192.277 136.594C194.279 133.983 195.251 131.14 196.186 127.379C196.878 124.568 196.852 124.234 197.075 122.19C197.666 115.608 196.614 110.107 196.547 106.623ZM89.2094 72.1827C91.1652 65.0821 93.4894 58.8205 96.4839 52.8782C96.8097 53.2491 97.8296 71.3683 97.5772 73.1501C97.242 73.3215 96.6083 73.272 96.2316 73.4024C95.2771 73.733 94.3596 74.2852 93.5825 74.8324C91.5187 76.2856 89.9972 78.3177 88.0319 79.7111H87.9899C87.6971 79.1481 88.7494 73.8527 89.2094 72.1827ZM95.4666 83.5606C100.794 83.1996 105.717 91.8144 106.462 102.803C107.206 113.791 103.491 122.991 98.1636 123.352C92.8361 123.713 87.9135 115.098 87.1687 104.11C86.4239 93.1221 90.139 83.9217 95.4666 83.5606ZM62.9672 101.91C63.4543 95.828 64.9843 81.5279 70.3577 72.8192C70.5285 78.0796 72.8615 97.1931 72.8736 97.3495C69.5999 97.6821 65.0747 98.9038 62.9672 101.91ZM63.4389 123.452C61.7225 111.914 66.1923 107.704 67.5273 106.941C69.2436 105.702 72.8618 105.249 76.962 113.546C81.4437 124.036 80.067 132.452 74.9178 134.931C68.8152 137.029 64.8692 130.318 63.4389 123.452ZM108.254 210.095C107.353 210.836 105.127 211.813 103.222 211.825C101.554 211.762 95.9384 211.474 93.7873 210.095C91.3776 208.725 86.4927 204.066 82.1512 196.886C77.3327 189.536 73.4652 179.677 71.1439 170.941C70.4417 168.297 67.8694 154.935 67.9991 150.656C68.0024 149.628 68.3284 148.987 68.9425 148.612C77.2668 144.161 91.0191 137.81 102.279 136.504C107.63 136.622 108.826 139.547 110.141 142.165C113.148 148.149 112.27 157.67 111.084 163.236C110.373 166.574 107.86 168.884 106.367 170.154C105.088 171.21 105.398 172.378 106.524 172.985C107.445 173.605 112.123 176.041 113.6 187.923C114.71 202.865 111.683 207.074 108.254 210.095ZM127.444 36.8106L127.674 36.2684L127.904 36.8106C127.904 36.8106 134.224 53.9475 135.418 68.7473C135.427 68.899 135.309 69.0096 135.158 68.9564C127.696 67.0448 127.466 67.0511 120.334 68.917C120.093 69.0226 119.924 68.8203 119.939 68.635C121.156 53.861 127.444 36.8106 127.444 36.8106ZM127.551 75.528C134.455 75.528 139.545 85.1212 139.545 96.5619C139.545 108.003 135.677 119.031 127.551 119.031C119.425 119.031 115.558 108.003 115.558 96.5619C115.558 85.1212 120.648 75.528 127.551 75.528ZM139.074 140.278C138.842 140.544 137.535 140.876 137.502 144.366C137.475 144.877 137.424 145.868 137.424 145.868L137.03 172.67V177.859L137.424 204.662C137.424 204.662 137.475 205.653 137.502 206.164C137.535 209.653 138.842 209.986 139.074 210.252C139.691 210.62 139.73 211.248 139.703 211.825C139.743 212.941 139.699 219.131 139.546 221.259C139.546 221.738 139.338 221.914 138.272 222.062C135.577 222.367 129.742 222.773 127.595 222.711C125.449 222.773 119.614 222.367 116.919 222.062C115.853 221.914 115.645 221.738 115.645 221.259C115.491 219.131 115.447 212.941 115.487 211.825C115.461 211.248 115.5 210.62 116.116 210.252C116.349 209.986 117.655 209.653 117.689 206.164C117.716 205.653 117.767 204.662 117.767 204.662L118.16 177.859V172.67L117.767 145.868C117.767 145.868 117.716 144.877 117.689 144.366C117.655 140.876 116.349 140.544 116.116 140.278C115.5 139.909 115.461 139.282 115.487 138.705C115.447 137.588 115.491 131.398 115.645 129.27C115.645 128.792 115.853 128.615 116.919 128.467C119.614 128.162 125.449 127.757 127.595 127.819C129.742 127.757 135.577 128.162 138.272 128.467C139.338 128.615 139.546 128.792 139.546 129.27C139.699 131.398 139.743 137.588 139.703 138.705C139.73 139.282 139.691 139.909 139.074 140.278ZM158.549 52.8782C161.544 58.8205 163.868 65.0821 165.824 72.1827C166.284 73.8527 167.336 79.1481 167.043 79.7111H167.001C165.036 78.3177 163.514 76.2856 161.451 74.8324C160.674 74.2852 159.756 73.733 158.802 73.4024C158.425 73.272 157.791 73.3215 157.456 73.1501C157.204 71.3683 158.224 53.2491 158.549 52.8782ZM148.886 102.803C149.631 91.8144 154.554 83.1996 159.881 83.5606C165.209 83.9217 168.924 93.1221 168.179 104.11C167.434 115.098 162.512 123.713 157.184 123.352C151.856 122.991 148.141 113.791 148.886 102.803ZM185.277 166.702C185.179 167.641 184.58 167.861 183.881 167.618C177.894 166.266 169.25 164.309 168.794 164.179C168.092 163.979 167.121 163.695 167.221 162.292C167.321 160.889 167.335 160.399 167.536 155.688C167.736 150.977 161.132 149.404 160.931 154.115C160.731 158.826 159.717 191.259 159.516 196.572C159.316 200.481 165.619 201.096 166.12 196.886C166.421 193.578 166.592 188.684 166.592 186.98C166.526 185.859 165.978 185.799 165.177 185.722C164.342 185.663 164.068 185.746 164.09 185.13C164.14 182.974 164.32 175.494 164.481 172.212C164.447 171.397 164.701 170.949 165.724 171.116C169.69 171.273 176.491 172.344 181.94 173.302C182.997 173.481 183.782 173.726 183.147 175.142C180.794 182.723 177.413 190.694 173.354 196.886C169.012 204.066 164.127 208.725 161.718 210.095C159.566 211.474 154.078 211.954 152.283 211.825C150.377 211.813 148.151 210.836 147.251 210.095C143.822 207.074 141.901 200.599 141.747 188.552C141.394 169.513 141.516 151.219 145.521 142.165C146.707 139.485 147.875 136.622 153.226 136.504C164.486 137.81 178.238 144.161 186.562 148.612C187.177 148.987 187.503 149.628 187.506 150.656C187.6 153.75 186.28 161.596 185.277 166.702ZM191.594 123.452C190.164 130.318 186.218 137.029 180.115 134.931C174.966 132.452 173.589 124.036 178.071 113.546C182.171 105.249 185.79 105.702 187.506 106.941C188.841 107.704 193.311 111.914 191.594 123.452ZM182.16 97.3495C182.172 97.1931 184.505 78.0796 184.675 72.8192C190.049 81.5279 191.579 95.828 192.066 101.91C189.959 98.9038 185.433 97.6821 182.16 97.3495ZM92.6866 180.061C92.2346 179.982 89.4826 179.997 89.07 180.061C88.2447 180.093 88.252 180.84 88.2837 181.633C88.2257 183.18 88.3775 192.603 88.441 193.269C88.441 194.19 88.399 195.849 89.5417 195.785C90.163 195.89 92.059 196.087 93.3156 195.785C96.257 195.312 96.5041 181.286 92.6866 180.061ZM88.9127 166.852C89.4524 166.82 91.1548 166.791 92.0576 166.38C94.3459 165.852 94.826 153.057 91.7431 153.329C90.6109 153.359 88.3819 153.423 87.9692 153.486C87.1439 153.518 87.1513 154.265 87.183 155.059C87.2147 156.456 87.4341 164.77 87.4975 165.437C87.4975 166.358 87.77 166.916 88.9127 166.852Z" fill="black"/>
</svg>
