<svg width="256" height="256" viewBox="0 0 256 256" fill="none" xmlns="http://www.w3.org/2000/svg">
<rect width="256" height="256" fill="#19191A"/>
<path d="M77.9442 80.5536L128.401 30.6682C142.425 44.9655 172.592 74.1936 178.969 80.5536C185.346 86.9134 187.057 96.6934 187.115 100.788V167.456L128.401 225.353L69.8857 167.456V100.788C69.8857 93.4249 73.0494 86.4041 77.9442 80.5536Z" fill="#19191A"/>
<path d="M128.398 228L68 168.239V100.789C68 96.988 68.7857 93.1526 70.3349 89.3896C71.7746 85.8928 73.8474 82.5147 76.4962 79.3492L76.5533 79.2811L76.6166 79.2187L128.421 28L129.748 29.3531C139.332 39.1227 156.82 56.2233 168.393 67.5393C173.918 72.942 178.283 77.2097 180.302 79.2239C181.914 80.8311 183.349 82.7409 184.567 84.9002C185.606 86.7416 186.493 88.7722 187.203 90.935C188.811 95.8296 188.985 99.6938 189 100.762V100.788V168.241L188.44 168.793L128.398 228H128.398ZM71.7711 166.673L128.403 222.706L185.229 166.67V100.802C185.169 96.81 183.506 87.7381 177.635 81.8834C175.629 79.8821 171.27 75.6203 165.752 70.225C154.685 59.4028 138.21 43.2941 128.382 33.3347L79.3358 81.8261C74.3867 87.767 71.7715 94.3225 71.7715 100.789V166.673L71.7711 166.673Z" fill="#9C9390"/>
<mask id="mask0_1041_9557" style="mask-type:luminance" maskUnits="userSpaceOnUse" x="134" y="61" width="47" height="149">
<path d="M151.956 61.1014L138.464 91.6805H152.569L155.39 84.7087C163.337 90.2862 166.878 100.406 167.654 104.769V158.466L147.172 179.015V135.592L156.984 127.642V117.612L134.294 125.44V209.838L180.41 163.725V104.769C180.41 88.2313 166.918 76.4318 160.173 72.5993L151.956 61.1014Z" fill="white"/>
</mask>
<g mask="url(#mask0_1041_9557)">
<path d="M151.956 61.1014L138.464 91.6805H152.569L155.39 84.7087C163.337 90.2862 166.878 100.406 167.654 104.769V158.466L147.172 179.015V135.592L156.984 127.642V117.612L134.294 125.44V209.838L180.41 163.725V104.769C180.41 88.2313 166.918 76.4318 160.173 72.5993L151.956 61.1014Z" fill="white"/>
</g>
<mask id="mask1_1041_9557" style="mask-type:luminance" maskUnits="userSpaceOnUse" x="76" y="61" width="47" height="149">
<path d="M105.015 61.1014L118.506 91.6805H104.401L101.581 84.7087C93.6328 90.2862 90.0927 100.406 89.3158 104.769V158.466L109.798 179.015V135.592L99.986 127.642V117.612L122.676 125.44V209.838L76.5605 163.725V104.769C76.5605 88.2313 90.0517 76.4318 96.7971 72.5993L105.015 61.1014Z" fill="white"/>
</mask>
<g mask="url(#mask1_1041_9557)">
<path d="M105.015 61.1014L118.506 91.6805H104.401L101.581 84.7087C93.6328 90.2862 90.0927 100.406 89.3158 104.769V158.466L109.798 179.015V135.592L99.986 127.642V117.612L122.676 125.44V209.838L76.5605 163.725V104.769C76.5605 88.2313 90.0517 76.4318 96.7971 72.5993L105.015 61.1014Z" fill="white"/>
</g>
<path d="M128.453 89.3682L113.667 54.4872L128.453 40.3079L143.523 54.4872L128.453 89.3682Z" fill="#9C9390"/>
</svg>
