<svg width="256" height="256" viewBox="0 0 256 256" fill="none" xmlns="http://www.w3.org/2000/svg">
<g clip-path="url(#clip0_126_4842)">
<rect width="256" height="256" fill="#2EB56D"/>
<path fill-rule="evenodd" clip-rule="evenodd" d="M90.1012 28.0037C43.2773 52.0157 36.298 113.442 77.6319 138.071C102.719 153.022 131.595 140.582 140.937 177.993C114.334 139.572 70.2328 178.861 46 104.396C47.6603 197.113 125.667 172.517 124.292 209.025C108.45 192.439 81.9481 195.41 61.426 179.265C78.2671 203.704 106.916 219.209 125.912 228C145.416 219.265 172.487 205.279 175.826 181.623C178.233 164.579 171.696 147.742 153.164 134.4C179.046 137.847 193.767 160.822 187.032 183.64C216.343 148.064 191.025 113.43 142.623 107.382C182.664 106.028 211.366 119.284 203.955 153.977C218.991 110.219 204.004 105.44 180.67 96.3383C174.663 93.9955 169.556 91.9072 165.188 86.9858C152.24 72.4087 163.093 45.5374 186.126 59.0666C187.11 44.7852 182.077 40.747 166.213 40.5898C136.858 28.7148 117.818 41.5816 103.302 79.5269L113.428 97.9326C86.3496 83.2545 86.8214 62.7755 111.912 28.0187C78.9765 41.5666 59.8956 81.1175 90.7995 111.02C57.5407 97.3189 61.8531 61.1025 90.1049 28L90.1012 28.0037Z" fill="white"/>
</g>
<defs>
<clipPath id="clip0_126_4842">
<rect width="256" height="256" fill="white"/>
</clipPath>
</defs>
</svg>
