<svg width="256" height="256" viewBox="0 0 256 256" fill="none" xmlns="http://www.w3.org/2000/svg">
<rect width="256" height="256" fill="#00C7B1"/>
<path d="M112.985 124.04L128.325 145.334L104.932 217L81.4166 202.221L93.0186 166.507C93.4698 165.333 93.7655 164.151 93.9179 162.965C94.7592 156.629 90.7385 150.801 84.5137 149.283C83.3279 148.992 82.075 148.837 80.7764 148.834L27.9971 148.815L36.0966 123.997L112.982 124.037L112.985 124.04Z" fill="black"/>
<path d="M228 108.191L219.901 133.015L143.009 132.969L127.669 111.675L151.06 40L174.581 54.7819L162.973 90.5024C162.524 91.6759 162.232 92.8586 162.073 94.0382C161.238 100.374 165.259 106.202 171.477 107.72C172.669 108.011 173.916 108.17 175.221 108.17L228 108.188V108.191Z" fill="black"/>
</svg>
