<svg width="256" height="256" viewBox="0 0 256 256" fill="none" xmlns="http://www.w3.org/2000/svg">
<rect width="256" height="256" fill="white"/>
<path d="M227.037 67.6871C227.761 66.4518 228.093 65.009 227.964 63.5662C227.807 61.81 227.558 60.4271 227.208 59.3485C226.503 57.1682 224.77 55.1677 221.418 52.6693C218.934 50.8209 215.887 48.954 212.6 47.2716C206.461 44.1325 197.085 40.3896 187.271 40.3896C186.967 40.3896 186.658 40.3896 186.354 40.3988C186.202 40.3988 186.045 40.4034 185.888 40.4034C180.776 40.4034 174.756 38.3614 169.442 36.5637C166.579 35.5911 163.873 34.6784 161.292 34.0423C159.37 33.5721 155.613 32.7747 152.059 32.7332H151.99C141.826 32.7332 135.741 34.5078 130.851 35.9368C129.62 36.2963 128.458 36.6374 127.357 36.9048C121.779 38.2692 117.331 38.85 112.491 38.85C103.097 38.85 91.8958 36.5452 76.1727 31.3826C75.4029 31.1291 74.6009 31 73.785 31C70.6275 31 67.8249 32.8807 66.6448 35.7939C63.7823 42.8695 64.9025 51.5676 69.5719 58.4911C70.2449 59.4868 70.9732 60.4271 71.7476 61.3029C50.6775 71.3517 39.8912 87.2084 34.4751 99.2438C31.2945 106.31 29.1833 113.838 28.3674 121.019C27.6115 127.657 28.031 133.506 29.5429 137.475C30.0684 138.858 31.0271 140.001 32.2348 140.766C29.423 163.606 37.3283 184.063 49.3822 194.845C50.6406 195.97 52.2586 196.592 53.941 196.592C54.5495 196.592 55.1533 196.509 55.7341 196.352C58.2233 200.685 61.1595 204.58 64.5337 208.028C74.2644 217.953 87.4153 223.885 103.618 225.651L104.355 225.692C106.937 225.692 109.214 224.254 110.343 222.05C117.644 224.046 125.324 224.996 132.1 224.996C163.583 224.996 168.589 207.535 169.303 203.064C164.297 204.852 159.287 204.396 156.65 204.202C153.35 203.958 148.653 202.142 146.021 200.529H146.011C141.886 198.003 131.925 189.692 132.155 174.407C132.501 151.557 153.594 146.053 160.84 146.404C167.492 146.722 173.756 148.603 178.928 152.76L178.956 152.783C179.039 152.852 179.126 152.922 179.209 152.991L179.467 153.207C183.607 156.466 188.788 158.264 194.052 158.264C198.366 158.264 202.589 157.084 206.262 154.858C213.375 150.543 217.62 143.007 217.62 134.7C217.62 132.644 217.404 130.759 216.952 128.929V128.92C216.929 128.818 216.906 128.717 216.873 128.62V128.611C216.27 126.311 215.32 124.186 213.919 122.019C212.785 116.7 211.457 112.92 208.161 108.172C207.802 107.652 207.373 107.191 206.898 106.794C206.958 106.794 207.023 106.794 207.083 106.794C207.996 106.794 208.885 106.619 209.729 106.278C217.164 103.254 219.722 96.3813 220.778 92.7951L220.985 92.6107C221.335 92.1728 223.322 89.4763 224.364 87.2453C224.364 87.2453 224.498 86.941 224.516 86.9088V86.9042C224.728 86.4432 224.912 86.0053 225.074 85.572C226.461 82.0918 227.411 78.3627 227.895 74.4907C228.185 72.1537 227.867 69.8213 227.028 67.7009L227.037 67.6871Z" fill="white"/>
<path d="M217.883 66.5025C214.707 64.525 211.918 61.8792 210.452 59.662C210.176 59.2425 210.669 58.7447 211.093 59.0028C213.661 60.5701 217.971 63.1468 220.981 64.4006C221.17 64.4789 221.377 64.3314 221.359 64.124C221.248 62.8886 221.082 61.9206 220.898 61.3491C219.999 58.5649 202.257 46.6032 186.52 46.995C177.236 47.2255 167.114 42.2657 159.716 40.4495C157.821 39.984 154.673 39.3617 151.995 39.334C140.203 39.334 134.621 41.9292 128.938 43.3167C115.46 46.6125 102.691 47.0457 74.1123 37.6562C73.596 37.4856 73.0014 37.753 72.7985 38.2554C68.2167 49.5856 78.4775 66.3227 95.5649 62.7043C95.8139 62.6535 95.9614 62.9716 95.7678 63.1283C92.8131 65.5022 86.581 66.2536 82.6399 65.0782C81.8701 64.8477 81.0772 64.7647 80.2982 64.8246C80.2982 64.8246 80.2982 64.8154 80.2982 64.8108C37.5726 81.299 31.442 124.605 35.8441 135.323C38.5591 125.666 42.7261 120.471 46.5704 116.654C30.9165 147.266 39.7483 177.878 54.3697 190.355C52.0603 183.206 52.0281 175.734 53.517 169.419C58.0389 197.247 74.3335 215.984 105.001 219.082C98.4413 216.173 93.8133 209.453 92.2599 205.041C105.282 219.165 145.108 223.47 156.609 210.799C151.787 210.568 145.836 208.148 142.559 206.138C133.34 200.496 125.614 189.918 125.259 175.315C125.043 166.303 128.846 156.079 137.972 147.796C119.156 151.354 90.9139 135.659 92.9974 105.393C95.0671 140.176 126.804 149.045 146.615 142.689C150.976 140.785 155.788 139.72 160.849 139.72C169.276 139.72 177.024 142.652 183.113 147.552C183.27 147.681 183.427 147.805 183.579 147.943C186.465 150.216 190.106 151.58 194.061 151.58C197.274 151.58 200.279 150.681 202.828 149.133C207.728 146.159 210.996 140.785 210.992 134.645C210.992 133.073 210.821 131.695 210.512 130.446C210.512 130.446 210.512 130.446 210.517 130.446C210.508 130.409 210.499 130.377 210.489 130.34C210.48 130.312 210.475 130.284 210.466 130.257C209.909 128.113 208.945 126.343 207.71 124.624C207.705 124.61 207.696 124.596 207.691 124.582C206.622 119.231 205.64 116.11 202.718 111.906C202.506 111.602 202.031 111.745 202.017 112.114C201.957 113.944 201.773 115.566 201.482 117.009C201.27 118.272 200.869 120.466 200.399 122.204C199.671 124.896 202.386 124.891 203.626 125.062C203.317 125.965 199.652 125.762 199.473 125.126C199.473 125.089 199.473 125.053 199.468 125.016C199.482 124.675 199.426 124.08 199.339 123.398C198.924 119.374 197.67 114.681 193.96 111.63C193.609 111.344 193.098 111.745 193.033 112.353C192.517 117.327 191.332 122.826 189.871 125.961C189.843 126.021 189.834 126.085 189.834 126.15C185.031 125.288 178.942 122.877 172.465 122.153C161.25 120.899 155.567 119.623 154.995 113.275C154.972 113.04 155.3 112.948 155.41 113.155C157.06 116.294 158.563 119.189 167.819 120.669C168.151 120.72 168.308 120.277 168.017 120.111C160.974 116.069 161.269 113.114 161.661 107.795C161.684 107.509 161.739 107.228 161.804 106.956C163.454 98.451 170.253 92.6476 175.176 89.7114C175.457 89.5408 175.31 89.1029 174.982 89.1444C168.137 89.9834 161.481 92.9473 156.659 100.359C157.162 98.8843 157.853 97.3494 158.83 95.8467C167.031 83.235 182.616 85.8071 193.918 87.8077C194.536 91.1081 194.384 95.9619 193.701 100.295C193.609 100.88 194.102 101.373 194.591 101.175C200.768 98.7276 203.497 93.3345 204.912 89.2597C206.129 89.4671 208.493 89.8312 210.881 89.7252C210.927 89.7252 210.932 89.7805 210.886 89.7851C208.876 90.0525 206.954 90.0894 206.76 90.0571C206.663 90.0433 206.617 90.1908 206.645 90.3014C207.217 92.5186 207.143 96.2154 206.645 99.4743C206.585 99.8754 206.912 100.207 207.235 100.074C213.338 97.5891 214.361 90.6517 214.993 88.8632C215.2 88.7664 215.398 88.6604 215.592 88.5452C215.624 88.5636 215.657 88.5775 215.684 88.5913C215.717 88.5267 215.753 88.4714 215.786 88.4299C215.786 88.4299 215.786 88.4299 215.79 88.4299C216.136 87.992 217.685 85.8117 218.353 84.3828C218.372 84.3459 218.385 84.309 218.399 84.2722C218.436 84.203 218.464 84.1293 218.496 84.0555C218.634 83.7559 218.763 83.4563 218.874 83.1428C220.151 79.9669 220.921 76.7218 221.308 73.6104C221.663 70.7755 220.298 68.0006 217.869 66.4933L217.883 66.5025ZM150.04 54.0061C149.34 52.1393 149.28 50.2724 150.409 48.7605C151.128 47.8017 149.607 46.6678 146.698 47.7326C147.408 47.1333 148.339 46.806 149.27 46.6816C150.206 46.5479 151.156 46.5986 152.078 46.7415C153.917 47.055 155.71 47.7556 157.185 48.8803C158.462 49.6639 159.748 50.7241 161.292 51.6783C161.172 52.9598 160.785 54.2965 159.951 55.7208C156.835 54.7114 153.903 53.5866 150.04 54.0107V54.0061ZM161.108 56.0712C162.242 55.329 163.205 54.3149 163.97 52.8814C164.076 52.9183 164.178 52.9551 164.284 52.9874C164.864 53.1718 165.445 53.3423 166.035 53.453C166.625 53.5728 167.22 53.6281 167.824 53.6374C168.428 53.6466 169.041 53.5912 169.667 53.559C168.354 54.3841 165.09 57.1129 161.108 56.0712Z" fill="black"/>
</svg>
