<svg width="256" height="256" viewBox="0 0 256 256" fill="none" xmlns="http://www.w3.org/2000/svg">
<rect width="256" height="256" fill="#FFFF00"/>
<path d="M104.201 118.92L72.3346 28C53.927 32.9472 35.8815 70.5339 52.6596 102.087C60.6865 117.231 83.7413 155.36 83.7413 155.36L104.201 118.92Z" fill="black"/>
<path d="M69.9205 145.768L60.9883 139.855L55.4962 125.255H51.5129L53.5046 144.501L77.7664 158.92L69.9205 145.768Z" fill="black"/>
<path d="M186.763 145.768L195.635 139.855L201.127 125.255H205.111L203.119 144.501L178.918 158.92L186.763 145.768Z" fill="black"/>
<path d="M128.342 184.199L100.036 179.674L128.342 228L156.346 179.795L128.342 184.199Z" fill="black"/>
<path d="M145.301 120.127L128.342 93.822L111.383 120.127L128.342 146.069L145.301 120.127Z" fill="black"/>
<path d="M168.114 160.911L149.103 127.306L128.342 158.437L107.581 127.306L88.5695 160.911L74.5073 170.021L72.5156 200.549H76.4989L81.991 174.606L89.4748 171.529L128.342 176.839L167.149 171.529L174.693 174.606L180.185 200.549H184.108L182.116 170.021L168.114 160.911Z" fill="black"/>
<path d="M152.423 118.92L184.289 28C202.697 32.9472 220.742 70.5339 203.964 102.087C195.937 117.231 172.882 155.36 172.882 155.36L152.423 118.92Z" fill="black"/>
</svg>
