<svg width="256" height="256" viewBox="0 0 256 256" fill="none" xmlns="http://www.w3.org/2000/svg">
<rect width="256" height="256" fill="white"/>
<g clip-path="url(#clip0_162_10594)">
<path d="M211.135 150.487C208.146 127.755 196.103 113.536 175.498 103.681C174.249 102.979 173.991 101.289 174.977 100.247C177.08 98.0247 179.072 95.9613 180.92 93.7737C202.446 70.6755 182.572 39.2702 156.096 31.6902C147.876 28.8732 139.395 27.4432 130.69 27.4362C112.349 27.4292 94.014 27.3169 75.6793 27.4853C67.2179 27.5675 62.288 30.6384 60.7382 37.0505L45 215.766C45.0686 224.937 49.0601 227.864 60.2387 227.871C83.5915 227.877 106.951 227.891 130.311 227.864C173.084 228.365 218.888 199.355 211.135 150.487V150.487ZM125.785 213.895C51.7999 210.465 41.6569 133.784 103.16 104.439C101.408 119.429 103.846 133.783 108.645 148.359C102.924 146.461 97.7533 144.745 92.6335 143.047C91.6164 142.709 90.5106 143.207 90.0867 144.192C83.0643 160.522 98.5185 176.879 115.132 179.595C140.055 186.226 169.414 167.719 161.305 143.809C155.585 125.42 105.097 98.9381 87.884 84.894C64.2065 66.7913 88.2799 41.556 110.578 39.1093C123.88 36.7223 136.848 37.8732 149.229 43.5768C166.688 50.9082 178.698 72.7323 160.526 86.3671C154.697 90.7288 148.435 94.4371 142.244 98.3028C140.735 99.2448 140.701 101.434 142.184 102.417C161.531 115.249 185.651 126.419 188.479 152.008C193.352 187.296 161.613 214.329 125.785 213.895Z" fill="black"/>
<path d="M143.746 51.8235C124.723 34.695 83.8906 53.5209 105.31 71.4887C110.548 75.367 115.952 79.0198 121.158 82.9385C122.766 84.1496 123.915 84.0372 125.495 83.0465C136.656 75.4429 160.12 67.4945 143.746 51.8235Z" fill="black"/>
</g>
<defs>
<clipPath id="clip0_162_10594">
<rect width="167" height="200" fill="white" transform="translate(45 28)"/>
</clipPath>
</defs>
</svg>
